<svg version="1.1" xmlns="http://www.w3.org/2000/svg" style="display: block;" viewBox="0 0 2048 904" width="800" height="353" preserveAspectRatio="none">
<path transform="translate(0,0)" fill="rgb(192,167,128)" d="M 468.509 433.77 C 474.373 433.726 484.459 440.078 491.157 440.771 C 494.659 441.133 498.842 444.052 500.411 447.571 C 501.439 455.132 495.563 458.904 492.636 464.694 C 491.866 466.217 489.762 471.962 488.901 473.996 C 470.427 487.783 471.88 468.317 466.215 458.556 C 458.167 444.691 453.566 444.306 468.509 433.77 z"/>
<path transform="translate(0,0)" fill="rgb(192,167,128)" d="M 676.5 455.218 C 674.857 465.595 664.515 466.409 656.783 472.067 C 655.533 472.982 652.866 474.336 651.413 474.915 C 643.116 478.219 633.57 475.102 634.886 464.657 C 635.389 461.908 638.222 458.015 638.572 455.361 C 640.276 442.441 639.562 422.445 659.051 434.912 C 665.812 450.85 668.983 446.042 676.5 455.218 z"/>
<path transform="translate(0,0)" fill="rgb(192,167,128)" d="M 953.129 429.907 C 962.921 430.747 964.123 435.676 967.942 443.86 C 970.472 449.281 975.522 458.096 975.136 463.943 C 971.272 469.828 962.169 467.547 955.779 470.548 C 919.473 489.397 941.489 434.686 953.129 429.907 z"/>
<path transform="translate(0,0)" fill="rgb(192,167,128)" d="M 1913.08 120.194 C 1919.76 143.04 1888.01 132.01 1879.22 126.915 C 1875.39 124.697 1865.03 117.878 1869.97 112.306 C 1876.45 104.988 1890.58 99.4004 1899.6 95.5776 C 1902.02 94.5849 1902.81 95.2226 1904.74 96.4079 C 1907.75 100.868 1908.16 107.333 1909.08 112.898 C 1910.37 115.757 1911.11 117.736 1913.08 120.194 z"/>
<path transform="translate(0,0)" fill="rgb(192,167,128)" d="M 1845.28 385.953 C 1851.92 388.772 1856.2 392.727 1862.05 394.929 C 1863.94 395.011 1867.96 396.358 1869.61 397.282 C 1876.76 400.385 1872.46 410.765 1867.72 413.822 C 1860.15 418.707 1862.17 427.271 1854 430.626 C 1841.18 435.889 1839.42 422.041 1838.22 413.049 C 1836.71 401.733 1826.53 387.764 1845.28 385.953 z"/>
<path transform="translate(0,0)" fill="rgb(192,167,128)" d="M 1107.67 560.981 C 1110.19 561.018 1115.05 561.165 1116.66 563.19 C 1121.56 569.36 1134.27 581.023 1134.94 588.56 C 1133.37 593.898 1123.64 597.466 1118.05 600.668 C 1097.15 617.82 1094.71 595.884 1098.45 579.985 C 1100.35 571.912 1099.84 565.364 1107.67 560.981 z"/>
<path transform="translate(0,0)" fill="rgb(192,167,128)" d="M 1318.6 612.825 C 1315.42 616.187 1311.53 618.438 1306.8 618.214 C 1297.38 614.837 1298.84 602.765 1296 594.858 C 1293.99 589.251 1290.55 586.299 1291.84 579.966 C 1296.14 572.46 1304.72 572.867 1311.6 576.418 C 1316.96 579.794 1331.16 586.361 1333.17 590.592 C 1331.59 594.827 1322.54 604.794 1318.6 612.825 z"/>
<path transform="translate(0,0)" fill="rgb(192,167,128)" d="M 1451.81 716.03 C 1450.54 720.228 1447.07 723.923 1443.8 726.73 C 1442.17 727.104 1440.14 727.888 1438.32 726.839 C 1428.53 721.204 1425.53 706.027 1418.41 697.186 C 1416.07 694.29 1417.39 686.301 1422.21 685.16 C 1430.86 683.111 1434.07 684.837 1441.61 688.853 C 1460.09 684.974 1462.41 692.234 1454.17 707.081 C 1453.22 710.178 1452.34 712.821 1451.81 716.03 z"/>
<path transform="translate(0,0)" fill="rgb(192,167,128)" d="M 1203.35 741.265 C 1200.98 741.386 1191.58 740.753 1191.25 738.042 C 1189.06 720.14 1193.94 673.08 1218.49 708.629 C 1222.83 714.919 1226.48 714.871 1229.78 723.606 C 1225.96 729.829 1219.78 730.539 1213.59 734.347 C 1210.22 736.423 1206.52 739.767 1203.35 741.265 z"/>
<path transform="translate(0,0)" fill="rgb(192,167,128)" d="M 962.824 601.034 C 965.16 601.338 969.072 601.807 970.63 603.594 C 975.276 608.925 978.862 634.73 974.61 639.69 C 970.55 640.776 956.185 640.139 950.246 640.397 C 948.761 640.752 943.34 639.831 941.969 639.3 C 924.902 632.679 955.279 603.956 962.824 601.034 z"/>
<path transform="translate(0,0)" fill="rgb(192,167,128)" d="M 1698.79 388.813 C 1701.02 389.04 1701.25 389.416 1703.13 390.83 C 1711.49 405.568 1716.84 447.202 1687.69 423.476 C 1681.94 419.949 1670.91 419.813 1667.74 413.123 C 1661.86 400.716 1690.25 393.323 1698.79 388.813 z"/>
<path transform="translate(0,0)" fill="rgb(192,167,128)" d="M 327.778 354.681 C 354.247 347.344 342.696 356.463 346.435 372.996 C 351.1 393.614 339.856 395.663 323.23 384.713 C 313.612 378.379 296.724 363.763 316.58 355.988 C 319.7 355.983 324.55 355.139 327.778 354.681 z"/>
<path transform="translate(0,0)" fill="rgb(192,167,128)" d="M 281.417 492.885 C 308.183 499.34 318.022 485.256 307.658 521.825 C 305.834 528.259 308.517 526.984 302.225 532.582 C 288.806 539.509 286.487 527.921 282.392 517.644 C 269.175 508.373 265.767 501.6 281.417 492.885 z"/>
<path transform="translate(0,0)" fill="rgb(192,167,128)" d="M 210.455 604.868 C 214.027 606.174 215.423 607.903 216.587 611.598 C 221.716 627.886 228.628 661.911 199.01 639.813 C 190.919 634.79 185.496 636.696 179.734 630.121 C 178.573 628.796 177.503 625.976 177.997 624.214 C 180.55 615.104 193.245 613.254 200.617 610.468 C 203.439 609.401 208.069 606.42 210.455 604.868 z"/>
<path transform="translate(0,0)" fill="rgb(192,167,128)" d="M 533.079 338.349 C 527.564 334.257 522.562 331.603 520.607 324.693 C 517.681 314.348 529.911 312.309 537.334 313.119 C 540.047 314.631 541.35 314.684 544.394 315.182 C 550.174 314.795 556.871 313.419 561.172 317.096 C 565.269 327.19 548.736 380.769 533.079 338.349 z"/>
<path transform="translate(0,0)" fill="rgb(192,167,128)" d="M 1973.41 237.718 C 1972.09 237.321 1970.78 236.896 1969.48 236.442 C 1964.07 234.538 1959.18 231.509 1956.63 226.209 C 1956.23 211.711 1978.53 211.627 1988.51 208.654 C 1991.57 207.74 1993.16 209.045 1995.34 210.734 C 1997.45 213.979 1997.07 217.955 1997.12 221.883 C 1997.08 229.115 1997.13 232.533 1998.76 239.641 C 1991.81 257.06 1981.4 247.467 1973.41 237.718 z"/>
<path transform="translate(0,0)" fill="rgb(192,167,128)" d="M 760.164 364.035 C 769.263 363.739 767.381 365.877 773.806 369.694 C 779.544 373.103 788.127 372.504 791.85 379.595 C 793.017 386.372 783.514 393.03 778.89 404.296 C 762.332 421.839 759.656 397.074 757.279 387.679 C 754.229 375.623 744.969 374.033 760.164 364.035 z"/>
<path transform="translate(0,0)" fill="rgb(192,167,128)" d="M 817.013 501.64 C 819.199 501.662 823.753 501.775 825.934 503.682 C 832.231 509.192 838.679 530.319 836.268 537.727 C 835.205 540.994 821.212 540.631 816.557 541.204 C 777.503 552.342 806.992 512.458 817.013 501.64 z"/>
<path transform="translate(0,0)" fill="rgb(192,167,128)" d="M 1798.09 265.771 C 1801.05 262.316 1803.9 257.871 1808.04 256.377 C 1812.41 256.533 1810.87 256.185 1814.79 259.08 C 1820.17 268.823 1818.9 273.286 1827.55 279.828 C 1837.48 303.743 1792.44 294.901 1784.84 286.482 C 1779.93 281.047 1787.23 273.522 1791.63 270.432 C 1794.83 269.529 1796.11 268.22 1798.09 265.771 z"/>
<path transform="translate(0,0)" fill="rgb(192,167,128)" d="M 118.949 760.129 C 124.706 757.128 135.558 749.969 140.043 748.375 C 146.18 750.485 147.711 764.385 151.204 770.159 C 153.272 772.603 155.679 777.107 154.932 780.4 C 151.68 794.724 114.955 782.189 109.987 774.35 C 106.695 769.155 113.892 762.68 118.949 760.129 z"/>
<path transform="translate(0,0)" fill="rgb(192,167,128)" d="M 70.1641 659.728 L 73.3935 660.156 C 78.217 662.956 90.409 687.346 87.8309 694.279 C 87.1671 696.114 85.7779 697.595 83.9891 698.375 C 78.3496 700.883 72.5487 698.346 67.2711 696.277 C 61.6369 693.263 50.9878 696.374 45.792 690.883 C 36.1578 680.701 63.278 665.015 70.1641 659.728 z"/>
<path transform="translate(0,0)" fill="rgb(192,167,128)" d="M 141.449 504.713 C 146.909 505.174 148.796 507.784 150.789 512.539 C 153.944 520.066 161.706 533.595 157.181 541.639 C 153.024 549.027 144.24 544.007 139.205 541.217 C 130.884 537.933 107.872 540.585 116.815 522.222 C 118.996 517.743 126.427 516.082 130.99 514.953 C 134.968 510.468 136.841 508.531 141.449 504.713 z"/>
<path transform="translate(0,0)" fill="rgb(192,167,128)" d="M 1521.24 511.957 C 1531.32 512.35 1533.67 542.246 1528.72 548.78 C 1522.81 556.574 1513.35 548.909 1507.97 544.727 C 1500.98 538.497 1488.11 538.105 1488.99 527.372 C 1494.27 518.311 1510.71 515.825 1521.24 511.957 z"/>
<path transform="translate(0,0)" fill="rgb(192,167,128)" d="M 1676.4 556.113 C 1681.39 556.625 1686.54 557.22 1690.77 559.918 C 1691.7 561.464 1692.36 561.843 1691.85 563.549 C 1683.18 591.317 1676.81 611.274 1656.94 574.512 C 1650.76 563.077 1648.48 547.92 1667.78 553.402 C 1670.41 554.27 1673.77 555.481 1676.4 556.113 z"/>
<path transform="translate(0,0)" fill="rgb(71,61,48)" fill-opacity="0.0392157" d="M 1331.91 566.081 L 1332.16 569.336 L 1334.13 570.687 C 1331.61 573.968 1331.06 574.589 1330.91 578.647 C 1333.17 584.07 1335.33 583.641 1340.81 584.654 L 1335.95 585.365 L 1335.59 586.489 C 1340.5 588.246 1341.09 588.294 1346.48 587.847 C 1339.85 589.692 1335.75 591.25 1335.58 598.905 C 1336.99 601.667 1338.61 603.827 1341.79 604.65 C 1339.78 605.866 1340.17 605.234 1339.43 607.089 C 1331.24 605.272 1325.39 603.644 1321.53 612.95 L 1318.6 612.825 C 1322.54 604.794 1331.59 594.827 1333.17 590.592 C 1331.16 586.361 1316.96 579.794 1311.6 576.418 L 1313.11 574.639 C 1321.53 577.791 1328.62 574.548 1331.91 566.081 z"/>
<path transform="translate(0,0)" fill="rgb(71,61,48)" fill-opacity="0.0117647" d="M 142.462 739.98 L 145.548 739.92 C 146.209 746.633 146.88 750.909 154.37 751.766 C 158.153 750.635 159.583 749.242 161.725 745.747 L 162.032 746.315 C 163.143 748.392 163.44 748.979 164.087 751.34 L 166.337 751.971 C 156.697 754.226 152.431 758.921 153.045 769.06 L 151.204 770.159 C 147.711 764.385 146.18 750.485 140.043 748.375 C 135.558 749.969 124.706 757.128 118.949 760.129 L 117.699 757.591 C 122.962 754.734 123.186 753.863 125.856 748.487 C 125.82 745.972 125.513 744.632 126.916 742.598 C 133.72 747.944 137.626 746.458 142.462 739.98 z"/>
<path transform="translate(0,0)" fill="rgb(192,167,128)" d="M 346.194 327.014 C 349.686 327.089 351.115 326.846 353.717 329.142 C 357.044 337.638 349.025 345.077 342.438 349.339 C 327.512 344.666 333.94 331.568 346.194 327.014 z"/>
<path transform="translate(0,0)" fill="rgb(192,167,128)" d="M 66.2119 634.804 C 79.467 635.922 76.9727 651.846 67.4512 657.737 C 50.8216 656.38 55.1324 642.116 66.2119 634.804 z"/>
<path transform="translate(0,0)" fill="rgb(192,167,128)" d="M 578.803 305.875 C 582.307 306.754 582.743 306.908 585.404 309.331 C 589.125 318.75 580.832 324.178 573.41 328.028 C 558.507 320.34 566.945 310.23 578.803 305.875 z"/>
<path transform="translate(0,0)" fill="rgb(192,167,128)" d="M 1882.21 381.234 C 1886.78 381.623 1890.53 381.835 1893.88 385.036 C 1896.46 392.616 1888.6 395.066 1882.98 397.616 C 1868.48 400.152 1865.28 383.603 1882.21 381.234 z"/>
<path transform="translate(0,0)" fill="rgb(192,167,128)" d="M 1543.24 496.587 C 1556.2 499.662 1548.8 515.5 1540.37 520.906 C 1523.47 512.494 1532.72 504.89 1543.24 496.587 z"/>
<path transform="translate(0,0)" fill="rgb(192,167,128)" d="M 332.857 489.117 L 334.851 489.448 C 344.513 497.246 332.733 507.87 323.252 509.683 C 307.908 499.848 321.865 492.058 332.857 489.117 z"/>
<path transform="translate(0,0)" fill="rgb(192,167,128)" d="M 85.2019 636.585 C 94.2681 639.742 98.5915 653.068 88.1339 660.695 C 84.6731 661.143 82.4428 661.812 79.4925 660.023 C 72.994 652.178 80.0417 643.353 85.2019 636.585 z"/>
<path transform="translate(0,0)" fill="rgb(192,167,128)" d="M 126.916 742.598 C 127.79 738.687 127.246 721.433 139.081 722.802 C 146.158 723.621 144.588 734.481 142.462 739.98 C 137.626 746.458 133.72 747.944 126.916 742.598 z"/>
<path transform="translate(0,0)" fill="rgb(192,167,128)" d="M 158.044 483.394 C 170.756 484.843 167.881 500.105 159.791 507.911 C 141.201 506.077 151.134 491.507 158.044 483.394 z"/>
<path transform="translate(0,0)" fill="rgb(192,167,128)" d="M 1898.57 68.6606 C 1909.98 68.3952 1909.97 87.3386 1895.91 91.2919 C 1892.46 91.0729 1891.88 91.1043 1889.18 88.9578 C 1885.03 80.5853 1892.34 73.6504 1898.57 68.6606 z"/>
<path transform="translate(0,0)" fill="rgb(192,167,128)" d="M 1701.92 363.736 C 1705.72 363.87 1706.24 364.739 1708.28 367.266 C 1710.67 376.278 1703.76 383.153 1696.05 386.395 C 1693.46 385.188 1691.02 384.228 1689.81 381.501 C 1688.81 379.28 1688.78 376.741 1689.74 374.499 C 1692.19 368.68 1696.42 366.04 1701.92 363.736 z"/>
<path transform="translate(0,0)" fill="rgb(192,167,128)" d="M 1816.01 258.27 C 1815.65 257.19 1815.33 256.093 1815.08 254.983 C 1813.36 247.654 1813.65 238.158 1822.5 236.284 C 1833.8 237.566 1832.27 249.151 1827.14 256.48 C 1823.05 257.889 1820.41 258.814 1816.01 258.27 z"/>
<path transform="translate(0,0)" fill="rgb(192,167,128)" d="M 505.415 422.908 C 509.593 422.512 514.304 423.285 517.684 425.912 C 521.255 433.276 515.275 436.251 509.909 440.197 C 504.901 441.432 501.032 441.483 497.623 437.329 C 494.847 429.782 500.084 426.545 505.415 422.908 z"/>
<path transform="translate(0,0)" fill="rgb(192,167,128)" d="M 229.805 588.66 C 243.706 591.96 236.829 606.278 227.181 611.93 C 224.134 611.164 221.286 610.521 219.548 607.669 C 218.422 605.83 218.104 603.608 218.669 601.526 C 220.269 595.434 224.733 591.759 229.805 588.66 z"/>
<path transform="translate(0,0)" fill="rgb(192,167,128)" d="M 145.548 739.92 C 148.933 733.48 150.797 728.055 159.171 729.697 C 164.241 733.505 163.481 740.342 161.725 745.747 C 159.583 749.242 158.153 750.635 154.37 751.766 C 146.88 750.909 146.209 746.633 145.548 739.92 z"/>
<path transform="translate(0,0)" fill="rgb(192,167,128)" d="M 1232.8 727.447 C 1240.35 726.794 1250.7 727.013 1250.97 736.611 C 1247.41 744.974 1238.18 744.417 1230.88 742.095 C 1228.36 735.434 1227.12 732.307 1232.8 727.447 z"/>
<path transform="translate(0,0)" fill="rgb(192,167,128)" d="M 1916.82 75.5782 C 1928.71 77.4514 1927.84 92.6654 1915.75 99.4043 C 1899.57 97.1943 1909.71 81.9844 1916.82 75.5782 z"/>
<path transform="translate(0,0)" fill="rgb(192,167,128)" d="M 804.693 378.273 C 809.885 377.85 814.257 376.969 818.262 380.942 C 820.786 388.35 815.661 390.445 810.06 393.805 C 803.77 394.616 800.987 394.976 796.648 390.162 C 794.434 382.743 798.564 381.002 804.693 378.273 z"/>
<path transform="translate(0,0)" fill="rgb(192,167,128)" d="M 1346.48 587.847 C 1352.56 588.183 1357.98 587.947 1358.96 594.905 C 1355.91 602.356 1349.2 604.275 1341.79 604.65 C 1338.61 603.827 1336.99 601.667 1335.58 598.905 C 1335.75 591.25 1339.85 589.692 1346.48 587.847 z"/>
<path transform="translate(0,0)" fill="rgb(192,167,128)" d="M 679.67 461.896 C 686.675 462.549 697.084 464.843 697.477 473.298 C 695.851 476.587 694.892 476.864 691.512 478.452 C 689.483 478.779 687.428 478.921 685.373 478.876 C 674.568 478.684 669.883 469.862 679.67 461.896 z"/>
<path transform="translate(0,0)" fill="rgb(192,167,128)" d="M 1707.34 553.736 C 1722.82 552.645 1720.47 567.078 1708.68 571.792 C 1702.29 572.436 1700.88 573.216 1697.11 568.048 C 1696.05 560.33 1701.48 556.987 1707.34 553.736 z"/>
<path transform="translate(0,0)" fill="rgb(192,167,128)" d="M 797.624 358.046 C 804.1 357.848 813.424 359.427 814.23 367.067 C 813.11 370.003 809.811 371.405 806.989 373.042 C 801.322 374.835 795.747 375.325 791.399 370.865 C 789.168 364.365 792.324 361.53 797.624 358.046 z"/>
<path transform="translate(0,0)" fill="rgb(192,167,128)" d="M 1236.6 706.897 C 1243.67 706.814 1255.13 709.046 1254.88 717.901 C 1253.26 720.884 1251.6 721.183 1248.4 722.408 C 1247.02 722.563 1245.63 722.694 1244.24 722.8 C 1232.36 723.7 1226.34 716.231 1236.6 706.897 z"/>
<path transform="translate(0,0)" fill="rgb(192,167,128)" d="M 1334.13 570.687 C 1341.36 567.979 1350.13 566.152 1353.78 575.023 C 1353.38 582.012 1347.24 584.691 1340.81 584.654 C 1335.33 583.641 1333.17 584.07 1330.91 578.647 C 1331.06 574.589 1331.61 573.968 1334.13 570.687 z"/>
<path transform="translate(0,0)" fill="rgb(192,167,128)" d="M 1716.79 372.732 C 1728.95 372.715 1729.12 388.446 1717 394.592 C 1713.34 394.77 1712.56 394.955 1709.42 393.126 C 1704.38 385.333 1711.1 377.964 1716.79 372.732 z"/>
<path transform="translate(0,0)" fill="rgb(192,167,128)" d="M 1143.97 570.822 C 1150.73 571.669 1161.98 575.628 1161.19 583.956 C 1159.36 586.721 1158.22 586.796 1155.05 587.762 C 1153.88 587.759 1152.7 587.743 1151.53 587.712 C 1139.03 587.371 1131.72 580.617 1143.97 570.822 z"/>
<path transform="translate(0,0)" fill="rgb(192,167,128)" d="M 977.816 467.942 C 984.755 468.926 993.364 472.93 993.532 480.831 C 990.817 484.277 991.425 483.314 986.901 485.146 C 972.678 486.378 963.018 477.245 977.816 467.942 z"/>
<path transform="translate(0,0)" fill="rgb(192,167,128)" d="M 141.5 478.817 C 150.592 482.346 148.964 499.233 137.384 502.851 C 122.35 496.216 131.481 484.838 141.5 478.817 z"/>
<path transform="translate(0,0)" fill="rgb(192,167,128)" d="M 315.83 474.095 C 321 473.833 325.517 474.458 326.705 479.978 C 325.01 486.059 321.478 487.679 316.277 490.807 C 312.759 491.707 311.567 492.222 308.13 491.214 C 299.627 484.289 306.798 476.095 315.83 474.095 z"/>
<path transform="translate(0,0)" fill="rgb(192,167,128)" d="M 511.598 443.193 C 518.314 442.769 521.992 441.334 526.827 446.633 C 528.117 452.812 523.118 455.942 517.93 458.134 C 512.194 458.878 508.95 460.334 504.714 455.718 C 502.549 449.301 506.223 446.169 511.598 443.193 z"/>
<path transform="translate(0,0)" fill="rgb(192,167,128)" d="M 211.153 580.834 C 214.276 580.928 215.558 580.697 218.003 582.627 C 222.808 590.887 215.485 598.412 209.406 603.594 C 195.566 598.208 200.293 586.84 211.153 580.834 z"/>
<path transform="translate(0,0)" fill="rgb(192,167,128)" d="M 986.014 630.027 C 999.302 629.064 1006.27 639.304 998.348 650.259 C 993.084 648.613 990.318 647.185 985.446 644.756 C 983.489 642.049 981.414 639.772 981.039 636.496 C 982.406 632.298 982.293 633.337 986.014 630.027 z"/>
<path transform="translate(0,0)" fill="rgb(192,167,128)" d="M 1804.41 231.657 C 1813.78 236.415 1812.29 253.491 1801.47 255.964 C 1799.04 254.659 1796.51 253.177 1794.87 250.88 C 1793.5 248.949 1792.99 246.546 1793.43 244.224 C 1794.5 238.706 1800.08 234.628 1804.41 231.657 z"/>
<path transform="translate(0,0)" fill="rgb(192,167,128)" d="M 1888.79 401.274 C 1893.79 400.55 1896.7 399.756 1899.63 404.142 C 1900 411.114 1893.44 415.09 1887.98 417.577 C 1882.17 418.258 1879.22 416.374 1877.02 411.213 C 1877.29 403.22 1881.85 402.056 1888.79 401.274 z"/>
<path transform="translate(0,0)" fill="rgb(192,167,128)" d="M 1476.97 687.199 C 1481.23 687.384 1483.19 687.201 1485.33 691.143 C 1485.36 698.136 1478.11 702.365 1472.55 704.769 C 1466.64 704.465 1463.8 704.087 1462.48 697.826 C 1464.21 689.864 1470.07 688.345 1476.97 687.199 z"/>
<path transform="translate(0,0)" fill="rgb(192,167,128)" d="M 2010.98 195.109 C 2024.93 198.879 2018.6 212.594 2006.78 217.076 C 1993.35 210.234 2000.53 200.308 2010.98 195.109 z"/>
<path transform="translate(0,0)" fill="rgb(192,167,128)" d="M 362.34 337.853 C 363.072 337.923 363.786 338.123 364.448 338.445 C 371.767 341.934 370.789 356.736 358.913 359.978 C 341.21 354.617 353.717 344.268 362.34 337.853 z"/>
<path transform="translate(0,0)" fill="rgb(192,167,128)" d="M 1995.22 184.138 C 1998.35 184.113 1999.56 183.85 2002.13 185.637 C 2006.35 194.119 1997.24 200.841 1990.57 204.469 C 1988.6 204.692 1987.47 203.9 1985.64 203.04 C 1979.24 195.34 1986.42 186.551 1995.22 184.138 z"/>
<path transform="translate(0,0)" fill="rgb(192,167,128)" d="M 1693.28 538.173 C 1699.3 537.759 1708.5 536.724 1709.2 544.355 C 1707.7 548.01 1703.83 550.456 1700.63 552.951 C 1687.42 558.338 1680.19 545.753 1693.28 538.173 z"/>
<path transform="translate(0,0)" fill="rgb(192,167,128)" d="M 971.782 644.756 C 979.749 644.497 988.864 648.753 989.837 658.073 C 990.091 660.503 987.904 661.579 986.067 663.175 C 974.069 663.538 963.209 657.332 971.782 644.756 z"/>
<path transform="translate(0,0)" fill="rgb(192,167,128)" d="M 1525.03 488.008 C 1529.84 487.929 1528.9 487.306 1532.76 489.334 C 1536.54 496.812 1529.92 504.777 1524.1 509.139 C 1509.03 504.396 1514.05 494.216 1525.03 488.008 z"/>
<path transform="translate(0,0)" fill="rgb(192,167,128)" d="M 985.774 448.78 C 995.444 450.822 1006.8 459.727 995.629 468.753 C 983.127 466.977 973.096 459.853 985.774 448.78 z"/>
<path transform="translate(0,0)" fill="rgb(192,167,128)" d="M 1142.37 591.814 C 1148.64 591.562 1156.81 594.348 1158.85 600.86 C 1157.12 604.768 1156.78 604.082 1152.7 606.919 C 1139.59 611.311 1127.57 600.192 1142.37 591.814 z"/>
<path transform="translate(0,0)" fill="rgb(192,167,128)" d="M 565.591 292.024 C 569.14 292.204 569.586 292.279 572.669 294.027 C 577.254 301.197 567.863 307.67 562.295 310.696 C 558.21 310.072 556.42 309.432 553.705 306.489 C 551.004 297.705 558.268 294.043 565.591 292.024 z"/>
<path transform="translate(0,0)" fill="rgb(192,167,128)" d="M 685.557 442.059 C 691.736 443.159 698.65 444.445 699.204 452.074 C 695.503 461.786 684.249 459.573 677.578 454.47 C 678.373 446.611 677.897 444.654 685.557 442.059 z"/>
<path transform="translate(0,0)" fill="rgb(192,167,128)" d="M 848.824 527.073 C 855.733 528.286 863.498 533.058 862.321 541.038 C 860.745 544.257 859.881 544.498 856.663 546.179 C 849.866 544.273 841.956 541.027 841.61 533.266 C 842.855 529.987 845.739 528.841 848.824 527.073 z"/>
<path transform="translate(0,0)" fill="rgb(192,167,128)" d="M 834.212 544.936 C 841.801 545.152 850.723 547.69 851.317 556.529 C 849.489 560.037 850.135 558.972 846.474 561.229 C 839.364 561.223 829.88 560.47 829.352 551.488 C 830.751 547.861 831.241 547.497 834.212 544.936 z"/>
<path transform="translate(0,0)" fill="rgb(192,167,128)" d="M 1465.56 670.13 C 1468.98 670.352 1469.82 670.562 1473.12 671.543 C 1475.55 674.115 1474.98 672.837 1475.28 676.338 C 1473.36 681.511 1469.85 683.575 1465.19 686.225 C 1458.93 686.761 1455.92 687.073 1453.66 680.488 C 1454.49 673.176 1458.93 671.272 1465.56 670.13 z"/>
<path transform="translate(0,0)" fill="rgb(192,167,128)" d="M 1829.74 257.933 C 1832.62 256.163 1833.01 255.916 1836.38 256.249 C 1843.88 262.372 1838.08 272.327 1832.86 277.945 C 1818.57 273.903 1823.7 266.264 1829.74 257.933 z"/>
<path transform="translate(0,0)" fill="rgb(192,167,128)" d="M 1789.37 269.022 C 1770.71 268.898 1779.81 246.026 1790.09 249.713 C 1793.91 253.478 1794.63 258.723 1794.89 263.883 C 1792.95 265.573 1791.09 267.105 1789.37 269.022 z"/>
<path transform="translate(0,0)" fill="rgb(192,167,128)" d="M 117.699 757.591 C 107.01 753.773 108.127 740.124 117.325 736.019 C 124.538 736.503 124.731 742.285 125.856 748.487 C 123.186 753.863 122.962 754.734 117.699 757.591 z"/>
<path transform="translate(0,0)" fill="rgb(192,167,128)" d="M 662.092 433.402 C 667.512 426.858 675.967 425.234 682.676 430.831 C 684.307 434.335 684.021 432.914 683.412 436.797 L 680.228 440.793 C 677.055 440.034 669.8 443.895 665.571 441.412 C 662.964 438.735 662.886 437.111 662.092 433.402 z"/>
<path transform="translate(0,0)" fill="rgb(192,167,128)" d="M 361.332 363.079 C 365.179 363.975 366.294 364.714 368.177 368.054 C 368.177 374.951 362.1 379.527 356.34 382.139 C 351.575 379.349 349.967 376.73 346.848 372.374 C 351.693 367.66 355.386 365.786 361.332 363.079 z"/>
<path transform="translate(0,0)" fill="rgb(192,167,128)" d="M 167.572 506.679 C 181.7 509.331 172.292 522.84 163.464 527.587 C 150.968 525.651 159.065 511.322 167.572 506.679 z"/>
<path transform="translate(0,0)" fill="rgb(192,167,128)" d="M 295.268 472.972 C 298.351 473.08 298.699 473.154 301.383 474.656 C 305.768 482.678 298.409 488.921 291.805 492.517 C 287.113 490.538 284.989 489.095 284.333 483.991 C 286.104 478.244 290.373 476.055 295.268 472.972 z"/>
<path transform="translate(0,0)" fill="rgb(192,167,128)" d="M 1223.39 691.996 C 1229.96 691.935 1237.46 694.017 1236.91 701.853 C 1235.05 705.096 1233.71 705.405 1230.22 706.911 C 1223.44 707.114 1216.17 706.954 1216.64 698.204 C 1218.28 694.672 1219.98 694.02 1223.39 691.996 z"/>
<path transform="translate(0,0)" fill="rgb(192,167,128)" d="M 322.712 512.015 C 327.466 513.036 330.502 513.846 330.841 519.106 C 327.78 525.179 323.542 526.344 317.477 528.743 C 315.125 529.103 313.77 528.059 311.573 526.948 C 310.002 524.199 310.478 524.853 310.481 521.362 C 314.087 514.207 315.023 514.555 322.712 512.015 z"/>
<path transform="translate(0,0)" fill="rgb(192,167,128)" d="M 838.788 506.828 C 844.722 506.651 854.578 510.47 855.74 517.041 C 854.497 520.831 855.045 519.636 851.526 522.326 C 841.062 523.907 828.379 518.181 838.788 506.828 z"/>
<path transform="translate(0,0)" fill="rgb(192,167,128)" d="M 953.127 642.516 L 957.479 642.967 C 963.844 647.08 970.424 658.007 960.548 661.919 C 954.174 659.341 948.54 657.517 947.57 650.284 C 948.45 646.693 950.477 645.163 953.127 642.516 z"/>
<path transform="translate(0,0)" fill="rgb(192,167,128)" d="M 1543.16 522.164 C 1546.35 522.577 1547.06 522.573 1549.9 524.204 C 1554.01 531.992 1545.82 537.356 1539.44 540.295 C 1535.81 540.687 1534.09 539.322 1532.35 536.423 C 1531.86 529.061 1537.15 524.953 1543.16 522.164 z"/>
<path transform="translate(0,0)" fill="rgb(192,167,128)" d="M 1457.39 709.663 C 1463.63 707.705 1468.9 705.728 1473.14 711.746 C 1474.08 721.748 1459.62 730.941 1453.67 715.939 C 1454.72 713.526 1455.95 711.839 1457.39 709.663 z"/>
<path transform="translate(0,0)" fill="rgb(192,167,128)" d="M 1121.96 601.759 C 1128.6 602.82 1135.92 604.898 1136.64 612.413 C 1134.56 616.343 1135.04 615.251 1130.86 617.88 C 1123.72 617.914 1116.76 615.662 1116.3 607.592 C 1118.29 603.537 1117.89 604.629 1121.96 601.759 z"/>
<path transform="translate(0,0)" fill="rgb(192,167,128)" d="M 1678.46 373.664 C 1690.61 373.589 1687.78 388.927 1679.95 395.266 C 1666.72 391.581 1670.33 380.902 1678.46 373.664 z"/>
<path transform="translate(0,0)" fill="rgb(192,167,128)" d="M 1506.32 493.648 C 1514.51 498.936 1510.71 514.316 1502.35 515.541 C 1488.85 506.25 1496.01 500.483 1506.32 493.648 z"/>
<path transform="translate(0,0)" fill="rgb(192,167,128)" d="M 1851.62 385.331 C 1853.37 375.814 1862.74 369.687 1870.73 375.936 C 1873.98 383.364 1865.96 387.817 1859.83 390.034 C 1855.67 389.245 1854.83 388.215 1851.62 385.331 z"/>
<path transform="translate(0,0)" fill="rgb(192,167,128)" d="M 1973.49 189.786 C 1976.22 189.714 1976.82 190.341 1978.98 191.858 C 1983.44 198.696 1976.91 206.782 1971.43 210.76 C 1959.02 202.568 1962.83 196.484 1973.49 189.786 z"/>
<path transform="translate(0,0)" fill="rgb(192,167,128)" d="M 1313.11 574.639 C 1307.42 562.884 1320.54 558.404 1329.82 561.76 C 1331.51 562.369 1331.54 564.417 1331.91 566.081 C 1328.62 574.548 1321.53 577.791 1313.11 574.639 z"/>
<path transform="translate(0,0)" fill="rgb(192,167,128)" d="M 1879.37 80.5723 C 1888.21 82.8737 1888.71 96.7755 1879.53 102.472 C 1877.55 101.473 1874.21 99.8568 1872.81 98.2215 C 1871.26 96.4147 1870.53 94.0419 1870.81 91.6765 C 1871.38 86.9776 1875.98 83.2817 1879.37 80.5723 z"/>
<path transform="translate(0,0)" fill="rgb(192,167,128)" d="M 189.927 589.656 C 202.111 594.894 198.721 604.691 190.475 612.092 C 176.722 605.22 182.192 598.613 189.927 589.656 z"/>
<path transform="translate(0,0)" fill="rgb(192,167,128)" d="M 779.535 351.295 C 785.303 350.618 787.072 349.806 791.16 354.099 C 792.3 361.099 787.53 363.439 781.888 366.065 C 778.265 366.856 775.335 366.845 772.499 364.213 C 770.231 357.336 774.073 354.719 779.535 351.295 z"/>
<path transform="translate(0,0)" fill="rgb(192,167,128)" d="M 1722.52 396.937 C 1725.93 397.123 1724.79 396.917 1727.81 398.926 C 1731.53 406.971 1722.54 413.93 1716.16 416.894 C 1711.84 413.593 1710.67 412.623 1710.64 407.215 C 1712.94 401.754 1717.48 399.704 1722.52 396.937 z"/>
<path transform="translate(0,0)" fill="rgb(192,167,128)" d="M 1321.53 612.95 C 1325.39 603.644 1331.24 605.272 1339.43 607.089 C 1342.37 610.715 1342.67 609.948 1343.1 613.915 C 1339.83 622.316 1325.83 622.929 1321.53 612.95 z"/>
<path transform="translate(0,0)" fill="rgb(192,167,128)" d="M 790.802 396.254 C 794.738 396.095 798.748 396.002 801.792 398.638 C 804.576 404.997 799.209 408.185 794.599 411.673 C 793.229 411.415 791.869 411.105 790.523 410.744 C 784.879 409.18 781.719 405.651 783.504 399.745 C 787.004 396.516 785.707 397.473 790.802 396.254 z"/>
<path transform="translate(0,0)" fill="rgb(192,167,128)" d="M 1442.24 665.942 C 1445.56 665.443 1446.08 665.644 1449.24 666.533 C 1452.03 669.048 1451.3 667.727 1451.9 671.54 C 1449.76 678.543 1447.8 679.76 1442.01 684.005 C 1437.79 683.812 1434.93 682.145 1433.43 678.238 C 1434.22 671.797 1437.36 669.846 1442.24 665.942 z"/>
<path transform="translate(0,0)" fill="rgb(192,167,128)" d="M 96.6379 660.677 L 98.4622 661.249 C 106.437 669.129 101.178 678.482 91.2484 681.374 C 78.1349 679.268 89.7188 664.709 96.6379 660.677 z"/>
<path transform="translate(0,0)" fill="rgb(192,167,128)" d="M 572.677 330.237 C 575.198 330.178 576.085 330.638 578.377 331.491 C 580.71 334.032 580.23 332.836 580.481 335.951 C 578.19 341.819 575.794 343.338 570.251 346.23 C 564.708 346.208 562.427 345.655 560.59 340.371 C 561.483 332.929 566.143 331.456 572.677 330.237 z"/>
<path transform="translate(0,0)" fill="rgb(192,167,128)" d="M 981.357 608.892 C 988.854 609.598 996.13 612.141 996.953 620.505 C 996.024 623.711 995.05 624.086 992.292 625.964 C 984.951 624.727 979.644 623.959 977.506 616.016 C 977.916 612.385 978.862 611.646 981.357 608.892 z"/>
<path transform="translate(0,0)" fill="rgb(192,167,128)" d="M 120.583 493.362 C 129.04 494.449 129.955 502.55 127.966 509.481 C 126.921 513.124 125.041 513.193 121.867 514.69 C 120.509 514.307 117.652 513.492 116.596 512.667 C 114.994 511.431 113.986 509.578 113.821 507.561 C 113.382 502.292 117.414 497.134 120.583 493.362 z"/>
<path transform="translate(0,0)" fill="rgb(192,167,128)" d="M 533.235 308.431 C 531.736 298.894 538.138 290.733 547.55 294.755 C 553.236 301.105 547.372 307.036 542.274 311.663 C 539.507 312.023 535.86 309.757 533.235 308.431 z"/>
<path transform="translate(0,0)" fill="rgb(192,167,128)" d="M 485.41 418.905 C 490.742 418.815 492.265 418.496 495.252 423.086 C 496.03 430 490.917 433.086 485.671 435.906 C 481.827 435.158 479.958 434.434 477.488 431.522 C 475.526 424.516 479.777 421.997 485.41 418.905 z"/>
<path transform="translate(0,0)" fill="rgb(192,167,128)" d="M 1209.69 741.004 C 1217.11 735.481 1221.62 737.367 1228.33 743.17 C 1235.04 753.445 1209.68 760.078 1209.69 741.004 z"/>
<path transform="translate(0,0)" fill="rgb(192,167,128)" d="M 1911.52 111.108 C 1914.53 106.024 1916.47 102.297 1922.39 100.684 C 1933.14 102.562 1932.9 119.245 1914.57 117.897 L 1911.52 111.108 z"/>
<path transform="translate(0,0)" fill="rgb(192,167,128)" d="M 1668.56 550.109 C 1662.63 535.153 1681.49 530.197 1685.23 540.178 C 1684.17 548.081 1678.11 548.72 1676.55 552.577 C 1673.29 552.953 1671.48 551.639 1668.56 550.109 z"/>
<path transform="translate(0,0)" fill="rgb(192,167,128)" d="M 2000.17 227.814 C 2004.02 222.403 2008.29 217.768 2015.2 219.981 C 2017.05 221.898 2017.84 223.384 2017.72 226.142 C 2017.6 228.989 2016.27 231.65 2014.07 233.459 C 2010.29 236.592 2004.64 236.436 2000.23 234.941 C 2000.35 233.735 2000.19 229.266 2000.17 227.814 z"/>
<path transform="translate(0,0)" fill="rgb(192,167,128)" d="M 504.904 462.283 C 507.66 461.888 512.115 463.196 513.812 465.598 C 514.969 472.624 510.333 474.45 504.697 476.617 C 499.447 476.382 497.045 476.522 494.193 471.744 C 494.128 463.999 498.183 463.355 504.904 462.283 z"/>
<path transform="translate(0,0)" fill="rgb(192,167,128)" d="M 47.5211 650.477 C 57.5565 651.539 61.0557 664.842 50.0977 670.458 C 37.4104 667.177 39.8218 657.975 47.5211 650.477 z"/>
<path transform="translate(0,0)" fill="rgb(192,167,128)" d="M 1693.49 577.288 C 1698.36 576.848 1702.48 575.877 1706.47 578.413 C 1710.03 583.734 1704.88 586.92 1700.73 590.14 C 1688.47 594.659 1683.4 583.106 1693.49 577.288 z"/>
<path transform="translate(0,0)" fill="rgb(192,167,128)" d="M 1874.1 418.056 C 1878.24 419.124 1879.31 419.314 1882.8 421.7 C 1884.5 424.895 1884.3 423.473 1883.53 427.039 C 1881.35 430.298 1878.6 431.161 1875.04 432.769 C 1869.76 433.519 1867.46 432.786 1864.4 428.595 C 1863.18 421.403 1868.28 419.447 1874.1 418.056 z"/>
<path transform="translate(0,0)" fill="rgb(192,167,128)" d="M 1129.42 558.069 C 1135.49 557.652 1142.81 558.146 1143.9 565.285 C 1142.56 568.605 1141.06 569.24 1138.04 571.187 C 1131.41 572.56 1123.17 572.738 1123.81 563.551 C 1125.55 560.23 1126.14 559.974 1129.42 558.069 z"/>
<path transform="translate(0,0)" fill="rgb(192,167,128)" d="M 153.045 769.06 C 152.431 758.921 156.697 754.226 166.337 751.971 C 174.248 764.269 162.227 776.389 153.045 769.06 z"/>
<path transform="translate(0,0)" fill="rgb(192,167,128)" d="M 953.372 473.648 C 960.627 473.469 968.414 477.883 970.595 484.996 C 969.719 488.698 970.523 487.489 967.734 489.688 C 955.728 489.37 947.667 487.37 953.372 473.648 z"/>
<path transform="translate(0,0)" fill="rgb(192,167,128)" d="M 972.475 432.825 C 979.613 431.994 986.804 433.017 990.029 440.07 C 989.479 443.818 989.694 442.677 986.718 445.826 C 980.287 446.135 973.452 447.47 969.95 441.18 C 969.725 437.334 970.583 436.248 972.475 432.825 z"/>
<path transform="translate(0,0)" fill="rgb(192,167,128)" d="M 317.456 352.456 C 317.168 352.002 316.888 351.544 316.616 351.08 C 314.886 348.112 314.01 345.92 314.998 342.48 C 315.731 339.9 317.467 337.722 319.818 336.431 C 322.696 334.885 324.634 335.025 327.592 335.985 C 333.08 341.199 329.609 345.533 326.206 351.004 C 322.344 353.213 321.855 353.165 317.456 352.456 z"/>
<path transform="translate(0,0)" fill="rgb(192,167,128)" d="M 231.1 613.933 C 234.1 614.011 234.738 614.275 237.457 615.188 C 240.243 618.015 239.549 616.604 240.11 620.482 C 238.134 626.655 236.121 627.773 230.564 631.22 C 225.622 630.864 223.926 630.67 222.342 625.753 C 223.596 619.619 226.369 617.806 231.1 613.933 z"/>
<path transform="translate(0,0)" fill="rgb(192,167,128)" d="M 661.693 472.948 C 668.361 473.478 674.215 475.426 675.737 482.472 C 674.32 486.416 674.79 485.234 671.237 488.156 C 664.515 487.735 656.349 486.19 656.416 477.949 C 657.832 474.784 658.648 474.556 661.693 472.948 z"/>
<path transform="translate(0,0)" fill="rgb(192,167,128)" d="M 813.403 545.023 C 824.377 545.189 831.463 553.857 824.451 563.592 C 813.325 559.668 807.614 557.642 813.403 545.023 z"/>
<path transform="translate(0,0)" fill="rgb(129,114,88)" fill-opacity="0.0235294" d="M 1229.78 723.606 L 1229.76 726.491 C 1231.58 727.556 1230.92 727.503 1232.8 727.447 C 1227.12 732.307 1228.36 735.434 1230.88 742.095 L 1228.33 743.17 C 1221.62 737.367 1217.11 735.481 1209.69 741.004 L 1203.35 741.265 C 1206.52 739.767 1210.22 736.423 1213.59 734.347 C 1219.78 730.539 1225.96 729.829 1229.78 723.606 z"/>
<path transform="translate(0,0)" fill="rgb(71,61,48)" fill-opacity="0.0235294" d="M 659.051 434.912 L 662.092 433.402 C 662.886 437.111 662.964 438.735 665.571 441.412 C 669.8 443.895 677.055 440.034 680.228 440.793 L 685.557 442.059 C 677.897 444.654 678.373 446.611 677.578 454.47 L 676.5 455.218 C 668.983 446.042 665.812 450.85 659.051 434.912 z"/>
<path transform="translate(0,0)" fill="rgb(129,114,88)" fill-opacity="0.0313725" d="M 1827.14 256.48 L 1829.74 257.933 C 1823.7 266.264 1818.57 273.903 1832.86 277.945 C 1831.33 278.004 1829.81 278.084 1828.29 278.184 L 1827.55 279.828 C 1818.9 273.286 1820.17 268.823 1814.79 259.08 L 1816.01 258.27 C 1820.41 258.814 1823.05 257.889 1827.14 256.48 z"/>
<path transform="translate(0,0)" fill="rgb(192,167,128)" fill-opacity="0.0509804" d="M 1851.62 385.331 C 1854.83 388.215 1855.67 389.245 1859.83 390.034 L 1862.05 394.929 C 1856.2 392.727 1851.92 388.772 1845.28 385.953 C 1848.19 386.478 1848.88 386.739 1851.62 385.331 z"/>
<path transform="translate(0,0)" fill="rgb(192,167,128)" fill-opacity="0.0196078" d="M 1997.12 221.883 C 1998.12 224.537 1998.24 226.244 2000.17 227.814 C 2000.19 229.266 2000.35 233.735 2000.23 234.941 L 1999.37 234.932 L 1998.76 239.641 C 1997.13 232.533 1997.08 229.115 1997.12 221.883 z"/>
<path transform="translate(0,0)" fill="rgb(192,167,128)" fill-opacity="0.0509804" d="M 326.206 351.004 L 327.778 354.681 C 324.55 355.139 319.7 355.983 316.58 355.988 L 317.456 352.456 C 321.855 353.165 322.344 353.213 326.206 351.004 z"/>
<path transform="translate(0,0)" fill="rgb(192,167,128)" fill-opacity="0.027451" d="M 1794.89 263.883 L 1798.09 265.771 C 1796.11 268.22 1794.83 269.529 1791.63 270.432 L 1789.37 269.022 C 1791.09 267.105 1792.95 265.573 1794.89 263.883 z"/>
<path transform="translate(0,0)" fill="rgb(192,167,128)" fill-opacity="0.027451" d="M 1668.56 550.109 C 1671.48 551.639 1673.29 552.953 1676.55 552.577 L 1676.4 556.113 C 1673.77 555.481 1670.41 554.27 1667.78 553.402 L 1668.56 550.109 z"/>
<path transform="translate(0,0)" fill="rgb(192,167,128)" fill-opacity="0.0470588" d="M 1454.17 707.081 L 1457.39 709.663 C 1455.95 711.839 1454.72 713.526 1453.67 715.939 L 1451.81 716.03 C 1452.34 712.821 1453.22 710.178 1454.17 707.081 z"/>
<path transform="translate(0,0)" fill="rgb(192,167,128)" fill-opacity="0.054902" d="M 533.235 308.431 C 535.86 309.757 539.507 312.023 542.274 311.663 L 544.394 315.182 C 541.35 314.684 540.047 314.631 537.334 313.119 C 535.394 311.533 534.704 310.409 533.235 308.431 z"/>
<path transform="translate(0,0)" fill="rgb(192,167,128)" fill-opacity="0.0666667" d="M 1909.08 112.898 L 1911.52 111.108 L 1914.57 117.897 L 1913.08 120.194 C 1911.11 117.736 1910.37 115.757 1909.08 112.898 z"/>
</svg>