<?xml version="1.0" encoding="UTF-8"?>
<svg version="1.1" xmlns="http://www.w3.org/2000/svg" width="541" height="530">
<path d="M0 0 C7.55785172 3.97656083 14.38978823 8.98719459 21.1875 14.125 C22.14914062 14.84558594 23.11078125 15.56617187 24.1015625 16.30859375 C26.03488558 17.75991755 27.96577898 19.21448227 29.89453125 20.671875 C33.76056355 23.57169781 37.6970442 26.37251467 41.625 29.1875 C49.28914796 34.68992344 56.80473416 40.3700344 64.29418945 46.10717773 C73.95263434 53.496902 83.75190919 60.69041979 93.56982422 67.86621094 C103.03040993 74.7827574 112.3997038 81.7878833 121.62695312 89.01342773 C127.10356918 93.29819462 132.64020415 97.4936225 138.21289062 101.65234375 C149.25037315 109.89483318 160.1533597 118.31647682 171.06640625 126.72265625 C173.21814155 128.37887303 175.37147505 130.03278214 177.52734375 131.68359375 C183.3008999 136.1073566 189.05254653 140.55405225 194.7109375 145.125 C196.47840217 146.55235317 198.25555729 147.9677411 200.0390625 149.375 C214.79443686 161.14748197 214.79443686 161.14748197 216.1875 170.125 C216.66152046 185.05664453 205.24058239 198.80552898 195.84179688 209.39501953 C190.60303911 214.87344892 185.14337004 219.86545308 177.22528076 220.21051025 C174.94849172 220.23561982 172.67517948 220.22310952 170.3984375 220.1953125 C169.21350708 220.18769897 169.21350708 220.18769897 168.00463867 220.17993164 C166.06555086 220.16674057 164.12651276 220.14656529 162.1875 220.125 C162.18888269 221.54598511 162.18888269 221.54598511 162.19029331 222.99567699 C162.21261734 246.18047128 162.22898428 269.36526414 162.23931217 292.55006695 C162.24444101 303.76262993 162.25141764 314.97518576 162.26293945 326.18774414 C162.27299164 335.97489786 162.27937815 345.76204639 162.28158849 355.54920512 C162.28287795 360.71840961 162.28584923 365.88759927 162.29323006 371.05679893 C162.34370627 408.05873959 162.34370627 408.05873959 161.80639648 425.82348633 C161.76068182 427.53165921 161.76068182 427.53165921 161.71404362 429.27434063 C161.1672879 444.2790549 161.1672879 444.2790549 157.1875 450 C147.81176515 456.64114552 135.19315438 456.29648174 124.14135742 456.67919922 C122.92911845 456.72130964 121.71687948 456.76342007 120.467906 456.80680656 C104.20508762 457.3141962 87.93780158 457.2711997 71.66868997 457.2593255 C66.95280679 457.2567242 62.23692516 457.25916238 57.52104187 457.26071167 C49.55414477 457.2625208 41.587257 457.26017024 33.62036133 457.25537109 C25.63500349 457.2506136 17.6496644 457.25048235 9.66430664 457.25537109 C-31.70647593 457.2799993 -73.07341537 457.20677032 -114.44166207 456.7110877 C-117.0462648 456.68011285 -119.65087943 456.65038447 -122.25549889 456.62085342 C-126.32161151 456.57413973 -130.38763663 456.52261627 -134.45363975 456.4671998 C-135.92022008 456.44761396 -137.38681642 456.42917926 -138.85342813 456.41210318 C-146.58549835 456.32019617 -154.30056901 456.1017626 -162.02177429 455.67971802 C-162.73075137 455.64324028 -163.43972845 455.60676254 -164.17018968 455.56917942 C-170.7620421 455.17727178 -176.05220106 454.3715977 -180.6875 449.3125 C-186.12542827 441.1556076 -185.95901349 431.54330601 -185.97071838 422.03233337 C-185.97565636 421.163014 -185.98059434 420.29369463 -185.98568195 419.39803225 C-186.00093507 416.51006689 -186.00938421 413.62212354 -186.01782227 410.73413086 C-186.02741039 408.65401011 -186.03742101 406.57389127 -186.04782104 404.49377441 C-186.07477492 398.86433389 -186.09583582 393.23488506 -186.11582303 387.60541606 C-186.13774151 381.71573433 -186.16510144 375.82607791 -186.19187927 369.93641663 C-186.24172707 358.79132532 -186.28669516 347.6462199 -186.32990164 336.50110108 C-186.37934176 323.8094605 -186.43423471 311.11784534 -186.48958123 298.42622936 C-186.60327975 272.32584329 -186.71014506 246.22543284 -186.8125 220.125 C-188.0190625 220.17140625 -189.225625 220.2178125 -190.46875 220.265625 C-192.08330836 220.30317287 -193.69789378 220.33956977 -195.3125 220.375 C-196.10398438 220.40851563 -196.89546875 220.44203125 -197.7109375 220.4765625 C-204.76283227 220.59216733 -209.70806501 218.58731244 -215.2109375 214.22265625 C-226.23475376 202.87204701 -238.7867273 188.96816591 -239.125 172.375 C-239.16238281 171.18390625 -239.19976562 169.9928125 -239.23828125 168.765625 C-238.38291239 161.4518289 -234.43869408 157.24523283 -228.875 152.8125 C-228.02228516 152.11265991 -228.02228516 152.11265991 -227.15234375 151.39868164 C-221.6683563 146.92859771 -216.05906277 142.61736927 -210.41992188 138.34570312 C-207.79007237 136.34855131 -205.17749616 134.32903933 -202.5625 132.3125 C-189.37436704 122.16638947 -176.13905158 112.08866563 -162.8125 102.125 C-159.41573602 99.58457452 -156.01986203 97.04296662 -152.625 94.5 C-151.76745117 93.85764404 -150.90990234 93.21528809 -150.02636719 92.5534668 C-145.40818337 89.08893911 -140.81367135 85.59847436 -136.25 82.0625 C-130.24826593 77.42269789 -124.14573231 72.92670942 -118.03100586 68.43725586 C-112.93614007 64.69521541 -107.8627473 60.92701468 -102.8125 57.125 C-97.11278154 52.83416866 -91.37757399 48.59465821 -85.625 44.375 C-78.77357234 39.34707712 -71.99600833 34.23085273 -65.25 29.0625 C-16.77205863 -8.00912912 -16.77205863 -8.00912912 0 0 Z M-20.375 16 C-21.44765069 16.8479928 -22.52057442 17.69564033 -23.59375 18.54296875 C-24.13386719 18.97786621 -24.67398438 19.41276367 -25.23046875 19.86083984 C-27.57206347 21.73194748 -29.97241146 23.52068186 -32.375 25.3125 C-33.36757812 26.05757812 -34.36015625 26.80265625 -35.3828125 27.5703125 C-38.69383718 30.04420274 -42.0266659 32.487971 -45.35913086 34.93286133 C-53.06786881 40.59023901 -60.71897413 46.31377131 -68.3125 52.125 C-75.81609654 57.86706885 -83.37558884 63.52330341 -90.9934082 69.11279297 C-97.99275304 74.24902398 -104.94129245 79.4505846 -111.87841797 84.67041016 C-114.45118594 86.60534472 -117.02660328 88.53673322 -119.60229492 90.46777344 C-120.91389047 91.45118422 -122.22524951 92.43491052 -123.53637695 93.41894531 C-127.23143118 96.1919121 -130.93008489 98.95994226 -134.6328125 101.72265625 C-143.71160782 108.50372632 -152.72315649 115.35667835 -161.64697266 122.34057617 C-166.39862236 126.05111023 -171.22256319 129.63346138 -176.12109375 133.1484375 C-181.18986648 136.87093242 -186.09502718 140.80457528 -191.02294922 144.71044922 C-192.76200561 146.0850867 -194.50664623 147.45221666 -196.25390625 148.81640625 C-202.72765903 153.87221289 -209.16343668 158.97495556 -215.5625 164.125 C-216.25456543 164.67720215 -216.94663086 165.2294043 -217.65966797 165.79833984 C-218.30307129 166.3186377 -218.94647461 166.83893555 -219.609375 167.375 C-220.18010742 167.83390625 -220.75083984 168.2928125 -221.33886719 168.765625 C-223.06884648 170.25442459 -223.06884648 170.25442459 -224.8125 173.125 C-219.71468153 183.46057705 -210.23711943 200.40804364 -198.91577148 204.87304688 C-196.13831573 205.20576125 -195.32625157 204.50410024 -193.1171875 202.8359375 C-192.41086182 202.31330322 -191.70453613 201.79066895 -190.97680664 201.25219727 C-190.22133545 200.67397217 -189.46586426 200.09574707 -188.6875 199.5 C-187.05886431 198.28739694 -185.42995045 197.07516743 -183.80078125 195.86328125 C-182.9701416 195.2388916 -182.13950195 194.61450195 -181.28369141 193.97119141 C-177.51801237 191.15790699 -173.69502403 188.42623361 -169.875 185.6875 C-157.13193177 176.49433637 -144.45209306 167.2217341 -132.02734375 157.6015625 C-121.86813176 149.75083169 -111.51191869 142.15682637 -101.16821289 134.55224609 C-91.28758403 127.27995984 -81.48782165 119.89998387 -71.68457031 112.52392578 C-60.7791919 104.31985546 -49.82220668 96.18860303 -38.8125 88.125 C-37.99297852 87.52381348 -37.17345703 86.92262695 -36.32910156 86.30322266 C-33.91004669 84.53112432 -31.48698631 82.76465776 -29.0625 81 C-28.33627441 80.46769775 -27.61004883 79.93539551 -26.86181641 79.38696289 C-15.42317508 71.0937481 -15.42317508 71.0937481 -11.1953125 71.17578125 C-0.89567948 75.27874981 8.40296321 83.91026457 17.2578125 90.48046875 C21.87296015 93.90154427 26.52359672 97.27083002 31.1875 100.625 C44.83565999 110.4553155 58.3383802 120.47479292 71.77685547 130.58935547 C77.20338261 134.66374036 82.67442605 138.66867316 88.1875 142.625 C95.41216379 147.80960871 102.54125912 153.11148439 109.64526367 158.45996094 C117.72830201 164.54280573 125.86759114 170.54714453 134.02246094 176.53320312 C136.02069205 178.00235816 138.01502534 179.47659851 140.0078125 180.953125 C147.21468213 186.28422082 154.49177329 191.51386024 161.8125 196.6875 C162.66642334 197.2959375 163.52034668 197.904375 164.40014648 198.53125 C165.20911377 199.09972656 166.01808105 199.66820312 166.8515625 200.25390625 C167.92591553 201.01296265 167.92591553 201.01296265 169.02197266 201.78735352 C171.33373642 203.21533025 173.64163385 204.18779779 176.1875 205.125 C182.35100272 199.56314071 187.43318 193.76023773 192.125 186.9375 C192.81493042 185.94073242 192.81493042 185.94073242 193.51879883 184.92382812 C196.28637721 180.80340464 198.37183105 176.74506853 200.1875 172.125 C193.09279485 165.50436501 185.67450066 159.46974937 178.00634766 153.53662109 C175.62040104 151.68487031 173.249017 149.81498627 170.87768555 147.94458008 C164.22348374 142.69740966 157.52201473 137.51404276 150.79638672 132.35888672 C148.09100184 130.2840741 145.38947368 128.2042516 142.6875 126.125 C141.59897046 125.28774465 140.51042881 124.45050504 139.421875 123.61328125 C137.30678247 121.98633583 135.19230548 120.3586002 133.078125 118.73046875 C118.84670404 107.77369068 104.57226683 96.87984577 90.1875 86.125 C86.79073602 83.58457452 83.39486203 81.04296662 80 78.5 C79.14245117 77.85764404 78.28490234 77.21528809 77.40136719 76.5534668 C72.78318337 73.08893911 68.18867135 69.59847436 63.625 66.0625 C56.00695186 60.17538193 48.23862878 54.49353009 40.47412109 48.80175781 C38.40435581 47.28401833 36.33648759 45.76374886 34.26953125 44.2421875 C30.58125704 41.52858061 26.88555592 38.82525588 23.1875 36.125 C22.4773877 35.60550781 21.76727539 35.08601563 21.03564453 34.55078125 C13.05643124 28.72001745 5.04745403 22.93296132 -3.125 17.375 C-3.72892578 16.95661865 -4.33285156 16.5382373 -4.95507812 16.10717773 C-11.40991343 11.77800541 -14.19763187 11.007678 -20.375 16 Z M-19.0625 95 C-19.68801758 95.40637695 -20.31353516 95.81275391 -20.95800781 96.23144531 C-27.05252986 100.22419735 -32.97857283 104.43621091 -38.87304688 108.71679688 C-41.74253593 110.80028288 -44.61847781 112.87480983 -47.49365234 114.95043945 C-49.04133372 116.06810071 -50.58853342 117.18642927 -52.13525391 118.30541992 C-56.15855 121.21522451 -60.19122616 124.11052988 -64.2409668 126.98339844 C-70.40160844 131.35586708 -76.47098595 135.83666269 -82.50268555 140.38525391 C-87.72211873 144.31868558 -92.98024065 148.19683483 -98.25 152.0625 C-105.2197652 157.17936383 -112.11250405 162.38687145 -118.96728516 167.65649414 C-123.49026461 171.12879324 -128.06359728 174.51591555 -132.69140625 177.84765625 C-137.81635431 181.5871365 -142.87689837 185.41276188 -147.94262695 189.23193359 C-148.74015381 189.83215332 -149.53768066 190.43237305 -150.359375 191.05078125 C-151.14948471 191.66849805 -151.93959442 192.28621485 -152.75364685 192.92265034 C-155.02962518 194.56133643 -157.12494244 195.87719343 -159.56585693 197.20240307 C-166.93330031 201.43026798 -166.93330031 201.43026798 -171.67119598 208.22624993 C-173.03192511 214.34206413 -172.70356727 220.57293482 -172.53125 226.79614258 C-172.52865253 228.88339933 -172.53266612 230.97067312 -172.54275513 233.0579071 C-172.55130423 238.70458062 -172.46743646 244.34648446 -172.36634064 249.99211717 C-172.27591589 255.91636929 -172.27038369 261.84071233 -172.25537109 267.76554871 C-172.2139532 278.99056995 -172.09530649 290.21340454 -171.94932747 301.43749875 C-171.78792089 314.16190632 -171.71745264 326.8863194 -171.65258026 339.61152422 C-171.55353867 358.39901023 -171.42126941 377.18633715 -171.20000839 395.97281075 C-171.1764813 397.99713354 -171.15428587 400.02147235 -171.13357925 402.04582596 C-172.24390604 420.37822151 -172.24390604 420.37822151 -167.8125 437.125 C-159.76387534 438.5656705 -151.48097626 438.44619275 -143.3203125 438.65234375 C-142.17036993 438.68297063 -142.17036993 438.68297063 -140.9971962 438.71421623 C-119.63232897 439.27838939 -98.26130926 439.45941362 -76.89056396 439.65722656 C-72.60076124 439.6977712 -68.31099597 439.74170788 -64.02122688 439.78564739 C-29.44401175 440.13901182 5.10867554 440.124991 39.68554688 439.75268555 C43.74509982 439.70905963 47.80466481 439.66740743 51.86425781 439.62768555 C73.06579687 439.4198368 94.2641246 439.15652501 115.4609375 438.65234375 C116.70581877 438.62430758 116.70581877 438.62430758 117.97584915 438.59570503 C132.58347965 439.59702175 132.58347965 439.59702175 145.1875 436.125 C146.08959069 430.24355349 146.46387289 424.38890322 146.70214844 418.44775391 C146.74298428 417.4335116 146.78382011 416.41926929 146.8258934 415.37429237 C147.92862175 385.41444128 148.03526601 355.40746128 148.25406265 325.43123436 C148.34123913 313.77195768 148.46495475 302.1152732 148.67578125 290.45751953 C148.860933 280.21651522 148.97871351 269.97732656 149.01585174 259.734676 C149.03764822 254.33442802 149.09175231 248.9391463 149.22693634 243.54044724 C151.08881357 220.71272018 151.08881357 220.71272018 143.11022949 200.52081299 C139.26043003 197.28013092 135.21986976 195.12077948 130.58318329 193.21480179 C126.67850469 191.43855459 123.50994056 188.8000072 120.1875 186.125 C118.88866402 185.14152989 117.58693948 184.16185279 116.28125 183.1875 C115.62125 182.6925 114.96125 182.1975 114.28125 181.6875 C110.43087165 178.81408332 106.55838758 175.97069263 102.6875 173.125 C96.18242747 168.34277974 89.70602646 163.52531103 83.25488281 158.6706543 C77.19504146 154.11670619 71.09133845 149.62325848 64.98364258 145.13378906 C60.59469535 141.90573701 56.22312706 138.65780698 51.875 135.375 C45.97550536 130.93602003 39.97228265 126.65081273 33.95214844 122.37792969 C31.11079104 120.36051876 28.2738741 118.33690849 25.4375 116.3125 C24.87264893 115.90999023 24.30779785 115.50748047 23.72583008 115.09277344 C20.36818824 112.69638633 17.02465734 110.28177861 13.69140625 107.8515625 C-1.81962935 94.01735654 -1.81962935 94.01735654 -19.0625 95 Z " fill="#551700" transform="translate(279.8125,26.875)"/>
<path d="M0 0 C1.4596007 1.16873825 2.8868519 2.37755149 4.31152344 3.58862305 C6.71551735 5.39920581 6.71551735 5.39920581 9.36621094 5.1784668 C12.46045755 3.93883122 14.5499039 2.2500806 17.11230469 0.1159668 C35.20514818 -14.1388267 56.31816522 -17.72311465 78.86230469 -15.8215332 C101.99192246 -12.60699349 120.81750609 0.3211009 134.79980469 18.72924805 C139.83503364 26.05420395 142.42096465 33.72472854 144.86230469 42.1784668 C145.21615234 43.37536133 145.21615234 43.37536133 145.57714844 44.59643555 C152.49882672 69.90855834 145.42672872 96.93063317 132.86230469 119.1784668 C125.45947307 131.93969546 116.37921764 143.1463349 106.21240234 153.76538086 C105.06799493 154.96318015 103.93811405 156.17483233 102.81152344 157.3894043 C97.32024307 163.15113316 91.05324675 167.92527856 84.73779297 172.73413086 C82.94413525 174.1154481 81.18087034 175.52805035 79.42089844 176.9519043 C61.47620966 191.22816447 40.08107865 203.51669675 18.86230469 212.1784668 C18.13849609 212.49460937 17.4146875 212.81075195 16.66894531 213.13647461 C9.77648731 215.86188475 5.05769605 214.97777455 -1.64697266 212.10229492 C-4.4163931 210.78269001 -7.12116599 209.37728664 -9.82519531 207.9284668 C-10.82196289 207.39979004 -11.81873047 206.87111328 -12.84570312 206.32641602 C-60.81889796 180.46621981 -112.15131016 141.19112539 -128.57519531 86.8659668 C-134.1632898 64.59890326 -130.35864204 41.65164993 -119.20214844 21.94555664 C-116.60912731 17.64090368 -113.52979332 13.86986757 -110.13769531 10.1784668 C-109.50089844 9.47334961 -108.86410156 8.76823242 -108.20800781 8.04174805 C-80.31898827 -21.35932677 -31.88752446 -24.60802564 0 0 Z M18.72558594 21.2019043 C15.72239002 24.00488715 13.26705704 25.99857686 9.48730469 27.6784668 C3.42479138 26.84225806 0.1024095 22.3438561 -4.13769531 18.1784668 C-18.01962336 5.53415492 -31.58651414 0.81274664 -50.07519531 0.8659668 C-51.7487207 0.84179688 -51.7487207 0.84179688 -53.45605469 0.81713867 C-70.11800597 0.80737772 -83.75495838 7.85332695 -95.48535156 19.4362793 C-107.86792193 32.23828872 -113.9742627 46.71671432 -114.45019531 64.4909668 C-114.05878849 87.26163448 -103.61580559 106.41907443 -90.13769531 124.1784668 C-89.1515625 125.5087793 -89.1515625 125.5087793 -88.14550781 126.8659668 C-87.21351563 128.1034668 -87.21351563 128.1034668 -86.26269531 129.3659668 C-85.70839844 130.10202148 -85.15410156 130.83807617 -84.58300781 131.59643555 C-83.86757812 132.37954102 -83.86757812 132.37954102 -83.13769531 133.1784668 C-82.47769531 133.1784668 -81.81769531 133.1784668 -81.13769531 133.1784668 C-80.87859375 133.76241211 -80.61949219 134.34635742 -80.35253906 134.94799805 C-76.56356167 141.90460927 -69.09447111 146.98891994 -63.02050781 151.84643555 C-61.15377937 153.35651262 -59.31284853 154.89928987 -57.50488281 156.47924805 C-44.4907323 167.80637905 -29.62647616 176.75241677 -14.95019531 185.7409668 C-14.01908936 186.31234375 -13.0879834 186.8837207 -12.12866211 187.47241211 C-9.48269471 189.07418729 -6.81929979 190.63718246 -4.13769531 192.1784668 C-3.26290527 192.68877441 -2.38811523 193.19908203 -1.48681641 193.72485352 C2.44131999 195.87832327 4.99721017 197.18030742 9.53417969 197.1706543 C13.17074066 196.08651523 16.65421223 194.85536751 20.11230469 193.3034668 C21.13179199 192.85088501 21.13179199 192.85088501 22.171875 192.38916016 C62.80874892 173.79379282 108.86436389 139.88265304 125.86230469 97.1784668 C132.98310176 76.56356258 133.43571336 54.64513237 124.04980469 34.7409668 C114.63807115 17.35278909 100.18222928 7.76629068 81.86230469 1.1784668 C58.82238368 -4.99918487 35.24894653 5.55455368 18.72558594 21.2019043 Z " fill="#551700" transform="translate(259.1376953125,232.821533203125)"/>
<path d="M0 0 C9.74446567 8.40189485 17.72530958 18.43716021 18.71484375 31.7578125 C18.92379561 45.20038219 18.92379561 45.20038219 14.1171875 50.5859375 C7.69243216 56.3112891 0.00575429 55.45583551 -8.13525391 55.18603516 C-12.21715069 54.90397007 -16.21364599 54.17662456 -20.23828125 53.4609375 C-30.47901353 51.6768378 -39.01100367 52.47209583 -49.17578125 54.5859375 C-57.5511011 56.31227894 -64.08387607 57.57513825 -71.765625 53.22265625 C-76.23615842 50.1105162 -78.34677462 46.25534289 -79.48828125 41.0234375 C-80.71640368 28.50031026 -77.39798112 18.4271331 -69.6796875 8.5625 C-53.2499503 -10.4737374 -20.67146539 -16.42034771 0 0 Z M-56.48828125 18.0234375 C-61.73385144 24.74468458 -63.76227259 29.52970602 -63.48828125 38.0234375 C-62.29519987 39.43544579 -62.29519987 39.43544579 -58.86328125 39.2734375 C-54.51237845 39.2458565 -50.54352675 38.46135413 -46.30078125 37.5234375 C-34.11485836 34.9195301 -22.85375826 36.01320927 -10.68310547 38.04345703 C-4.56441903 39.05451925 -4.56441903 39.05451925 1.51171875 38.0234375 C2.97016714 33.76028068 2.42092552 31.1567343 0.57421875 27.2109375 C-4.43165342 18.0541906 -11.23917645 10.55403937 -21.44921875 7.421875 C-33.6391294 5.03993844 -47.77869913 8.99052983 -56.48828125 18.0234375 Z " fill="#551700" transform="translate(295.48828125,334.9765625)"/>
<path d="M0 0 C6.4009335 5.67355469 10.43620054 11.88517083 11.75 20.4375 C11.98276481 27.39134878 10.89893552 33.73896205 6.75 39.4375 C2.00772494 44.5020656 -3.1095767 47.97415886 -10.0625 49 C-16.82620278 48.71548478 -22.16751793 43.84728299 -26.625 39.125 C-30.74641989 33.88999313 -32.5901437 28.28844874 -32.3125 21.625 C-31.13549085 13.5987993 -27.59487268 5.79287272 -21.125 0.75 C-14.58544448 -3.70162514 -7.01651402 -3.37332405 0 0 Z M-13 17.125 C-15.13864173 21.0814872 -15.55236849 23.36913133 -14.3125 27.75 C-13.961875 28.636875 -13.61125 29.52375 -13.25 30.4375 C-10.79775306 30.33136164 -10.79775306 30.33136164 -8.25 29.4375 C-5.48264914 25.2205844 -6.05961194 20.29239561 -6.25 15.4375 C-10.02205661 15.00404448 -10.02205661 15.00404448 -13 17.125 Z " fill="#551600" transform="translate(324.25,287.5625)"/>
<path d="M0 0 C6.13669389 2.63001167 10.25582635 8.25688576 13.04296875 14.23828125 C15.64678731 21.31626691 16.07265819 27.92151628 13.1015625 34.98828125 C9.54954559 41.47512064 3.91997675 47.21403533 -3 50 C-8.3480167 51.04374074 -12.81984637 50.33374428 -17.37109375 47.32421875 C-22.72370845 42.97281256 -26.66932126 37.85134589 -28 31 C-28.77052668 22.86666287 -28.87971494 15.79674581 -24 9 C-23.40445313 8.15501953 -23.40445313 8.15501953 -22.796875 7.29296875 C-16.55697546 -0.82284995 -9.65546317 -0.98942909 0 0 Z M-10 17 C-11.21977329 19.43954658 -11.20153813 21.15305849 -11.25 23.875 C-11.27578125 24.73867188 -11.3015625 25.60234375 -11.328125 26.4921875 C-10.94108924 29.45024649 -9.95124005 30.79201784 -8 33 C-5.9755763 32.30904671 -5.9755763 32.30904671 -4 31 C-2.51091214 26.85822012 -2.61234141 22.9997511 -4.1875 18.9375 C-4.785625 18.298125 -5.38375 17.65875 -6 17 C-7.32 17 -8.64 17 -10 17 Z " fill="#561700" transform="translate(226,286)"/>
<path d="M0 0 C4.98704572 2.24529887 7.38096991 7.19281487 9.5546875 11.97265625 C12.13391353 20.23707769 12.1836537 29.24897829 8.5390625 37.21484375 C5.79432354 41.8597866 2.53096604 45.09389198 -2.3359375 47.52734375 C-5.1032794 47.73168334 -7.81567031 47.85112873 -10.5859375 47.90234375 C-11.71322266 47.95841797 -11.71322266 47.95841797 -12.86328125 48.015625 C-16.85866269 48.07837968 -19.52918355 47.81939465 -22.73828125 45.31640625 C-25.1943799 42.67933191 -26.45839306 40.88253511 -27.6484375 37.52734375 C-27.95394531 36.70234375 -28.25945312 35.87734375 -28.57421875 35.02734375 C-31.03938617 26.93653785 -31.964567 17.28481911 -28.52734375 9.34765625 C-21.77244986 -0.97293572 -11.42243927 -2.31122935 0 0 Z M-12.5234375 16.52734375 C-15.16122483 19.43800563 -15.26912194 21.65204105 -15.3359375 25.52734375 C-14.09331008 28.53581014 -13.25968857 30.02077058 -10.3984375 31.58984375 C-8.18095129 31.69902135 -8.18095129 31.69902135 -6.0859375 30.08984375 C-3.52238703 26.33607341 -3.90686971 24.0325555 -4.3359375 19.52734375 C-5.98267925 16.49453122 -5.98267925 16.49453122 -8.2109375 15.65234375 C-10.41345593 15.35630092 -10.41345593 15.35630092 -12.5234375 16.52734375 Z " fill="#541600" transform="translate(276.3359375,271.47265625)"/>
<path d="M0 0 C0.66 0.33 1.32 0.66 2 1 C1.14535156 1.83144531 0.29070313 2.66289062 -0.58984375 3.51953125 C-1.70599177 4.61692048 -2.82186282 5.71459145 -3.9375 6.8125 C-4.50146484 7.35970703 -5.06542969 7.90691406 -5.64648438 8.47070312 C-9.98296523 12.75525008 -11.16755561 15.42959141 -11.375 21.4375 C-11.36751493 27.58274095 -9.65126518 32.11852557 -6.99609375 37.6015625 C-6.66738281 38.39304688 -6.33867188 39.18453125 -6 40 C-6.33 40.66 -6.66 41.32 -7 42 C-7.81498562 40.3970947 -8.62689927 38.79262722 -9.4375 37.1875 C-9.88996094 36.29417969 -10.34242187 35.40085938 -10.80859375 34.48046875 C-13.94552927 27.94947185 -14.26849542 19.81685423 -12.421875 12.8046875 C-9.69595985 7.47676244 -4.54010371 3.73491438 0 0 Z " fill="#450600" transform="translate(54,177)"/>
<path d="M0 0 C1.55859375 1.00390625 1.55859375 1.00390625 3.87109375 3.19140625 C4.48984375 3.76890625 5.10859375 4.34640625 5.74609375 4.94140625 C6.11734375 5.35390625 6.48859375 5.76640625 6.87109375 6.19140625 C6.54109375 6.85140625 6.21109375 7.51140625 5.87109375 8.19140625 C5.38898438 7.76988281 4.906875 7.34835937 4.41015625 6.9140625 C3.46269531 6.09228516 3.46269531 6.09228516 2.49609375 5.25390625 C1.86960938 4.70863281 1.243125 4.16335938 0.59765625 3.6015625 C-3.26982716 0.44282605 -7.16367642 0.68758817 -12.0078125 0.69921875 C-17.15339067 1.51066162 -19.69148886 4.53034966 -23.12890625 8.19140625 C-24.11890625 8.85140625 -25.10890625 9.51140625 -26.12890625 10.19140625 C-25.04203104 5.5721866 -22.50180226 3.02920067 -18.74609375 0.3671875 C-13.09748961 -2.17046899 -5.79711852 -2.20184134 0 0 Z " fill="#440300" transform="translate(228.12890625,286.80859375)"/>
<path d="M0 0 C-0.74830078 0.31517578 -0.74830078 0.31517578 -1.51171875 0.63671875 C-9.86606425 4.67140266 -15.70891014 11.35886495 -22 18 C-22 13.21489097 -18.80132824 10.91733522 -15.65625 7.5234375 C-5.72727273 -1.90909091 -5.72727273 -1.90909091 0 0 Z " fill="#430800" transform="translate(246,331)"/>
</svg>
