<?xml version="1.0" encoding="UTF-8"?>
<svg version="1.1" xmlns="http://www.w3.org/2000/svg" width="800" height="800">
<path d="M0 0 C8.75647074 6.24518453 16.94928604 12.99923477 24.98510742 20.13867188 C26.40110546 21.36860874 27.81765998 22.59790566 29.23510742 23.82617188 C30.48609477 24.92921978 31.73593959 26.03356384 32.98510742 27.13867188 C33.69368896 27.76314209 34.40227051 28.3876123 35.13232422 29.03100586 C41.29917181 34.51781285 47.23740202 40.2046957 53.07177734 46.04003906 C54.54466714 47.51073597 56.02541008 48.97320722 57.5065918 50.43554688 C63.03883637 55.93604256 68.19860239 61.61883998 73.05224609 67.73828125 C74.87078677 69.99669882 76.76484912 72.13751169 78.73510742 74.26367188 C84.94460175 81.17822831 90.43224216 88.69576303 95.98510742 96.13867188 C96.44208008 96.74904297 96.89905273 97.35941406 97.36987305 97.98828125 C123.80681673 133.4916123 142.66812194 172.73137372 137.66870117 218.00390625 C133.55519638 243.18414676 118.37813024 265.49929769 97.92651367 280.36132812 C56.60079706 307.13791604 7.74899912 297.45132724 -37.98083496 290.68347168 C-50.11528543 288.89340042 -62.23479626 287.3597323 -74.45239258 286.26367188 C-75.45938705 286.17144852 -75.45938705 286.17144852 -76.48672485 286.07736206 C-87.34270584 285.09827185 -97.98093986 284.69566149 -108.82739258 285.88867188 C-109.86476563 285.98148438 -109.86476563 285.98148438 -110.9230957 286.07617188 C-122.78555764 287.35514351 -133.92120522 291.68768624 -144.86477661 296.2270813 C-148.12929303 297.57849242 -151.4055575 298.90066208 -154.68286133 300.22070312 C-155.64131203 300.60677986 -155.64131203 300.60677986 -156.61912537 301.00065613 C-179.72804213 310.25767819 -206.43827842 318.5124213 -231.01489258 310.13867188 C-231.9868457 309.8215625 -232.95879883 309.50445313 -233.96020508 309.17773438 C-254.6461734 301.56227345 -271.62178661 282.12493539 -280.95239258 262.57617188 C-294.19393386 233.23604001 -291.79744181 193.83969384 -281.01489258 164.13867188 C-271.91642895 140.9736577 -259.06091473 119.88089121 -244.01489258 100.13867188 C-243.29970459 99.19604492 -243.29970459 99.19604492 -242.57006836 98.234375 C-236.11619638 89.76776241 -229.28801276 81.64093392 -222.29858398 73.61328125 C-221.22509354 72.38013513 -220.1565004 71.14272801 -219.08911133 69.90429688 C-214.85187477 65.00973245 -210.47857413 60.24005953 -206.09057617 55.48095703 C-204.16565253 53.39171343 -202.24771862 51.29680675 -200.33422852 49.19702148 C-193.18289019 41.36418554 -185.8237421 33.76123686 -178.32373047 26.26220703 C-176.44509796 24.38136869 -174.57466152 22.49262 -172.7043457 20.60351562 C-165.78142738 13.64880009 -158.74424134 7.19866661 -151.01489258 1.13867188 C-149.42948043 -0.1713163 -147.84586783 -1.48348864 -146.26489258 -2.79882812 C-95.67330369 -42.82733801 -50.38412985 -35.38992274 0 0 Z " fill="#591A00" transform="translate(484.014892578125,366.861328125)"/>
<path d="M0 0 C0.825 0.31710938 1.65 0.63421875 2.5 0.9609375 C18.73180937 8.1130785 27.67834395 23.15813807 34 39 C35.25895845 43.00159479 36.25393413 47.03642756 37.1875 51.125 C37.44160645 52.218125 37.69571289 53.31125 37.95751953 54.4375 C46.06326354 90.34568192 42.18457799 127.60302536 22.95703125 159.4765625 C21.06373744 162.40153138 19.08835853 165.21147475 17 168 C16.31421875 168.91910156 15.6284375 169.83820313 14.921875 170.78515625 C1.46826454 187.98932359 -15.15195246 200.2355216 -37 204 C-55.96575637 205.37063449 -70.88233853 196.92062752 -85.08984375 185.2890625 C-104.41579206 167.37277159 -109.94540131 141.95164562 -111.109375 116.61962891 C-111.46678276 105.58243038 -110.78589192 94.89735322 -109 84 C-108.82855469 82.88882813 -108.65710938 81.77765625 -108.48046875 80.6328125 C-104.46965067 58.63800368 -94.14657924 35.68805569 -78 20 C-77.113125 19.071875 -76.22625 18.14375 -75.3125 17.1875 C-64.72933463 7.17639762 -53.9568125 2.49969171 -40 -1 C-39.0409375 -1.24878906 -38.081875 -1.49757813 -37.09375 -1.75390625 C-25.21077048 -4.37623043 -11.38608575 -4.48874535 0 0 Z " fill="#591A00" transform="translate(540,123)"/>
<path d="M0 0 C7.76068939 7.39241482 14.34060712 15.15323075 19.88671875 24.3359375 C20.35078125 25.09261719 20.81484375 25.84929687 21.29296875 26.62890625 C36.0709351 53.39028762 41.96826432 89.72773429 33.88671875 119.3359375 C26.87926393 143.15661227 15.18579723 164.68424172 -6.828125 177.609375 C-13.16867928 180.94174717 -19.92044184 183.72378095 -27.11328125 184.3359375 C-28.11294922 184.43068359 -28.11294922 184.43068359 -29.1328125 184.52734375 C-43.28443133 185.25487308 -59.02380467 179.91517899 -69.60522461 170.59838867 C-71.64787101 168.71910108 -73.63209339 166.7871811 -75.60009766 164.83007812 C-77.11696911 163.33229605 -78.66321316 161.87155516 -80.21875 160.4140625 C-91.83455446 149.388209 -99.43530127 136.75213642 -106.11328125 122.3359375 C-106.58636719 121.34078125 -107.05945313 120.345625 -107.546875 119.3203125 C-120.98289899 89.35086334 -122.73785223 52.21855165 -111.75 21.30078125 C-105.49803658 5.58855718 -97.28935372 -10.50105094 -81.11328125 -17.6640625 C-51.23027862 -27.83870414 -22.75883897 -20.7996141 0 0 Z " fill="#591A00" transform="translate(338.11328125,141.6640625)"/>
<path d="M0 0 C0.82371094 0.32871094 1.64742187 0.65742188 2.49609375 0.99609375 C18.10070365 8.03155749 28.9850714 21.20524304 35 37 C35.36867188 37.94488281 35.73734375 38.88976562 36.1171875 39.86328125 C46.09756685 67.36396157 41.29935036 99.64091556 29.33984375 125.75 C21.13639254 141.8853934 8.37382746 156.44689912 -7 166 C-8.03640625 166.65742188 -9.0728125 167.31484375 -10.140625 167.9921875 C-23.45732302 176.04909384 -39.25414209 183.29298933 -55.1484375 180.43359375 C-73.35676141 175.21449834 -89.25763596 157.16398891 -98.2265625 141.109375 C-110.28197358 118.53415368 -111.06354929 91.99913111 -103.74609375 67.6953125 C-94.88614831 40.14588552 -77.25329325 17.80098884 -51.6484375 4.22265625 C-35.86683481 -3.47982048 -16.78605422 -6.74171608 0 0 Z " fill="#591A00" transform="translate(683,289)"/>
<path d="M0 0 C27.42473787 18.91646076 45.23163046 46.11128934 51.83984375 78.5859375 C53.20030254 86.88004487 53.38632686 95.1477983 53.46875 103.5390625 C53.49533691 105.18515503 53.49533691 105.18515503 53.52246094 106.86450195 C53.50361515 127.61214611 41.0438946 140.30831995 27.15625 154.2265625 C19.18724912 162.10787149 9.68355791 170.81161006 -2.0859375 171.32421875 C-16.50809975 170.77626426 -30.67352531 163.91599349 -43.14697266 157.14648438 C-44.62273314 156.34638862 -46.11296794 155.57310376 -47.60546875 154.8046875 C-74.71692916 139.96105378 -90.77677615 108.81435215 -99.27294922 80.25830078 C-104.3086198 62.33407042 -102.39480865 45.83674567 -93.66186523 29.59033203 C-82.65495433 10.14995086 -64.40821716 -5.76291048 -42.94921875 -12.35546875 C-26.74218539 -15.57282046 -13.28145416 -8.28266509 0 0 Z " fill="#591A00" transform="translate(177.84375,298.7734375)"/>
<path d="M0 0 C-0.33 0.66 -0.66 1.32 -1 2 C-2.05574219 2.01417969 -3.11148438 2.02835937 -4.19921875 2.04296875 C-13.03495211 2.28245512 -21.39419433 3.25228236 -30 5.3125 C-30.84651123 5.51319092 -31.69302246 5.71388184 -32.56518555 5.9206543 C-52.29405314 10.89867827 -66.50438971 22.32985482 -76.88671875 39.69140625 C-77.82565611 41.31201997 -78.75922876 42.93575333 -79.6875 44.5625 C-80.15994141 45.37396484 -80.63238281 46.18542969 -81.11914062 47.02148438 C-83.74409741 51.58294504 -86.03959228 56.11537207 -88 61 C-88.66 60.34 -89.32 59.68 -90 59 C-81.75495688 41.93168997 -72.55372896 23.45157005 -56 13 C-55.30132812 12.50242188 -54.60265625 12.00484375 -53.8828125 11.4921875 C-46.24800108 6.37660679 -37.81290275 4.20984861 -29 2 C-28.0409375 1.75121094 -27.081875 1.50242187 -26.09375 1.24609375 C-17.52809287 -0.64416701 -8.71930962 -0.1726596 0 0 Z " fill="#4B0900" transform="translate(529,120)"/>
<path d="M0 0 C4.10284014 1.37732999 6.66842384 3.23643659 9.8125 6.1875 C10.68519531 6.99574219 11.55789063 7.80398438 12.45703125 8.63671875 C13.71580078 9.80654297 13.71580078 9.80654297 15 11 C16.32789696 12.17285061 17.66079403 13.34007921 19 14.5 C27.27655729 21.72411704 35.31939672 29.13280524 43.08666992 36.90136719 C44.55955972 38.3720641 46.04030265 39.83453534 47.52148438 41.296875 C53.02836649 46.77209258 58.16773475 52.42451086 62.99389648 58.52026367 C65.67208863 61.830766 68.55016075 64.9292381 71.46875 68.02734375 C73.05081647 70.0654651 73.59369856 71.47754522 74 74 C70.43993214 70.48491494 66.99785934 66.88319016 63.625 63.1875 C63.1815625 62.70474609 62.738125 62.22199219 62.28125 61.72460938 C59.69099169 58.89382707 57.14652895 56.02841609 54.62890625 53.1328125 C44.71066587 41.76850025 34.29292392 30.996749 23 21 C22.17371094 20.23558594 21.34742188 19.47117187 20.49609375 18.68359375 C15.2726375 13.86258677 9.84533373 9.46857518 4.11352539 5.27319336 C2.70786219 4.22693629 1.34892016 3.11846201 0 2 C0 1.34 0 0.68 0 0 Z " fill="#4F0C00" transform="translate(494,376)"/>
<path d="M0 0 C1.62615234 0.16435547 1.62615234 0.16435547 3.28515625 0.33203125 C6.7053589 0.67698174 10.12603181 1.01693406 13.546875 1.35546875 C18.26711442 1.82346213 22.98522744 2.30977043 27.703125 2.80078125 C29.73515117 3.00812023 31.76729826 3.2142114 33.79953003 3.41952515 C35.75694253 3.61932895 37.7135712 3.82676548 39.67016602 4.03442383 C52.1684316 5.28739288 64.45373472 5.43781888 76.9375 4 C77.82373047 3.90460937 78.70996094 3.80921875 79.62304688 3.7109375 C81.7494769 3.48105317 83.8748736 3.24163874 86 3 C80.84397314 8.6109704 71.98002763 7.87380195 64.7421875 8.26171875 C52.52580224 8.66431447 40.44351995 7.40254262 28.3125 6.125 C27.48226318 6.03804871 26.65202637 5.95109741 25.79663086 5.86151123 C17.10479736 4.93834214 8.53908459 3.92064517 0 2 C0 1.34 0 0.68 0 0 Z " fill="#430100" transform="translate(460,657)"/>
<path d="M0 0 C0.99 0.99 0.99 0.99 2 2 C-6.51525235 12.81889549 -15.23900046 22.63469501 -27 30 C-28.03769531 30.65871094 -29.07539062 31.31742187 -30.14453125 31.99609375 C-36.55332719 35.87066867 -42.94515816 38.9702992 -50 41.5 C-50.70584229 41.75531494 -51.41168457 42.01062988 -52.13891602 42.27368164 C-56.21522623 43.65674149 -59.70195586 44.26862776 -64 44 C-63.67 43.34 -63.34 42.68 -63 42 C-61.37153511 41.5555965 -59.71937429 41.1977382 -58.0625 40.875 C-43.41452219 37.37411589 -30.67358663 30.35937498 -19 21 C-18.08605469 20.26910156 -17.17210937 19.53820312 -16.23046875 18.78515625 C-9.72184535 13.25632562 -4.87589648 6.96051889 0 0 Z " fill="#4C0A00" transform="translate(703,425)"/>
<path d="M0 0 C0.66 0.66 1.32 1.32 2 2 C-8.60791551 23.46170986 -24.95863263 42.50794965 -48 51 C-50.40625 50.6796875 -50.40625 50.6796875 -52 50 C-50.45892578 49.27296875 -50.45892578 49.27296875 -48.88671875 48.53125 C-39.76030116 44.14628724 -30.46105887 39.66568871 -23.33203125 32.26953125 C-22 31 -22 31 -20 31 C-19.61521484 30.12601563 -19.61521484 30.12601563 -19.22265625 29.234375 C-17.88979732 26.79860725 -16.38817368 25.22037745 -14.4375 23.25 C-8.24375374 16.477717 -4.08314068 8.16628136 0 0 Z " fill="#4B0800" transform="translate(613,605)"/>
<path d="M0 0 C0.99 0.33 1.98 0.66 3 1 C3.15855469 2.01578125 3.31710938 3.0315625 3.48046875 4.078125 C7.2629862 26.92932475 19.54356896 47.69626594 38 62 C37.01 62.495 37.01 62.495 36 63 C33.30539888 60.69734086 30.64501006 58.3594426 28 56 C27.42636719 55.4946875 26.85273438 54.989375 26.26171875 54.46875 C10.86445753 40.06367506 2.40714457 20.70144329 0 0 Z " fill="#490800" transform="translate(196,602)"/>
<path d="M0 0 C0.66 0 1.32 0 2 0 C0.66753472 2.80338872 -0.82675044 5.31029101 -2.6171875 7.84375 C-3.13563232 8.5847998 -3.65407715 9.32584961 -4.18823242 10.08935547 C-5.02318237 11.28262451 -5.02318237 11.28262451 -5.875 12.5 C-17.21417109 28.94361602 -26.77509244 45.79480193 -35 64 C-35.66 63.34 -36.32 62.68 -37 62 C-27.94017523 41.95056099 -17.4396918 23.38717079 -4.14453125 5.8359375 C-2.70541616 3.93284541 -1.32349325 1.98523988 0 0 Z " fill="#4C0800" transform="translate(242,464)"/>
<path d="M0 0 C-0.33 0.99 -0.66 1.98 -1 3 C-2.32451172 2.89171875 -2.32451172 2.89171875 -3.67578125 2.78125 C-21.15374121 1.42957103 -37.81672816 2.44223006 -55 6 C-55 5.34 -55 4.68 -55 4 C-36.35605083 -0.91834242 -19.24687638 -1.8744784 0 0 Z " fill="#480600" transform="translate(410,650)"/>
<path d="M0 0 C2.6367373 3.18795177 4.89534412 6.38041233 7 9.9375 C17.63314016 26.72428723 31.24597739 38.22468931 49 47 C47.34765625 47.6796875 47.34765625 47.6796875 45 48 C24.67776809 39.36380635 8.6680097 20.26019187 -1 1 C-0.67 0.67 -0.34 0.34 0 0 Z " fill="#4A0A00" transform="translate(93,410)"/>
<path d="M0 0 C3.7912591 2.49888079 7.42315535 5.20396343 11 8 C10.01 8.33 9.02 8.66 8 9 C5.3203125 7.33984375 5.3203125 7.33984375 2.125 4.9375 C-8.76472119 -2.9759854 -20.31663711 -8.42846395 -33.9375 -8.125 C-34.71673828 -8.11597656 -35.49597656 -8.10695313 -36.29882812 -8.09765625 C-38.19935447 -8.07433691 -40.09972008 -8.03847586 -42 -8 C-42 -8.66 -42 -9.32 -42 -10 C-26.75537865 -14.56602185 -12.74659879 -7.76278738 0 0 Z " fill="#4F0900" transform="translate(175,297)"/>
<path d="M0 0 C-1.03898438 0.30292969 -2.07796875 0.60585938 -3.1484375 0.91796875 C-21.49053507 6.37453893 -35.97524612 14.91680111 -49 29 C-49 24.79877458 -47.29772255 23.83141388 -44.375 20.875 C-35.62224355 12.22442141 -12.12043906 -6.88128153 0 0 Z " fill="#490600" transform="translate(652,289)"/>
<path d="M0 0 C0.99 0.33 1.98 0.66 3 1 C2.34197388 1.56714722 2.34197388 1.56714722 1.6706543 2.14575195 C-0.32477891 3.86679001 -2.31865243 5.58962528 -4.3125 7.3125 C-5.00279297 7.90740234 -5.69308594 8.50230469 -6.40429688 9.11523438 C-7.07138672 9.69208984 -7.73847656 10.26894531 -8.42578125 10.86328125 C-9.03848877 11.39219971 -9.65119629 11.92111816 -10.2824707 12.46606445 C-12.02647703 13.97942713 -12.02647703 13.97942713 -13.59838867 15.69604492 C-15 17 -15 17 -17 17 C-17.2371875 17.57492187 -17.474375 18.14984375 -17.71875 18.7421875 C-19.27783655 21.48960222 -21.10307351 23.06940798 -23.5 25.125 C-28.9098549 29.8645376 -33.96320311 34.8667538 -39 40 C-39 36.37193537 -37.92963037 35.57138038 -35.47050476 33.07931519 C-34.70199944 32.32462448 -34.70199944 32.32462448 -33.91796875 31.5546875 C-33.12474968 30.76072067 -33.12474968 30.76072067 -32.31550598 29.95071411 C-31.18828903 28.82584198 -30.05736712 27.70467241 -28.9230957 26.58691406 C-27.22383611 24.91084032 -25.53786153 23.22229458 -23.85351562 21.53125 C-17.89999263 15.5945012 -11.84102798 10.02199124 -5.2355957 4.80908203 C-3.35906474 3.29056129 -1.66133648 1.74645496 0 0 Z " fill="#4A0900" transform="translate(336,365)"/>
<path d="M0 0 C0.99 0.66 1.98 1.32 3 2 C1.99582031 2.46148437 0.99164063 2.92296875 -0.04296875 3.3984375 C-13.07431215 9.54647634 -23.686759 16.682668 -33.09765625 27.7734375 C-34.96914151 29.96388226 -36.93851427 31.98901838 -39 34 C-38.53386569 29.61409992 -35.63385885 26.94743798 -32.75 23.875 C-32.2149585 23.30313965 -31.67991699 22.7312793 -31.12866211 22.14208984 C-22.00859924 12.63092092 -11.77253461 5.81883053 0 0 Z " fill="#4A0700" transform="translate(129,288)"/>
<path d="M0 0 C0.66 0.66 1.32 1.32 2 2 C-1.64265646 3.49612551 -5.28650805 4.98930053 -8.93139648 6.47998047 C-10.76672236 7.23126117 -12.60114663 7.98474325 -14.43554688 8.73828125 C-21.57023765 11.6543674 -28.73107287 14.43591922 -36 17 C-36.66 16.34 -37.32 15.68 -38 15 C-25.46 10.05 -12.92 5.1 0 0 Z " fill="#490700" transform="translate(352,655)"/>
<path d="M0 0 C0.66 0.33 1.32 0.66 2 1 C-6.47111554 10.54681275 -6.47111554 10.54681275 -10.625 14.625 C-13.60569629 17.55784107 -16.35947995 20.63505192 -19.08984375 23.80078125 C-22.66738014 27.91970352 -26.34222332 31.95239224 -30 36 C-30 32.44061146 -29.51228853 32.09417838 -27.1875 29.5625 C-26.54554688 28.85609375 -25.90359375 28.1496875 -25.2421875 27.421875 C-24.50226563 26.62265625 -23.76234375 25.8234375 -23 25 C-22.17757813 24.09765625 -21.35515625 23.1953125 -20.5078125 22.265625 C-17.68107424 19.16850309 -14.84277759 16.0823883 -12 13 C-11.44957031 12.40300293 -10.89914062 11.80600586 -10.33203125 11.19091797 C-6.89016955 7.45862457 -3.44590852 3.72855721 0 0 Z " fill="#4B0800" transform="translate(293,406)"/>
<path d="M0 0 C0.99 0.66 1.98 1.32 3 2 C1.45892578 2.65355469 1.45892578 2.65355469 -0.11328125 3.3203125 C-11.84847608 8.34197014 -22.59713766 13.6554828 -32.78515625 21.4609375 C-35 23 -35 23 -37 23 C-37 22.34 -37 21.68 -37 21 C-34.5961809 18.88986999 -31.85053555 17.20300306 -29.1875 15.4375 C-28.38884521 14.90753418 -27.59019043 14.37756836 -26.76733398 13.83154297 C-20.88698919 10.02496507 -14.86854537 6.67213873 -8.5625 3.625 C-7.75256592 3.22595459 -6.94263184 2.82690918 -6.1081543 2.41577148 C-5.35187744 2.06458252 -4.59560059 1.71339355 -3.81640625 1.3515625 C-3.15068604 1.04041504 -2.48496582 0.72926758 -1.79907227 0.40869141 C-1.20537842 0.27382324 -0.61168457 0.13895508 0 0 Z " fill="#4B0800" transform="translate(377,341)"/>
<path d="M0 0 C0.66 0 1.32 0 2 0 C0.4262777 3.37793928 -1.5601588 6.3402382 -3.625 9.4375 C-9.28683104 18.24523204 -12.53420933 28.1779381 -16 38 C-16.66 37.01 -17.32 36.02 -18 35 C-17.34023319 32.59524248 -16.60377976 30.52376282 -15.625 28.25 C-15.21531982 27.26604248 -15.21531982 27.26604248 -14.79736328 26.26220703 C-12.70346987 21.35621361 -10.36488398 16.59106394 -7.875 11.875 C-7.55096191 11.26043945 -7.22692383 10.64587891 -6.89306641 10.01269531 C-4.91179896 6.37150132 -2.79281723 3.07094011 0 0 Z " fill="#4B0900" transform="translate(242,135)"/>
<path d="M0 0 C0 0.66 0 1.32 0 2 C-0.96679688 2.15855469 -1.93359375 2.31710938 -2.9296875 2.48046875 C-12.7930542 4.20665312 -20.96103692 6.75755463 -29 13 C-29.66 12.67 -30.32 12.34 -31 12 C-21.99201559 4.0818705 -12.10920182 -0.28160934 0 0 Z " fill="#4C0700" transform="translate(275,121)"/>
<path d="M0 0 C1.27230469 0.79664063 1.27230469 0.79664063 2.5703125 1.609375 C10.85034657 6.64546356 18.49344549 9.80395701 28 12 C28 12.33 28 12.66 28 13 C16.85377995 14.01329273 7.50087477 8.69537924 -1 2 C-0.67 1.34 -0.34 0.68 0 0 Z " fill="#4D0A00" transform="translate(610,457)"/>
<path d="M0 0 C0 0.66 0 1.32 0 2 C-3.01692571 2.84793248 -6.03905931 3.67562781 -9.0625 4.5 C-10.33383789 4.85771484 -10.33383789 4.85771484 -11.63085938 5.22265625 C-16.5858726 6.56184901 -20.86810247 7.27852904 -26 7 C-26 6.34 -26 5.68 -26 5 C-22.23027682 4.16159002 -18.4590511 3.3301451 -14.6875 2.5 C-13.61564453 2.26152344 -12.54378906 2.02304687 -11.43945312 1.77734375 C-10.41142578 1.55175781 -9.38339844 1.32617188 -8.32421875 1.09375 C-7.37635498 0.88427734 -6.42849121 0.67480469 -5.4519043 0.45898438 C-3 0 -3 0 0 0 Z " fill="#4C0900" transform="translate(310,672)"/>
<path d="M0 0 C3.82395471 0.55345611 6.21418948 1.55594859 9.3203125 3.8359375 C10.10277344 4.40570313 10.88523437 4.97546875 11.69140625 5.5625 C12.49449219 6.160625 13.29757812 6.75875 14.125 7.375 C15.34123047 8.26058594 15.34123047 8.26058594 16.58203125 9.1640625 C19.92914706 11.62045823 23.12720913 13.98992731 26 17 C25.34 17.33 24.68 17.66 24 18 C23.02160156 17.27554687 22.04320312 16.55109375 21.03515625 15.8046875 C11.39529026 8.68942899 11.39529026 8.68942899 1.44140625 2.0234375 C0.96574219 1.68570312 0.49007813 1.34796875 0 1 C0 0.67 0 0.34 0 0 Z " fill="#4C0C00" transform="translate(468,358)"/>
<path d="M0 0 C8.20098285 3.45801811 16.35780384 12.94102297 20 21 C19.67 21.99 19.34 22.98 19 24 C18.52691406 23.32195312 18.05382812 22.64390625 17.56640625 21.9453125 C13.32789657 15.98000257 8.87189398 10.44788622 3.8828125 5.09375 C2 3 2 3 0 0 Z " fill="#4F0A00" transform="translate(335,141)"/>
<path d="M0 0 C3.4677969 1.1559323 3.61780906 1.58716451 5.2265625 4.67578125 C5.814375 5.79436523 5.814375 5.79436523 6.4140625 6.93554688 C7.01347656 8.11213867 7.01347656 8.11213867 7.625 9.3125 C8.03234375 10.08529297 8.4396875 10.85808594 8.859375 11.65429688 C12.56726495 18.7938267 12.56726495 18.7938267 13 22 C12.34 22.66 11.68 23.32 11 24 C10.54109375 22.91460937 10.0821875 21.82921875 9.609375 20.7109375 C8.98989761 19.26549027 8.37008825 17.82018528 7.75 16.375 C7.44964844 15.66214844 7.14929688 14.94929687 6.83984375 14.21484375 C5.3722444 10.81126227 3.8730665 7.65865356 1.765625 4.6015625 C0 2 0 2 0 0 Z " fill="#470900" transform="translate(561,141)"/>
<path d="M0 0 C0.33 0 0.66 0 1 0 C0.55818053 6.28365473 -0.93795043 10.57116258 -4.0625 16 C-4.62807617 17.01900391 -4.62807617 17.01900391 -5.20507812 18.05859375 C-6.1250758 19.71226047 -7.06089839 21.35710697 -8 23 C-8.66 22.34 -9.32 21.68 -10 21 C-9.44570313 19.90300781 -8.89140625 18.80601562 -8.3203125 17.67578125 C-7.58843442 16.22140813 -6.85666955 14.76697804 -6.125 13.3125 C-5.76019531 12.59126953 -5.39539063 11.87003906 -5.01953125 11.12695312 C-3.1820758 7.46874636 -1.43861498 3.8388305 0 0 Z " fill="#480800" transform="translate(715,401)"/>
<path d="M0 0 C3.8679274 0.62032798 6.36972905 2.4624943 9.5 4.75 C10.4384375 5.42546875 11.376875 6.1009375 12.34375 6.796875 C14.98729599 8.98946315 16.96004425 11.24798423 19 14 C18.67 14.66 18.34 15.32 18 16 C17.53851562 15.50371094 17.07703125 15.00742187 16.6015625 14.49609375 C12.06342786 9.76961756 7.3717759 5.96115907 1.90625 2.34765625 C1.2771875 1.90292969 0.648125 1.45820313 0 1 C0 0.67 0 0.34 0 0 Z " fill="#470600" transform="translate(687,292)"/>
<path d="M0 0 C6.6 0.66 13.2 1.32 20 2 C19.67 2.66 19.34 3.32 19 4 C12.35590042 4.21432579 6.46794133 3.51233701 0 2 C0 1.34 0 0.68 0 0 Z " fill="#490900" transform="translate(460,657)"/>
<path d="M0 0 C0.66 0.33 1.32 0.66 2 1 C1.44570312 2.02480469 0.89140625 3.04960937 0.3203125 4.10546875 C-0.41159763 5.46607091 -1.14336071 6.82675218 -1.875 8.1875 C-2.42220703 9.19780273 -2.42220703 9.19780273 -2.98046875 10.22851562 C-4.87359406 13.7566128 -6.61080534 17.23455133 -8 21 C-8.33 21 -8.66 21 -9 21 C-8.50564369 15.60327694 -7.15393269 11.83464285 -4.5 7.125 C-3.55640625 5.42730469 -3.55640625 5.42730469 -2.59375 3.6953125 C-1 1 -1 1 0 0 Z " fill="#480800" transform="translate(88,323)"/>
<path d="M0 0 C4.02103409 1.50677331 5.5593458 3.86565766 7.8125 7.4375 C8.43769531 8.40558594 9.06289063 9.37367188 9.70703125 10.37109375 C11 13 11 13 10 16 C8.3305554 13.52266346 6.66433808 11.04326339 5 8.5625 C4.28457031 7.50192383 4.28457031 7.50192383 3.5546875 6.41992188 C3.10351562 5.74638672 2.65234375 5.07285156 2.1875 4.37890625 C1.76855469 3.7557251 1.34960938 3.13254395 0.91796875 2.49047852 C0 1 0 1 0 0 Z " fill="#4C0A00" transform="translate(584,472)"/>
<path d="M0 0 C4.13813705 0.53176995 6.27082318 2.77932166 9.25 5.5625 C10.14203125 6.38878906 11.0340625 7.21507812 11.953125 8.06640625 C12.62859375 8.70449219 13.3040625 9.34257812 14 10 C13.34 10.66 12.68 11.32 12 12 C8 8 4 4 0 0 Z " fill="#480A00" transform="translate(547,128)"/>
<path d="M0 0 C4.04191465 4.49101628 6.43674441 9.58984989 9 15 C8.01 15 7.02 15 6 15 C3.69 10.38 1.38 5.76 -1 1 C-0.67 0.67 -0.34 0.34 0 0 Z " fill="#4C0B00" transform="translate(596,488)"/>
<path d="M0 0 C3.74123976 4.2954975 6.34151874 8.99900452 9 14 C8.01 14 7.02 14 6 14 C4.9923048 12.2335343 3.99408286 10.46166177 3 8.6875 C2.443125 7.70136719 1.88625 6.71523438 1.3125 5.69921875 C0 3 0 3 0 0 Z " fill="#4E0C00" transform="translate(209,330)"/>
<path d="M0 0 C3.62276315 1.3255581 6.63505348 2.94346955 9.8125 5.125 C10.60269531 5.66382813 11.39289063 6.20265625 12.20703125 6.7578125 C12.79871094 7.16773438 13.39039063 7.57765625 14 8 C13.34 8.66 12.68 9.32 12 10 C9.99426318 8.71656721 7.99563881 7.4239631 6 6.125 C5.42765625 5.76019531 4.8553125 5.39539063 4.265625 5.01953125 C2.80818084 4.06525233 1.39962775 3.03722413 0 2 C0 1.34 0 0.68 0 0 Z " fill="#4D0900" transform="translate(315,126)"/>
<path d="M0 0 C0.66 0.66 1.32 1.32 2 2 C-0.64 4.64 -3.28 7.28 -6 10 C-6.99 9.67 -7.98 9.34 -9 9 C-6.03 6.03 -3.06 3.06 0 0 Z " fill="#420900" transform="translate(548,298)"/>
<path d="M0 0 C0.33 0 0.66 0 1 0 C0.50269348 4.97306516 -0.55302334 8.63799813 -3 13 C-3.66 12.67 -4.32 12.34 -5 12 C-3.68938409 7.76570244 -2.05643741 3.92592596 0 0 Z " fill="#4F0C00" transform="translate(364,276)"/>
<path d="M0 0 C3.66786393 1.50349377 5.68910393 3.63728792 8.25 6.625 C8.95640625 7.44226563 9.6628125 8.25953125 10.390625 9.1015625 C10.92171875 9.72804688 11.4528125 10.35453125 12 11 C9 11 9 11 7.24609375 9.609375 C6.64925781 8.99578125 6.05242188 8.3821875 5.4375 7.75 C4.83808594 7.14671875 4.23867188 6.5434375 3.62109375 5.921875 C2.02427887 4.02878362 1.00261455 2.25463571 0 0 Z " fill="#4F0D00" transform="translate(594,442)"/>
<path d="M0 0 C3.97497544 3.40712181 5.86793788 7.32760855 8 12 C7.01 12.495 7.01 12.495 6 13 C4.99193149 11.40089132 3.99379615 9.79551738 3 8.1875 C2.443125 7.29417969 1.88625 6.40085937 1.3125 5.48046875 C0 3 0 3 0 0 Z " fill="#460600" transform="translate(707,308)"/>
<path d="M0 0 C1.84121215 1.09097798 3.67281256 2.19819251 5.5 3.3125 C6.5209375 3.92738281 7.541875 4.54226563 8.59375 5.17578125 C9.3878125 5.77777344 10.181875 6.37976563 11 7 C11 7.99 11 8.98 11 10 C9.15878785 8.90902202 7.32718744 7.80180749 5.5 6.6875 C4.4790625 6.07261719 3.458125 5.45773437 2.40625 4.82421875 C1.21515625 3.92123047 1.21515625 3.92123047 0 3 C0 2.01 0 1.02 0 0 Z " fill="#500D00" transform="translate(269,310)"/>
<path d="M0 0 C-3.33960156 2.22640104 -6.08610984 3.16130925 -10 4 C-10.99 3.34 -11.98 2.68 -13 2 C-11.39935157 1.46845258 -9.79431126 0.95011647 -8.1875 0.4375 C-7.29417969 0.14746094 -6.40085937 -0.14257812 -5.48046875 -0.44140625 C-3 -1 -3 -1 0 0 Z " fill="#440800" transform="translate(561,657)"/>
<path d="M0 0 C2.92965912 2.92965912 3.94133569 5.680053 4.125 9.8125 C4.08375 10.534375 4.0425 11.25625 4 12 C1.03947516 8.63576723 0.07710178 5.30840713 -1 1 C-0.67 0.67 -0.34 0.34 0 0 Z " fill="#460A00" transform="translate(609,512)"/>
<path d="M0 0 C0.66 0 1.32 0 2 0 C0.63629701 2.99220268 -0.94908083 5.29026529 -3.125 7.75 C-3.93324219 8.67039062 -3.93324219 8.67039062 -4.7578125 9.609375 C-5.16773438 10.06828125 -5.57765625 10.5271875 -6 11 C-6.33 10.34 -6.66 9.68 -7 9 C-5.88266271 7.49428343 -4.75589965 5.99555708 -3.625 4.5 C-2.99851562 3.6646875 -2.37203125 2.829375 -1.7265625 1.96875 C-1.15679687 1.3190625 -0.58703125 0.669375 0 0 Z " fill="#460800" transform="translate(259,443)"/>
<path d="M0 0 C2.97 1.32 5.94 2.64 9 4 C8.67 4.66 8.34 5.32 8 6 C3.05 4.02 3.05 4.02 -2 2 C-1.34 1.34 -0.68 0.68 0 0 Z " fill="#4E0E00" transform="translate(432,338)"/>
<path d="M0 0 C2 4 2 4 1.125 7.75 C0.75375 8.8225 0.3825 9.895 0 11 C-0.66 10.67 -1.32 10.34 -2 10 C-1.34 6.7 -0.68 3.4 0 0 Z " fill="#4A0B00" transform="translate(576,243)"/>
<path d="M0 0 C0.33 0.99 0.66 1.98 1 3 C-0.98 4.98 -2.96 6.96 -5 9 C-5.66 8.67 -6.32 8.34 -7 8 C-4.69 5.36 -2.38 2.72 0 0 Z " fill="#4A0E00" transform="translate(220,433)"/>
<path d="M0 0 C3.94139078 1.66751148 6.7892812 4.22710649 10 7 C9.01 7.33 8.02 7.66 7 8 C5.83035398 6.8572081 4.66435444 5.71068285 3.5 4.5625 C2.8503125 3.92441406 2.200625 3.28632813 1.53125 2.62890625 C0 1 0 1 0 0 Z " fill="#490800" transform="translate(186,307)"/>
<path d="M0 0 C0.99 0.33 1.98 0.66 3 1 C1.02 3.31 -0.96 5.62 -3 8 C-3.33 7.34 -3.66 6.68 -4 6 C-2.68 4.02 -1.36 2.04 0 0 Z " fill="#490A00" transform="translate(249,455)"/>
<path d="M0 0 C1.80411967 2.75924185 2.0127245 3.88972103 1.625 7.25 C1.41875 8.1575 1.2125 9.065 1 10 C0.67 10 0.34 10 0 10 C-0.19412181 8.52168779 -0.38012131 7.04230684 -0.5625 5.5625 C-0.66691406 4.73878906 -0.77132812 3.91507812 -0.87890625 3.06640625 C-0.91886719 2.38449219 -0.95882812 1.70257813 -1 1 C-0.67 0.67 -0.34 0.34 0 0 Z " fill="#4C0900" transform="translate(227,370)"/>
<path d="M0 0 C2.66735273 2.48952921 4.55746343 4.63408134 6 8 C5.01 8.495 5.01 8.495 4 9 C1.525 5.04 1.525 5.04 -1 1 C-0.67 0.67 -0.34 0.34 0 0 Z " fill="#4C0C00" transform="translate(245,284)"/>
</svg>
