<?xml version="1.0" encoding="UTF-8"?>
<svg version="1.1" xmlns="http://www.w3.org/2000/svg" width="800" height="800">
<path d="M0 0 C11.3211991 -0.09478353 22.64231391 -0.16896059 33.96380842 -0.22093904 C40.08937842 -0.24969967 46.21448564 -0.28853611 52.33979738 -0.35253561 C58.03308704 -0.41163891 63.72581934 -0.44252374 69.41940248 -0.45126379 C71.47940781 -0.45934111 73.53940417 -0.4776436 75.59921205 -0.50728643 C95.86528251 -0.78819078 95.86528251 -0.78819078 103.23075807 6.15750468 C110.44226655 14.33493992 111.11600229 21.3525311 110.50468385 32.0188328 C109.71217047 38.20637045 105.54954784 42.12733524 101.10575807 46.09500468 C96.40701342 49.46584323 93.64640369 50.40778403 87.79624879 50.42924845 C87.15098891 50.43433529 86.50572902 50.43942212 85.8409158 50.44466311 C83.67685733 50.45932821 81.51302683 50.45985775 79.34892213 50.46048319 C77.79342145 50.4681499 76.2379249 50.47669732 74.68243349 50.48605692 C71.31646965 50.50438394 67.95056186 50.51639531 64.58455598 50.52359545 C59.16861163 50.53521316 53.75278376 50.56076616 48.33689821 50.58790934 C39.65982105 50.62972359 30.98273739 50.66197983 22.30560696 50.69038349 C4.30664524 50.74960035 -13.69224804 50.82900102 -31.69111693 50.91141093 C-32.62188866 50.91566852 -33.55266039 50.9199261 -34.51163733 50.92431271 C-61.74345594 51.05003134 -88.97490649 51.21204261 -116.20549834 51.50480807 C-119.67499181 51.5419493 -123.14448359 51.57500898 -126.61405241 51.60425341 C-130.65323097 51.63862094 -134.6922091 51.68220289 -138.73121607 51.73279655 C-140.1920195 51.74972398 -141.65286148 51.76367565 -143.1137253 51.77416837 C-160.29380527 51.9028728 -177.59159713 52.2170783 -190.54267943 64.79812968 C-203.67558017 78.71439643 -204.02719508 95.79973875 -204.18330443 114.15359843 C-204.20237381 115.64128201 -204.2220513 117.1289579 -204.24226439 118.61662638 C-204.2950147 122.73389251 -204.33448625 126.85118876 -204.3705374 130.96863139 C-204.39451452 133.62520689 -204.42175478 136.2817314 -204.44984496 138.9382664 C-204.83770672 176.1475649 -204.87352548 213.35955186 -204.89063811 250.57055205 C-204.89278773 255.23801306 -204.89603783 259.90547122 -204.90031743 264.57293075 C-204.92825399 295.76093252 -204.88578792 326.94805689 -204.4423033 358.13344157 C-204.40563365 360.75389814 -204.37162256 363.37439354 -204.34053481 365.99492228 C-204.98791079 396.76992504 -204.98791079 396.76992504 -191.12861693 422.93094218 C-173.58228849 439.48956339 -148.41348915 436.45351462 -125.81758177 436.41629374 C-123.03303771 436.41791018 -120.24850019 436.42250108 -117.46395934 436.42691386 C-110.72728261 436.43574392 -103.99065079 436.43391479 -97.2539724 436.42808858 C-91.77350988 436.42354745 -86.29305983 436.4229697 -80.81259596 436.42513621 C-80.02867639 436.42544267 -79.24475683 436.42574914 -78.43708212 436.42606489 C-76.84393643 436.42670443 -75.25079074 436.42735285 -73.65764506 436.42801008 C-58.76704086 436.43369445 -43.8764614 436.42718493 -28.98586126 436.41640934 C-16.24144193 436.40747205 -3.49705904 436.40903103 9.24735963 436.41824687 C24.0925845 436.42897701 38.93778776 436.43314898 53.78301597 436.42702234 C55.36925852 436.42638532 56.95550108 436.42575658 58.54174364 436.42513621 C59.32195389 436.42482766 60.10216414 436.42451911 60.90601713 436.42420121 C66.37348804 436.42248274 71.8409451 436.42537087 77.30841386 436.43009531 C83.9804147 436.43573461 90.65236855 436.434124 97.32436408 436.42353383 C100.72086257 436.41831833 104.11721912 436.41724647 107.51372659 436.42283213 C139.607967 437.58030166 139.607967 437.58030166 167.03935182 423.57937968 C180.37400221 408.8423329 180.20317251 390.0447678 180.75810182 371.13406718 C180.78956143 370.07620446 180.78956143 370.07620446 180.82165658 368.99697077 C181.25905639 353.87326631 181.37471312 338.74750881 181.47685182 323.61844218 C181.48523576 322.40362414 181.4936197 321.1888061 181.5022577 319.93717539 C181.57997501 308.53980376 181.6508288 297.14240323 181.70756471 285.74490702 C181.73936443 279.44219825 181.78057787 273.13960915 181.8277601 266.83699763 C181.84369555 264.46004319 181.85605574 262.08306184 181.8646673 259.70606959 C181.87683859 256.40639024 181.9009773 253.10699539 181.92777956 249.80740702 C181.9283687 248.84230204 181.92895784 247.87719706 181.92956483 246.88284647 C182.02336592 238.15506869 183.02635442 231.39594765 189.26982057 224.92312968 C195.76682847 219.07323412 201.84808868 218.4482507 210.53153932 218.71609843 C216.90515422 219.47662481 221.69093868 221.48236704 226.13700807 226.16531718 C230.09587127 231.22593948 231.3555899 234.89819327 231.35774171 241.36420023 C231.36056154 242.6647787 231.36338136 243.96535716 231.36628664 245.30534708 C231.36434211 246.75036981 231.36229392 248.19539239 231.3601526 249.64041483 C231.36150753 251.16005332 231.36328798 252.67969148 231.36546266 254.19932902 C231.3700315 258.33446662 231.36824824 262.46957933 231.36508358 266.60471737 C231.36255071 270.9436334 231.3649007 275.28254731 231.36646974 279.62146342 C231.36829144 286.92352011 231.36588795 294.22556671 231.36112916 301.52762187 C231.35571504 309.93146537 231.35742832 318.33528451 231.36295557 326.7391274 C231.36752091 333.97336613 231.36811977 341.2075976 231.3655169 348.44183731 C231.36396915 352.75323879 231.36371809 357.0646289 231.36705339 361.37602961 C231.36998099 365.44554026 231.36786842 369.51502021 231.36215913 373.58452761 C231.36085613 375.06416679 231.36118273 376.54380862 231.3634218 378.02344668 C231.4083783 410.8022112 226.66050076 436.52580786 203.10575807 460.84500468 C196.42135649 467.51609072 189.77060551 472.11890865 181.23075807 476.15750468 C179.51759401 476.98314921 179.51759401 476.98314921 177.76982057 477.82547343 C155.49234987 487.96297414 133.76360582 487.31234747 109.7842797 487.31754744 C106.06229647 487.31941859 102.34032364 487.32697552 98.61834657 487.33368266 C90.50471725 487.34717935 82.39109293 487.35327609 74.27745426 487.35769331 C69.20152786 487.36046854 64.12560333 487.36470794 59.04967821 487.36919749 C44.96515528 487.38137513 30.88063382 487.39167978 16.79610574 487.39507258 C15.89735246 487.39529215 14.99859917 487.39551171 14.07261094 487.39573793 C13.17186621 487.39595621 12.27112149 487.39617449 11.34308147 487.39639938 C9.51820544 487.39684283 7.69332941 487.39728939 5.86845338 487.39773905 C4.96327645 487.39796048 4.05809951 487.39818191 3.12549298 487.39841005 C-11.54434005 487.40235891 -26.21412343 487.4198224 -40.88393728 487.44309857 C-55.98485192 487.46686349 -71.08574168 487.47927664 -86.18667531 487.4804405 C-94.64953168 487.48135397 -103.11232319 487.48702401 -111.57516158 487.50526011 C-118.778979 487.5207302 -125.98271148 487.52574081 -133.18654238 487.51752201 C-136.85454938 487.51364081 -140.52238565 487.51441989 -144.19037116 487.52857935 C-177.79140344 487.65065829 -205.05503986 482.24776445 -229.76924193 458.15750468 C-250.32727222 437.13224642 -254.86562029 407.96804102 -254.97456419 379.92752421 C-254.98417373 378.33639123 -254.99418544 376.74526064 -255.00456297 375.15413249 C-255.03144636 370.85070137 -255.05258702 366.5472597 -255.07256496 362.2437917 C-255.0947837 357.65258291 -255.12204879 353.06140358 -255.1486212 348.4702183 C-255.19285738 340.70128127 -255.23356388 332.9323322 -255.27192748 325.16336405 C-255.31054406 317.34661328 -255.35198638 309.52988575 -255.39692748 301.71316874 C-256.18197262 165.09930241 -256.18197262 165.09930241 -255.45185912 119.79935038 C-255.40133062 116.55075352 -255.36098442 113.30229269 -255.32465613 110.05352271 C-255.28568531 106.78467563 -255.23376247 103.51603524 -255.18330443 100.24734843 C-255.17175322 99.12054163 -255.16020201 97.99373484 -255.14830077 96.83278239 C-254.6017231 67.3681462 -244.05437676 44.16448621 -223.24824584 23.53641093 C-212.16301929 13.20142256 -195.23356061 6.95037047 -180.76924193 3.15750468 C-179.8969773 2.90561963 -179.8969773 2.90561963 -179.00709116 2.648646 C-169.61149979 0.58659326 -159.42751489 1.00186452 -149.84614623 0.95218241 C-148.62866855 0.94230264 -147.41119088 0.93242287 -146.15681994 0.92224371 C-142.83301574 0.89627082 -139.50923308 0.87431191 -136.18539107 0.8542701 C-133.34136975 0.83636295 -130.49737809 0.81503429 -127.65338087 0.79368103 C-117.58789018 0.71811856 -107.52233305 0.6554456 -97.45674193 0.59500468 C-95.85701172 0.58530903 -94.25728155 0.57560825 -92.65755141 0.56590235 C-78.00692087 0.47731938 -63.35627116 0.39250247 -48.705567 0.3170048 C-45.4325207 0.30005501 -42.15947483 0.28302655 -38.88642943 0.26590312 C-38.08161969 0.26169332 -37.27680996 0.25748353 -36.44761205 0.25314617 C-24.29821402 0.18890066 -12.14913607 0.10191495 0 0 Z " fill="#591A00" transform="translate(411.76924192905426,155.84249532222748)"/>
<path d="M0 0 C5.92849925 4.39148093 9.95134353 9.1332608 12.1875 16.3125 C13.08562852 23.6289616 12.48488219 29.29347586 8.1875 35.3125 C6.5522111 37.2053133 4.90156625 39.05241255 3.19921875 40.8828125 C2.42595497 41.7169165 2.42595497 41.7169165 1.6370697 42.56787109 C-6.27548823 51.02602152 -14.54011259 59.14512593 -22.75 67.3125 C-24.43578302 68.99325277 -26.12133137 70.67424094 -27.80664062 72.35546875 C-31.54220071 76.08120018 -35.2803417 79.80432503 -39.01960754 83.52633667 C-40.58015333 85.08102538 -42.1387587 86.63760458 -43.69580078 88.19580078 C-45.07130154 89.57130154 -46.45236544 90.94126951 -47.83984375 92.3046875 C-51.01495473 95.43434699 -54.08881687 98.56812189 -56.9375 102 C-58.80023592 104.22925808 -60.47777 105.86453256 -62.75 107.75 C-65.94739515 110.42537145 -68.46765043 113.30881462 -71.16015625 116.47265625 C-73.17183583 118.71261153 -75.4637715 120.4335172 -77.8125 122.3125 C-78.99769877 123.62938753 -80.16276716 124.96453736 -81.3125 126.3125 C-83.93825695 129.39097367 -86.65115658 131.78342526 -89.8125 134.3125 C-90.89243329 135.52637851 -91.95292544 136.75766678 -93 138 C-96.53237727 142.14300704 -100.45399077 145.69075842 -104.53125 149.2890625 C-107.06498183 151.53644792 -109.44917174 153.88697889 -111.8125 156.3125 C-113.1444623 157.64720296 -114.47792693 158.98040755 -115.8125 160.3125 C-116.451875 160.951875 -117.09125 161.59125 -117.75 162.25 C-184.85314941 229.35314941 -184.85314941 229.35314941 -186.37010193 230.86924744 C-187.758146 232.2581138 -189.14323357 233.64993299 -190.52819824 235.04187012 C-192.70637619 237.20701136 -194.94742091 239.28791143 -197.21459961 241.35913086 C-206.86787383 250.20260795 -216.06285571 259.50073143 -225.26806641 268.80517578 C-230.46847765 274.05043935 -235.64440705 279.24133676 -241.29589844 284.00854492 C-242.99887342 285.43385 -242.99887342 285.43385 -245.125 287.6875 C-248.73021787 291.15919128 -253.34149339 290.59182252 -258.04296875 290.51171875 C-269.97693562 289.65328108 -278.38885551 277.79271194 -286.2265625 269.8671875 C-288.36470487 267.75488371 -290.5277179 265.76155901 -292.8125 263.8125 C-298.11120607 259.2894808 -302.92315257 254.2676234 -307.8125 249.3125 C-311.22796032 245.89060822 -314.65505694 242.48064167 -318.0859375 239.07421875 C-319.60163247 237.5659077 -321.11684063 236.0571095 -322.63183594 234.5480957 C-323.6644611 233.5204943 -324.69798268 232.49379286 -325.73242188 231.46801758 C-331.64769974 225.6007778 -337.45228597 219.7002685 -342.8125 213.3125 C-344.09060547 211.80429687 -344.09060547 211.80429687 -345.39453125 210.265625 C-346.49861328 208.92757812 -346.49861328 208.92757812 -347.625 207.5625 C-348.37394531 206.66015625 -349.12289063 205.7578125 -349.89453125 204.828125 C-354.45418984 198.84763593 -354.54847102 193.70947459 -353.8125 186.3125 C-351.73832331 178.23935718 -346.68746282 172.81508015 -339.8125 168.375 C-333.43606115 166.05629496 -324.63684646 165.94708418 -318.28515625 168.21484375 C-316.375 169.3125 -316.375 169.3125 -313.8125 171.3125 C-313.8125 171.9725 -313.8125 172.6325 -313.8125 173.3125 C-313.27109375 173.52519531 -312.7296875 173.73789062 -312.171875 173.95703125 C-308.95942169 175.80259631 -306.60646564 178.3517536 -304.0625 181 C-299.98973538 185.17374225 -295.87375108 189.13629659 -291.3359375 192.8125 C-289.8125 194.3125 -289.8125 194.3125 -288.8515625 196.375 C-288.00359835 198.43265955 -288.00359835 198.43265955 -286.14111328 199.05224609 C-282.71420162 200.90690304 -280.22127659 203.65940761 -277.515625 206.4140625 C-276.92199158 207.01052582 -276.32835815 207.60698914 -275.71673584 208.2215271 C-273.82723373 210.1221981 -271.94481608 212.02971474 -270.0625 213.9375 C-268.78040935 215.22962468 -267.49786239 216.52129676 -266.21484375 217.8125 C-263.07541568 220.97394479 -259.94232199 224.1415461 -256.8125 227.3125 C-256.19632812 227.00054687 -255.58015625 226.68859375 -254.9453125 226.3671875 C-253.54853499 225.67647335 -252.128359 225.03079488 -250.6875 224.4375 C-248.6761804 223.45904499 -248.6761804 223.45904499 -247.87725496 221.43986011 C-246.77369078 219.23495991 -245.63671388 217.88612016 -243.90142059 216.14973831 C-243.30301125 215.54611347 -242.70460191 214.94248864 -242.08805895 214.32057214 C-241.42989671 213.66687135 -240.77173448 213.01317055 -240.09362793 212.33966064 C-239.39504276 211.63795549 -238.69645759 210.93625034 -237.97670317 210.21328139 C-235.62918967 207.85777574 -233.27457407 205.50950078 -230.91992188 203.16113281 C-229.23774849 201.47625017 -227.55600106 199.79094217 -225.87464905 198.10523987 C-221.7779939 194.00040105 -217.67666125 189.90028076 -213.57301533 185.80243143 C-210.23941001 182.47334053 -206.90775906 179.14230551 -203.57749939 175.80986786 C-203.10376104 175.33582305 -202.6300227 174.86177823 -202.14192864 174.37336843 C-201.17961169 173.41041204 -200.21729924 172.44745116 -199.25499123 171.48448583 C-190.23068786 162.45447887 -181.2002632 153.43061351 -172.16773719 144.40883252 C-164.41124202 136.66127867 -156.66001376 128.90848784 -148.91259766 121.15185547 C-139.92026998 112.14883564 -130.92472083 103.14905506 -121.92397165 94.15445399 C-120.96514377 93.19626323 -120.00632007 92.23806827 -119.04750061 91.27986908 C-118.57570915 90.80838617 -118.1039177 90.33690327 -117.61782953 89.851133 C-114.2871478 86.52218095 -110.95879832 83.19090789 -107.6313324 79.85874176 C-103.15764557 75.37929911 -98.67913586 70.90473619 -94.19677544 66.43397331 C-92.54783198 64.7876856 -90.90060886 63.13967279 -89.2551899 61.48986244 C-87.01848816 59.24773999 -84.77579012 57.01179895 -82.53137207 54.77740479 C-81.87320983 54.11478111 -81.2150476 53.45215743 -80.53694105 52.76945424 C-76.04080026 48.3125 -76.04080026 48.3125 -73.8125 48.3125 C-73.61269531 47.77496094 -73.41289063 47.23742187 -73.20703125 46.68359375 C-71.20551813 43.2804608 -68.43265549 40.98216653 -65.5 38.375 C-61.50218292 34.77560637 -57.58671312 31.14980786 -53.8125 27.3125 C-51.21165351 24.68419632 -48.60601582 22.06067679 -46 19.4375 C-45.32646484 18.75558594 -44.65292969 18.07367188 -43.95898438 17.37109375 C-16.3530609 -10.36691548 -16.3530609 -10.36691548 0 0 Z " fill="#591A00" transform="translate(655.8125,183.6875)"/>
<path d="M0 0 C11.3211991 -0.09478353 22.64231391 -0.16896059 33.96380842 -0.22093904 C40.08937842 -0.24969967 46.21448564 -0.28853611 52.33979738 -0.35253561 C58.03308704 -0.41163891 63.72581934 -0.44252374 69.41940248 -0.45126379 C71.47940781 -0.45934111 73.53940417 -0.4776436 75.59921205 -0.50728643 C95.86528251 -0.78819078 95.86528251 -0.78819078 103.23075807 6.15750468 C110.44226655 14.33493992 111.11600229 21.3525311 110.50468385 32.0188328 C109.71217047 38.20637045 105.54954784 42.12733524 101.10575807 46.09500468 C96.2840142 49.5540818 93.46610413 50.40871041 87.45306337 50.43597758 C86.77181962 50.44176998 86.09057588 50.44756238 85.38868839 50.45353031 C83.10560959 50.47053417 80.82273297 50.47340751 78.53959596 50.47635233 C76.90134631 50.48565275 75.26310139 50.4958216 73.62486207 50.50679362 C69.16669246 50.53415912 64.70855463 50.54927308 60.25032294 50.56222165 C55.55931174 50.57789609 50.86836396 50.60469413 46.17739809 50.63025248 C37.25894704 50.67712899 28.34048362 50.71379749 19.4219721 50.74692535 C9.38976198 50.7847213 -0.64237761 50.83441669 -10.67453051 50.88490951 C-47.9192755 51.07116435 -47.9192755 51.07116435 -62.78185999 51.11153948 C-63.57918376 51.11371419 -64.37650753 51.11588889 -65.19799262 51.11812949 C-66.77212159 51.12241299 -68.34625074 51.12663333 -69.92038006 51.13078737 C-74.4316935 51.14447926 -78.94256504 51.17344314 -83.45368844 51.21689963 C-85.53953066 51.23622823 -87.6253578 51.25145322 -89.71124423 51.26510012 C-92.22008767 51.28236801 -94.72889547 51.30713172 -97.23757136 51.34087908 C-98.87336571 51.3493716 -98.87336571 51.3493716 -100.54220641 51.35803568 C-101.48622596 51.36756455 -102.43024552 51.37709342 -103.40287173 51.38691103 C-105.76924193 51.15750468 -105.76924193 51.15750468 -108.76924193 49.15750468 C-107.02276783 47.41103057 -104.74404198 48.03354193 -102.41666132 48.02556074 C-101.25609511 48.02920947 -101.25609511 48.02920947 -100.07208312 48.03293192 C-98.84807723 48.0308167 -98.84807723 48.0308167 -97.59934396 48.02865875 C-94.84337829 48.02498583 -92.08746344 48.02835084 -89.33149779 48.03152812 C-87.36405963 48.03013427 -85.39662178 48.02823555 -83.42918456 48.0258671 C-79.18067174 48.0213597 -74.93216862 48.01951379 -70.68365347 48.01940501 C-63.96456372 48.01826737 -57.24552926 48.005448 -50.52645934 47.9898411 C-48.82728382 47.98598182 -48.82728382 47.98598182 -47.09378153 47.98204458 C-44.77670026 47.97677759 -42.45961902 47.9714921 -40.14253783 47.96618855 C-24.49311382 47.93105241 -8.84375745 47.90452483 6.80570924 47.9070164 C17.35158749 47.90860519 27.89727829 47.89256139 38.44309646 47.85630977 C44.02586142 47.83784584 49.60831346 47.82851047 55.19110239 47.84078562 C60.44677954 47.85222841 65.70189709 47.84050389 70.95749986 47.81115115 C72.88436119 47.80451391 74.8112738 47.80637164 76.73811471 47.81744921 C79.37431383 47.83134451 82.00862991 47.81439917 84.64471376 47.790012 C85.40280952 47.80136738 86.16090527 47.81272276 86.94197363 47.82442224 C93.92751857 47.69923501 98.79212014 44.66031729 103.60575807 39.72000468 C107.74334485 33.19534861 107.85081988 26.69989592 107.23075807 19.15750468 C105.51761596 12.62615039 101.54699074 9.02478334 96.23075807 5.15750468 C93.35823616 3.49566932 91.31863092 2.90935133 88.00779188 2.92423308 C87.16754663 2.92311768 86.32730139 2.92200228 85.46159416 2.92085308 C84.08435369 2.93440485 84.08435369 2.93440485 82.67929018 2.94823039 C81.21005081 2.95073409 81.21005081 2.95073409 79.71112984 2.95328838 C76.41898008 2.96138233 73.12708697 2.98392603 69.83500612 3.00638163 C67.47767882 3.01516941 65.12034813 3.02308277 62.76301515 3.03018534 C56.34655828 3.05213296 49.93022432 3.08670549 43.51383889 3.12371433 C37.46834189 3.15779158 31.42279972 3.18131889 25.37725864 3.20601311 C13.37533505 3.25540086 1.37347836 3.3144583 -10.62837279 3.37894022 C-22.22991067 3.44126259 -33.83145423 3.49693649 -45.43306029 3.54495585 C-46.50073743 3.54937641 -46.50073743 3.54937641 -47.5899838 3.55388627 C-48.65593971 3.55829827 -48.65593971 3.55829827 -49.74343008 3.56279939 C-62.99051097 3.61766714 -76.23755849 3.67851136 -89.48459924 3.74230588 C-94.14209513 3.76461913 -98.79959662 3.78528588 -103.45710242 3.80544817 C-109.76655801 3.83314296 -116.07597364 3.86556311 -122.38538802 3.90140879 C-124.68329225 3.9138015 -126.98120492 3.92474277 -129.2791239 3.93400729 C-140.62452472 3.98075643 -151.9576926 4.12714697 -163.29528868 4.57075846 C-164.2260646 4.60385279 -165.15684053 4.63694711 -166.11582178 4.67104429 C-180.40412027 5.29858572 -193.03045501 9.96840978 -205.76924193 16.15750468 C-206.80307005 16.65379374 -207.83689818 17.1500828 -208.90205443 17.66141093 C-226.16484236 26.48514793 -237.66726906 42.98562413 -245.76924193 60.15750468 C-246.42924193 59.16750468 -247.08924193 58.17750468 -247.76924193 57.15750468 C-237.02519816 32.75394797 -217.93472926 17.0744469 -193.76924193 7.15750468 C-189.50467405 5.5875174 -185.16406797 4.30992573 -180.76924193 3.15750468 C-179.8969773 2.90561963 -179.8969773 2.90561963 -179.00709116 2.648646 C-169.61149979 0.58659326 -159.42751489 1.00186452 -149.84614623 0.95218241 C-148.62866855 0.94230264 -147.41119088 0.93242287 -146.15681994 0.92224371 C-142.83301574 0.89627082 -139.50923308 0.87431191 -136.18539107 0.8542701 C-133.34136975 0.83636295 -130.49737809 0.81503429 -127.65338087 0.79368103 C-117.58789018 0.71811856 -107.52233305 0.6554456 -97.45674193 0.59500468 C-95.85701172 0.58530903 -94.25728155 0.57560825 -92.65755141 0.56590235 C-78.00692087 0.47731938 -63.35627116 0.39250247 -48.705567 0.3170048 C-45.4325207 0.30005501 -42.15947483 0.28302655 -38.88642943 0.26590312 C-38.08161969 0.26169332 -37.27680996 0.25748353 -36.44761205 0.25314617 C-24.29821402 0.18890066 -12.14913607 0.10191495 0 0 Z " fill="#490400" transform="translate(411.76924192905426,155.84249532222748)"/>
<path d="M0 0 C5.92849925 4.39148093 9.95134353 9.1332608 12.1875 16.3125 C13.08562852 23.6289616 12.48488219 29.29347586 8.1875 35.3125 C6.5522111 37.2053133 4.90156625 39.05241255 3.19921875 40.8828125 C2.42595497 41.7169165 2.42595497 41.7169165 1.6370697 42.56787109 C-6.27548823 51.02602152 -14.54011259 59.14512593 -22.75 67.3125 C-24.43578302 68.99325277 -26.12133137 70.67424094 -27.80664062 72.35546875 C-31.54220071 76.08120018 -35.2803417 79.80432503 -39.01960754 83.52633667 C-40.58015333 85.08102538 -42.1387587 86.63760458 -43.69580078 88.19580078 C-45.07130154 89.57130154 -46.45236544 90.94126951 -47.83984375 92.3046875 C-51.01495473 95.43434699 -54.08881687 98.56812189 -56.9375 102 C-58.80023592 104.22925808 -60.47777 105.86453256 -62.75 107.75 C-65.94739515 110.42537145 -68.46765043 113.30881462 -71.16015625 116.47265625 C-73.17183583 118.71261153 -75.4637715 120.4335172 -77.8125 122.3125 C-78.99769877 123.62938753 -80.16276716 124.96453736 -81.3125 126.3125 C-83.93825695 129.39097367 -86.65115658 131.78342526 -89.8125 134.3125 C-90.89243329 135.52637851 -91.95292544 136.75766678 -93 138 C-96.53237727 142.14300704 -100.45399077 145.69075842 -104.53125 149.2890625 C-107.06498183 151.53644792 -109.44917174 153.88697889 -111.8125 156.3125 C-113.1444623 157.64720296 -114.47792693 158.98040755 -115.8125 160.3125 C-116.451875 160.951875 -117.09125 161.59125 -117.75 162.25 C-184.85314941 229.35314941 -184.85314941 229.35314941 -186.37010193 230.86924744 C-187.758146 232.2581138 -189.14323357 233.64993299 -190.52819824 235.04187012 C-192.70637619 237.20701136 -194.94742091 239.28791143 -197.21459961 241.35913086 C-206.86787383 250.20260795 -216.06285571 259.50073143 -225.26806641 268.80517578 C-230.46847765 274.05043935 -235.64440705 279.24133676 -241.29589844 284.00854492 C-242.99887342 285.43385 -242.99887342 285.43385 -245.125 287.6875 C-248.73021787 291.15919128 -253.34149339 290.59182252 -258.04296875 290.51171875 C-269.96485077 289.65415037 -278.37461729 277.81483242 -286.19921875 269.890625 C-289.07403845 267.05448 -292.08063206 264.43398397 -295.15234375 261.81640625 C-297.32091514 259.85193569 -299.0942787 257.67505428 -300.8125 255.3125 C-297.8125 255.3125 -297.8125 255.3125 -296.26953125 256.59765625 C-295.72683594 257.18417969 -295.18414062 257.77070313 -294.625 258.375 C-292.21691604 260.89345448 -289.78527602 263.24984986 -287.125 265.5 C-284.04214552 268.14501717 -281.17093842 270.93307553 -278.32885742 273.83007812 C-268.33364986 284.09959118 -268.33364986 284.09959118 -254.6796875 287.46484375 C-249.12721084 287.16982115 -246.24042603 285.09792051 -242.5 281.125 C-239.82715642 278.30393958 -237.09738509 275.66808241 -234.14770508 273.14331055 C-229.87008954 269.41624286 -225.86086624 265.47219986 -221.875 261.4375 C-220.78844116 260.34526123 -220.78844116 260.34526123 -219.67993164 259.23095703 C-217.38831697 256.92724354 -215.09999348 254.62030526 -212.8125 252.3125 C-209.79464919 249.26785221 -206.77336584 246.22667033 -203.75 243.1875 C-203.07267822 242.50187988 -202.39535645 241.81625977 -201.69750977 241.10986328 C-201.04322998 240.45228027 -200.3889502 239.79469727 -199.71484375 239.1171875 C-199.15273193 238.54983887 -198.59062012 237.98249023 -198.01147461 237.39794922 C-196.06100099 235.54817175 -194.06680067 233.78972169 -192.03349304 232.03250122 C-187.98178085 228.50531354 -184.16091147 224.79582119 -180.37426758 220.98779297 C-179.33117683 219.94492126 -179.33117683 219.94492126 -178.26701355 218.88098145 C-175.99463773 216.60791534 -173.72581496 214.33133847 -171.45703125 212.0546875 C-169.86640516 210.46219309 -168.27555574 208.86992172 -166.68449402 207.27786255 C-162.51349555 203.10306323 -158.34550752 198.92527113 -154.17816162 194.74682617 C-149.93894667 190.49737573 -145.69689805 186.25075612 -141.45507812 182.00390625 C-134.60646378 175.14652169 -127.75957774 168.28741724 -120.91494751 161.42605591 C-118.28531337 158.79009995 -115.65489666 156.15496473 -113.02153015 153.5227356 C-111.48135777 151.98172276 -109.94729382 150.43459096 -108.41796875 148.8828125 C-104.68876112 145.11143289 -100.97679405 141.37806779 -96.9375 137.9375 C-91.74103506 133.4924587 -87.00160095 128.58048087 -82.20117188 123.7175293 C-79.23530839 120.71673036 -76.24602229 117.74009265 -73.2421875 114.77734375 C-72.39914062 113.94332031 -71.55609375 113.10929687 -70.6875 112.25 C-69.83929687 111.41339844 -68.99109375 110.57679688 -68.1171875 109.71484375 C-65.80952428 107.41778998 -65.80952428 107.41778998 -64.1328125 105.00390625 C-63.47925781 104.16666016 -63.47925781 104.16666016 -62.8125 103.3125 C-62.1525 103.3125 -61.4925 103.3125 -60.8125 103.3125 C-60.48296577 102.49449921 -60.48296577 102.49449921 -60.14677429 101.65997314 C-58.37933786 98.55041045 -55.99332252 96.23909553 -53.46411133 93.75292969 C-52.9191098 93.2092424 -52.37410828 92.66555511 -51.81259155 92.10539246 C-50.01112471 90.31041134 -48.20278648 88.52251505 -46.39453125 86.734375 C-45.13569547 85.48181481 -43.87737691 84.22873462 -42.61955261 82.97515869 C-39.30397101 79.67288111 -35.98287927 76.37620591 -32.66015625 73.08111572 C-27.35896165 67.82300605 -22.06433688 62.55830465 -16.77313805 57.29013824 C-14.93278232 55.45991546 -13.08899939 53.63319988 -11.24482727 51.80682373 C3.13687903 38.68731125 3.13687903 38.68731125 9.25 21.09375 C9.09489422 14.19154284 6.08630221 9.10243994 1.1875 4.3125 C-4.09952736 0.35337719 -9.39441943 -0.36652547 -15.90625 -0.14453125 C-22.3419975 0.86754195 -26.42296778 4.75413962 -30.8125 9.3125 C-31.4725 9.3125 -32.1325 9.3125 -32.8125 9.3125 C-33.1425 10.3025 -33.4725 11.2925 -33.8125 12.3125 C-35.35473633 13.83349609 -35.35473633 13.83349609 -37.33203125 15.4609375 C-41.96488368 19.39240603 -46.23044743 23.61834584 -50.5 27.9375 C-51.23283203 28.67484375 -51.96566406 29.4121875 -52.72070312 30.171875 C-55.64281708 33.11243332 -58.56021709 36.05762768 -61.4765625 39.00390625 C-64.10303331 41.59963242 -66.78359634 44.12353688 -69.5 46.625 C-70.45261719 47.50800781 -71.40523437 48.39101562 -72.38671875 49.30078125 C-74.8125 51.3125 -74.8125 51.3125 -76.8125 51.3125 C-77.01875 51.869375 -77.225 52.42625 -77.4375 53 C-79.36250774 56.23751302 -81.85100902 57.99481141 -84.8125 60.3125 C-84.25290477 56.49003412 -82.59932643 54.72278259 -79.875 52.0625 C-78.80958984 51.00289062 -78.80958984 51.00289062 -77.72265625 49.921875 C-75.8125 48.3125 -75.8125 48.3125 -73.8125 48.3125 C-73.51279297 47.50619141 -73.51279297 47.50619141 -73.20703125 46.68359375 C-71.20551813 43.2804608 -68.43265549 40.98216653 -65.5 38.375 C-61.50218292 34.77560637 -57.58671312 31.14980786 -53.8125 27.3125 C-51.21165351 24.68419632 -48.60601582 22.06067679 -46 19.4375 C-45.32646484 18.75558594 -44.65292969 18.07367188 -43.95898438 17.37109375 C-16.3530609 -10.36691548 -16.3530609 -10.36691548 0 0 Z " fill="#440300" transform="translate(655.8125,183.6875)"/>
<path d="M0 0 C2.52372322 2.29429383 4.03975152 4.65055432 5.6875 7.625 C16.2831215 25.43904977 35.13454715 38.24149279 54.875 43.9375 C62.03920731 45.72096459 69.00523478 46.4009284 76.37080383 46.62081909 C77.45187481 46.65815277 78.53294579 46.69548645 79.6467765 46.73395145 C92.49337585 47.13871265 105.34049717 47.14032736 118.19213867 47.12939453 C120.91871726 47.13020496 123.64529418 47.13250106 126.37187195 47.13470459 C132.94181606 47.13910034 139.51174861 47.13821395 146.08169314 47.13529195 C151.4298782 47.13301378 156.77806008 47.13273572 162.1262455 47.13381577 C162.89360749 47.133969 163.66096949 47.13412223 164.45158488 47.13428011 C166.01146044 47.1345999 167.571336 47.13492411 169.13121156 47.1352527 C183.68199664 47.13808918 198.23277538 47.13484911 212.78355942 47.12945233 C225.21728171 47.12498327 237.65099467 47.12576465 250.0847168 47.13037109 C264.59567411 47.13574476 279.10662589 47.13781747 293.61758405 47.13475883 C295.1701233 47.13444035 296.72266255 47.13412597 298.2752018 47.13381577 C299.03868231 47.13366149 299.80216283 47.13350721 300.58877912 47.13334826 C305.92025808 47.13249166 311.25173349 47.13392729 316.5832119 47.13629532 C323.09492611 47.13912459 329.6066283 47.13828992 336.11834117 47.13301457 C339.42851225 47.13041961 342.73864721 47.12985495 346.0488205 47.13266373 C358.0854002 47.14192713 370.1117325 47.09605261 382.14009094 46.61300659 C383.43410333 46.56668585 383.43410333 46.56668585 384.75425738 46.51942933 C405.97317992 45.52551823 429.10474831 36.28967424 444 21 C447.18099173 17.45730672 450.13586059 13.80190498 453 10 C453.93392578 8.77603516 453.93392578 8.77603516 454.88671875 7.52734375 C456.27286799 5.69530034 457.64469429 3.8549086 459 2 C459.66 2.66 460.32 3.32 461 4 C450.91353559 18.67867585 439.25416551 31.31321067 423 39 C421.85789062 39.55042969 420.71578125 40.10085938 419.5390625 40.66796875 C397.2615918 50.80546946 375.53284774 50.15484279 351.55352163 50.16004276 C347.8315384 50.16191391 344.10956557 50.16947084 340.3875885 50.17617798 C332.27395918 50.18967467 324.16033486 50.19577141 316.04669619 50.20018864 C310.97076979 50.20296386 305.89484526 50.20720326 300.81892014 50.21169281 C286.7343972 50.22387045 272.64987575 50.23417511 258.56534767 50.2375679 C257.66659439 50.23778747 256.7678411 50.23800703 255.84185287 50.23823325 C254.94110814 50.23845153 254.04036342 50.23866981 253.1123234 50.2388947 C251.28744737 50.23933815 249.46257134 50.23978471 247.63769531 50.24023438 C246.73251838 50.2404558 245.82734144 50.24067723 244.8947349 50.24090537 C230.22490188 50.24485424 215.55511849 50.26231772 200.88530464 50.2855939 C185.78439001 50.30935881 170.68350025 50.32177196 155.58256662 50.32293582 C147.11971025 50.3238493 138.65691874 50.32951933 130.19408035 50.34775543 C122.99026293 50.36322553 115.78653045 50.36823613 108.58269955 50.36001733 C104.91469255 50.35613613 101.24685627 50.35691521 97.57887077 50.37107468 C64.14552369 50.49254438 36.49187945 45.2166898 12 21 C0 7.92889561 0 7.92889561 0 0 Z " fill="#320000" transform="translate(170,593)"/>
<path d="M0 0 C0.33 0 0.66 0 1 0 C0.98120789 1.41835144 0.98120789 1.41835144 0.96203613 2.86535645 C0.23773822 58.07149616 -0.11076088 113.27397568 -0.12283063 168.48442698 C-0.12409182 173.85802884 -0.1278208 179.23162482 -0.13256836 184.60522461 C-0.15709843 214.70725346 -0.10060239 244.80808038 0.32693863 274.907547 C0.36360799 277.53184884 0.39761912 280.15618946 0.42870712 282.78056335 C-0.22185878 313.58194861 -0.22185878 313.58194861 13.63671875 339.7734375 C19.35438215 345.16032698 24.50079934 348.58954265 32 351 C32 351.66 32 352.32 32 353 C20.65947028 351.64993694 12.19046969 343.40181128 5.2421875 334.78515625 C-6.70672926 317.61328531 -3.14824084 289.53652873 -3.12939453 269.52685547 C-3.13075216 267.09044366 -3.13253412 264.65403207 -3.13470459 262.21762085 C-3.13876973 256.31954061 -3.13820359 250.42147209 -3.13529195 244.52339219 C-3.13301863 239.71567842 -3.13273369 234.90796821 -3.13381577 230.10025406 C-3.133969 229.41169255 -3.13412223 228.72313105 -3.13428011 228.01370404 C-3.1345999 226.61401652 -3.13492411 225.21432901 -3.1352527 223.81464149 C-3.13809624 210.72389987 -3.13483974 197.63316528 -3.12945233 184.54242481 C-3.12499932 173.37837732 -3.12574998 162.21434026 -3.13037109 151.05029297 C-3.13576112 138.0229383 -3.13780707 124.99558981 -3.13475883 111.96823418 C-3.13444036 110.56987834 -3.13412599 109.1715225 -3.13381577 107.77316666 C-3.13366149 107.08555204 -3.13350721 106.39793742 -3.13334826 105.68948599 C-3.13249524 100.91039913 -3.13394215 96.13131632 -3.13629532 91.35223007 C-3.15666787 42.20973373 -3.15666787 42.20973373 -2.61669922 24.15673828 C-2.58635653 23.04558592 -2.55601383 21.93443356 -2.52475166 20.78960991 C-2.26029999 13.73705661 -1.31166287 6.93217099 0 0 Z " fill="#3C0000" transform="translate(207,239)"/>
<path d="M0 0 C0.66 0 1.32 0 2 0 C2.00173625 0.62356164 2.0034725 1.24712328 2.00526136 1.88958073 C2.10854898 38.94204738 2.21671536 75.99449685 2.33111694 113.04693091 C2.34488461 117.50736138 2.35861199 121.96779198 2.37231445 126.42822266 C2.37504276 127.31612102 2.37777106 128.20401939 2.38058204 129.11882377 C2.42451826 143.44859233 2.46519925 157.77836835 2.50465261 172.10814989 C2.54528393 186.83911874 2.58947055 201.57007392 2.63687855 216.30102253 C2.66596331 225.37252314 2.69235684 234.44402305 2.71517897 243.51554161 C2.73114909 249.75728431 2.75060835 255.99901041 2.77266841 262.24073452 C2.78524977 265.82842866 2.79643069 269.41611066 2.80341911 273.00382042 C2.83703893 289.6930847 3.14411353 306.33127955 4 323 C3.34 323.33 2.68 323.66 2 324 C-0.99989009 313.42460177 -0.16293912 301.6788005 -0.20532227 290.77001953 C-0.2149318 289.17888655 -0.22494352 287.58775596 -0.23532104 285.99662781 C-0.26220443 281.69319669 -0.28334509 277.38975502 -0.30332303 273.08628702 C-0.32554177 268.49507823 -0.35280686 263.9038989 -0.37937927 259.31271362 C-0.42361545 251.54377659 -0.46432195 243.77482752 -0.50268555 236.00585938 C-0.54130213 228.1891086 -0.58274477 220.37238108 -0.62768555 212.55566406 C-1.42562685 73.68862303 -1.42562685 73.68862303 -0.5 27.0625 C-0.45051343 24.3509343 -0.40298862 21.63933517 -0.35546875 18.92773438 C-0.24354285 12.61835436 -0.12514345 6.30913115 0 0 Z " fill="#390100" transform="translate(157,245)"/>
<path d="M0 0 C1.2684375 0.99 1.2684375 0.99 2.5625 2 C2.5625 2.66 2.5625 3.32 2.5625 4 C3.10390625 4.21269531 3.6453125 4.42539062 4.203125 4.64453125 C7.41557831 6.49009631 9.76853436 9.0392536 12.3125 11.6875 C16.38526462 15.86124225 20.50124892 19.82379659 25.0390625 23.5 C26.5625 25 26.5625 25 27.5234375 27.0625 C28.37140165 29.12015955 28.37140165 29.12015955 30.23388672 29.73974609 C33.66079838 31.59440304 36.15372341 34.34690761 38.859375 37.1015625 C39.45300842 37.69802582 40.04664185 38.29448914 40.65826416 38.9090271 C42.54776627 40.8096981 44.43018392 42.71721474 46.3125 44.625 C47.59459065 45.91712468 48.87713761 47.20879676 50.16015625 48.5 C53.29958432 51.66144479 56.43267801 54.8290461 59.5625 58 C60.48675781 57.53207031 60.48675781 57.53207031 61.4296875 57.0546875 C62.82646501 56.36397335 64.246641 55.71829488 65.6875 55.125 C67.69789741 54.14799551 67.69789741 54.14799551 68.48764038 52.13592529 C69.62851184 49.86882347 70.83950949 48.48134018 72.63525391 46.70019531 C73.25574615 46.07985413 73.8762384 45.45951294 74.51553345 44.82037354 C75.18329803 44.16293152 75.85106262 43.5054895 76.5390625 42.828125 C77.22431 42.1457074 77.9095575 41.46328979 78.61557007 40.76019287 C80.80155845 38.58538402 82.99440429 36.41763928 85.1875 34.25 C86.67233255 32.7752001 88.15671306 31.29994494 89.640625 29.82421875 C93.2760291 26.21084552 96.91759824 22.60379147 100.5625 19 C101.5525 19.33 102.5425 19.66 103.5625 20 C89.7025 33.86 75.8425 47.72 61.5625 62 C58.19118898 60.31434449 56.63809319 59.31973719 54.11425781 56.76293945 C53.4596759 56.10497879 52.80509399 55.44701813 52.13067627 54.76911926 C51.43270935 54.05769272 50.73474243 53.34626617 50.015625 52.61328125 C49.28559265 51.87804733 48.5555603 51.14281342 47.80340576 50.38529968 C45.46830512 48.0323975 43.13997553 45.67294328 40.8125 43.3125 C38.49850133 40.97073528 36.1830138 38.63049486 33.86444092 36.29325867 C32.42347625 34.84020192 30.98519026 33.38448192 29.55010986 31.9256134 C25.6268274 27.96392719 21.60318701 24.19919256 17.36190796 20.57894897 C13.81658121 17.46798684 10.58774265 14.02851319 7.3203125 10.63085938 C1.52815243 4.71920085 -3.62726534 0.89423106 -12.125 0.6875 C-19.57743193 0.76850469 -23.90074827 2.57599279 -29.25 7.6875 C-33.15620671 13.60261302 -35.34738294 19.85091972 -34.4375 27 C-31.73098333 34.60402303 -26.27327227 39.8328952 -20.79980469 45.55664062 C-18.93594334 47.53139838 -17.15999401 49.57895944 -15.375 51.625 C-8.7029914 59.07480196 -1.49285716 66.02351924 5.60742188 73.06103516 C7.93271401 75.3671628 10.24908881 77.68196199 12.5625 80 C11.5725 80.33 10.5825 80.66 9.5625 81 C8.85077637 80.28755127 8.13905273 79.57510254 7.40576172 78.84106445 C4.6335078 76.06874968 1.85205186 73.30576677 -0.9296875 70.54296875 C-2.51488211 68.9651599 -4.09958966 67.38686367 -5.68408203 65.80834961 C-6.76521017 64.73224621 -7.84723467 63.65704256 -8.93017578 62.58276367 C-14.98665712 56.57326751 -20.95449078 50.5469741 -26.4375 44 C-27.28957031 42.99453125 -28.14164062 41.9890625 -29.01953125 40.953125 C-29.75558594 40.06109375 -30.49164063 39.1690625 -31.25 38.25 C-31.99894531 37.34765625 -32.74789063 36.4453125 -33.51953125 35.515625 C-38.07918984 29.53513593 -38.17347102 24.39697459 -37.4375 17 C-35.36332331 8.92685718 -30.31246282 3.50258015 -23.4375 -0.9375 C-16.52450764 -3.45131541 -6.450913 -3.70696636 0 0 Z " fill="#430200" transform="translate(339.4375,353)"/>
<path d="M0 0 C6.88956627 1.72239157 12.55728433 5.7375086 17 11.25 C20.70392377 17.78559246 20.19533635 26.78658499 19 34 C16.43475917 40.70639752 11.21582884 45.33161549 5.24391842 49.11150169 C2.16777211 50.32952761 -0.47059425 50.26347628 -3.7776947 50.2784729 C-4.45893845 50.2842653 -5.14018219 50.2900577 -5.84206969 50.29602563 C-8.12514849 50.3130295 -10.4080251 50.31590283 -12.69116211 50.31884766 C-14.32941176 50.32814808 -15.96765668 50.33831692 -17.605896 50.34928894 C-22.06406561 50.37665444 -26.52220344 50.39176841 -30.98043513 50.40471697 C-35.67144633 50.42039141 -40.36239411 50.44718946 -45.05335999 50.4727478 C-53.97181103 50.51962431 -62.89027445 50.55629282 -71.80878597 50.58942068 C-81.84099609 50.62721663 -91.87313568 50.67691202 -101.90528858 50.72740483 C-139.15003357 50.91365967 -139.15003357 50.91365967 -154.01261806 50.95403481 C-154.80994183 50.95620951 -155.6072656 50.95838421 -156.42875069 50.96062481 C-158.00287966 50.96490831 -159.57700881 50.96912865 -161.15113813 50.97328269 C-165.66245157 50.98697458 -170.17332311 51.01593846 -174.68444651 51.05939496 C-176.77028873 51.07872356 -178.85611587 51.09394854 -180.9420023 51.10759544 C-183.45084574 51.12486333 -185.95965354 51.14962705 -188.46832943 51.1833744 C-189.558859 51.18903608 -190.64938856 51.19469776 -191.77296448 51.20053101 C-192.71698403 51.21005987 -193.66100359 51.21958874 -194.6336298 51.22940636 C-197 51 -197 51 -200 49 C-198.2535259 47.2535259 -195.97480005 47.87603726 -193.64741939 47.86805606 C-192.87370858 47.87048855 -192.09999778 47.87292104 -191.30284119 47.87542725 C-190.0788353 47.87331202 -190.0788353 47.87331202 -188.83010203 47.87115407 C-186.07413636 47.86748115 -183.31822151 47.87084616 -180.56225586 47.87402344 C-178.5948177 47.87262959 -176.62737985 47.87073088 -174.65994263 47.86836243 C-170.41142981 47.86385502 -166.16292669 47.86200911 -161.91441154 47.86190033 C-155.19532179 47.86076269 -148.47628733 47.84794333 -141.75721741 47.83233643 C-140.05804189 47.82847715 -140.05804189 47.82847715 -138.3245396 47.8245399 C-136.00745833 47.81927291 -133.69037709 47.81398743 -131.3732959 47.80868387 C-115.72387189 47.77354773 -100.07451552 47.74702015 -84.42504883 47.74951172 C-73.87917058 47.75110051 -63.33347978 47.73505671 -52.78766161 47.69880509 C-47.20489665 47.68034116 -41.62244461 47.67100579 -36.03965569 47.68328094 C-30.78397853 47.69472373 -25.52886098 47.68299921 -20.27325821 47.65364647 C-18.34639688 47.64700923 -16.41948427 47.64886696 -14.49264336 47.65994453 C-11.85644424 47.67383983 -9.22212816 47.65689449 -6.58604431 47.63250732 C-5.82794856 47.6438627 -5.0698528 47.65521808 -4.28878444 47.66691756 C2.6967605 47.54173034 7.56136207 44.50281261 12.375 39.5625 C16.51258678 33.03784393 16.62006181 26.54239124 16 19 C13.78696137 10.5627902 7.16612244 6.2548852 0 2 C0 1.34 0 0.68 0 0 Z " fill="#390000" transform="translate(503,156)"/>
<path d="M0 0 C5.56914057 3.24866533 9.40102229 7.89056688 11.4375 14 C11.53129178 16.06720484 11.56379499 18.1373642 11.56448364 20.20669556 C11.56730347 21.50727402 11.57012329 22.80785248 11.57302856 24.14784241 C11.57108403 25.59286513 11.56903585 27.03788771 11.56689453 28.48291016 C11.56824946 30.00254864 11.57002991 31.5221868 11.57220459 33.04182434 C11.57677343 37.17696194 11.57499017 41.31207465 11.5718255 45.4472127 C11.56929264 49.78612872 11.57164263 54.12504263 11.57321167 58.46395874 C11.57503337 65.76601543 11.57262988 73.06806203 11.56787109 80.37011719 C11.56245697 88.77396069 11.56417025 97.17777983 11.5696975 105.58162272 C11.57426284 112.81586145 11.5748617 120.05009292 11.57225883 127.28433263 C11.57071108 131.59573411 11.57046002 135.90712422 11.57379532 140.21852493 C11.57672291 144.28803558 11.57461035 148.35751554 11.56890106 152.42702293 C11.56759806 153.90666211 11.56792466 155.38630395 11.57016373 156.865942 C11.58085709 164.66270811 11.42640416 172.42454657 10.97702026 180.20858765 C10.91592188 181.26831061 10.91592188 181.26831061 10.85358918 182.34944212 C10.05811467 194.95567601 6.74755948 206.08359709 0.4375 217 C-0.2225 217 -0.8825 217 -1.5625 217 C-1.16224609 216.03513672 -1.16224609 216.03513672 -0.75390625 215.05078125 C0.77643691 211.13209926 2.14813818 207.17072302 3.5 203.1875 C3.76876953 202.41857422 4.03753906 201.64964844 4.31445312 200.85742188 C4.57291016 200.09365234 4.83136719 199.32988281 5.09765625 198.54296875 C5.33105713 197.86258545 5.56445801 197.18220215 5.80493164 196.48120117 C10.98800631 176.15098588 8.61331944 152.97083438 8.63768864 132.11434865 C8.64065649 129.697008 8.64476664 127.27967169 8.64919281 124.8623333 C8.66276987 117.26929093 8.67249317 109.67625892 8.6763947 102.08320528 C8.68090197 93.36668034 8.69861315 84.65031012 8.7273953 75.93383223 C8.74901228 69.1494681 8.75909839 62.36514765 8.76043582 55.58074945 C8.76148049 51.54599532 8.76732063 47.51138865 8.78525543 43.47667122 C8.80174459 39.69660667 8.80388776 35.91680075 8.79511642 32.13671303 C8.79434748 30.75444087 8.79866995 29.37215464 8.80857468 27.98991776 C8.86692273 19.33885209 8.77492026 13.19561404 3.25 6.25 C-3.33173972 0.98460822 -10.27766781 0.08359106 -18.5625 1 C-24.24447092 2.47112943 -28.96574377 5.63443521 -32.25 10.5 C-33.38134128 12.65493578 -34.50663915 14.80705822 -35.5625 17 C-36.4375 15 -36.4375 15 -36.5625 12 C-29.46782241 -1.43114537 -13.79315084 -6.26579108 0 0 Z " fill="#480900" transform="translate(631.5625,377)"/>
<path d="M0 0 C1.06269169 -0.00596161 1.06269169 -0.00596161 2.1468519 -0.01204365 C4.52074335 -0.02166815 6.89403908 -0.00984813 9.26791382 0.00190735 C10.96967288 -0.00052053 12.67143051 -0.00423981 14.3731842 -0.00915527 C18.99491112 -0.01856704 23.61642637 -0.0091372 28.23813677 0.00417686 C33.06987069 0.01548253 37.90159406 0.01138462 42.7333374 0.00942993 C50.84564682 0.00854685 58.95787268 0.01963181 67.07015991 0.03804016 C76.45875736 0.05922225 85.84723252 0.06271473 95.23584902 0.0564782 C104.25831702 0.05079105 113.28074181 0.05642161 122.30320358 0.06765175 C126.1476763 0.0723049 129.99212266 0.07316852 133.83659744 0.0710659 C138.35918272 0.0691874 142.88164286 0.07725298 147.4041996 0.0931263 C149.06751678 0.09738187 150.73084663 0.0982112 152.39416695 0.0954361 C154.65736685 0.09223199 156.92018861 0.10125072 159.18334961 0.11352539 C161.08643355 0.1166047 161.08643355 0.1166047 163.02796364 0.11974621 C165.96469116 0.3742218 165.96469116 0.3742218 167.96469116 2.3742218 C166.96469116 3.3742218 166.96469116 3.3742218 164.06175137 3.49726963 C162.09418424 3.49588694 162.09418424 3.49588694 160.08686829 3.49447632 C158.99527817 3.49575796 158.99527817 3.49575796 157.88163573 3.49706548 C155.42484003 3.49872244 152.9681115 3.49319542 150.51132202 3.48774719 C148.75750225 3.48746534 147.00368237 3.48762301 145.24986267 3.4881897 C140.47320448 3.48847775 135.69657116 3.48257975 130.91991878 3.47561574 C125.93375063 3.46938352 120.94758197 3.46877851 115.96141052 3.46759033 C106.51245822 3.46447663 97.06351743 3.45626271 87.6145702 3.44624084 C76.86021872 3.43508092 66.10586671 3.42956956 55.35151088 3.42454541 C33.22256454 3.41408013 11.09362858 3.39647993 -11.03530884 3.3742218 C-7.4967194 0.02541494 -4.77379074 -0.00063078 0 0 Z " fill="#2B0100" transform="translate(344.0353088378906,592.6257781982422)"/>
<path d="M0 0 C0.33 0 0.66 0 1 0 C1.02356758 15.57089616 1.04109447 31.14178736 1.05181217 46.71269703 C1.05692523 53.94575923 1.06387025 61.17881023 1.07543945 68.41186523 C1.08554148 74.73076263 1.09188948 81.0496519 1.09408849 87.36855716 C1.09536986 90.70111661 1.09884714 94.03363474 1.10573006 97.36618996 C1.13250557 110.88941845 1.03756791 124.39313815 0.55639648 137.90893555 C0.51754113 139.02434377 0.47868578 140.13975199 0.43865299 141.28896046 C0.22763759 146.59425932 -0.11229077 151.76350839 -1 157 C-1.99 156.67 -2.98 156.34 -4 156 C-3.93397583 155.36976425 -3.86795166 154.7395285 -3.79992676 154.0901947 C-3.03807767 146.35633682 -2.6900867 138.64547846 -2.46875 130.87890625 C-2.4482106 130.17573336 -2.4276712 129.47256046 -2.4065094 128.7480793 C-1.65828146 102.5345935 -1.65103762 76.30061851 -1.47393799 50.07867432 C-1.42309118 42.55607262 -1.36847683 35.03351991 -1.30812073 27.51098824 C-1.28160342 24.01148539 -1.26079762 20.51197735 -1.2401123 17.01243591 C-1.22353428 14.89883179 -1.20666472 12.78522992 -1.18945312 10.67163086 C-1.18526871 9.70006042 -1.18108429 8.72848999 -1.17677307 7.72747803 C-1.16842941 6.84968185 -1.16008575 5.97188568 -1.15148926 5.06748962 C-1.14633553 4.30139342 -1.14118179 3.53529722 -1.13587189 2.74598598 C-1 1 -1 1 0 0 Z " fill="#3A0000" transform="translate(595,396)"/>
<path d="M0 0 C0.99 0.99 0.99 0.99 2 2 C-33.64 37.64 -69.28 73.28 -106 110 C-106.33 109.01 -106.66 108.02 -107 107 C-71.69 71.69 -36.38 36.38 0 0 Z " fill="#480200" transform="translate(553,259)"/>
<path d="M0 0 C2.20020485 3.30030727 2.25418799 4.29842619 2.27174377 8.13456726 C2.2814621 9.19784744 2.29118042 10.26112762 2.30119324 11.35662842 C2.30207695 13.10728607 2.30207695 13.10728607 2.30297852 14.89331055 C2.31563751 16.73808739 2.31563751 16.73808739 2.32855225 18.62013245 C2.34552395 21.29986995 2.3588773 23.97933966 2.36609077 26.65909386 C2.37761826 30.92122737 2.40310721 35.18320923 2.43040466 39.44526672 C2.47211779 46.21641596 2.50447392 52.98757288 2.53287882 59.75878984 C2.58354608 71.80245294 2.64704202 83.84604445 2.71821922 95.88960296 C2.74270038 100.09947521 2.76221494 104.30933132 2.77771968 108.51924568 C2.84041223 124.70175284 3.17233941 140.83763263 4 157 C3.34 157.33 2.68 157.66 2 158 C-0.84389901 148.01001846 -0.14261131 136.86903766 -0.11352539 126.58081055 C-0.11324247 125.18974815 -0.11340329 123.7986856 -0.1139679 122.40762329 C-0.11425179 118.67502762 -0.10842168 114.94246487 -0.10139394 111.20987678 C-0.09509185 107.29281776 -0.09455123 103.37575777 -0.09336853 99.45869446 C-0.09027526 92.06072464 -0.08208919 84.66276982 -0.07201904 77.26480657 C-0.06079528 68.83419599 -0.05533175 60.40358466 -0.05032361 51.97296846 C-0.03990465 34.64863701 -0.02234447 17.32432009 0 0 Z " fill="#4A0600" transform="translate(157,411)"/>
<path d="M0 0 C4.61677448 2.70850769 7.98890727 6.22931011 10.4375 11 C11.33934691 14.64686511 11.55094972 18.01488421 11.51979065 21.76435852 C11.51275116 22.91555679 11.50571167 24.06675507 11.49845886 25.25283813 C11.48551285 26.50656219 11.47256683 27.76028625 11.45922852 29.05200195 C11.44907842 30.3926206 11.43938554 31.73324278 11.43011475 33.0738678 C11.40370693 36.70573604 11.37091272 40.33752172 11.33696485 43.96932626 C11.30254916 47.76762289 11.27401658 51.56596362 11.24485779 55.36430359 C11.18877459 62.55361686 11.12740671 69.74287491 11.06413645 76.93212813 C10.99235048 85.11827118 10.92646154 93.30445838 10.86106598 101.49065459 C10.72643527 118.32716086 10.58440535 135.16359626 10.4375 152 C10.1075 152 9.7775 152 9.4375 152 C9.43511165 151.30554496 9.43272329 150.61108992 9.43026257 149.89559078 C9.37108592 132.98565146 9.29551885 116.07587251 9.20178509 99.16609097 C9.15684967 90.98858874 9.11742983 82.81112984 9.09106445 74.63354492 C9.06806608 67.50464828 9.03464757 60.37588901 8.98879844 53.24710137 C8.96489091 49.47363225 8.946146 45.70029899 8.93988609 41.92675591 C8.93382397 38.3717952 8.91378392 34.81718198 8.88322449 31.26235008 C8.87029793 29.34216738 8.87201112 27.42190341 8.8742218 25.50167847 C8.78941127 17.69614644 8.21554954 12.49240513 3.25 6.25 C-3.33173972 0.98460822 -10.27766781 0.08359106 -18.5625 1 C-24.24447092 2.47112943 -28.96574377 5.63443521 -32.25 10.5 C-33.38134128 12.65493578 -34.50663915 14.80705822 -35.5625 17 C-36.4375 15 -36.4375 15 -36.5625 12 C-29.46782241 -1.43114537 -13.79315084 -6.26579108 0 0 Z " fill="#3E0100" transform="translate(631.5625,377)"/>
<path d="M0 0 C2.52372322 2.29429383 4.03975152 4.65055432 5.6875 7.625 C16.73495435 26.19870063 36.53190208 39.12704561 57.20703125 44.54907227 C67.93784684 46.98916829 79.04287989 46.93155994 90 47 C90 47.99 90 48.98 90 50 C61.36790221 50.90417151 36.85435949 43.85819129 15.36328125 24.25 C9.13841956 18.36278727 3.71963912 11.74924816 0 4 C0 2.68 0 1.36 0 0 Z " fill="#420300" transform="translate(170,593)"/>
<path d="M0 0 C1.70370003 0.00424484 1.70370003 0.00424484 3.44181824 0.00857544 C7.0173157 0.01963922 10.59254889 0.04471687 14.16796875 0.0703125 C16.61392864 0.08036017 19.05989251 0.08948287 21.50585938 0.09765625 C27.4558171 0.11953308 33.40562404 0.15286964 39.35546875 0.1953125 C36.29911454 2.23288198 35.65871195 2.4480029 32.21386719 2.48242188 C31.38159607 2.49583618 30.54932495 2.50925049 29.6918335 2.52307129 C28.79192688 2.52834839 27.89202026 2.53362549 26.96484375 2.5390625 C25.5596347 2.5609967 25.5596347 2.5609967 24.1260376 2.58337402 C21.11922541 2.6299023 18.11247557 2.66400958 15.10546875 2.6953125 C-15.44999417 2.03459916 -15.44999417 2.03459916 -41.41796875 15.8359375 C-47.09056137 21.8468953 -50.52202429 27.15212825 -52.64453125 35.1953125 C-53.30453125 34.5353125 -53.96453125 33.8753125 -54.64453125 33.1953125 C-54.64453125 25.0566495 -48.25848334 18.61796249 -43.01953125 13.0078125 C-30.77097757 1.23528632 -16.32795295 -0.15747004 0 0 Z " fill="#3E0000" transform="translate(262.64453125,204.8046875)"/>
<path d="M0 0 C0.33 0 0.66 0 1 0 C0.89209744 11.02308676 0.77938597 22.04611312 0.66066074 33.06908894 C0.60567087 38.1883729 0.55229135 43.30766276 0.50268555 48.42700195 C0.45468619 53.37428022 0.40233461 58.3214956 0.34705925 63.26869774 C0.32679559 65.14915574 0.30805795 67.02963087 0.29092598 68.91012001 C0.11674166 87.81812991 0.11674166 87.81812991 -1 97 C-1.33 97 -1.66 97 -2 97 C-2.88076702 90.9553318 -3.14632488 85.09595523 -3.1328125 78.9921875 C-3.13422241 78.04073349 -3.13563232 77.08927948 -3.13708496 76.10899353 C-3.13921112 73.03095728 -3.13294437 69.95302574 -3.125 66.875 C-3.1234491 65.826539 -3.12189819 64.778078 -3.12030029 63.69784546 C-3.09776312 50.7329015 -3.01414156 37.77209315 -2.625 24.8125 C-2.59422363 23.66571777 -2.56344727 22.51893555 -2.53173828 21.33740234 C-2.26989812 14.09388213 -1.3601621 7.11807511 0 0 Z " fill="#470300" transform="translate(207,239)"/>
<path d="M0 0 C0.99 0.99 0.99 0.99 2 2 C-8.07891082 16.66768323 -19.74346852 29.33698853 -36 37 C-36.895979 37.42249023 -36.895979 37.42249023 -37.81005859 37.85351562 C-57.86934673 47.18341709 -57.86934673 47.18341709 -67 45 C-67 44.67 -67 44.34 -67 44 C-65.87207031 43.75507812 -64.74414062 43.51015625 -63.58203125 43.2578125 C-39.75023373 37.73727895 -20.88658767 27.76069724 -6 8 C-5.37738281 7.18402344 -4.75476563 6.36804688 -4.11328125 5.52734375 C-2.72713201 3.69530034 -1.35530571 1.8549086 0 0 Z " fill="#440200" transform="translate(629,595)"/>
<path d="M0 0 C1.92280589 5.37882955 -0.7285501 10.07396406 -3 15 C-8.80531453 24.60879647 -17.42234619 33.02354233 -28.27734375 36.33984375 C-39.78369277 39.12976195 -51.24707809 39.2589383 -63 39 C-63 38.67 -63 38.34 -63 38 C-62.15405273 37.89977539 -61.30810547 37.79955078 -60.43652344 37.69628906 C-57.23696599 37.31108436 -54.03905844 36.9145278 -50.84179688 36.51074219 C-49.46929321 36.3396598 -48.09624914 36.17284732 -46.72265625 36.01074219 C-31.012333 34.15030917 -19.51994816 31.30319312 -9.15234375 18.765625 C-5.80750211 14.13051276 -3.99333423 9.60731137 -2.640625 4.06640625 C-2 2 -2 2 0 0 Z " fill="#450300" transform="translate(592,556)"/>
<path d="M0 0 C0.99 0.33 1.98 0.66 3 1 C-1.66666667 5.66666667 -6.33333333 10.33333333 -11 15 C-11 11 -11 11 -8.59375 8.203125 C-7.57248913 7.20839039 -6.5407803 6.22429311 -5.5 5.25 C-4.97535156 4.74339844 -4.45070313 4.23679688 -3.91015625 3.71484375 C-2.61558637 2.46734913 -1.3089224 1.23242693 0 0 Z M-121 121 C-120.34 121.99 -119.68 122.98 -119 124 C-120.32 124.99 -121.64 125.98 -123 127 C-123.66 126.34 -124.32 125.68 -125 125 C-123.68 123.68 -122.36 122.36 -121 121 Z " fill="#561300" transform="translate(566,246)"/>
<path d="M0 0 C22.69356056 -0.11955596 45.32339955 0.03219049 68 1 C68 1.33 68 1.66 68 2 C44.99138328 2.82322199 22.02279598 3.136665 -1 3 C-0.67 2.01 -0.34 1.02 0 0 Z " fill="#520800" transform="translate(299,593)"/>
<path d="M0 0 C1.61793796 -0.00683808 3.23586508 -0.01709418 4.85375977 -0.03076172 C7.13190089 -0.04855147 9.40966397 -0.05291933 11.68786621 -0.05322266 C13.00101807 -0.05733154 14.31416992 -0.06144043 15.66711426 -0.06567383 C18.73864746 0.17724609 18.73864746 0.17724609 20.73864746 2.17724609 C18.88154126 4.03435229 15.80910317 3.30775671 13.32849121 3.31005859 C12.66119492 3.31137787 11.99389862 3.31269714 11.30638123 3.3140564 C9.09625806 3.31599266 6.88625807 3.30958413 4.67614746 3.30224609 C3.92520813 3.30135986 3.1742688 3.30047363 2.40057373 3.29956055 C-13.83173206 3.27716225 -30.04202326 2.79814487 -46.26135254 2.17724609 C-46.26135254 1.84724609 -46.26135254 1.51724609 -46.26135254 1.17724609 C-30.84304835 0.50030981 -15.43319235 0.05858462 0 0 Z " fill="#510900" transform="translate(491.2613525390625,592.82275390625)"/>
<path d="M0 0 C0.33 0 0.66 0 1 0 C0.8811509 4.99892294 0.75686619 9.99767124 0.62768555 14.99633789 C0.5845478 16.69454335 0.54285916 18.39278629 0.50268555 20.09106445 C0.44446656 22.54129298 0.38092497 24.99133647 0.31640625 27.44140625 C0.29969376 28.19273331 0.28298126 28.94406036 0.26576233 29.71815491 C0.14104202 34.22178284 -0.27954181 38.55161938 -1 43 C-1.99 42.67 -2.98 42.34 -4 42 C-3.93288818 41.35458252 -3.86577637 40.70916504 -3.79663086 40.04418945 C-2.97367509 31.66018769 -2.68606701 23.29594104 -2.48242188 14.87695312 C-2.31141961 9.57588286 -2.13333006 4.94898025 0 0 Z " fill="#4A0400" transform="translate(595,510)"/>
<path d="M0 0 C0.66 0.66 1.32 1.32 2 2 C1.28714844 2.6290625 0.57429687 3.258125 -0.16015625 3.90625 C-5.27605897 8.47820075 -10.10102819 13.07515675 -14.5234375 18.3359375 C-16.46004437 20.51846271 -18.72412631 22.17930105 -21 24 C-22.86496972 26.05999923 -24.66606015 28.16187677 -26.44921875 30.29296875 C-28 32 -28 32 -30 33 C-29.42729947 29.31285544 -27.99904994 27.64465677 -25.359375 25.06640625 C-24.61816406 24.33486328 -23.87695312 23.60332031 -23.11328125 22.84960938 C-22.33339844 22.09486328 -21.55351563 21.34011719 -20.75 20.5625 C-19.98558594 19.81162109 -19.22117187 19.06074219 -18.43359375 18.28710938 C-16.95038895 16.83080207 -15.46439598 15.37732782 -13.9753418 13.92700195 C-11.62942582 11.63849438 -9.31118261 9.32354188 -7 7 C-4.66666667 4.66666667 -2.33333333 2.33333333 0 0 Z " fill="#340300" transform="translate(587,294)"/>
<path d="M0 0 C0.66 0 1.32 0 2 0 C1.72285156 1.29035156 1.44570312 2.58070313 1.16015625 3.91015625 C0.79414832 5.62757806 0.42826976 7.34502745 0.0625 9.0625 C-0.11990234 9.91005859 -0.30230469 10.75761719 -0.49023438 11.63085938 C-1.50493477 16.40917576 -2.3754625 21.15490384 -3 26 C-3.99 26 -4.98 26 -6 26 C-3.16666667 3.16666667 -3.16666667 3.16666667 0 0 Z " fill="#450500" transform="translate(163,217)"/>
<path d="M0 0 C1.01513672 0.07250977 1.01513672 0.07250977 2.05078125 0.14648438 C5.05218554 0.38032159 7.63253525 0.73167842 10.5 1.6875 C12.39212737 1.90929785 14.28884472 2.09364015 16.1875 2.25 C17.18136719 2.33378906 18.17523438 2.41757812 19.19921875 2.50390625 C20.33810547 2.59478516 20.33810547 2.59478516 21.5 2.6875 C21.5 3.0175 21.5 3.3475 21.5 3.6875 C10.61109903 3.92740235 0.26172061 3.44195809 -10.5 1.6875 C-6.78104122 -0.79180585 -4.2430761 -0.37581531 0 0 Z " fill="#480400" transform="translate(250.5,591.3125)"/>
<path d="M0 0 C2.30873249 3.46309873 3.63573343 7.05988867 5.0625 10.9375 C5.33126953 11.65357422 5.60003906 12.36964844 5.87695312 13.10742188 C7.09530992 16.38574354 8.19554848 19.59205082 9 23 C8.34 23.33 7.68 23.66 7 24 C0.15521327 8.67456556 0.15521327 8.67456556 -1 2 C-0.67 1.34 -0.34 0.68 0 0 Z " fill="#4B0600" transform="translate(161,569)"/>
<path d="M0 0 C0.33 0 0.66 0 1 0 C1 5.28 1 10.56 1 16 C0.67 16 0.34 16 0 16 C-0.33 22.6 -0.66 29.2 -1 36 C-1.33 36 -1.66 36 -2 36 C-2.41277905 9.82345757 -2.41277905 9.82345757 0 0 Z " fill="#3E0000" transform="translate(207,239)"/>
<path d="M0 0 C0.33 0 0.66 0 1 0 C1.33 6.6 1.66 13.2 2 20 C1.34 20.33 0.68 20.66 0 21 C-1.14307056 17.18976481 -1.40397243 13.32170378 -1.6875 9.375 C-1.74744141 8.694375 -1.80738281 8.01375 -1.86914062 7.3125 C-1.99658621 5.54572016 -2.00622257 3.77135955 -2 2 C-1.34 1.34 -0.68 0.68 0 0 Z " fill="#510800" transform="translate(159,548)"/>
<path d="M0 0 C0.66 0.33 1.32 0.66 2 1 C2 6.61 2 12.22 2 18 C1.01 17.34 0.02 16.68 -1 16 C-1.328125 14.08203125 -1.328125 14.08203125 -1.25 11.8125 C-1.22421875 11.01585937 -1.1984375 10.21921875 -1.171875 9.3984375 C-0.94435505 6.22350005 -0.5341035 3.13785808 0 0 Z " fill="#220000" transform="translate(205,483)"/>
<path d="M0 0 C0.99 0.33 1.98 0.66 3 1 C-0.96 4.96 -4.92 8.92 -9 13 C-9.33 12.01 -9.66 11.02 -10 10 C-6.7 6.7 -3.4 3.4 0 0 Z " fill="#3E0200" transform="translate(566,246)"/>
<path d="M0 0 C4.18423892 3.50897269 8.19588166 7.08060535 12 11 C11.01 11.33 10.02 11.66 9 12 C5.7 8.7 2.4 5.4 -1 2 C-0.67 1.34 -0.34 0.68 0 0 Z " fill="#340200" transform="translate(356,438)"/>
<path d="M0 0 C0.33 0.99 0.66 1.98 1 3 C0.113125 3.721875 -0.77375 4.44375 -1.6875 5.1875 C-4.63741207 7.63992096 -7.32793794 10.24934788 -10 13 C-10 9 -10 9 -7.8125 6.640625 C-6.884375 5.85171875 -5.95625 5.0628125 -5 4.25 C-4.071875 3.45078125 -3.14375 2.6515625 -2.1875 1.828125 C-1.465625 1.22484375 -0.74375 0.6215625 0 0 Z " fill="#310100" transform="translate(469,411)"/>
<path d="M0 0 C2 2 2 2 2.1953125 5.2578125 C2.17210937 6.53398438 2.14890625 7.81015625 2.125 9.125 C2.10695313 10.40632812 2.08890625 11.68765625 2.0703125 13.0078125 C2.04710937 13.99523437 2.02390625 14.98265625 2 16 C1.01 15.67 0.02 15.34 -1 15 C-0.67 10.05 -0.34 5.1 0 0 Z " fill="#4F0100" transform="translate(641,529)"/>
<path d="M0 0 C3.3 0 6.6 0 10 0 C10 0.99 10 1.98 10 3 C5.05 3 0.1 3 -5 3 C-5 2.67 -5 2.34 -5 2 C-3.35 1.67 -1.7 1.34 0 1 C0 0.67 0 0.34 0 0 Z " fill="#550200" transform="translate(250,640)"/>
<path d="M0 0 C0.33 0 0.66 0 1 0 C1.33 5.28 1.66 10.56 2 16 C1.01 16.33 0.02 16.66 -1 17 C-0.67 11.39 -0.34 5.78 0 0 Z " fill="#520E00" transform="translate(206,532)"/>
<path d="M0 0 C0.58265625 0.23589844 1.1653125 0.47179687 1.765625 0.71484375 C0.50620114 1.9144375 -0.76732786 3.09923818 -2.046875 4.27734375 C-3.10841797 5.26927734 -3.10841797 5.26927734 -4.19140625 6.28125 C-4.86558594 6.75433594 -5.53976563 7.22742188 -6.234375 7.71484375 C-7.224375 7.38484375 -8.214375 7.05484375 -9.234375 6.71484375 C-8.16721428 5.51278911 -7.07999163 4.32852042 -5.984375 3.15234375 C-5.38109375 2.49105469 -4.7778125 1.82976562 -4.15625 1.1484375 C-2.234375 -0.28515625 -2.234375 -0.28515625 0 0 Z " fill="#360400" transform="translate(192.234375,178.28515625)"/>
<path d="M0 0 C0.33 0.99 0.66 1.98 1 3 C-1.31 5.31 -3.62 7.62 -6 10 C-6.66 9.34 -7.32 8.68 -8 8 C-5.36 5.36 -2.72 2.72 0 0 Z " fill="#290100" transform="translate(428,451)"/>
<path d="M0 0 C0.66 0.66 1.32 1.32 2 2 C0.02 3.98 -1.96 5.96 -4 8 C-4.99 7.67 -5.98 7.34 -7 7 C-4.69 4.69 -2.38 2.38 0 0 Z " fill="#2E0200" transform="translate(587,294)"/>
<path d="M0 0 C0.33 0 0.66 0 1 0 C1 4.62 1 9.24 1 14 C0.67 14 0.34 14 0 14 C-0.16947579 12.58366664 -0.33545507 11.16691467 -0.5 9.75 C-0.5928125 8.96109375 -0.685625 8.1721875 -0.78125 7.359375 C-1 5 -1 5 -1 1 C-0.67 0.67 -0.34 0.34 0 0 Z " fill="#3F0400" transform="translate(159,548)"/>
<path d="M0 0 C0.33 0.99 0.66 1.98 1 3 C-0.32 4.32 -1.64 5.64 -3 7 C-3.99 6.67 -4.98 6.34 -6 6 C-4.02 4.02 -2.04 2.04 0 0 Z " fill="#560200" transform="translate(422,390)"/>
</svg>
