<?xml version="1.0" encoding="UTF-8"?>
<svg version="1.1" xmlns="http://www.w3.org/2000/svg" width="800" height="800">
<path d="M0 0 C0.00586624 0.59531525 0.01173248 1.19063049 0.01777649 1.8039856 C0.08230637 8.06737249 0.16686968 14.33027347 0.26245117 20.59326172 C0.29546093 22.92262313 0.32356522 25.25205994 0.34643555 27.58154297 C0.56539356 49.30031458 1.85077718 67.53863878 16 85 C16.57621094 85.55816406 17.15242188 86.11632812 17.74609375 86.69140625 C19 88 19 88 19 90 C19.57878906 90.26296875 20.15757812 90.5259375 20.75390625 90.796875 C23.11313426 92.06060061 24.90297172 93.51616016 26.9375 95.25 C39.00180576 104.75460931 52.12074339 107.19585753 67.06225586 107.61669922 C68.22820502 107.65429792 69.39415419 107.69189663 70.59543514 107.73063469 C84.64687883 108.14106311 98.70126725 108.14682987 112.75727582 108.1343255 C116.61137275 108.13172994 120.46546775 108.13415881 124.31956482 108.13571167 C130.78132565 108.13751274 137.24307492 108.13518184 143.70483398 108.13037109 C151.09675796 108.1249302 158.48865432 108.12669834 165.88057762 108.1321975 C172.31374929 108.13678549 178.74691282 108.13735187 185.1800856 108.13475883 C188.98448285 108.13322717 192.78886728 108.1329139 196.59326363 108.13629532 C210.83240949 108.1469817 225.07045955 108.10337116 239.30444336 107.67919922 C240.31786836 107.65723543 241.33129335 107.63527164 242.3754282 107.61264229 C259.78720651 106.98317645 275.58665528 100.31513788 288 88 C301.03491244 72.75540206 305.01635578 56.37425577 305.28125 36.75390625 C305.31900468 34.59700511 305.35676526 32.44010407 305.39453125 30.28320312 C305.4483943 26.90342043 305.50059424 23.523616 305.55224609 20.14379883 C305.60376773 16.86792093 305.66104297 13.59218008 305.71875 10.31640625 C305.73232544 9.29672256 305.74590088 8.27703888 305.7598877 7.22645569 C305.77660522 6.29135666 305.79332275 5.35625763 305.81054688 4.39282227 C305.82307495 3.56645767 305.83560303 2.74009308 305.84851074 1.88868713 C306 0 306 0 307 -1 C309.36624291 -1.10354216 311.69611496 -1.14124017 314.0625 -1.125 C315.13528198 -1.11883667 315.13528198 -1.11883667 316.22973633 -1.11254883 C339.40748972 -0.87668811 358.43764318 2.37356816 376 19 C381.12978663 24.25849095 384.91937942 30.18315712 388.375 36.625 C388.70910889 37.21482666 389.04321777 37.80465332 389.38745117 38.41235352 C396.98174308 53.43869121 394.43640655 73.90249762 394.59363031 90.29652119 C394.61761443 92.7149242 394.64489012 95.13327045 394.67306137 97.55162811 C395.23091658 145.89893747 395.15098541 194.25186771 395.12857032 242.60158682 C395.12481409 251.62615935 395.12614585 260.65072085 395.13037109 269.67529297 C395.15389751 321.35635112 395.11453275 373.0348769 394.5860877 424.71368313 C394.55526036 427.74062605 394.5255002 430.76757809 394.49585342 433.79453278 C394.32340453 451.07753275 394.13789664 468.36180684 393.59033203 485.63769531 C393.5615843 486.69738903 393.53283657 487.75708275 393.5032177 488.8488884 C392.91714488 504.74623832 386.17203605 518.72639998 375 530 C363.02355559 540.90404383 350.00480023 547.09996365 333.78515625 547.58984375 C332.74311539 547.62665756 331.70107452 547.66347137 330.62745667 547.70140076 C315.23549232 548.20614093 299.83599501 548.38856595 284.4375 548.5625 C283.55012775 548.57284019 282.66275551 548.58318039 281.74849319 548.59383392 C241.07388092 549.06537483 200.39765138 549.10960421 159.72080344 549.12211341 C154.60975575 549.12372419 149.49871143 549.12662824 144.38766521 549.13082403 C107.27176665 549.16096643 70.16104224 549.04615465 33.04766393 548.5860877 C30.55883649 548.55536556 28.06999944 548.52555098 25.58115959 548.49585342 C16.48982458 548.38559888 7.39943285 548.24824908 -1.69095993 548.07704926 C-4.58564333 548.02324377 -7.48025463 547.97887175 -10.37520218 547.94199371 C-13.91014672 547.89648629 -17.44429557 547.83216969 -20.97867596 547.75454545 C-22.88371777 547.71701215 -24.78909037 547.69758108 -26.69441128 547.67899895 C-45.03466659 547.21701448 -59.48173565 539.74285362 -72.1953125 526.7578125 C-76.39106104 521.87099949 -79.46903397 516.58841353 -82.375 510.875 C-82.87616333 509.88971313 -82.87616333 509.88971313 -83.38745117 508.88452148 C-88.07496593 499.22353546 -88.40168769 489.80553546 -88.61691284 479.2461853 C-88.65463115 477.68360527 -88.69263255 476.12103205 -88.73089969 474.55846536 C-89.10212228 458.54021117 -89.14373585 442.52182349 -89.13072467 426.50005603 C-89.12840554 422.2475538 -89.13198174 417.99505515 -89.13470459 413.74255371 C-89.13909463 405.46310414 -89.13821612 397.18366376 -89.13529195 388.90421386 C-89.13300934 382.15438701 -89.13273758 375.40456269 -89.13381577 368.65473557 C-89.133969 367.68444164 -89.13412223 366.71414772 -89.13428011 365.71445095 C-89.13459992 363.74159055 -89.13492414 361.76873015 -89.1352527 359.79586975 C-89.13808809 341.39772511 -89.13485196 322.99958549 -89.12945233 304.60144167 C-89.1249932 288.92488437 -89.12575667 273.2483345 -89.13037109 257.57177734 C-89.13576382 239.24326785 -89.13780619 220.91476275 -89.13475883 202.58625257 C-89.13444038 200.61864241 -89.13412601 198.65103225 -89.13381577 196.68342209 C-89.13366149 195.71605545 -89.13350721 194.74868881 -89.13334826 193.75200803 C-89.13249655 187.04060988 -89.1339391 180.32921463 -89.13629532 173.61781693 C-89.15811216 104.64719851 -89.15811216 104.64719851 -88.61669922 77.31005859 C-88.60155722 76.42831569 -88.58641522 75.54657279 -88.57081437 74.6381104 C-88.07125974 47.09534218 -88.07125974 47.09534218 -82.375 36.75 C-81.84604126 35.74743164 -81.84604126 35.74743164 -81.30639648 34.72460938 C-78.16167328 28.94217364 -74.52141696 23.79859194 -70 19 C-69.34773438 18.30648437 -68.69546875 17.61296875 -68.0234375 16.8984375 C-53.97728993 3.27314828 -18.9380664 -9.4690332 0 0 Z M4.5625 183.375 C1.12229757 189.15454008 -0.96028686 194.20013089 0 201 C1.68448378 207.59145829 4.55252024 212.07326061 9.9375 216.3125 C15.77053741 219.39244432 23.2268263 219.07459987 29.44140625 217.3046875 C34.90079108 214.83915887 38.52286864 211.11084908 41.10546875 205.671875 C42.92215631 200.24561173 43.14713734 194.00323509 41.08984375 188.6171875 C37.99049815 183.37520748 33.9833685 179.6932632 28.6875 176.6875 C19.47170162 174.32997018 11.40786895 176.70515333 4.5625 183.375 Z M93 182 C88.48694977 188.20544406 87.14459962 194.47006712 88 202 C89.4598792 207.14711697 91.69620413 211.87106852 96.15111446 215.082798 C105.02225159 219.48362462 116.46145604 218.28475975 126.12280273 218.25878906 C127.82907256 218.26150399 129.53534121 218.26506773 131.24160767 218.26940918 C135.84701661 218.27847642 140.4523353 218.27501225 145.0577457 218.26865101 C149.89543815 218.26356072 154.73312326 218.26829092 159.57081604 218.27142334 C167.69346493 218.27505454 175.81607736 218.2702865 183.9387207 218.26074219 C193.30510712 218.24986295 202.67140641 218.25338279 212.03779072 218.264395 C220.10438288 218.27349641 228.17094895 218.27473912 236.2375446 218.26951766 C241.04443447 218.26641315 245.85128351 218.26594652 250.6581707 218.27259064 C255.18004902 218.278405 259.701816 218.274293 264.2236824 218.26280212 C265.87474572 218.26017712 267.52581855 218.26088326 269.17687798 218.26532745 C284.5753928 218.71942048 284.5753928 218.71942048 299 214.375 C304.6538864 207.6610099 305.44335115 202.12933031 305.43359375 193.3671875 C304.73857466 187.96983208 302.71717064 184.11857523 298.5 180.6875 C297.9121875 180.19636719 297.324375 179.70523438 296.71875 179.19921875 C288.12939871 173.2061941 272.19334156 175.85103463 261.96972656 175.85473633 C260.29770331 175.85173716 258.62568074 175.84833291 256.95365906 175.84455872 C252.45189829 175.83579755 247.95015657 175.83338413 243.4483881 175.83274293 C240.63022988 175.83202862 237.8120764 175.82988726 234.99391937 175.82724571 C225.1474731 175.81802265 215.30104029 175.81390753 205.45458984 175.81469727 C196.29714493 175.81529918 187.13975871 175.80471734 177.98232865 175.7889536 C170.09578878 175.77586439 162.20926808 175.77051386 154.32271743 175.77115268 C149.62269883 175.77140699 144.92273262 175.76859151 140.22272491 175.75797462 C135.80671774 175.74826882 131.39081287 175.74823142 126.97480202 175.75549126 C125.3595623 175.75653359 123.74431612 175.75419519 122.12908745 175.7481308 C106.55929019 175.32335631 106.55929019 175.32335631 93 182 Z M6.86328125 290.8359375 C1.80089715 296.37590501 -0.50418813 301.3252976 -0.2421875 308.99609375 C0.59521786 315.92494777 4.89776625 321.47046596 10 326 C15.9107652 329.01888669 23.04579824 329.14088444 29.3828125 327.3125 C34.87669014 324.80578777 38.49270359 321.16319951 41.109375 315.671875 C43.1174266 309.64772019 43.05071877 302.48262407 40.5 296.625 C37.20455697 291.035556 32.23579936 287.8197931 26.25 285.625 C18.99414592 284.22964345 12.49006536 286.00122354 6.86328125 290.8359375 Z M117.68261719 285.38330078 C116.51404804 285.41364347 115.3454789 285.44398617 114.14149857 285.47524834 C102.89302242 285.82443997 102.89302242 285.82443997 93.35546875 291.3984375 C88.8859759 296.67939447 87.31272313 302.75513194 87.609375 309.578125 C88.55439102 315.43722431 91.83777277 320.83777277 96 325 C105.5546486 329.54983266 117.80605637 328.14407032 128.13549805 328.12939453 C129.74808288 328.13075189 131.3606674 328.1325337 132.97325134 328.13470459 C137.32890712 328.13924091 141.68453906 328.13750457 146.04019523 328.1343255 C150.61890457 328.13178002 155.19761198 328.13414572 159.77632141 328.13571167 C167.4686418 328.13752791 175.16095256 328.13514232 182.85327148 328.13037109 C191.71229822 328.12493921 200.5713019 328.12668552 209.43032807 328.1321975 C217.06552249 328.13675577 224.70071003 328.13736567 232.33590537 328.13475883 C236.88300027 328.13320968 241.43008439 328.13296437 245.97717857 328.13629532 C250.25935617 328.13921329 254.54150449 328.13712725 258.82367897 328.13140106 C260.38317949 328.13009389 261.94268253 328.13043218 263.50218201 328.13266373 C268.33667524 328.13893632 273.16636294 328.09642867 278 328 C279.02942353 327.98029656 279.02942353 327.98029656 280.07964349 327.96019506 C282.11266203 327.91061061 284.14228826 327.83139197 286.17390442 327.74191284 C287.34504697 327.69667418 288.51618952 327.65143551 289.72282124 327.60482597 C296.33828493 326.38389646 300.16363371 322.15169187 304 317 C305.14330513 313.57008462 305.20381651 310.8013584 305.25 307.1875 C305.27578125 305.98480469 305.3015625 304.78210938 305.328125 303.54296875 C304.79128456 297.74637024 302.16632742 293.2431505 297.91278076 289.35696411 C291.37410131 284.71829693 280.83287952 285.57508694 273.171875 285.3828125 C272.18966602 285.35515493 272.18966602 285.35515493 271.18761444 285.32693863 C247.26410712 284.66504635 223.317413 284.85030737 199.38707304 284.87142968 C193.92766548 284.87575067 188.46828122 284.87268456 183.00887513 284.8678025 C176.98076327 284.86263756 170.95266704 284.86328508 164.92455292 284.86618423 C162.41338852 284.86683922 159.90222324 284.86607674 157.39105988 284.86370468 C144.14942456 284.85392899 130.91870842 284.98018155 117.68261719 285.38330078 Z M4.4765625 403.046875 C0.91338499 407.76007276 -0.62400877 412.98195991 -0.34375 418.92578125 C0.78794412 425.75452647 3.86475921 430.53756928 9.21875 434.80859375 C14.71975494 438.48799398 19.46760849 438.82951003 26 438 C33.12431843 435.74597835 37.30629503 432.43419576 41 426 C43.0309276 419.90721719 43.11355753 412.53748609 40.4375 406.625 C37.44008322 401.54104221 33.33273229 398.06916897 28 395.625 C18.42961272 393.63116932 11.04704371 395.90635204 4.4765625 403.046875 Z M109.41696167 395.32058716 C107.50135091 395.4058475 107.50135091 395.4058475 105.54704094 395.49283028 C99.06748249 396.41930277 95.21581904 399.21408864 91.2578125 404.1875 C87.52570512 409.56544355 87.22469398 415.66015585 88 422 C89.82854414 428.19734121 93.68801947 432.43813835 99 436 C107.76205812 438.92068604 117.80288691 438.1441298 126.92797852 438.12939453 C128.29313707 438.13075325 129.65829525 438.13253581 131.02345276 438.13470459 C134.70679424 438.1392329 138.39010745 438.13750575 142.07344937 438.1343255 C145.97327826 438.13176616 149.87310496 438.13415037 153.77293396 438.13571167 C160.34382553 438.13752799 166.91470585 438.13514635 173.4855957 438.13037109 C180.98608973 438.12498173 188.48655633 438.12665402 195.98704964 438.1321975 C202.49390851 438.1368073 209.00075934 438.13734009 215.50761932 438.13475883 C219.36281175 438.13323166 223.21799154 438.13289925 227.07318306 438.13629532 C242.5355289 438.14778201 257.99810517 438.07585127 273.45703876 437.7275846 C274.94262685 437.6957446 276.42832196 437.6685086 277.91408455 437.64625382 C279.97313221 437.61383112 282.03093259 437.56286199 284.08946228 437.50704956 C285.25805755 437.4817108 286.42665281 437.45637203 287.63066006 437.43026543 C293.11360722 436.73009191 297.84678696 434.94437886 301.375 430.5 C301.85710937 429.9121875 302.33921875 429.324375 302.8359375 428.71875 C305.32604947 425.04207461 305.19491652 421.49778251 305.25 417.1875 C305.27578125 415.98480469 305.3015625 414.78210938 305.328125 413.54296875 C304.78264129 407.6530434 302.47664974 403.94347696 298 400.1875 C297.319375 399.60355469 296.63875 399.01960938 295.9375 398.41796875 C291.74520156 395.34981485 286.96585768 395.66244534 281.97607422 395.44580078 C281.01559614 395.40369036 280.05511806 395.36157993 279.06553459 395.31819344 C264.98592523 394.77097045 250.89277351 394.8540802 236.80494547 394.8656745 C232.6818832 394.86825 228.55882288 394.86584666 224.4357605 394.86428833 C217.5255289 394.86248273 210.61530808 394.86483153 203.70507812 394.86962891 C195.76035996 394.87508139 187.81566742 394.87329519 179.87094986 394.8678025 C172.9921793 394.86324062 166.11341637 394.8626354 159.23464477 394.86524117 C155.15103541 394.86678546 151.06743805 394.86704898 146.9838295 394.86370468 C143.14716981 394.86078037 139.31054272 394.86288383 135.47388649 394.86859894 C133.42558968 394.87051476 131.37729005 394.86761281 129.32899475 394.86447144 C122.6861967 394.87932902 116.0521653 395.00605461 109.41696167 395.32058716 Z " fill="#5A1B00" transform="translate(247,133)"/>
<path d="M0 0 C5.29922696 5.06792327 11.75968594 12.25510242 14.03491211 19.32861328 C14.88346204 21.65832812 15.49011368 22.80282559 17.4140625 24.3984375 C22.48214301 25.52525295 27.55874876 25.57099949 32.7265625 25.6484375 C34.83951366 25.70160566 36.95133797 25.76476621 39.06352234 25.8427124 C40.98746252 25.91045749 42.91237395 25.94873439 44.8371582 25.98535156 C50.5950978 26.65031872 55.32530353 28.58312869 59.2265625 33.0234375 C60.07154297 33.93996094 60.07154297 33.93996094 60.93359375 34.875 C64.75122404 41.38209543 64.71357269 49.12877434 64.6796875 56.48046875 C64.68160095 57.41590012 64.6835144 58.35133148 64.68548584 59.31510925 C64.68683867 61.2824226 64.68320572 63.24974514 64.67480469 65.21704102 C64.66412891 68.19242927 64.67471223 71.16720881 64.6875 74.14257812 C64.70863347 101.40446975 64.70863347 101.40446975 58.4140625 108.3984375 C52.43601035 113.10456366 47.63623863 113.513447 40.19311523 113.60375977 C39.47704511 113.6136537 38.76097498 113.62354763 38.02320576 113.63374138 C35.63138939 113.66545638 33.23955584 113.6902637 30.84765625 113.71484375 C29.13307335 113.73562849 27.41849413 113.75671856 25.70391846 113.77809143 C21.05566108 113.83435933 16.40735507 113.88374331 11.75899887 113.93106842 C8.85247211 113.96092816 5.94596557 113.99232873 3.03945923 114.02410889 C-25.6980828 114.3354598 -54.43517016 114.50433043 -83.17438889 114.52137375 C-85.87888643 114.52342269 -88.58337718 114.52717496 -91.28787231 114.53128052 C-95.56570832 114.53718241 -99.84350806 114.53725854 -104.12134552 114.53281975 C-105.67253853 114.53180109 -107.22373356 114.53229711 -108.77492523 114.53457832 C-113.71338535 114.54060466 -118.64844236 114.49616464 -123.5859375 114.3984375 C-124.37398647 114.38523216 -125.16203545 114.37202682 -125.97396469 114.35842133 C-128.40990671 114.30809782 -130.8432357 114.22828367 -133.27807617 114.14013672 C-134.39171146 114.1197594 -134.39171146 114.1197594 -135.52784443 114.09897041 C-141.55309285 113.82852384 -145.12352912 111.7503532 -149.4140625 107.65234375 C-150.11789062 106.81509766 -150.11789062 106.81509766 -150.8359375 105.9609375 C-151.31546875 105.40535156 -151.795 104.84976563 -152.2890625 104.27734375 C-154.98911424 100.3655218 -155.83648775 96.78493252 -155.84472656 92.07666016 C-155.85103088 91.0385318 -155.85733521 90.00040344 -155.86383057 88.93081665 C-155.8597821 87.81927216 -155.85573364 86.70772766 -155.8515625 85.5625 C-155.85347595 84.40978607 -155.8553894 83.25707214 -155.85736084 82.06942749 C-155.8587205 79.63352235 -155.8550394 77.19760992 -155.84667969 74.76171875 C-155.83599689 71.04410397 -155.84657267 67.32697457 -155.859375 63.609375 C-155.85805298 61.23958227 -155.85548972 58.86978984 -155.8515625 56.5 C-155.85561096 55.39250397 -155.85965942 54.28500793 -155.86383057 53.14395142 C-155.81526879 45.09875498 -155.45371981 38.80251443 -149.8359375 32.5859375 C-148.85367187 31.46251953 -148.85367187 31.46251953 -147.8515625 30.31640625 C-143.24140106 26.41366614 -138.38487949 26.1858595 -132.53515625 26.29296875 C-118.91542452 26.88015041 -118.91542452 26.88015041 -106.40576172 23.00146484 C-103.3364241 19.58623163 -101.84868989 15.56404904 -100.35205078 11.27685547 C-95.69885409 -0.13222526 -81.54676994 -8.71101975 -70.828125 -13.3515625 C-45.69764852 -23.0404209 -19.88194898 -17.99193655 0 0 Z " fill="#5A1A00" transform="translate(445.5859375,84.6015625)"/>
<path d="M0 0 C1.48831242 0.00667405 2.97660807 0.01863442 4.46484375 0.03515625 C5.22345703 0.03966797 5.98207031 0.04417969 6.76367188 0.04882812 C8.64326246 0.06064945 10.52281274 0.07858547 12.40234375 0.09765625 C12.40234375 0.42765625 12.40234375 0.75765625 12.40234375 1.09765625 C7.45234375 1.42765625 2.50234375 1.75765625 -2.59765625 2.09765625 C-2.92765625 3.08765625 -3.25765625 4.07765625 -3.59765625 5.09765625 C-4.16015625 3.16015625 -4.16015625 3.16015625 -4.59765625 1.09765625 C-3.59765625 0.09765625 -3.59765625 0.09765625 0 0 Z " fill="#330A00" transform="translate(557.59765625,131.90234375)"/>
</svg>
