<?xml version="1.0" encoding="UTF-8"?>
<svg version="1.1" xmlns="http://www.w3.org/2000/svg" width="572" height="528">
<path d="M0 0 C1.00247772 -0.0033284 2.00495544 -0.0066568 3.03781128 -0.01008606 C5.15410913 -0.01513255 7.27041489 -0.01749509 9.38671875 -0.01733398 C12.58607496 -0.01951009 15.78508014 -0.03766176 18.984375 -0.05664062 C56.22329252 -0.16241751 95.76102622 14.08311825 122.9465332 40.31738281 C133.38066911 50.69593215 133.38066911 50.69593215 135.4921875 55.16796875 C135.1328125 57.390625 135.1328125 57.390625 134.4921875 59.16796875 C133.8321875 59.16796875 133.1721875 59.16796875 132.4921875 59.16796875 C132.23824219 59.75320312 131.98429687 60.3384375 131.72265625 60.94140625 C130.36060449 63.40607134 128.86917217 64.8866666 126.8046875 66.79296875 C107.96596633 85.36111583 99.89798456 113.28880793 91.0703125 137.53515625 C69.5106048 196.74477509 69.5106048 196.74477509 52.4921875 216.16796875 C51.88375 216.89757812 51.2753125 217.6271875 50.6484375 218.37890625 C32.57201871 239.82411218 6.3097427 253.28419216 -19.0078125 264.16796875 C-40.36317534 273.35039137 -59.35153155 283.832556 -77.30322266 298.64990234 C-96.83486528 314.75052313 -119.14302479 331.69544882 -145.734375 329.95703125 C-156.96941717 328.41838206 -165.25332406 323.8798321 -172.5078125 315.16796875 C-180.49304778 304.64575768 -182.58460913 292.22604533 -181.0078125 279.23046875 C-178.59118029 267.11529933 -172.11567402 257.74557416 -163.5078125 249.16796875 C-162.92902344 248.52988281 -162.35023438 247.89179688 -161.75390625 247.234375 C-148.89984982 233.40260511 -131.76510281 223.31173 -115.53198242 214.01269531 C-97.87854947 203.87287476 -85.17931313 192.63931503 -72.68798828 176.5078125 C-69.08043854 171.85520347 -65.32962763 167.34696133 -61.5078125 162.86962891 C-55.70997287 156.07554666 -50.08471731 149.14435962 -44.5078125 142.16796875 C-45.11787643 142.1768512 -45.72794037 142.18573364 -46.35649109 142.19488525 C-52.76531506 142.28408854 -59.17395976 142.34400254 -65.58325195 142.38769531 C-67.96809058 142.40768315 -70.352881 142.4348827 -72.73754883 142.46972656 C-100.74110318 142.86835367 -100.74110318 142.86835367 -111.20458984 136.53588867 C-113.35104944 135.00896769 -113.35104944 135.00896769 -115.52734375 135.109375 C-118.56698884 136.73411626 -120.23607959 139.35976143 -122.1953125 142.10546875 C-123.08156705 143.29915924 -123.97093734 144.49054224 -124.86328125 145.6796875 C-125.30720215 146.27185059 -125.75112305 146.86401367 -126.20849609 147.47412109 C-135.2295692 159.23440017 -145.70046684 168.10164097 -158.48046875 175.41796875 C-161.29977673 176.8738324 -161.29977673 176.8738324 -162.5078125 178.16796875 C-162.23015233 183.72117221 -161.17990229 188.44673603 -159.4453125 193.73046875 C-157.17504471 200.92521447 -156.25022979 205.83188201 -159.3203125 212.98046875 C-161.86847514 217.69636411 -165.20893679 221.11053453 -169.07104492 224.78710938 C-183.01050096 238.15860155 -192.75363479 255.13668024 -201.5078125 272.16796875 C-205.22639741 269.68891214 -205.85891565 267.1905549 -207.22265625 263.14453125 C-207.6003717 262.06352394 -207.6003717 262.06352394 -207.98571777 260.9606781 C-208.81602269 258.5749148 -209.63101701 256.18423933 -210.4453125 253.79296875 C-211.02096935 252.12406174 -211.59723096 250.45536322 -212.17407227 248.78686523 C-213.67101241 244.44528022 -215.15300286 240.0987501 -216.62988281 235.75030518 C-217.48070699 233.24769673 -218.33544005 230.74645924 -219.19140625 228.24560547 C-241.12969023 164.07959219 -241.12969023 164.07959219 -229.5078125 140.16796875 C-217.02718452 114.81181793 -202.43189859 90.0820055 -184.5078125 68.16796875 C-183.79625 67.26820312 -183.0846875 66.3684375 -182.3515625 65.44140625 C-171.173101 52.03535279 -155.40553505 46.97053959 -139.5078125 41.16796875 C-138.50492187 40.80010254 -137.50203125 40.43223633 -136.46875 40.05322266 C-128.93281913 37.30072872 -121.36990272 34.62651601 -113.79907227 31.97186279 C-111.28808125 31.09087551 -108.77781795 30.20783234 -106.26757812 29.32470703 C-22.93450957 0.02683265 -22.93450957 0.02683265 0 0 Z " fill="#EAE2B8" transform="translate(360.5078125,38.83203125)"/>
<path d="M0 0 C3.6328496 3.47880651 6.63653009 7.05708276 9.625 11.125 C20.14123995 25.04788122 31.3149593 35.03395364 48.765625 38.55859375 C71.67092406 41.68455848 94.24015867 35.15914894 113 22 C115.57097826 20.03704872 118.08306674 18.02398647 120.57421875 15.9609375 C132.37908903 6.41819212 132.37908903 6.41819212 137.83984375 5.546875 C141 6 141 6 143.37890625 8.640625 C144.13189598 9.82818682 144.85856479 11.03271949 145.5625 12.25 C145.94744629 12.88462158 146.33239258 13.51924316 146.72900391 14.1730957 C158.37924504 33.8546819 162.56254478 57.41880279 156.96875 79.7421875 C149.22355724 105.7885212 133.49091884 125.47162611 110 139 C92.05329236 148.33878452 63.57177866 150.50456275 44 145 C19.51029404 136.47324561 0.12865187 119.30649168 -11.31787109 96.08544922 C-21.13570155 75.1404098 -21.635793 52.63843135 -14 31 C-10.03422878 20.35624675 -5.29385809 10.04629887 0 0 Z " fill="#EAE3B8" transform="translate(160,346)"/>
</svg>
