<?xml version="1.0" encoding="UTF-8"?>
<svg version="1.1" xmlns="http://www.w3.org/2000/svg" width="751" height="711">
<path d="M0 0 C0.76732452 -0.00979385 1.53464905 -0.01958771 2.32522583 -0.02967834 C19.80008615 -0.20664481 36.67436834 0.05040316 53.75 4.23828125 C54.60609863 4.44727051 55.46219727 4.65625977 56.34423828 4.87158203 C87.41192058 12.7641331 116.75208725 28.91640671 140.34375 50.625 C142.62086344 52.48057005 142.62086344 52.48057005 145.3046875 52.2109375 C148.12382221 51.08958839 149.70166839 49.78713572 151.875 47.67578125 C189.26941708 13.05360267 239.76371533 -1.35917333 289.75 0.23828125 C317.88538682 1.47268559 344.04663555 8.7823695 368.75 22.23828125 C369.43803711 22.60791992 370.12607422 22.97755859 370.83496094 23.35839844 C382.16052577 29.5024003 392.02952718 36.80418025 401.75 45.23828125 C402.7090625 46.06714844 403.668125 46.89601562 404.65625 47.75 C407.05941838 49.87502389 409.41262587 52.04131476 411.75 54.23828125 C412.81347656 55.20507812 412.81347656 55.20507812 413.8984375 56.19140625 C444.73312731 85.35634751 465.87279848 130.36595252 467.86486816 172.67811584 C467.92906318 175.15547279 467.96609496 177.63128713 467.98828125 180.109375 C468.00304001 181.47693939 468.00304001 181.47693939 468.01809692 182.87213135 C468.67936064 260.05889693 438.52963595 328.14180458 391.25683594 388.31396484 C389.78616661 390.1920944 388.33247799 392.08219286 386.8828125 393.9765625 C381.69507799 400.72171028 376.28021242 407.12176681 370.453125 413.32421875 C368.45802914 415.47500128 366.53462344 417.64315569 364.62573242 419.86743164 C360.61195607 424.46189035 356.35339308 428.77905308 352.03515625 433.0859375 C351.22058456 433.90146591 350.40601288 434.71699432 349.5667572 435.55723572 C347.85440807 437.27026133 346.14081158 438.9820409 344.42602539 440.69262695 C341.81997985 443.29331677 339.21931478 445.89930081 336.61914062 448.50585938 C334.94563301 450.17870611 333.27181518 451.85124259 331.59765625 453.5234375 C330.8297023 454.29341568 330.06174835 455.06339386 329.27052307 455.85670471 C325.14708024 459.96252563 320.94449792 463.91177123 316.52655029 467.69984436 C313.58184038 470.24987088 310.77065757 472.9408615 307.9375 475.61328125 C302.94934863 480.28062759 297.85401119 484.72772982 292.51953125 489 C289.9817969 491.05094751 287.49538924 493.1474011 285.01757812 495.26953125 C278.1122917 501.18131035 271.00493615 506.76353289 263.75 512.23828125 C262.32107422 513.32882812 262.32107422 513.32882812 260.86328125 514.44140625 C247.90720105 524.26893775 234.51756222 533.45518296 221 542.48828125 C220.15814651 543.05215042 220.15814651 543.05215042 219.29928589 543.62741089 C211.23063551 549.02603878 203.04857831 554.20117011 194.75 559.23828125 C193.83347656 559.79918457 192.91695313 560.36008789 191.97265625 560.93798828 C154.01566206 584.09878381 154.01566206 584.09878381 138.75 582.23828125 C96.82259374 571.96138209 57.16137704 537.15182958 23.75 511.23828125 C23.12609375 510.75617188 22.5021875 510.2740625 21.859375 509.77734375 C14.36533223 503.98066964 7.04642298 498.01779172 -0.15625 491.86328125 C-3.0455132 489.39912161 -5.98518458 487.00167125 -8.9375 484.61328125 C-14.20266154 480.32484533 -19.23581691 475.81541193 -24.25 471.23828125 C-25.91549976 469.7369857 -27.58216944 468.23698703 -29.25 466.73828125 C-30.03648926 466.02881348 -30.82297852 465.3193457 -31.63330078 464.58837891 C-33.21395419 463.16876987 -34.80003711 461.75512955 -36.39624023 460.35302734 C-43.64011399 453.95094689 -50.49372373 447.18070548 -57.32739258 440.34619141 C-59.30726174 438.36851371 -61.29501688 436.39899933 -63.28320312 434.4296875 C-69.6922451 428.04831211 -75.8347231 421.65318667 -81.42797852 414.53393555 C-83.2447779 412.24486082 -85.15267571 410.08139331 -87.125 407.92578125 C-91.93866535 402.56144018 -96.33850709 396.88568055 -100.74072266 391.18457031 C-102.27850785 389.20151894 -103.8316874 387.23126539 -105.38671875 385.26171875 C-113.68963869 374.67203103 -121.1279507 363.65114544 -128.25 352.23828125 C-128.75917969 351.42488281 -129.26835937 350.61148437 -129.79296875 349.7734375 C-149.98452858 317.33198533 -165.94438466 282.86260188 -174.6875 245.55078125 C-174.92243164 244.54942139 -175.15736328 243.54806152 -175.39941406 242.51635742 C-178.85657057 226.90153385 -179.59782892 211.70697542 -179.56567383 195.76757812 C-179.56251857 192.50747034 -179.58604352 189.24827739 -179.61132812 185.98828125 C-179.67110781 166.34224163 -177.2796373 147.95258471 -171.25 129.23828125 C-171.03504883 128.56877441 -170.82009766 127.89926758 -170.59863281 127.20947266 C-157.5178496 87.50763362 -126.36036702 52.58625541 -92.25 29.23828125 C-91.21488281 28.52929688 -90.17976563 27.8203125 -89.11328125 27.08984375 C-63.41588861 10.4408288 -30.64837058 0.32541164 0 0 Z M61.75 149.23828125 C51.71991179 161.8446764 49.5777581 175.55054118 50.75 191.23828125 C52.37567229 203.2129498 57.54989629 216.48700492 66.671875 224.74609375 C76.81953155 232.03256894 87.59382474 235.34687784 99.96875 233.99609375 C110.56685055 232.16754823 118.53913338 225.77656042 124.75 217.23828125 C130.99239091 207.20149586 131.95195796 200.32352943 132 188.61328125 C132.020625 187.37964844 132.04125 186.14601563 132.0625 184.875 C132.12608372 169.91692929 127.5838428 159.3143423 117.3125 148.30078125 C108.82615593 140.39173949 98.1561129 136.62829461 86.67578125 136.94921875 C77.37638494 137.86798421 68.22751846 142.5030366 61.75 149.23828125 Z M171.0625 148.30078125 C160.42498064 159.63491693 156.15636984 172.1879431 156.25 187.48828125 C156.25644531 188.58857666 156.26289063 189.68887207 156.26953125 190.82250977 C156.54138829 202.94787015 159.28544755 212.72934993 167.45703125 222.05078125 C175.56731907 229.78802347 184.60655336 233.43176308 195.625 234.67578125 C208.72740737 234.0300774 217.74581036 227.55923433 226.5 218.48828125 C235.94356646 207.53111181 239.33386309 193.25556407 238.6875 178.98828125 C237.31474022 166.13691312 232.3297693 153.68892251 222.71875 144.7734375 C207.40220465 132.83017892 184.97568829 135.37135375 171.0625 148.30078125 Z M-6.7890625 239.15234375 C-15.46738016 251.54331068 -16.78358305 264.95734831 -14.7890625 279.62890625 C-11.68293571 293.58820547 -3.82386916 304.72789714 7.98828125 312.6328125 C19.862906 319.5358829 32.46590972 322.65497154 46.0625 319.17578125 C54.54471209 316.19516813 61.23546726 309.91849244 65.75 302.23828125 C72.01738053 289.10088744 72.11032007 276.68214622 68.00390625 262.74609375 C62.7824083 248.13891258 50.82487826 235.99658683 36.87011719 229.34179688 C21.90491123 223.16708364 4.06781504 226.97280093 -6.7890625 239.15234375 Z M234.75 240.23828125 C223.06538976 252.37898222 217.31956071 266.80288359 217.38427734 283.43505859 C217.63350528 294.56800207 221.6294276 303.03130076 229.41015625 310.921875 C237.87207622 318.65132809 247.42632805 321.14525631 258.75 321.23828125 C271.97302386 319.88327174 282.9365621 312.7690189 291.48193359 302.8359375 C301.976081 289.61420076 305.40882604 274.85718972 303.75 258.23828125 C301.69814391 247.82829952 296.75068823 238.49522278 287.86328125 232.453125 C270.14019724 222.26480868 249.17177031 227.10687986 234.75 240.23828125 Z M108.625 270.30078125 C102.25888404 277.9350478 97.92492603 286.56593856 93.859375 295.5703125 C93.34600586 296.70670166 92.83263672 297.84309082 92.30371094 299.01391602 C91.29161647 301.27713356 90.29408689 303.54693876 89.31347656 305.82397461 C86.02507138 313.23628099 82.10403176 319.16011526 76.75 325.23828125 C75.59757812 326.59566406 75.59757812 326.59566406 74.421875 327.98046875 C70.85882565 331.93458449 67.23721627 335.75856183 63.3996582 339.44921875 C49.93908721 352.48517286 39.45381541 366.40582064 39.125 385.86328125 C39.28095191 397.79360225 43.32819422 407.67292197 51.75 416.23828125 C63.45327785 426.75997816 75.96425483 429.20249505 91.265625 428.6953125 C99.23645498 428.19395803 106.75259883 426.14140569 114.38964844 423.9140625 C118.1317823 422.8426696 121.90829209 421.91846666 125.6875 420.98828125 C126.93402344 420.67375 128.18054688 420.35921875 129.46484375 420.03515625 C147.15938109 415.74302115 163.2799626 420.91259767 180.38110352 425.57495117 C195.49787227 429.67305736 212.66101745 431.07928623 226.75 423.23828125 C237.3686786 416.88139946 244.93927484 406.85733344 248.0625 394.86328125 C250.55391517 381.43336709 248.33276936 369.53238686 240.75 358.23828125 C237.39401796 353.91523844 233.76405403 349.82801085 230.10986328 345.75683594 C228.46376829 343.91864727 226.85741624 342.04780901 225.25 340.17578125 C223.18276994 337.80961351 221.06390252 335.50212511 218.90625 333.21875 C208.16284383 321.83121037 201.1269229 310.49179186 194.75 296.23828125 C185.57350315 275.02085052 185.57350315 275.02085052 167.99609375 261.00390625 C148.03736449 253.50919975 123.8355337 254.4700122 108.625 270.30078125 Z " fill="#E8E1B5" transform="translate(242.25,78.76171875)"/>
<path d="M0 0 C0.76732452 -0.00979385 1.53464905 -0.01958771 2.32522583 -0.02967834 C19.80008615 -0.20664481 36.67436834 0.05040316 53.75 4.23828125 C54.60609863 4.44727051 55.46219727 4.65625977 56.34423828 4.87158203 C87.41192058 12.7641331 116.75208725 28.91640671 140.34375 50.625 C142.62086344 52.48057005 142.62086344 52.48057005 145.3046875 52.2109375 C148.12382221 51.08958839 149.70166839 49.78713572 151.875 47.67578125 C189.26941708 13.05360267 239.76371533 -1.35917333 289.75 0.23828125 C317.88538682 1.47268559 344.04663555 8.7823695 368.75 22.23828125 C369.43803711 22.60791992 370.12607422 22.97755859 370.83496094 23.35839844 C382.16052577 29.5024003 392.02952718 36.80418025 401.75 45.23828125 C402.7090625 46.06714844 403.668125 46.89601562 404.65625 47.75 C407.05941838 49.87502389 409.41262587 52.04131476 411.75 54.23828125 C412.81347656 55.20507812 412.81347656 55.20507812 413.8984375 56.19140625 C433.00765476 74.26582835 446.27055761 98.42847957 456.75 122.23828125 C457.14558105 123.08084473 457.54116211 123.9234082 457.94873047 124.79150391 C458.82307717 127.46143159 458.71062077 128.64460516 457.75 131.23828125 C457.53496826 130.70686523 457.31993652 130.17544922 457.09838867 129.62792969 C436.44630918 79.01380676 402.18140945 37.81691115 351.03125 16.1953125 C339.38736724 11.46175687 327.55964174 7.81467321 315.1875 5.55078125 C314.21574829 5.37144043 314.21574829 5.37144043 313.22436523 5.18847656 C291.35336218 1.46368522 267.63888568 1.80728528 245.75 5.23828125 C244.450625 5.42132813 243.15125 5.604375 241.8125 5.79296875 C210.50315273 10.82482813 180.33370633 27.11461329 156.27734375 47.33203125 C152.32028376 50.64284572 148.15785587 53.5568356 143.75 56.23828125 C142.65558594 55.27341797 142.65558594 55.27341797 141.5390625 54.2890625 C127.71585519 42.26005108 113.07525852 31.60887559 96.75 23.23828125 C95.75564941 22.72273682 95.75564941 22.72273682 94.74121094 22.19677734 C67.29280771 8.12930566 37.51301605 1.81781689 6.75 2.23828125 C6.01442871 2.24359863 5.27885742 2.24891602 4.52099609 2.25439453 C-48.7694677 2.94000284 -92.23585636 27.23643438 -128.59375 64.328125 C-134.32858196 70.29156905 -139.42270593 76.52916068 -144.25 83.23828125 C-145.39082031 84.76195312 -145.39082031 84.76195312 -146.5546875 86.31640625 C-166.01715591 113.11939043 -176.32246019 145.20630727 -176.453125 178.26171875 C-176.45882507 179.40250885 -176.46452515 180.54329895 -176.47039795 181.71865845 C-176.47980674 184.12737107 -176.48636545 186.53609633 -176.49023438 188.94482422 C-176.49987845 192.56762191 -176.53091705 196.18983655 -176.5625 199.8125 C-176.62445107 213.26396623 -175.96284849 226.0551483 -173.25 239.23828125 C-173.03617676 240.34461914 -172.82235352 241.45095703 -172.60205078 242.59082031 C-165.89246839 275.66835863 -152.58882138 309.58771633 -134.40625 338.1328125 C-134.0246875 338.82761719 -133.643125 339.52242188 -133.25 340.23828125 C-133.58 340.89828125 -133.91 341.55828125 -134.25 342.23828125 C-159.38624735 302.2172054 -179.24576514 253.81101569 -179.453125 206.02734375 C-179.45882507 204.97912445 -179.46452515 203.93090515 -179.47039795 202.85092163 C-179.47979225 200.64069611 -179.48635959 198.43045693 -179.49023438 196.22021484 C-179.49987292 192.90696453 -179.53092314 189.59435353 -179.5625 186.28125 C-179.66132683 166.5092287 -177.31865613 148.07368823 -171.25 129.23828125 C-171.03504883 128.56877441 -170.82009766 127.89926758 -170.59863281 127.20947266 C-157.5178496 87.50763362 -126.36036702 52.58625541 -92.25 29.23828125 C-91.21488281 28.52929688 -90.17976563 27.8203125 -89.11328125 27.08984375 C-63.41588861 10.4408288 -30.64837058 0.32541164 0 0 Z " fill="#AD8D5E" transform="translate(242.25,78.76171875)"/>
<path d="M0 0 C0.99 0.99 0.99 0.99 2 2 C1.01386719 1.89171875 1.01386719 1.89171875 0.0078125 1.78125 C-25.71849657 -1.00360293 -25.71849657 -1.00360293 -48.796875 8.03515625 C-58.21285577 16.43274194 -63.76246183 26.96740812 -68.89453125 38.3359375 C-69.40733643 39.4717627 -69.9201416 40.60758789 -70.44848633 41.77783203 C-71.45948342 44.04036558 -72.45617311 46.30936376 -73.4362793 48.58544922 C-76.72498815 55.99774024 -80.64587659 61.92172997 -86 68 C-87.15242188 69.35738281 -87.15242188 69.35738281 -88.328125 70.7421875 C-91.89117435 74.69630324 -95.51278373 78.52028058 -99.3503418 82.2109375 C-116.00647261 98.34164673 -123.48756856 113.34739163 -123.95703125 136.6796875 C-123.97445033 138.11975754 -123.99002347 139.55985916 -124 141 C-127.90479092 134.00545807 -126.91594831 123.50295548 -125.34765625 115.79296875 C-124.41463736 113.05798205 -123.3155729 110.57241486 -122 108 C-121.525625 107.03964844 -121.05125 106.07929688 -120.5625 105.08984375 C-115.58606735 95.81884542 -108.7965795 88.74683719 -101.36328125 81.390625 C-98.83667773 78.83478805 -96.58801969 76.14718004 -94.33203125 73.35546875 C-93.89246094 72.90816406 -93.45289063 72.46085937 -93 72 C-92.34 72 -91.68 72 -91 72 C-90.773125 71.484375 -90.54625 70.96875 -90.3125 70.4375 C-88.80157969 67.63150513 -87.00736922 65.14948102 -85.12109375 62.5859375 C-83.92963819 60.98520209 -83.92963819 60.98520209 -83 59 C-82.34 59 -81.68 59 -81 59 C-80.72381836 58.29512451 -80.44763672 57.59024902 -80.16308594 56.86401367 C-78.02764458 51.60564622 -75.61440609 46.47094207 -73.25 41.3125 C-72.73695313 40.17876953 -72.22390625 39.04503906 -71.6953125 37.87695312 C-65.42820592 24.21686529 -56.2850489 5.98890022 -41.1484375 0.3046875 C-28.19623932 -3.35908171 -12.98499639 -3.13965584 0 0 Z " fill="#FAF5D2" transform="translate(406,336)"/>
<path d="M0 0 C0.88864746 -0.00475342 1.77729492 -0.00950684 2.69287109 -0.0144043 C7.58940481 -0.0019155 12.23511916 0.297449 17.0625 1.125 C17.0625 1.455 17.0625 1.785 17.0625 2.125 C16.15709473 2.14481934 15.25168945 2.16463867 14.31884766 2.18505859 C-9.88477552 2.62638342 -9.88477552 2.62638342 -33.9375 5.125 C-35.23300781 5.30675781 -36.52851563 5.48851563 -37.86328125 5.67578125 C-69.71287581 10.57147388 -100.42889819 27.75370236 -124.9375 48.125 C-124.9375 47.135 -124.9375 46.145 -124.9375 45.125 C-123.10051141 43.43448226 -121.31370626 41.97356892 -119.3125 40.5 C-118.43223145 39.84076538 -118.43223145 39.84076538 -117.53417969 39.16821289 C-82.6175718 13.35161845 -43.36752781 0.1910959 0 0 Z " fill="#A48152" transform="translate(521.9375,78.875)"/>
<path d="M0 0 C0 0.33 0 0.66 0 1 C-1.59328125 1.36351562 -1.59328125 1.36351562 -3.21875 1.734375 C-16.49397442 4.84678574 -26.96602115 8.504486 -34.61328125 20.52734375 C-41.74701043 33.24748621 -43.27604349 48.22114355 -39.6159668 62.32666016 C-39.09221653 64.14673277 -38.53344721 65.95662191 -37.97265625 67.765625 C-37.0471319 70.84327225 -36.45732644 73.8227847 -36 77 C-38.60505033 73.88882561 -39.88088936 70.97488567 -41.125 67.125 C-41.45757812 66.11695313 -41.79015625 65.10890625 -42.1328125 64.0703125 C-46.09781461 50.03206178 -45.03015242 35.30673881 -38.64453125 22.22265625 C-32.82166885 11.84141363 -24.45166272 4.61631454 -13 1 C-8.61907912 0.20346893 -4.44879618 -0.10850722 0 0 Z " fill="#F9F4D0" transform="translate(335,214)"/>
<path d="M0 0 C1.96135854 0.82647054 1.96135854 0.82647054 4.8125 0.65625 C5.4725 0.65625 6.1325 0.65625 6.8125 0.65625 C7.3075 3.13125 7.3075 3.13125 7.8125 5.65625 C6.89210938 5.30691406 5.97171875 4.95757812 5.0234375 4.59765625 C-8.53688024 -0.3565195 -22.79322699 -2.84084051 -36.4375 3.40625 C-39.95147855 5.31507785 -42.83560222 7.75353674 -45.7421875 10.484375 C-47.1875 11.65625 -47.1875 11.65625 -49.1875 11.65625 C-49.5175 12.64625 -49.8475 13.63625 -50.1875 14.65625 C-50.8475 14.65625 -51.5075 14.65625 -52.1875 14.65625 C-52.435 15.171875 -52.6825 15.6875 -52.9375 16.21875 C-54.90941355 20.06398142 -57.10533085 23.78205849 -59.265625 27.5234375 C-60.9940742 30.52887529 -62.68681414 33.52982114 -64.1875 36.65625 C-65.1875 33.65625 -65.1875 33.65625 -64.18359375 31.01953125 C-60.98531148 24.75923438 -57.6556248 19.08356464 -53.1875 13.65625 C-52.5378125 12.80740234 -52.5378125 12.80740234 -51.875 11.94140625 C-47.84941703 6.79620802 -42.87409427 4.42396747 -37.125 1.53125 C-36.10277344 1.01304687 -35.08054687 0.49484375 -34.02734375 -0.0390625 C-24.27015731 -4.52173137 -9.84678214 -3.79804454 0 0 Z " fill="#F9F5D0" transform="translate(526.1875,307.34375)"/>
<path d="M0 0 C20.83043871 7.16046331 39.10788497 21.24209325 55.74609375 35.32421875 C57.87462984 37.25482219 57.87462984 37.25482219 60.5625 37 C63.42487951 35.82569046 64.90462455 34.2398841 67 32 C67.66 32 68.32 32 69 32 C67.77946141 35.66161578 66.63217696 36.16270474 63.4375 38.1875 C62.61121094 38.71730469 61.78492188 39.24710938 60.93359375 39.79296875 C60.29550781 40.19128906 59.65742188 40.58960938 59 41 C58.27039063 40.35675781 57.54078125 39.71351563 56.7890625 39.05078125 C39.17917503 23.7265853 20.39945239 11.34393897 -1 2 C-0.67 1.34 -0.34 0.68 0 0 Z " fill="#B69665" transform="translate(327,94)"/>
<path d="M0 0 C-2.34908936 2.34908936 -3.97258659 2.71718891 -7.125 3.6875 C-17.22818333 7.27505335 -24.85498892 15.46869393 -29.4765625 25.06640625 C-30.71763098 28.02392325 -31.8794458 30.99506813 -33 34 C-33.66312911 35.66807734 -34.328622 37.3352256 -35 39 C-36.89288002 33.53588636 -34.36674017 28.98065947 -32 24 C-24.93615027 12.15886462 -15.16413692 -0.40984154 0 0 Z " fill="#FBF7D6" transform="translate(434,216)"/>
<path d="M0 0 C0.33 0 0.66 0 1 0 C3.02591558 18.37794847 2.83226074 34.05398644 -9 49 C-9.66 49 -10.32 49 -11 49 C-9.09599164 45.02721332 -6.77523921 41.36150653 -4.4375 37.6328125 C-1.63394796 32.49804599 -0.74043987 27.88990159 -0.5859375 22.0703125 C-0.52792969 20.13671875 -0.52792969 20.13671875 -0.46875 18.1640625 C-0.43730242 16.81771293 -0.40605489 15.47135868 -0.375 14.125 C-0.33676959 12.75518486 -0.29771499 11.38539245 -0.2578125 10.015625 C-0.16377285 6.67721737 -0.07811943 3.33881186 0 0 Z " fill="#CFB88C" transform="translate(374,252)"/>
<path d="M0 0 C0.33 0 0.66 0 1 0 C0.97905273 0.66942627 0.95810547 1.33885254 0.93652344 2.02856445 C0.85230522 5.12305081 0.80100985 8.21729493 0.75 11.3125 C0.69972656 12.8912793 0.69972656 12.8912793 0.6484375 14.50195312 C0.56505638 21.27666944 1.482401 26.43705136 4.23144531 32.64916992 C5.08410869 35.25726892 4.93146148 36.4612174 4 39 C-1.04593862 31.09469616 -2.15986946 24.22175183 -2.25 14.875 C-2.2593457 14.20605713 -2.26869141 13.53711426 -2.27832031 12.84790039 C-2.24841037 8.18137457 -1.43569134 4.38683464 0 0 Z " fill="#F7F1C7" transform="translate(460,345)"/>
<path d="M0 0 C0.66 0 1.32 0 2 0 C-0.25684228 8.02432811 -7.00023127 13.37813357 -13.69140625 17.7734375 C-19.48690457 20.85260243 -24.46255919 21.26629107 -30.875 21.125 C-32.050625 21.11146484 -32.050625 21.11146484 -33.25 21.09765625 C-35.16680055 21.07428063 -37.08344191 21.03841653 -39 21 C-39 20.67 -39 20.34 -39 20 C-38.10539062 19.96261719 -37.21078125 19.92523438 -36.2890625 19.88671875 C-24.23603017 19.2313833 -14.79473752 17.82836941 -6 9 C-4.24584008 6.63733064 -2.6786647 4.26074118 -1.19140625 1.72265625 C-0.79824219 1.15417969 -0.40507812 0.58570313 0 0 Z " fill="#C3A975" transform="translate(308,379)"/>
<path d="M0 0 C4.86896303 0.59619955 9.32790951 1.56976822 14 3 C14 3.66 14 4.32 14 5 C15.65 5.33 17.3 5.66 19 6 C19.33 6.99 19.66 7.98 20 9 C22.00016466 10.20882096 22.00016466 10.20882096 24 11 C24 11.99 24 12.98 24 14 C24.66 14 25.32 14 26 14 C26.33 14.99 26.66 15.98 27 17 C23.89129919 15.61071336 21.71612576 13.95864793 19.25 11.625 C13.47181931 6.46859015 7.45138926 3.86284732 0 2 C0 1.34 0 0.68 0 0 Z " fill="#F4E7BC" transform="translate(338,215)"/>
<path d="M0 0 C2.64 0.33 5.28 0.66 8 1 C8.33 2.32 8.66 3.64 9 5 C8.01 5.495 8.01 5.495 7 6 C6.34786708 8.02463255 6.34786708 8.02463255 6 10 C6.99 10.33 7.98 10.66 9 11 C8.34 11 7.68 11 7 11 C7.22816406 11.60328125 7.45632813 12.2065625 7.69140625 12.828125 C7.97886719 13.62734375 8.26632812 14.4265625 8.5625 15.25 C8.85253906 16.03890625 9.14257812 16.8278125 9.44140625 17.640625 C10.04522837 20.19103452 9.8473932 21.55322229 9 24 C8.68546875 22.99839844 8.3709375 21.99679688 8.046875 20.96484375 C5.88759853 14.21763423 3.78807051 8.03285304 0 2 C0 1.34 0 0.68 0 0 Z " fill="#E3D5A6" transform="translate(471,230)"/>
<path d="M0 0 C0.33 0.99 0.66 1.98 1 3 C0.525625 3.391875 0.05125 3.78375 -0.4375 4.1875 C-2.35179633 6.40808374 -2.61266988 8.13375709 -3 11 C-3.66 11 -4.32 11 -5 11 C-5 11.66 -5 12.32 -5 13 C-6.32 13.33 -7.64 13.66 -9 14 C-8.67 15.32 -8.34 16.64 -8 18 C-9.98 18.99 -9.98 18.99 -12 20 C-12.33 19.34 -12.66 18.68 -13 18 C-11.39642346 15.74957738 -9.79216064 13.49964941 -8.1875 11.25 C-7.73568359 10.61578125 -7.28386719 9.9815625 -6.81835938 9.328125 C-4.58023369 6.19148171 -2.33201302 3.06803042 0 0 Z " fill="#EDD8B0" transform="translate(103,154)"/>
<path d="M0 0 C0.33 0.66 0.66 1.32 1 2 C1.99 2 2.98 2 4 2 C5.25664978 4.90600261 6 6.79604584 6 10 C6.66 10.33 7.32 10.66 8 11 C9.01529541 13.32671865 10.01488198 15.6603447 11 18 C11.66 18.66 12.32 19.32 13 20 C12.01 20 11.02 20 10 20 C5.651437 14.99045543 0 6.71653015 0 0 Z " fill="#EAD9A9" transform="translate(439,379)"/>
<path d="M0 0 C0.99 0 1.98 0 3 0 C2 3 2 3 -0.14453125 4.421875 C-1.02496094 4.86015625 -1.90539062 5.2984375 -2.8125 5.75 C-3.68519531 6.19859375 -4.55789063 6.6471875 -5.45703125 7.109375 C-8.23962808 8.08392504 -9.34126798 8.22267069 -12 7 C-12.66 6.01 -13.32 5.02 -14 4 C-10.94736336 3.01879536 -9.05263664 3.01879536 -6 4 C-5.67 3.34 -5.34 2.68 -5 2 C-3.67696283 1.6278958 -2.34262065 1.29369827 -1 1 C-0.67 0.67 -0.34 0.34 0 0 Z " fill="#F0E6BB" transform="translate(417,646)"/>
<path d="M0 0 C2.1875 0.3125 2.1875 0.3125 4 1 C2.90711818 4.27864546 2.33827067 4.78134149 -0.375 6.6875 C-0.98085938 7.12449219 -1.58671875 7.56148437 -2.2109375 8.01171875 C-4 9 -4 9 -7 9 C-6.6875 7.125 -6.6875 7.125 -6 5 C-5.01 4.34 -4.02 3.68 -3 3 C-2.2884375 2.1646875 -2.2884375 2.1646875 -1.5625 1.3125 C-1.046875 0.879375 -0.53125 0.44625 0 0 Z " fill="#F3E6BC" transform="translate(507,584)"/>
<path d="M0 0 C0.9075 0.350625 1.815 0.70125 2.75 1.0625 C5.87758436 1.96468779 7.05208081 2.13381507 10 1 C10.66 3.31 11.32 5.62 12 8 C6.73610189 7.68097587 3.55597551 4.60721435 0 1 C0 0.67 0 0.34 0 0 Z " fill="#E0CFA1" transform="translate(250,576)"/>
<path d="M0 0 C0.99 0.33 1.98 0.66 3 1 C0.79252608 2.58454292 -1.41594742 4.16766053 -3.625 5.75 C-4.24246094 6.1934375 -4.85992187 6.636875 -5.49609375 7.09375 C-9.28397513 9.80507562 -13.1093764 12.438174 -17 15 C-15.4533299 10.79228881 -12.61966741 8.9534074 -9.0625 6.375 C-8.00160156 5.59898438 -6.94070313 4.82296875 -5.84765625 4.0234375 C-3.91894301 2.65296637 -1.96866087 1.31244058 0 0 Z " fill="#9D7A4B" transform="translate(413,112)"/>
<path d="M0 0 C-1.24993996 3.74981988 -2.7230706 4.86618551 -6 7 C-8.3125 6.75 -8.3125 6.75 -10 6 C-9.8125 4.125 -9.8125 4.125 -9 2 C-5.70173093 0.21715186 -3.8225249 0 0 0 Z " fill="#F0E8BC" transform="translate(499,594)"/>
<path d="M0 0 C-1.19485691 3.58457072 -2.22672561 4.14210126 -5.3125 6.1875 C-6.09238281 6.71730469 -6.87226563 7.24710938 -7.67578125 7.79296875 C-10 9 -10 9 -14 9 C-12.60878255 6.2175651 -10.69835788 5.44789935 -8 4 C-7.34 4 -6.68 4 -6 4 C-6.33 3.01 -6.66 2.02 -7 1 C-4 0 -4 0 0 0 Z " fill="#F3E7BB" transform="translate(465,618)"/>
<path d="M0 0 C2.81872737 0.38878998 3.77195598 0.70810365 5.5625 3 C6.036875 3.66 6.51125 4.32 7 5 C7.99 5.33 8.98 5.66 10 6 C11.125 8.4375 11.125 8.4375 12 11 C12.33 11.66 12.66 12.32 13 13 C10 13 10 13 8.28125 11.42578125 C5.19581913 7.76521524 2.25862463 4.25152872 0 0 Z " fill="#F4E4B8" transform="translate(291,314)"/>
<path d="M0 0 C-1.53643852 3.68069887 -3.78150945 5.98775204 -6.625 8.75 C-7.85089844 9.94882813 -7.85089844 9.94882813 -9.1015625 11.171875 C-9.72804688 11.77515625 -10.35453125 12.3784375 -11 13 C-11.66 12.34 -12.32 11.68 -13 11 C-11.21427748 9.16052663 -9.42197551 7.32842259 -7.625 5.5 C-7.11710937 4.97535156 -6.60921875 4.45070312 -6.0859375 3.91015625 C-2.2265625 0 -2.2265625 0 0 0 Z " fill="#A88557" transform="translate(127,128)"/>
<path d="M0 0 C3.01598607 1.50799304 3.13739043 3.67733534 4.1875 6.8125 C4.55230469 7.87082031 4.91710937 8.92914063 5.29296875 10.01953125 C5.98036862 12.91724451 6.03931179 14.26601422 5 17 C5 16.34 5 15.68 5 15 C4.34 15 3.68 15 3 15 C2.49363393 13.25183142 1.99515381 11.50137737 1.5 9.75 C1.2215625 8.77546875 0.943125 7.8009375 0.65625 6.796875 C0 4 0 4 0 0 Z " fill="#F6ECC2" transform="translate(398,278)"/>
<path d="M0 0 C1 3 1 3 0.3984375 4.796875 C-2.06703508 9.50197534 -4.69761771 13.82856973 -8 18 C-8.66 18 -9.32 18 -10 18 C-8.06706695 13.98544673 -5.75514924 10.23844475 -3.4375 6.4375 C-2.19233783 4.32613805 -1.06278973 2.20733252 0 0 Z " fill="#C1A572" transform="translate(373,283)"/>
<path d="M0 0 C0.99 0 1.98 0 3 0 C1.51218185 3.78717347 -0.61988409 5.77407001 -4 8 C-4.99 7.67 -5.98 7.34 -7 7 C-5.68 5.35 -4.36 3.7 -3 2 C-2.34 2.33 -1.68 2.66 -1 3 C-0.67 2.01 -0.34 1.02 0 0 Z " fill="#F2E5BA" transform="translate(530,567)"/>
<path d="M0 0 C0.66 0 1.32 0 2 0 C0.5080378 5.30475449 -3.08475978 9.25821979 -7 13 C-9.2265625 14.23828125 -9.2265625 14.23828125 -11 15 C-11 14.34 -11 13.68 -11 13 C-9.55431308 11.85689871 -8.10828016 10.71423119 -6.66015625 9.57421875 C-4.20727994 7.24831486 -2.70744655 4.51242861 -1.078125 1.57421875 C-0.72234375 1.05472656 -0.3665625 0.53523438 0 0 Z " fill="#BBA06D" transform="translate(308,379)"/>
<path d="M0 0 C3.99996286 1.33332095 4.83782337 3.4957827 7 7 C3.72724974 7 1.153368 6.70074844 -2 6 C-2 5.34 -2 4.68 -2 4 C-1.34 4 -0.68 4 0 4 C0 2.68 0 1.36 0 0 Z " fill="#F2E4BA" transform="translate(291,493)"/>
<path d="M0 0 C-1.36983503 3.16115776 -1.9890638 3.9927092 -5 6 C-5.99 5.67 -6.98 5.34 -8 5 C-7 2 -7 2 -5.125 0.8125 C-3 0 -3 0 0 0 Z " fill="#F4EABE" transform="translate(521,577)"/>
<path d="M0 0 C4.26086957 6.39130435 4.26086957 6.39130435 3.625 10.3125 C3.41875 10.869375 3.2125 11.42625 3 12 C2.896875 11.360625 2.79375 10.72125 2.6875 10.0625 C2.460625 9.381875 2.23375 8.70125 2 8 C1.01 7.67 0.02 7.34 -1 7 C-0.67 4.69 -0.34 2.38 0 0 Z " fill="#F1E7B9" transform="translate(282,474)"/>
<path d="M0 0 C-0.59687434 3.34249629 -1.73603877 5.46436342 -4 8 C-4.66 8 -5.32 8 -6 8 C-5.62403791 5.21788056 -5.32681541 3.4120716 -3.5625 1.1875 C-2 0 -2 0 0 0 Z " fill="#F2E6BB" transform="translate(632,466)"/>
<path d="M0 0 C2.475 0.99 2.475 0.99 5 2 C5.75 4.5 5.75 4.5 6 7 C6.33 7.66 6.66 8.32 7 9 C6.34 9.66 5.68 10.32 5 11 C3.35 7.37 1.7 3.74 0 0 Z " fill="#F4E3BA" transform="translate(431,360)"/>
<path d="M0 0 C0 0.66 0 1.32 0 2 C-5.17578125 5.22265625 -5.17578125 5.22265625 -7 6 C-7.99 5.67 -8.98 5.34 -10 5 C-9.34 4.34 -8.68 3.68 -8 3 C-7.01 3 -6.02 3 -5 3 C-5 2.34 -5 1.68 -5 1 C-2 0 -2 0 0 0 Z " fill="#F6E9C0" transform="translate(432,639)"/>
<path d="M0 0 C0.66 0 1.32 0 2 0 C0.71480435 2.86697492 -0.57129254 4.97607712 -3 7 C-3.66 7 -4.32 7 -5 7 C-5.33 5.68 -5.66 4.36 -6 3 C-4.02 2.67 -2.04 2.34 0 2 C0 1.34 0 0.68 0 0 Z " fill="#F2E8BD" transform="translate(600,502)"/>
<path d="M0 0 C0.66 0.33 1.32 0.66 2 1 C0.26440562 4.057952 -1.38472619 6.63379989 -4 9 C-4.66 8.67 -5.32 8.34 -6 8 C-5 6 -4 4 -3 2 C-2.34 2 -1.68 2 -1 2 C-0.67 1.34 -0.34 0.68 0 0 Z " fill="#F4ECC1" transform="translate(614,486)"/>
<path d="M0 0 C1.98 0.66 3.96 1.32 6 2 C6.33 3.65 6.66 5.3 7 7 C5.82780457 6.21654285 4.66236332 5.42297164 3.5 4.625 C2.8503125 4.18414062 2.200625 3.74328125 1.53125 3.2890625 C1.0259375 2.86367188 0.520625 2.43828125 0 2 C0 1.34 0 0.68 0 0 Z " fill="#F2E5BB" transform="translate(455,404)"/>
<path d="M0 0 C3.48670834 1.1094072 6.77484237 2.26337666 10 4 C9.67 4.99 9.34 5.98 9 7 C6.03 5.35 3.06 3.7 0 2 C0 1.34 0 0.68 0 0 Z " fill="#F6EDC0" transform="translate(409,338)"/>
<path d="M0 0 C0.66 0 1.32 0 2 0 C2 0.66 2 1.32 2 2 C2.99 2 3.98 2 5 2 C5.625 4.375 5.625 4.375 6 7 C5.34 7.66 4.68 8.32 4 9 C0 2.25 0 2.25 0 0 Z " fill="#EAD8A8" transform="translate(538,318)"/>
<path d="M0 0 C0.66 0.33 1.32 0.66 2 1 C-2.455 4.465 -2.455 4.465 -7 8 C-7 7.01 -7 6.02 -7 5 C-5.46875 3.61328125 -5.46875 3.61328125 -3.5 2.3125 C-2.8503125 1.87550781 -2.200625 1.43851562 -1.53125 0.98828125 C-1.0259375 0.66214844 -0.520625 0.33601563 0 0 Z " fill="#997849" transform="translate(146,111)"/>
<path d="M0 0 C0 0.66 0 1.32 0 2 C-1.96875 3.5078125 -1.96875 3.5078125 -4.5 5.125 C-5.3353125 5.66382812 -6.170625 6.20265625 -7.03125 6.7578125 C-7.6809375 7.16773437 -8.330625 7.57765625 -9 8 C-7.25975373 4.16501285 -4.63701127 0 0 0 Z " fill="#A08252" transform="translate(405,119)"/>
<path d="M0 0 C0 0.99 0 1.98 0 3 C-0.99 3.33 -1.98 3.66 -3 4 C-3 4.66 -3 5.32 -3 6 C-4.65 6.33 -6.3 6.66 -8 7 C-5.42215154 4.35247996 -3.08351902 2.05567935 0 0 Z " fill="#EBD5AC" transform="translate(417,111)"/>
<path d="M0 0 C0 0.99 0 1.98 0 3 C-2.5 5.1875 -2.5 5.1875 -5 7 C-5 5.33333333 -5 3.66666667 -5 2 C-3.35 1.34 -1.7 0.68 0 0 Z " fill="#F6EDC5" transform="translate(540,560)"/>
<path d="M0 0 C0.66 0.33 1.32 0.66 2 1 C1.75 3.375 1.75 3.375 1 6 C-1.0625 7.3125 -1.0625 7.3125 -3 8 C-2.67 6.68 -2.34 5.36 -2 4 C-1.34 4 -0.68 4 0 4 C0 2.68 0 1.36 0 0 Z " fill="#F3E5BA" transform="translate(636,457)"/>
<path d="M0 0 C0.33 0.66 0.66 1.32 1 2 C0.22265625 3.7265625 0.22265625 3.7265625 -0.9375 5.625 C-1.618125 6.73875 -2.29875 7.8525 -3 9 C-4.0625 7.125 -4.0625 7.125 -5 5 C-4.67 4.34 -4.34 3.68 -4 3 C-3.01 3 -2.02 3 -1 3 C-0.67 2.01 -0.34 1.02 0 0 Z " fill="#E4D3A7" transform="translate(673,404)"/>
<path d="M0 0 C0.66 0.66 1.32 1.32 2 2 C1.625 4.625 1.625 4.625 1 7 C0.01 6.67 -0.98 6.34 -2 6 C-1.34 4.02 -0.68 2.04 0 0 Z " fill="#DFC598" transform="translate(311,373)"/>
<path d="M0 0 C3.68754757 0.49831724 5.60490662 1.10067643 8 4 C6.68 4.33 5.36 4.66 4 5 C3.67 4.01 3.34 3.02 3 2 C2.01 1.67 1.02 1.34 0 1 C0 0.67 0 0.34 0 0 Z " fill="#F3E4BB" transform="translate(410,305)"/>
<path d="M0 0 C0.66 0 1.32 0 2 0 C1.39009109 3.55780196 0.4216319 6.6828589 -1 10 C-2.31223496 6.06329512 -1.24296256 3.87511856 0 0 Z " fill="#E2D4A6" transform="translate(688,369)"/>
</svg>
