<?xml version="1.0" encoding="UTF-8"?>
<svg version="1.1" xmlns="http://www.w3.org/2000/svg" width="689" height="629">
<path d="M0 0 C0.47308594 0.46277344 0.94617188 0.92554688 1.43359375 1.40234375 C1.43359375 2.06234375 1.43359375 2.72234375 1.43359375 3.40234375 C2.13613281 3.63050781 2.83867187 3.85867187 3.5625 4.09375 C7.00836662 5.66431506 9.5694836 7.85186918 12.37109375 10.33984375 C16.98625063 14.34486349 21.66857079 18.21835928 26.49609375 21.96484375 C31.95056739 26.2093037 37.28593132 30.56543714 42.578125 35.01171875 C45.30201996 37.29218895 48.05039257 39.53857024 50.80859375 41.77734375 C55.01791565 45.20760894 59.14065433 48.72462505 63.24609375 52.27734375 C68.52512188 56.84297009 73.93753062 61.18931616 79.45532227 65.46166992 C83.84691631 68.88424717 87.98086631 72.52577489 92.08203125 76.29296875 C95.21674551 79.10483869 98.49928808 81.70151815 101.8046875 84.30859375 C105.73658613 87.44009102 109.5787333 90.67684828 113.43359375 93.90234375 C116.23127044 96.23374099 119.04671026 98.54092695 121.87109375 100.83984375 C126.49380933 104.61118149 131.05142675 108.45324191 135.59741211 112.31616211 C139.0139951 115.21466707 142.45855292 118.07382215 145.93359375 120.90234375 C149.97342827 124.19058115 153.96442652 127.52965836 157.93359375 130.90234375 C163.70906114 135.80783782 169.55534565 140.62033282 175.43359375 145.40234375 C177.16310242 146.81859286 178.89226192 148.23526848 180.62109375 149.65234375 C183.81567202 152.26816105 187.0163795 154.87603178 190.2265625 157.47265625 C197.16227446 163.08560371 204.05777308 168.73430008 210.85107422 174.51904297 C214.18133942 177.35240817 217.54232696 180.14235173 220.93359375 182.90234375 C226.61262516 187.52787368 232.19952197 192.25701419 237.78076172 196.99951172 C239.40387442 198.37711963 241.02952415 199.75166132 242.65625 201.125 C282.612976 234.85840976 282.612976 234.85840976 284.24609375 250.71484375 C284.87046992 262.11303 282.92711766 272.57741995 275.64453125 281.625 C266.53215503 291.33639697 255.66136308 294.84379384 242.48486328 295.64135742 C238.50513203 295.69529589 234.53788475 295.66599309 230.55859375 295.58984375 C229.17709825 295.57473923 227.79558641 295.56106122 226.4140625 295.54882812 C223.08680509 295.51392682 219.76042614 295.46490231 216.43359375 295.40234375 C216.43581436 296.6914415 216.43803497 297.98053925 216.44032288 299.30870056 C216.65405996 427.45119029 216.65405996 427.45119029 215.51245117 462.90216064 C215.43545546 465.34331788 215.36825748 467.78458552 215.30273438 470.22607422 C214.75167681 489.50202662 212.97860238 503.49092451 198.43359375 517.40234375 C195.81950359 519.80313141 193.15371716 522.1231381 190.43359375 524.40234375 C190.10359375 524.73234375 189.77359375 525.06234375 189.43359375 525.40234375 C187.47447895 525.50100347 185.51174449 525.52790058 183.55014706 525.52818489 C181.61952731 525.53209651 181.61952731 525.53209651 179.64990515 525.53608716 C178.20263336 525.5339245 176.75536172 525.53166782 175.30809021 525.52932739 C173.78480955 525.53047829 172.26152916 525.5320656 170.73824936 525.53405464 C166.53073407 525.53825407 162.32324128 525.53615432 158.11572587 525.53306842 C153.5839188 525.53081627 149.05211574 525.53429352 144.52030945 525.53704834 C135.62292227 525.54151121 126.7255435 525.54052608 117.82815599 525.5376357 C110.57737757 525.53537816 103.3266015 525.53507069 96.07582283 525.53615952 C95.04397141 525.53631275 94.01211999 525.53646598 92.94900035 525.53662386 C90.85235913 525.5369436 88.75571791 525.53726782 86.6590767 525.53759645 C66.95168572 525.54045416 47.24429938 525.53716256 27.53690917 525.53179608 C10.70486092 525.52735358 -6.1271804 525.52808215 -22.95922852 525.53271484 C-42.53520205 525.5381003 -62.11117148 525.54015231 -81.68714565 525.53710258 C-83.78803726 525.53678408 -85.88892887 525.53646971 -87.98982048 525.53615952 C-89.02320247 525.53600524 -90.05658445 525.53585096 -91.12128105 525.53569201 C-98.3255558 525.53483675 -105.52982791 525.53626868 -112.73410225 525.53863907 C-121.57130672 525.54148272 -130.40850235 525.54060593 -139.24570585 525.53535832 C-143.73663903 525.53277754 -148.22755762 525.53161672 -152.7184906 525.53500748 C-171.19551405 525.5477288 -189.65931308 525.40469265 -208.13145447 524.95675659 C-209.37947665 524.92762795 -209.37947665 524.92762795 -210.6527114 524.89791085 C-248.16838873 524.00112906 -248.16838873 524.00112906 -259.40234375 513.0703125 C-272.8553006 496.48480793 -269.73014083 466.25025823 -269.67993164 445.9152832 C-269.67964846 444.26718141 -269.67981005 442.6190795 -269.68037415 440.97097778 C-269.68065701 436.56520716 -269.67484427 432.15946467 -269.66780019 427.75370049 C-269.66148026 423.12398442 -269.6609561 418.49426745 -269.65977478 413.86454773 C-269.65668663 405.12805524 -269.64850772 396.39157551 -269.63842529 387.6550886 C-269.62718529 377.69595169 -269.62173397 367.73681411 -269.61672986 357.77767241 C-269.60632255 337.31922245 -269.58877266 316.86078391 -269.56640625 296.40234375 C-271.22240845 296.32717529 -271.22240845 296.32717529 -272.91186523 296.25048828 C-277.04409882 296.0608228 -281.17577737 295.86076577 -285.30737305 295.65771484 C-287.08881562 295.57158625 -288.8703932 295.48820126 -290.65209961 295.40771484 C-293.22681205 295.29091187 -295.80086247 295.16394504 -298.375 295.03515625 C-299.15975204 295.00173126 -299.94450409 294.96830627 -300.7530365 294.93386841 C-312.06736184 294.34009362 -319.76331516 291.76755848 -327.76171875 283.44921875 C-336.76353759 273.23936362 -339.0587748 265.25279183 -338.8125 251.765625 C-337.76395282 237.43548017 -327.66111909 227.61716878 -317.56640625 218.40234375 C-314.91300901 216.12474955 -312.217074 213.9227596 -309.48046875 211.74609375 C-306.11122041 209.03624254 -302.8380214 206.22853397 -299.56640625 203.40234375 C-294.54752124 199.07688857 -289.46818007 194.84071914 -284.32421875 190.6640625 C-281.31283367 188.1943855 -278.34358011 185.67760657 -275.37890625 183.15234375 C-269.82716513 178.42790129 -264.18363638 173.82486266 -258.51342773 169.24365234 C-254.27323262 165.81055573 -250.0878085 162.32293818 -245.94140625 158.77734375 C-241.4881111 154.97020486 -236.94290211 151.30929902 -232.31640625 147.71484375 C-227.64345244 144.08378509 -223.14999385 140.33853416 -218.765625 136.359375 C-214.49239731 132.55673367 -210.0110943 129.00130643 -205.56640625 125.40234375 C-199.74257086 120.6704775 -193.96156151 115.89828816 -188.25390625 111.02734375 C-183.71722344 107.15716209 -179.09135314 103.43105834 -174.37890625 99.77734375 C-169.38315806 95.90041365 -164.63592155 91.85086187 -159.9765625 87.5703125 C-156.60312294 84.53585715 -153.07706478 81.70546146 -149.55078125 78.8515625 C-146.17878889 76.08423369 -142.86984556 73.25077005 -139.56640625 70.40234375 C-133.64543939 65.30246257 -127.63622856 60.32454825 -121.56640625 55.40234375 C-119.73237371 53.90319875 -117.89904644 52.40319053 -116.06640625 50.90234375 C-114.69548828 49.78085938 -114.69548828 49.78085938 -113.296875 48.63671875 C-111.5281783 47.18937324 -109.75992082 45.74149074 -107.9921875 44.29296875 C-97.33734956 35.56523902 -86.66875656 26.85357388 -75.89453125 18.2734375 C-73.41096297 16.27741534 -70.95825488 14.2466623 -68.50390625 12.21484375 C-63.63522704 8.23643731 -58.71496222 4.3274677 -53.75390625 0.46484375 C-53.0364624 -0.10322998 -52.31901855 -0.67130371 -51.57983398 -1.2565918 C-37.07912871 -12.45607628 -14.26601827 -10.92893798 0 0 Z M-33.50390625 27.77734375 C-34.47714844 28.51210937 -35.45039063 29.246875 -36.453125 30.00390625 C-37.48050781 30.79539062 -38.50789063 31.586875 -39.56640625 32.40234375 C-40.58347656 33.17320313 -41.60054688 33.9440625 -42.6484375 34.73828125 C-49.26101395 39.77721127 -55.77086982 44.93816344 -62.25195312 50.14477539 C-65.58525949 52.82208637 -68.93106992 55.47829858 -72.31640625 58.08984375 C-75.5086447 60.55684367 -78.63869133 63.08873437 -81.75390625 65.65234375 C-85.93490811 69.09277764 -90.17017673 72.45070176 -94.44140625 75.77734375 C-99.74437464 79.91269941 -104.90690595 84.1849105 -110.01855469 88.55371094 C-113.71427631 91.70494318 -117.48744439 94.71994029 -121.33984375 97.67578125 C-127.44937052 102.41334411 -133.37738944 107.37858672 -139.25854492 112.39526367 C-144.25709469 116.65875474 -149.31328365 120.8118627 -154.50390625 124.83984375 C-159.98359688 129.09487767 -165.2820538 133.52203791 -170.52709961 138.06225586 C-173.9974246 141.06473757 -177.50198221 144.01114182 -181.06640625 146.90234375 C-185.29433105 150.33442388 -189.44168515 153.84785546 -193.56640625 157.40234375 C-198.57955398 161.72168647 -203.6517814 165.95331652 -208.7890625 170.125 C-211.91036992 172.68438429 -214.99090655 175.28828166 -218.06640625 177.90234375 C-222.03544168 181.27517964 -226.02657646 184.6141102 -230.06640625 187.90234375 C-237.51410322 193.97043838 -244.83394486 200.1890188 -252.1171875 206.453125 C-252.70725586 206.96061279 -253.29732422 207.46810059 -253.90527344 207.9909668 C-255.09495844 209.01429754 -256.28441205 210.03789737 -257.47363281 211.06176758 C-260.97843858 214.07014055 -264.52890949 217.00771645 -268.12890625 219.90234375 C-273.49087254 224.25202142 -278.52398916 228.91071251 -283.56640625 233.62109375 C-285.91657342 235.81302024 -288.31078229 237.93886681 -290.75390625 240.02734375 C-293.9140868 242.78237295 -296.98004278 245.6230681 -300.00390625 248.52734375 C-300.84824219 249.33429688 -301.69257813 250.14125 -302.5625 250.97265625 C-304.7236212 253.59296305 -305.43912205 255.02654531 -305.56640625 258.40234375 C-303.95924901 261.43674031 -303.95924901 261.43674031 -301.8762207 262.05664062 C-288.19025259 264.10497916 -273.962032 263.68979882 -260.15454102 263.95458984 C-257.51699758 264.00636692 -254.87960903 264.06348549 -252.2421875 264.12109375 C-251.44323563 264.13466919 -250.64428375 264.14824463 -249.82112122 264.16223145 C-245.94451674 264.24877851 -242.34995758 264.58179415 -238.56640625 265.40234375 C-238.56217431 266.42772719 -238.55794237 267.45311064 -238.55358219 268.50956631 C-238.45015622 293.51777762 -238.34137916 318.52596135 -238.22706699 343.53412533 C-238.17190787 355.62812822 -238.11845539 367.72213406 -238.0690918 379.81616211 C-238.02603677 390.3635194 -237.97970705 400.9108565 -237.9295277 411.45818239 C-237.90309729 417.0372337 -237.87825056 422.61628145 -237.85733223 428.19535637 C-237.83754441 433.45906886 -237.81333958 438.72274352 -237.78591537 443.98642159 C-237.77666068 445.90627978 -237.76894555 447.8261462 -237.76298714 449.74601746 C-237.73413519 458.77363433 -237.63734539 467.78951949 -237.17857361 476.80690002 C-237.14850174 477.48894908 -237.11842988 478.17099813 -237.08744675 478.87371534 C-236.74453331 485.6539662 -236.74453331 485.6539662 -233.56640625 491.40234375 C-225.69527926 492.70438396 -217.57706685 492.71235058 -209.62188721 492.95675659 C-208.95483762 492.97772812 -208.28778803 492.99869966 -207.60052481 493.02030669 C-191.76097126 493.50943039 -175.92532388 493.54612845 -160.07956243 493.53306842 C-155.90656082 493.53075646 -151.73356294 493.53432184 -147.56056213 493.53704834 C-139.43634361 493.54144307 -131.31213445 493.54055846 -123.18791559 493.5376357 C-116.57936006 493.53535841 -109.9708071 493.5350791 -103.36225128 493.53615952 C-101.94053072 493.53638936 -101.94053072 493.53638936 -100.49008854 493.53662386 C-98.56355999 493.53694364 -96.63703144 493.53726786 -94.71050289 493.53759645 C-76.74475187 493.54043228 -58.77900599 493.53719323 -40.81325582 493.53179608 C-25.44109377 493.52732103 -10.06893926 493.52811343 5.30322266 493.53271484 C23.23225743 493.53807923 41.16128774 493.54016688 59.09032321 493.53710258 C61.00529146 493.53678408 62.92025971 493.53646971 64.83522797 493.53615952 C65.77702786 493.53600524 66.71882775 493.53585096 67.68916704 493.53569201 C74.2859966 493.5348331 80.88282329 493.536276 87.4796524 493.53863907 C95.52329011 493.54145765 103.56691806 493.54065529 111.61055467 493.53535832 C115.70416803 493.53275028 119.7977652 493.53166658 123.8913784 493.53500748 C143.67870123 493.59294803 143.67870123 493.59294803 163.45452881 493.01925659 C164.15834254 492.98889978 164.86215626 492.95854296 165.58729768 492.92726624 C170.56112644 492.63780389 175.76710999 492.25322327 180.43359375 490.40234375 C186.13479075 481.80859821 183.73742352 465.87955883 183.97631836 455.71459961 C183.99706921 454.87181265 184.01782005 454.02902569 184.03919971 453.16069973 C184.50344348 434.14857005 184.64880163 415.13703764 184.73691678 396.12003446 C184.75938426 391.45972196 184.78646416 386.79943584 184.81297302 382.1391449 C184.86210593 373.38563128 184.90732547 364.6321024 184.95099539 355.87856001 C185.00106452 345.88266502 185.05571504 335.88679654 185.11067498 325.89092743 C185.22326962 305.39475775 185.33035601 284.89856257 185.43359375 264.40234375 C186.11518051 264.3942569 186.79676727 264.38617004 187.49900818 264.37783813 C194.62118542 264.29148715 201.74309408 264.19197139 208.86499023 264.08496094 C211.51960144 264.0457382 214.17412462 264.0119109 216.82885742 263.98046875 C220.65431455 263.93457761 224.47943224 263.87662233 228.3046875 263.81640625 C230.07240761 263.79907944 230.07240761 263.79907944 231.87583923 263.78140259 C242.97059686 264.00150169 242.97059686 264.00150169 252.43359375 259.40234375 C252.69890777 252.90215019 249.62006131 249.77383933 245.34375 245.125 C243.61475663 243.17910391 243.61475663 243.17910391 241.43359375 243.40234375 C241.10359375 242.41234375 240.77359375 241.42234375 240.43359375 240.40234375 C238.3612985 238.46039114 238.3612985 238.46039114 235.74609375 236.46484375 C231.22879317 232.86154952 226.80504927 229.1810697 222.43359375 225.40234375 C217.50121997 221.15380352 212.52036565 216.9778564 207.46875 212.87109375 C197.86687447 205.06107401 188.32018361 197.1870067 178.89501953 189.16455078 C175.00025937 185.85823408 171.02688493 182.66509802 167.0234375 179.4921875 C163.40228406 176.5701406 159.86404806 173.55412889 156.3203125 170.5390625 C152.00397371 166.87118775 147.62880215 163.28108054 143.234375 159.70703125 C140.16583776 157.18201455 137.14313453 154.6075657 134.12109375 152.02734375 C129.58451918 148.15705527 124.95863148 144.43092019 120.24609375 140.77734375 C116.17070077 137.61629108 112.23301794 134.3970678 108.43359375 130.90234375 C104.05084258 126.87164964 99.45204717 123.21091777 94.75268555 119.56298828 C89.84075515 115.74459713 85.05733652 111.79869184 80.29296875 107.796875 C77.54560786 105.49614791 74.77577799 103.22634986 71.99609375 100.96484375 C67.91401657 97.63565689 63.88322261 94.25246584 59.87109375 90.83984375 C55.26674548 86.92591174 50.60592038 83.09974228 45.87109375 79.34375 C43.33246433 77.32179676 40.81826045 75.27262106 38.30859375 73.21484375 C36.35031808 71.61060662 34.39201335 70.00640516 32.43359375 68.40234375 C31.52383789 67.65694336 31.52383789 67.65694336 30.59570312 66.89648438 C22.78916437 60.50648605 14.94603376 54.18976689 6.921875 48.07421875 C3.46472845 45.43691271 0.04387154 42.75418238 -3.37890625 40.07250977 C-17.44060844 26.57377294 -17.44060844 26.57377294 -33.50390625 27.77734375 Z " fill="#6EB257" transform="translate(376.56640625,45.59765625)"/>
<path d="M0 0 C1.22367084 1.00239703 2.43156532 2.02428817 3.625 3.0625 C4.36363281 3.6709375 5.10226562 4.279375 5.86328125 4.90625 C16.06449358 13.6269036 24.45214629 24.22135624 32.73046875 34.73046875 C35.52097894 38.16538542 38.49257189 41.42486095 41.47265625 44.6953125 C43.38317947 46.7965413 45.26168448 48.91947199 47.125 51.0625 C52.21496437 56.89620346 57.34402072 62.69642327 62.703125 68.28515625 C76.4286586 82.65763629 89.28585649 98.95092378 95.625 118.0625 C95.98078125 119.114375 96.3365625 120.16625 96.703125 121.25 C100.84049041 138.36046033 96.54725978 156.44886806 87.72900391 171.37207031 C79.27547956 184.31594528 66.91715744 192.74119094 51.9375 196.3125 C31.96792024 199.8236349 14.11863235 193.98525768 -3.96337891 186.29199219 C-23.13855697 178.15759318 -43.45361922 175.59710017 -63.375 183.0625 C-67.67870723 184.85318213 -71.91164601 186.79006338 -76.13330078 188.76538086 C-92.98793004 196.63229463 -113.87820773 201.1004894 -132.1875 195.5 C-148.91886851 188.55079195 -160.17996171 174.78744539 -167.04296875 158.5625 C-173.08181443 142.69503452 -172.25745305 124.55415711 -165.375 109.0625 C-164.95686035 108.12035645 -164.95686035 108.12035645 -164.53027344 107.15917969 C-159.88360413 97.0579484 -153.55813229 88.49409247 -146.375 80.0625 C-145.93381836 79.54155762 -145.49263672 79.02061523 -145.03808594 78.48388672 C-139.94535336 72.51422167 -139.94535336 72.51422167 -137.375 70.0625 C-136.715 70.0625 -136.055 70.0625 -135.375 70.0625 C-135.17003906 69.52753906 -134.96507812 68.99257813 -134.75390625 68.44140625 C-132.81305777 65.09303027 -130.08402638 62.65327982 -127.3125 60 C-121.53635126 54.34195832 -116.36738748 48.42948065 -111.375 42.0625 C-110.39728975 40.8386788 -109.4180284 39.61609571 -108.4375 38.39453125 C-104.65908048 33.68665141 -100.88262907 28.97745342 -97.1484375 24.234375 C-92.45418855 18.28707952 -87.516037 12.62724884 -82.375 7.0625 C-81.83617187 6.43472656 -81.29734375 5.80695313 -80.7421875 5.16015625 C-59.6171697 -18.24721272 -24.1324578 -17.47522807 0 0 Z M-63.375 94.0625 C-63.973125 94.56910156 -64.57125 95.07570313 -65.1875 95.59765625 C-77.85316384 107.10418567 -84.59909353 124.96907825 -85.59375 141.75390625 C-86.12659342 148.170215 -86.12659342 148.170215 -84.06640625 153.97265625 C-81.64052606 155.53575226 -79.62867456 155.10381782 -76.87109375 154.6484375 C-72.84238727 153.70273175 -68.93172072 152.41770813 -65.01171875 151.09765625 C-40.61768495 144.15413428 -15.70213588 147.98190988 7.43505859 157.20654297 C26.24892315 165.25347864 26.24892315 165.25347864 45.87109375 163.875 C52.17689503 160.96812402 56.69443729 158.20102249 59.7175293 151.72045898 C61.26112164 147.19931562 60.95267799 142.67303152 60.9375 137.9375 C60.95361328 136.95523438 60.96972656 135.97296875 60.98632812 134.9609375 C60.99685228 118.96421789 54.62242218 108.18506569 43.9375 96.8125 C28.43904538 82.05777927 8.90645003 75.52272772 -12.25 74.625 C-31.18454124 75.28062816 -49.2002042 81.27565295 -63.375 94.0625 Z " fill="#6EB257" transform="translate(386.375,316.9375)"/>
<path d="M0 0 C11.06691845 8.97724351 17.62280337 22.1807063 19.5234375 36.22265625 C21.74810913 58.06236407 15.74904671 79.83499858 2.1484375 97.16015625 C-6.97101505 107.54230223 -17.42166099 117.16911864 -31.80078125 118.42578125 C-41.96240053 118.62733403 -49.94086514 116.14351638 -57.4765625 109.22265625 C-69.07718857 97.99867389 -75.39712367 83.59210099 -75.94677734 67.56396484 C-76.1098722 52.69024845 -72.89217145 39.67292413 -66.4765625 26.22265625 C-66.03570312 25.28808594 -65.59484375 24.35351562 -65.140625 23.390625 C-58.72368715 10.71628644 -49.16181167 1.07306668 -35.87109375 -4.015625 C-23.73491283 -7.8762372 -10.38497462 -7.4529392 0 0 Z " fill="#6EB257" transform="translate(434.4765625,174.77734375)"/>
<path d="M0 0 C3.32644393 2.42528003 6.23158696 5.00267506 9 8.0625 C9.51949219 8.578125 10.03898437 9.09375 10.57421875 9.625 C22.1536925 21.69887825 29.59952063 40.38539484 30 57.0625 C30.03867187 57.84496094 30.07734375 58.62742187 30.1171875 59.43359375 C30.56519729 74.98948927 26.29431072 88.61209981 17 101.0625 C16.21625 102.114375 15.4325 103.16625 14.625 104.25 C8.27038041 111.05852099 0.65006116 116.22654598 -8.765625 117.41015625 C-15.03835266 117.61165449 -20.25216658 116.51065127 -26 114.0625 C-26.65484375 113.80726563 -27.3096875 113.55203125 -27.984375 113.2890625 C-43.98103341 106.31451943 -53.54627294 89.48407087 -60 74.0625 C-67.31443786 55.25706281 -68.20315296 35.92800132 -60.41015625 17.0703125 C-55.38844369 6.35918044 -48.58911735 -1.05139824 -37.39453125 -5.2109375 C-24.60951897 -9.09023976 -11.26245187 -7.22814075 0 0 Z " fill="#6EB257" transform="translate(311,175.9375)"/>
<path d="M0 0 C9.02354161 6.45677447 14.20667651 14.78362949 17.3125 25.3125 C20.45004612 46.94638657 14.84587335 69.54033123 1.90820312 87.23291016 C-1.10136303 91.10362352 -4.21664928 94.84749246 -7.6875 98.3125 C-8.3475 98.3125 -9.0075 98.3125 -9.6875 98.3125 C-9.6875 98.9725 -9.6875 99.6325 -9.6875 100.3125 C-19.77307367 109.02471896 -30.97811633 112.75665266 -44.14453125 112.578125 C-56.70039479 111.63678132 -64.44984495 106.51487712 -72.53125 97.18359375 C-81.30779587 85.50304373 -81.08853833 68.95569682 -79.41064453 55.01171875 C-77.1726249 40.71378909 -70.90304572 27.43572239 -61.6875 16.3125 C-61.0275 15.3225 -60.3675 14.3325 -59.6875 13.3125 C-59.0275 13.3125 -58.3675 13.3125 -57.6875 13.3125 C-57.3575 12.3225 -57.0275 11.3325 -56.6875 10.3125 C-40.71834142 -3.56150498 -19.59565189 -12.1685351 0 0 Z " fill="#6EB257" transform="translate(520.6875,255.6875)"/>
<path d="M0 0 C14.71499411 12.64063371 24.50162133 31.01272511 26.21582031 50.44677734 C27.04145888 65.85770734 26.08164025 82.70611371 15.5 94.875 C14.2625 95.926875 14.2625 95.926875 13 97 C12.236875 97.70125 11.47375 98.4025 10.6875 99.125 C1.62478955 105.44782124 -8.92086082 105.91094703 -19.58203125 104.5390625 C-27.3088339 103.11592442 -32.96842984 101.0318017 -39 96 C-39.82113281 95.32710938 -40.64226562 94.65421875 -41.48828125 93.9609375 C-56.92612284 80.70172909 -68.50266948 61.48315535 -71 41 C-71.93452531 24.51854075 -71.07733588 11.13910736 -60 -2 C-41.66113493 -18.42069535 -18.44714438 -14.06149341 0 0 Z " fill="#6EB257" transform="translate(232,263)"/>
<path d="M0 0 C0 0.66 0 1.32 0 2 C-1.6171875 3.15625 -1.6171875 3.15625 -3.875 4.5 C-17.3176095 13.28615699 -25.74227934 26.06741406 -31 41 C-31.66 41 -32.32 41 -33 41 C-29.84834903 30.31940504 -24.7769458 20.11768827 -17 12 C-16.34 12 -15.68 12 -15 12 C-14.67 11.01 -14.34 10.02 -14 9 C-12.05098973 7.33803101 -10.12647627 5.81553498 -8.0625 4.3125 C-7.23588867 3.68891602 -7.23588867 3.68891602 -6.39257812 3.05273438 C-2.26712592 0 -2.26712592 0 0 0 Z " fill="#76BD5E" transform="translate(478,257)"/>
<path d="M0 0 C-1.58897004 4.04809035 -4.30625948 6.37563353 -7.5 9.25 C-8.24830078 9.93835938 -8.24830078 9.93835938 -9.01171875 10.640625 C-12.74102493 14 -12.74102493 14 -15 14 C-15 13.34 -15 12.68 -15 12 C-13.42578125 10.44921875 -13.42578125 10.44921875 -11.3125 8.6875 C-8.80197706 6.56355316 -6.39176579 4.44498656 -4.125 2.0625 C-2 0 -2 0 0 0 Z " fill="#71C858" transform="translate(579,557)"/>
<path d="M0 0 C10.46021625 8.53895204 10.46021625 8.53895204 14 14 C13.67 14.99 13.34 15.98 13 17 C12.39671875 16.25234375 11.7934375 15.5046875 11.171875 14.734375 C10.37265625 13.74953125 9.5734375 12.7646875 8.75 11.75 C7.96109375 10.77546875 7.1721875 9.8009375 6.359375 8.796875 C4.09277734 6.01702749 4.09277734 6.01702749 1.703125 3.765625 C0 2 0 2 0 0 Z " fill="#72BF57" transform="translate(393,323)"/>
<path d="M0 0 C3.39417765 3.12621626 5.6062718 5.56541027 7 10 C4.06799526 7.14723863 1.35684596 4.34920216 -1 1 C-0.67 0.67 -0.34 0.34 0 0 Z " fill="#66C553" transform="translate(457,395)"/>
<path d="M0 0 C-1.15173355 2.46800047 -2.04783565 4.04783565 -4 6 C-4.99 5.67 -5.98 5.34 -7 5 C-2.25 0 -2.25 0 0 0 Z " fill="#59CF47" transform="translate(579,557)"/>
</svg>
