<?xml version="1.0" encoding="UTF-8"?>
<svg version="1.1" xmlns="http://www.w3.org/2000/svg" width="800" height="800">
<path d="M0 0 C0.763125 0.78375 1.52625 1.5675 2.3125 2.375 C4.53673123 4.54750492 6.35056228 5.93492479 8.9375 7.5625 C13.16467229 10.29196555 16.90465442 13.38833689 20.6875 16.6875 C25.30414107 20.71291758 29.97196225 24.62131175 34.8125 28.375 C46.02653886 37.08980139 56.93411299 46.17556542 67.68481445 55.45410156 C76.00234095 62.61361173 84.5169228 69.54146686 93.03125 76.46484375 C98.69948622 81.0744535 104.26722973 85.7853892 109.80273438 90.55249023 C115.12646439 95.12894037 120.54725247 99.5782003 126 104 C128.75530776 106.25219879 131.5085029 108.50696347 134.26171875 110.76171875 C136.05319681 112.22607956 137.84736638 113.68715531 139.64453125 115.14453125 C145.47225515 119.8800902 151.19198312 124.72491431 156.87817383 129.62817383 C160.20247079 132.48609456 163.5590293 135.28225467 167 138 C171.06883389 141.21364384 175.01175743 144.55229264 178.9375 147.9375 C184.87855695 153.05965234 190.90897105 158.05668718 197 163 C198.77090918 164.45824123 200.54174118 165.91657619 202.3125 167.375 C205.85442259 170.27796781 209.4313219 173.1267641 213.04589844 175.93798828 C220.31100359 181.59063367 227.3236207 187.48669855 234.27978516 193.51367188 C240.76337277 199.11572714 247.28757202 204.6733636 254 210 C263.13438202 217.24857412 271.9309547 224.9202117 280.77075195 232.52294922 C283.58078049 234.9375441 286.39865251 237.34052275 289.24609375 239.7109375 C295.27150619 244.73196123 301.16512494 249.87654524 306.9375 255.1875 C307.55230225 255.74550293 308.16710449 256.30350586 308.80053711 256.87841797 C317.47776373 264.95064216 322.64382268 272.59713353 323.31640625 284.62890625 C323.77507729 298.25221799 322.38783055 311.36045871 313 322 C298.39262562 336.14527818 282.06018506 337.33219555 262.8125 337.125 C261.1764378 337.1149459 259.54036958 337.10582436 257.90429688 337.09765625 C253.93604684 337.07584492 249.96809149 337.04145053 246 337 C246.00092179 337.87755951 246.00184359 338.75511902 246.00279331 339.65927124 C246.02502932 361.16773241 246.04149868 382.67619156 246.05181217 404.18466187 C246.05693426 414.58665382 246.06389744 424.98863803 246.07543945 435.390625 C246.08551289 444.47353941 246.09188301 453.55644821 246.09408849 462.63936806 C246.09537448 467.43363772 246.09832221 472.22789133 246.10573006 477.02215576 C246.13215371 494.92746062 246.11222772 512.82691088 245.61889648 530.7265625 C245.58842004 531.97585541 245.55794359 533.22514832 245.52654362 534.51229858 C244.74672192 558.62318316 239.05011784 576.85509488 221.19921875 593.69921875 C216.47640642 597.78919767 213.0854543 598.12507415 206.96744347 598.12584114 C206.24351121 598.12729458 205.51957895 598.12874802 204.77370936 598.13024551 C202.32872291 598.1339177 199.88379833 598.13041329 197.43881226 598.12698364 C195.67527981 598.12813505 193.9117476 598.1297227 192.14821589 598.13171089 C187.28585963 598.13590306 182.42352288 598.13381384 177.56116652 598.13072467 C172.32112095 598.12846971 167.08107883 598.1319511 161.84103394 598.13470459 C151.55859942 598.13916376 141.27617219 598.13818414 130.99373738 598.13529195 C122.61744322 598.13303384 114.2411511 598.13272719 105.86485672 598.13381577 C104.67259405 598.133969 103.48033138 598.13412223 102.25193954 598.13428011 C99.82940112 598.13459985 97.40686271 598.13492407 94.98432429 598.1352527 C72.2247792 598.13810911 49.46523811 598.13482038 26.70569368 598.12945233 C7.25480287 598.12500592 -12.19608196 598.12574193 -31.64697266 598.13037109 C-54.2660095 598.13575179 -76.88504278 598.13781151 -99.50408018 598.13475883 C-101.92933933 598.13444032 -104.35459848 598.13412595 -106.77985764 598.13381577 C-107.97282733 598.13366149 -109.16579703 598.13350721 -110.39491732 598.13334826 C-118.72385674 598.1324919 -127.05279387 598.13392728 -135.38173294 598.13629532 C-145.58871563 598.13913345 -155.79569067 598.13827304 -166.00267251 598.13301457 C-171.19245977 598.13042733 -176.38223438 598.12928496 -181.57202148 598.13266373 C-201.85462835 598.14470836 -222.1253543 598.03643419 -242.40292358 597.55441284 C-243.67344377 597.5252842 -243.67344377 597.5252842 -244.96963103 597.4955671 C-282.33585881 596.61574842 -282.33585881 596.61574842 -292.74609375 586.43359375 C-304.11607913 574.15716239 -307.13840835 558.26518448 -307.15821838 541.95166016 C-307.16315636 541.0750281 -307.16809434 540.19839605 -307.17318195 539.29519939 C-307.18846201 536.37648889 -307.19689166 533.45780021 -307.20532227 530.5390625 C-307.21490826 528.43938507 -307.22491876 526.33970955 -307.23532104 524.24003601 C-307.26229797 518.5526868 -307.28334649 512.86532935 -307.30332303 507.17795181 C-307.32522717 501.22954059 -307.35259416 495.28115455 -307.37937927 489.33276367 C-307.42924635 478.07430789 -307.47420734 466.81583808 -307.51740164 455.55735493 C-307.56682521 442.73756595 -307.62172433 429.91780224 -307.67708123 417.09803772 C-307.79080938 390.73204874 -307.89766832 364.3660355 -308 338 C-308.76521469 337.97396194 -309.53042938 337.94792389 -310.3188324 337.9210968 C-313.83633963 337.80004613 -317.35371249 337.67543667 -320.87109375 337.55078125 C-322.07455444 337.5098938 -323.27801514 337.46900635 -324.51794434 337.42687988 C-360.71479855 336.12952363 -360.71479855 336.12952363 -374.265625 322.0390625 C-384.04690702 310.53944716 -386.09234581 297.68586305 -385.18945312 283.04882812 C-383.72026116 267.1603501 -369.51566315 254.71294125 -358 245 C-355.58150028 243.02191781 -353.14239941 241.07614114 -350.68359375 239.1484375 C-347.45596082 236.5644519 -344.31980211 233.88565127 -341.1875 231.1875 C-340.59428955 230.67670898 -340.0010791 230.16591797 -339.38989258 229.63964844 C-338.18660688 228.60328219 -336.98340058 227.56682375 -335.78027344 226.53027344 C-328.20934729 220.02251629 -320.56027936 213.61746166 -312.81640625 207.31640625 C-309.66214553 204.72212524 -306.54806173 202.08383258 -303.4375 199.4375 C-298.96422555 195.63547664 -294.43654512 191.92116846 -289.8359375 188.2734375 C-285.40892278 184.72450835 -281.04242157 181.10258261 -276.66772461 177.48950195 C-271.73901797 173.42233259 -266.78305652 169.39084597 -261.8125 165.375 C-256.16571927 160.80941494 -250.63286664 156.1315702 -245.14550781 151.3762207 C-241.20698843 147.98285413 -237.17389942 144.7433642 -233.0625 141.5625 C-227.453538 137.22017894 -222.08285711 132.65766275 -216.75073242 127.98120117 C-212.20587369 124.00892307 -207.57322862 120.16431161 -202.875 116.375 C-194.61645135 109.71234934 -186.51362805 102.88335104 -178.46875 95.96484375 C-177.27089124 94.93482848 -176.07297455 93.90488059 -174.875 92.875 C-174.2857373 92.36831787 -173.69647461 91.86163574 -173.08935547 91.33959961 C-168.73405858 87.60466874 -164.3073531 83.96614189 -159.8515625 80.3515625 C-156.48348996 77.5740561 -153.17911574 74.72797432 -149.875 71.875 C-145.53724104 68.13477471 -141.15799945 64.50794621 -136.6015625 61.03515625 C-132.86547885 58.11248421 -129.21841655 55.0845087 -125.5625 52.0625 C-120.28207187 47.69904944 -114.98556617 43.36256616 -109.625 39.09765625 C-106.21570542 36.3732646 -102.82533056 33.6260142 -99.4375 30.875 C-98.75534424 30.32118652 -98.07318848 29.76737305 -97.37036133 29.19677734 C-93.13814265 25.75493349 -88.92764033 22.28822029 -84.72949219 18.80493164 C-81.8985848 16.46105856 -79.05699914 14.13050732 -76.21044922 11.80566406 C-74.7019791 10.57343025 -73.19589256 9.33827418 -71.69189453 8.10058594 C-50.33119746 -9.40263886 -24.48645495 -18.36484121 0 0 Z M-47.4375 39.6875 C-48.75750131 40.78422881 -50.077812 41.88058538 -51.3984375 42.9765625 C-52.33574707 43.76595215 -52.33574707 43.76595215 -53.29199219 44.57128906 C-55.34337703 46.28722732 -57.44130876 47.93387002 -59.5625 49.5625 C-69.14551832 56.98218769 -78.64313623 64.49280852 -88.03076172 72.15820312 C-92.3763493 75.7002194 -96.76388901 79.18111493 -101.1875 82.625 C-106.27367112 86.58854777 -111.21634401 90.68990529 -116.11499023 94.88208008 C-119.92025353 98.12398312 -123.8043455 101.24347114 -127.75 104.3125 C-135.32640933 110.20656833 -142.71728276 116.31762387 -150.11083984 122.43847656 C-152.56641191 124.46817919 -155.03213793 126.48526587 -157.5 128.5 C-160.70575793 131.1184435 -163.90493172 133.7445995 -167.09765625 136.37890625 C-180.03510781 147.05301777 -180.03510781 147.05301777 -185.25 151.1875 C-190.71059879 155.53010818 -196.01506481 160.05448043 -201.32666016 164.57666016 C-204.04636933 166.89003986 -206.7734185 169.19472821 -209.5 171.5 C-212.77601355 174.27041628 -216.05077146 177.04225855 -219.3203125 179.8203125 C-225.22853779 184.8367302 -231.17613828 189.79453116 -237.1875 194.6875 C-240.31799666 197.26146392 -243.41172461 199.87569086 -246.5 202.5 C-250.46907935 205.87278574 -254.46016863 209.21176517 -258.5 212.5 C-264.17903141 217.12552993 -269.76592822 221.85467044 -275.34716797 226.59716797 C-276.97028067 227.97477588 -278.5959304 229.34931757 -280.22265625 230.72265625 C-286.47424955 236.00135722 -292.69737181 241.31115077 -298.89672852 246.65112305 C-302.50575473 249.74984316 -306.16713611 252.76936908 -309.875 255.75 C-313.82354098 258.9502752 -317.38591858 262.33332122 -320.91796875 265.98046875 C-323.26794986 268.25990633 -325.75166783 270.27325175 -328.3125 272.3125 C-332.39096769 275.6152032 -336.33160598 279.00139423 -340.125 282.625 C-341.49011719 283.91277344 -341.49011719 283.91277344 -342.8828125 285.2265625 C-345.42958706 288.5627432 -345.83222751 290.84516355 -346 295 C-345.67 295.66 -345.34 296.32 -345 297 C-332.00443985 300.49654398 -317.40341099 299.64972763 -304.0625 300.0625 C-300.44800684 300.17848981 -296.83362107 300.29672081 -293.21934509 300.41929626 C-290.984587 300.49469079 -288.74969177 300.56615714 -286.5146637 300.6330719 C-285.49928024 300.66658249 -284.48389679 300.70009308 -283.43774414 300.73461914 C-282.55397598 300.7618959 -281.67020782 300.78917267 -280.75965881 300.817276 C-277.47473337 301.03477923 -274.25619637 301.52189289 -271 302 C-270.99061433 303.20945125 -270.98122866 304.41890249 -270.97155857 305.66500378 C-270.74825427 334.41449252 -270.52031051 363.16394201 -270.28670079 391.91334878 C-270.25791304 395.45663654 -270.22916421 398.99992462 -270.20043945 402.54321289 C-270.19472053 403.24857856 -270.18900161 403.95394422 -270.1831094 404.6806846 C-270.09076265 416.0820693 -270.00156427 427.48347654 -269.91354198 438.88489535 C-269.82306363 450.59530437 -269.72917275 462.30568251 -269.63215441 474.01603919 C-269.57784756 480.58870261 -269.52509739 487.16137006 -269.4761219 493.73407555 C-269.42992716 499.92690579 -269.37950443 506.11968755 -269.32591057 512.31245804 C-269.30702688 514.57907825 -269.28965642 516.84571169 -269.2739563 519.11235619 C-270.71467054 539.66476847 -270.71467054 539.66476847 -265 558 C-257.5355163 559.19761517 -249.97720855 559.32062888 -242.43055725 559.55441284 C-241.43487251 559.58587014 -241.43487251 559.58587014 -240.41907293 559.61796294 C-222.91775691 560.15848161 -205.4152389 560.1431 -187.90726888 560.13072467 C-183.06549217 560.12842145 -178.22371876 560.13197405 -173.38194275 560.13470459 C-163.94525893 560.13910869 -154.50858315 560.13821023 -145.07189905 560.13529195 C-137.39548211 560.13301781 -129.7190674 560.13273402 -122.04265022 560.13381577 C-120.94305782 560.133969 -119.84346541 560.13412223 -118.71055203 560.13428011 C-116.47568567 560.13459988 -114.24081932 560.1349241 -112.00595296 560.1352527 C-91.14298632 560.13809146 -70.2800241 560.13484514 -49.41705818 560.12945233 C-31.56311145 560.12498011 -13.70917122 560.12576679 4.14477539 560.13037109 C24.95573516 560.13573558 45.76669108 560.13782281 66.57765144 560.13475883 C68.800765 560.13444033 71.02387855 560.13412596 73.24699211 560.13381577 C74.34039593 560.13366149 75.43379975 560.13350721 76.56033703 560.13334826 C84.22125654 560.13248915 91.88217359 560.13393276 99.54309273 560.13629532 C108.88733003 560.13911414 118.23155895 560.13831118 127.5757953 560.13301457 C132.33204175 560.13040637 137.08827426 560.12932307 141.84452057 560.13266373 C164.91839883 560.18784392 164.91839883 560.18784392 187.98277283 559.61691284 C188.82590548 559.58655603 189.66903813 559.55619921 190.53772026 559.52492249 C195.30876304 559.28835957 199.50715595 558.67322272 204 557 C207.40434143 551.89348786 208.10543225 546.6867385 208.19639587 540.66204834 C208.21454535 539.59656517 208.23269482 538.531082 208.25139427 537.43331146 C208.27378638 535.68306545 208.27378638 535.68306545 208.29663086 533.89746094 C208.31589945 532.64954018 208.33516804 531.40161942 208.35502052 530.11588287 C208.40790071 526.64198991 208.45410532 523.16803677 208.49864316 519.6940279 C208.52757607 517.46648863 208.55816695 515.23897769 208.58921623 513.01146698 C209.13767876 473.43292876 209.32170709 433.85108324 209.51740968 394.2695508 C209.56801458 384.06031841 209.6224518 373.8511073 209.67708123 363.64189577 C209.78873397 342.76128378 209.89598274 321.88065134 210 301 C210.82161621 300.98382629 211.64323242 300.96765259 212.48974609 300.95098877 C220.2579175 300.79467539 228.02536015 300.61997304 235.79264832 300.42494583 C239.78529136 300.3253353 243.77783666 300.23267705 247.77099609 300.15625 C251.62945479 300.08213936 255.48706259 299.9893189 259.3447876 299.88387299 C260.81171643 299.8469979 262.27882694 299.81670432 263.74603271 299.79331207 C271.68656803 299.66225585 278.15272864 299.39520797 285 295 C284.94601627 288.19894979 283.55677861 284.64339569 278.88671875 279.62890625 C277.08086835 277.93359714 277.08086835 277.93359714 274.93359375 276.97265625 C272.74967478 275.87407883 271.84162347 274.80950335 270.375 272.875 C267.24768218 269.08478439 263.69802083 266.22935675 259.828125 263.22265625 C256.71911024 260.77924548 253.69873011 258.2495212 250.6875 255.6875 C250.1394873 255.2224707 249.59147461 254.75744141 249.02685547 254.27832031 C246.27070009 251.93747601 243.5204332 249.58986339 240.7734375 247.23828125 C234.61249856 241.97782327 228.35300346 236.88941205 221.95605469 231.91845703 C217.89326406 228.74546996 214.01738288 225.42231515 210.19921875 221.95703125 C205.92593673 218.15434156 201.44400819 214.5998949 197 211 C193.32931812 208.00490374 189.66372328 205.00360272 186 202 C185.04383789 201.21616943 185.04383789 201.21616943 184.06835938 200.41650391 C176.71562901 194.38512879 169.37207581 188.34570513 162.125 182.1875 C155.24988395 176.34580213 148.2702956 170.63868456 141.25 164.97265625 C134.1757348 159.25574793 127.17645364 153.476171 120.29638672 147.52685547 C113.91916368 142.03199275 107.36770944 136.7553222 100.81738281 131.46923828 C97.38719586 128.69615055 93.97775853 125.89775289 90.56640625 123.1015625 C88.82654795 121.67683835 87.08427984 120.25505291 85.33984375 118.8359375 C80.45398858 114.85695329 75.61092815 110.83389312 70.8125 106.75 C63.98045255 100.94158367 57.02157633 95.29473985 50.04833984 89.65722656 C47.3598705 87.48209785 44.67603908 85.30129574 41.99267578 83.11987305 C40.66454386 82.04021668 39.33609338 80.96095207 38.00732422 79.88208008 C34.63206488 77.14148842 31.26031392 74.39675563 27.89453125 71.64453125 C21.71801158 66.59964953 15.52766288 61.58842045 9.1875 56.75 C1.65160152 50.99328151 -5.74041964 45.1522492 -12.625 38.625 C-17.61101889 34.14739448 -22.45107734 32.36213496 -29.0625 31.6875 C-36.95467775 32.52709338 -41.51024584 34.58219993 -47.4375 39.6875 Z " fill="#591A00" transform="translate(431,106)"/>
<path d="M0 0 C0.91136719 0.41894531 1.82273437 0.83789062 2.76171875 1.26953125 C9.60835972 4.65866736 14.78797967 9.1095493 20.234375 14.359375 C22.40915795 16.43586268 24.59327795 18.31606223 26.9375 20.1875 C33.51334703 25.87286775 38.62519234 33.21221856 44 40 C49.58390204 46.98210399 55.36944335 53.67868853 61.4453125 60.23046875 C63.50113722 62.45918393 65.51616957 64.70767919 67.5 67 C70.36324526 70.29954931 73.29591935 73.53188749 76.25 76.75 C76.72066895 77.26409424 77.19133789 77.77818848 77.67626953 78.30786133 C79.9968087 80.83796461 82.33177057 83.34956116 84.6953125 85.83984375 C105.72247018 108.18503026 123.77091039 134.04754577 123.26953125 165.69140625 C122.59631023 184.08062092 115.30801678 201.24456523 102 214 C101.33742188 214.69351563 100.67484375 215.38703125 99.9921875 216.1015625 C87.66910714 228.23721959 71.25233919 232.85905451 54.36035156 233.04980469 C37.27173331 232.68922565 21.48315678 226.59906814 5.8125 220.375 C-5.10498347 216.03919605 -16.16993181 212.47625073 -28 212 C-28.87269531 211.93683594 -29.74539063 211.87367188 -30.64453125 211.80859375 C-46.47751454 211.13715397 -60.19862901 216.66728518 -74.43139648 222.91674805 C-89.19682579 229.36798089 -103.12172133 233.16594664 -119.3125 233.25 C-120.78493164 233.2809375 -120.78493164 233.2809375 -122.28710938 233.3125 C-137.95894843 233.39547466 -150.18075813 226.62323668 -161.21484375 215.83984375 C-172.09878551 204.74219205 -179.96669289 191.37572912 -183 176 C-183.226875 174.906875 -183.45375 173.81375 -183.6875 172.6875 C-185.03163109 156.82675316 -182.97179699 142.38051859 -176 128 C-175.24396484 126.42798828 -175.24396484 126.42798828 -174.47265625 124.82421875 C-170.19019076 116.41043361 -164.89379992 109.3068245 -159 102 C-157.95972656 100.63488281 -157.95972656 100.63488281 -156.8984375 99.2421875 C-153.03986021 94.21527605 -148.97450017 90.03840083 -144.15625 85.9296875 C-141.42007119 83.48100574 -139.10403014 80.78911039 -136.73828125 77.98828125 C-134.95367828 75.94701628 -133.0723253 74.07337125 -131.125 72.1875 C-126.83526875 67.94698173 -123.08336009 63.35609524 -119.32177734 58.64697266 C-117.86624395 56.83333611 -116.39727512 55.03117819 -114.92578125 53.23046875 C-110.1497316 47.38220096 -105.39065174 41.52947196 -100.77929688 35.55004883 C-95.74102202 29.02577624 -90.39374924 22.92240005 -84.7265625 16.9375 C-82.86637709 14.97098077 -81.12768425 12.95151774 -79.4296875 10.84375 C-60.04818504 -11.84070948 -24.986103 -12.19601391 0 0 Z M-41 102 C-42.35158203 102.62841797 -42.35158203 102.62841797 -43.73046875 103.26953125 C-61.28512595 112.05952555 -74.62669373 127.23364089 -81.23779297 145.6784668 C-83.48745849 152.5507209 -84.65628309 159.44436932 -85.4375 166.625 C-85.57744385 167.88691162 -85.57744385 167.88691162 -85.72021484 169.17431641 C-86.14113586 173.96241342 -85.93776499 177.4809858 -84 182 C-77.8158209 183.83939686 -72.54591069 181.83454591 -66.5625 180.125 C-64.5439688 179.56150945 -62.52445542 179.00152369 -60.50390625 178.4453125 C-59.61517822 178.19281738 -58.7264502 177.94032227 -57.81079102 177.68017578 C-28.86531008 170.67573646 1.21849179 178.23192492 28 189.25 C37.24650261 192.96615769 44.70442129 194.2348134 54.625 193.9375 C55.42518555 193.92452881 56.22537109 193.91155762 57.04980469 193.89819336 C64.14135452 193.53570708 68.90210952 190.88039153 74.05859375 186.0859375 C74.51363281 185.52132812 74.96867188 184.95671875 75.4375 184.375 C75.91058594 183.80523438 76.38367188 183.23546875 76.87109375 182.6484375 C80.38421818 177.51854647 79.26680483 170.49982598 79.3125 164.5625 C79.34150391 163.34111328 79.37050781 162.11972656 79.40039062 160.86132812 C79.52200875 143.28283162 71.90632006 129.59427048 59.9375 117.1875 C43.51776441 100.96257071 20.14297072 93.78680117 -2.5 93.625 C-16.30157581 93.72368682 -28.47290422 95.95303399 -41 102 Z " fill="#591A00" transform="translate(431,407)"/>
<path d="M0 0 C6.80641623 7.04735132 11.57685543 15.648828 14.5625 24.9375 C14.8615625 25.865625 15.160625 26.79375 15.46875 27.75 C21.70796159 50.39602723 16.73061791 75.54165355 5.48706055 95.78466797 C-3.35307246 110.91090214 -16.72535487 125.19084507 -33.75 130.68359375 C-44.02506012 133.27019743 -54.24784449 132.55513504 -63.5 127.25 C-65.16388034 126.17322073 -66.81075874 125.06960611 -68.4375 123.9375 C-69.11683594 123.46828125 -69.79617188 122.9990625 -70.49609375 122.515625 C-81.9436305 113.57871502 -88.94415815 99.12515727 -92.0390625 85.23828125 C-94.80958156 62.28643215 -90.73552838 42.36533987 -80.4375 21.9375 C-79.95410156 20.97070312 -79.47070312 20.00390625 -78.97265625 19.0078125 C-71.1114178 4.74365229 -58.88993744 -5.66588749 -43.27734375 -10.34765625 C-27.66187132 -14.27837352 -11.9392584 -11.0695111 0 0 Z " fill="#591A00" transform="translate(502.4375,257.0625)"/>
<path d="M0 0 C2.70386016 2.16751906 5.14285405 4.52202617 7.5625 7 C8.20944824 7.65645508 8.85639648 8.31291016 9.52294922 8.98925781 C15.10148439 14.81045996 19.27985323 20.81882116 23 28 C23.47695313 28.8765625 23.95390625 29.753125 24.4453125 30.65625 C33.7756154 49.20511565 35.72436845 73.94418467 29.32421875 93.68359375 C23.00931298 109.49880024 14.19779323 124.07410212 -1.875 131.4375 C-12.87499898 135.96332984 -23.22081366 134.14799758 -34.01171875 129.78125 C-54.41632075 120.37579965 -64.58280334 101.32497075 -72.8125 81.5 C-80.53339716 60.31970103 -79.99641174 37.82880832 -71.4453125 16.9375 C-69.21097108 12.39635203 -66.37988914 8.7399208 -63 5 C-62.48953125 4.37480469 -61.9790625 3.74960937 -61.453125 3.10546875 C-45.84809367 -14.62400991 -18.06224434 -11.69283433 0 0 Z " fill="#591A00" transform="translate(359,255)"/>
<path d="M0 0 C9.72841688 7.30825425 16.52055999 18.66809593 18.953125 30.5625 C22.10047232 54.01165528 15.96602321 79.59697397 1.95117188 98.75537109 C-1.06502605 102.5969609 -4.27185456 106.23243211 -7.61328125 109.79296875 C-8.17273438 110.40398437 -8.7321875 111.015 -9.30859375 111.64453125 C-10.61328125 112.79296875 -10.61328125 112.79296875 -12.61328125 112.79296875 C-12.84144531 113.38078125 -13.06960938 113.96859375 -13.3046875 114.57421875 C-17.62964088 121.90727404 -28.77806208 125.60803507 -36.61328125 127.79296875 C-49.89316996 130.44188272 -62.65797439 129.06045217 -74.12890625 121.64453125 C-85.17611967 113.41123068 -91.72962987 103.42342089 -93.94921875 89.71875 C-97.06304045 65.60767118 -90.83312109 40.74887374 -76.36328125 21.16796875 C-75.13873601 19.68819679 -73.88639801 18.23116548 -72.61328125 16.79296875 C-71.82308594 15.89707031 -71.03289063 15.00117188 -70.21875 14.078125 C-60.79715903 4.02199056 -49.84639077 -2.23709839 -36.61328125 -6.20703125 C-35.9996875 -6.39910156 -35.38609375 -6.59117187 -34.75390625 -6.7890625 C-22.36374069 -9.20831016 -10.53478396 -6.69793956 0 0 Z " fill="#591A00" transform="translate(596.61328125,345.20703125)"/>
<path d="M0 0 C17.17829907 16.08388172 27.80274989 37.72077438 29.125 61.3125 C29.61485656 77.88342896 27.37143742 95.57807045 15.90234375 108.33984375 C7.22073392 117.1644448 -2.65396721 120.3414182 -14.84765625 120.65234375 C-33.18155869 120.31648562 -45.61351075 112.51862579 -58.51171875 99.99609375 C-76.13848504 81.3395851 -84.65095984 57.56037241 -84.3125 32.21484375 C-83.86467233 17.95111527 -79.45620135 6.03564456 -69.6328125 -4.39453125 C-49.51131971 -22.37675902 -19.06556978 -16.9146437 0 0 Z " fill="#591A00" transform="translate(269.09765625,353.66015625)"/>
<path d="M0 0 C0.763125 0.78375 1.52625 1.5675 2.3125 2.375 C4.53673123 4.54750492 6.35056228 5.93492479 8.9375 7.5625 C13.16467229 10.29196555 16.90465442 13.38833689 20.6875 16.6875 C25.30414107 20.71291758 29.97196225 24.62131175 34.8125 28.375 C46.02653886 37.08980139 56.93411299 46.17556542 67.68481445 55.45410156 C76.00234095 62.61361173 84.5169228 69.54146686 93.03125 76.46484375 C98.69948622 81.0744535 104.26722973 85.7853892 109.80273438 90.55249023 C115.12646439 95.12894037 120.54725247 99.5782003 126 104 C128.75530776 106.25219879 131.5085029 108.50696347 134.26171875 110.76171875 C136.05319681 112.22607956 137.84736638 113.68715531 139.64453125 115.14453125 C145.47225515 119.8800902 151.19198312 124.72491431 156.87817383 129.62817383 C160.20247079 132.48609456 163.5590293 135.28225467 167 138 C171.06883389 141.21364384 175.01175743 144.55229264 178.9375 147.9375 C184.87855695 153.05965234 190.90897105 158.05668718 197 163 C198.77090918 164.45824123 200.54174118 165.91657619 202.3125 167.375 C205.85442259 170.27796781 209.4313219 173.1267641 213.04589844 175.93798828 C220.31100359 181.59063367 227.3236207 187.48669855 234.27978516 193.51367188 C240.76337277 199.11572714 247.28757202 204.6733636 254 210 C263.13438202 217.24857412 271.9309547 224.9202117 280.77075195 232.52294922 C283.58078049 234.9375441 286.39865251 237.34052275 289.24609375 239.7109375 C295.27150619 244.73196123 301.16512494 249.87654524 306.9375 255.1875 C307.55230225 255.74550293 308.16710449 256.30350586 308.80053711 256.87841797 C316.51470061 264.05472671 322.59104538 271.51376018 323.11572266 282.40136719 C323.24701628 288.27008539 323.16653598 294.13280928 323 300 C322.34 300 321.68 300 321 300 C320.97421875 298.68386719 320.9484375 297.36773437 320.921875 296.01171875 C320.37749176 276.68979213 315.97783122 267.47778848 301.92626953 254.12744141 C296.33147605 248.8784362 290.56660533 243.90716334 284.578125 239.109375 C281.9757371 236.98014854 279.48424498 234.76550643 277 232.5 C272.7569853 228.63785433 268.37657134 224.99245691 263.91796875 221.3828125 C260.74582711 218.79244248 257.61953249 216.15321062 254.5 213.5 C250.55361117 210.14539595 246.58357507 206.82777828 242.5625 203.5625 C238.37175514 200.15524222 234.27092387 196.65886214 230.1875 193.125 C224.35789949 188.08932641 218.36767975 183.30030037 212.2890625 178.5703125 C207.45195744 174.80378285 202.72928648 170.90044246 198 167 C196.67734544 165.91634667 195.35440799 164.83303858 194.03125 163.75 C186.57997835 157.64309552 179.18441819 151.48355407 171.88964844 145.19042969 C167.57521917 141.47418819 163.18753732 137.85748642 158.765625 134.26953125 C155.70632153 131.75900114 152.69690379 129.19483808 149.6875 126.625 C145.22931234 122.82394788 140.69087175 119.15402351 136.0625 115.5625 C130.5548506 111.28729939 125.23587468 106.83257324 119.96679688 102.26757812 C116.71898283 99.45816418 113.43839474 96.71857586 110.0625 94.0625 C105.84032738 90.73175171 101.79355454 87.23016493 97.75 83.6875 C92.93888093 79.47663626 88.06038451 75.40772144 83 71.5 C78.0931322 67.70754529 73.35253639 63.77377055 68.6875 59.6875 C60.60567631 52.60945292 52.3261588 45.78779461 44 39 C43.29101562 38.4215332 42.58203125 37.84306641 41.8515625 37.24707031 C34.71894407 31.43058981 27.57294685 25.63203857 20.3671875 19.90625 C18.62927207 18.50674054 16.90753605 17.08707748 15.1953125 15.65625 C10.31468075 11.58244355 5.66886491 7.89741984 0 5 C0 4.01 0 3.02 0 2 C-1.33271433 1.33209676 -2.66621713 0.66576683 -4 0 C-4.79535156 -0.4021875 -5.59070313 -0.804375 -6.41015625 -1.21875 C-19.9372164 -7.7531767 -34.52177541 -9.31631791 -48.88671875 -4.37890625 C-54.2170081 -2.01806291 -58.49420475 1.34632113 -63 5 C-64.11108372 5.8622143 -65.22447026 6.72146724 -66.33984375 7.578125 C-72.74170103 12.51532439 -78.97172327 17.62527486 -85.11376953 22.88085938 C-88.91926453 26.12338419 -92.80389177 29.24311821 -96.75 32.3125 C-104.31737323 38.1995387 -111.6997053 44.30298522 -119.08447266 50.41650391 C-121.67418019 52.55732 -124.27350129 54.68602531 -126.875 56.8125 C-127.7309375 57.51246094 -128.586875 58.21242188 -129.46875 58.93359375 C-131.19656298 60.34410774 -132.92579286 61.75288743 -134.65625 63.16015625 C-139.64631996 67.22534255 -144.59445014 71.33360303 -149.5 75.5 C-156.1697669 81.16478731 -162.92499746 86.72026149 -169.7421875 92.20703125 C-174.47560525 96.0353337 -179.08124727 99.94050382 -183.5625 104.0625 C-187.63791219 107.8049912 -191.80689702 111.33126437 -196.15234375 114.75390625 C-205.64801168 122.24363061 -214.97950007 129.92131452 -224.12963867 137.82885742 C-228.16585208 141.30938965 -232.28757751 144.65927394 -236.46875 147.96484375 C-239.3759783 150.30229119 -242.22236849 152.70703851 -245.0625 155.125 C-254.66554721 163.29467032 -264.37325944 171.35034652 -274.25 179.1875 C-278.64290973 182.67642661 -282.91388087 186.29805074 -287.18457031 189.93432617 C-290.41481795 192.67832553 -293.67729892 195.36773032 -297 198 C-301.45333968 201.52947018 -305.78868839 205.18333164 -310.11547852 208.86547852 C-313.5246909 211.76303423 -316.96352278 214.61744791 -320.4375 217.4375 C-325.85570579 221.84913055 -331.1527085 226.39323642 -336.44921875 230.94921875 C-360.66580311 251.77720207 -360.66580311 251.77720207 -367 256 C-367 253 -367 253 -365.63671875 251.4921875 C-364.99347656 250.95851563 -364.35023438 250.42484375 -363.6875 249.875 C-362.95144531 249.25753906 -362.21539062 248.64007813 -361.45703125 248.00390625 C-360.64621094 247.34261719 -359.83539063 246.68132812 -359 246 C-358.17886719 245.32839844 -357.35773438 244.65679687 -356.51171875 243.96484375 C-354.69137827 242.47890655 -352.86967785 240.99463433 -351.046875 239.51171875 C-347.70404227 236.75602459 -344.40935411 233.94986143 -341.125 231.125 C-340.535979 230.61839844 -339.94695801 230.11179687 -339.34008789 229.58984375 C-338.7496167 229.08195313 -338.15914551 228.5740625 -337.55078125 228.05078125 C-329.39165419 221.03335221 -321.16409584 214.10877667 -312.81640625 207.31640625 C-309.66214553 204.72212524 -306.54806173 202.08383258 -303.4375 199.4375 C-298.96422555 195.63547664 -294.43654512 191.92116846 -289.8359375 188.2734375 C-285.40892278 184.72450835 -281.04242157 181.10258261 -276.66772461 177.48950195 C-271.73901797 173.42233259 -266.78305652 169.39084597 -261.8125 165.375 C-256.16571927 160.80941494 -250.63286664 156.1315702 -245.14550781 151.3762207 C-241.20698843 147.98285413 -237.17389942 144.7433642 -233.0625 141.5625 C-227.453538 137.22017894 -222.08285711 132.65766275 -216.75073242 127.98120117 C-212.20587369 124.00892307 -207.57322862 120.16431161 -202.875 116.375 C-194.61645135 109.71234934 -186.51362805 102.88335104 -178.46875 95.96484375 C-177.27089124 94.93482848 -176.07297455 93.90488059 -174.875 92.875 C-174.2857373 92.36831787 -173.69647461 91.86163574 -173.08935547 91.33959961 C-168.73405858 87.60466874 -164.3073531 83.96614189 -159.8515625 80.3515625 C-156.48348996 77.5740561 -153.17911574 74.72797432 -149.875 71.875 C-145.53724104 68.13477471 -141.15799945 64.50794621 -136.6015625 61.03515625 C-132.86547885 58.11248421 -129.21841655 55.0845087 -125.5625 52.0625 C-120.28207187 47.69904944 -114.98556617 43.36256616 -109.625 39.09765625 C-106.21570542 36.3732646 -102.82533056 33.6260142 -99.4375 30.875 C-98.75534424 30.32118652 -98.07318848 29.76737305 -97.37036133 29.19677734 C-93.13814265 25.75493349 -88.92764033 22.28822029 -84.72949219 18.80493164 C-81.8985848 16.46105856 -79.05699914 14.13050732 -76.21044922 11.80566406 C-74.7019791 10.57343025 -73.19589256 9.33827418 -71.69189453 8.10058594 C-50.33119746 -9.40263886 -24.48645495 -18.36484121 0 0 Z " fill="#3A0000" transform="translate(431,106)"/>
<path d="M0 0 C5.6378971 4.07327139 10.74682341 8.75126383 15.875 13.4375 C20.65165227 17.78956096 25.69196489 21.69409133 30.8359375 25.59375 C39.05990101 31.84802349 47.01360585 38.44734842 55 45 C56.83310162 46.50028317 58.66643427 48.00028408 60.5 49.5 C71.5 58.5 71.5 58.5 74.2578125 60.7578125 C76.06324411 62.2340486 77.87049141 63.70806736 79.6796875 65.1796875 C84.0524512 68.74127185 88.39810304 72.32801503 92.68798828 75.98876953 C98.27490788 80.75620709 103.95818124 85.35973137 109.7578125 89.86572266 C114.43057737 93.51209235 118.95808267 97.30806583 123.46142578 101.16064453 C126.37628875 103.64776852 129.32287034 106.05880441 132.375 108.375 C136.46455573 111.5001084 140.31895226 114.85926833 144.1875 118.25 C149.01925054 122.48246365 153.91509902 126.57525685 159 130.5 C164.73613895 134.92888208 170.22091505 139.5960754 175.67138672 144.37060547 C179.85140543 148.02607281 184.11310456 151.54088299 188.4765625 154.9765625 C191.53377837 157.42801423 194.51712768 159.95903469 197.5 162.5 C202.1222509 166.43428798 206.8010184 170.27926542 211.5546875 174.0546875 C219.13489842 180.08495114 226.5405995 186.3019333 233.87573242 192.62573242 C237.99165211 196.16374154 242.18649513 199.58014861 246.4453125 202.9453125 C250.05852047 205.85134827 253.58221737 208.85895582 257.11352539 211.86352539 C260.54590964 214.78017061 264.0060174 217.65700688 267.5 220.5 C272.70965702 224.74095066 277.83826473 229.07221608 282.95703125 233.421875 C284.52464657 234.75002148 286.09660005 236.07491097 287.72021484 237.33398438 C289.19843925 238.4930024 290.60575038 239.74121559 292 241 C292 241.99 292 242.98 292 244 C292.74765625 244.07347656 293.4953125 244.14695312 294.265625 244.22265625 C297.73458503 245.20883203 298.65992579 246.54746376 300.75 249.4375 C301.34296875 250.24058594 301.9359375 251.04367187 302.546875 251.87109375 C305.5435834 256.26143268 305.07373617 259.83846836 305 265 C297.47789297 268.63352474 291.03431305 269.5913144 282.75 269.75 C281.63592773 269.77239746 280.52185547 269.79479492 279.37402344 269.81787109 C268.58725042 270.00951427 257.80387234 270.02925269 247.015625 270.015625 C245.25667326 270.01436695 243.49772143 270.013227 241.73876953 270.01220703 C237.49251077 270.00949378 233.24625641 270.00520208 229 270 C229.00138269 271.20276943 229.00138269 271.20276943 229.00279331 272.42983723 C229.02532444 292.35944846 229.04163492 312.28905702 229.05181217 332.21867847 C229.05687029 341.85827418 229.06373434 351.49786106 229.07543945 361.13745117 C229.12205705 400.48046237 229.10289941 439.82166269 228.64847255 479.16255355 C228.62131555 481.61667486 228.59759568 484.07080711 228.57484627 486.52497292 C228.53897835 490.33021816 228.49327734 494.13521687 228.43953824 497.94025064 C228.4213843 499.32142986 228.40634389 500.70265427 228.39473605 502.08390403 C228.2824588 514.84355633 228.2824588 514.84355633 226 521 C225.67 521 225.34 521 225 521 C225.01141777 520.26718874 225.02283554 519.53437748 225.0345993 518.77935982 C225.64676949 479.18443011 226.08866211 439.59148166 226.28125 399.9921875 C226.29088673 398.0440292 226.30053029 396.09587094 226.31018066 394.14771271 C226.38790849 378.34766732 226.45907509 362.547592 226.52606201 346.74749756 C226.57283848 335.71919352 226.62167752 324.69090863 226.67754889 313.66264641 C226.70569799 308.06058983 226.72934156 302.45853879 226.74947357 296.85644794 C226.76278993 293.42900016 226.78018901 290.00158244 226.79878426 286.57415962 C226.80656613 284.98454219 226.81262432 283.39491529 226.81687737 281.8052845 C226.82288017 279.64852972 226.83490143 277.4918927 226.84851074 275.33517456 C226.85366447 274.12824888 226.85881821 272.9213232 226.86412811 271.67782402 C227 269 227 269 228 268 C230.04800277 267.86225632 232.1006458 267.79315398 234.15283203 267.75048828 C235.47155304 267.72020538 236.79027405 267.68992249 238.1489563 267.65872192 C238.85876774 267.64448307 239.56857918 267.63024422 240.29990005 267.61557388 C242.52000495 267.57006256 244.73980751 267.51704257 246.95968628 267.4616394 C253.27333637 267.30470864 259.58709559 267.15561646 265.90136719 267.02587891 C269.76080318 266.94603974 273.61970085 266.85237618 277.47860336 266.75005722 C278.94639163 266.71380814 280.41431727 266.68272236 281.88232803 266.65701675 C283.94569473 266.62044156 286.00793835 266.56624287 288.07080078 266.50830078 C289.2424881 266.48244904 290.41417542 266.45659729 291.62136841 266.42996216 C295.60522464 265.92297956 298.39171604 264.72739634 302 263 C301.97171997 256.76425293 300.97126794 252.96317205 296.61328125 248.41796875 C294.57637616 246.62766234 292.33209156 245.37533605 290 244 C288.84312425 242.57869551 287.68828912 241.15560204 286.55078125 239.71875 C283.9668373 236.85493303 280.89867927 234.62317451 277.86328125 232.2578125 C274.74557347 229.79937444 271.71133858 227.2596411 268.6875 224.6875 C268.13956787 224.22255127 267.59163574 223.75760254 267.02709961 223.27856445 C264.27088673 220.93761081 261.5205203 218.58993795 258.7734375 216.23828125 C252.61249856 210.97782327 246.35300346 205.88941205 239.95605469 200.91845703 C235.89326406 197.74546996 232.01738288 194.42231515 228.19921875 190.95703125 C223.92593673 187.15434156 219.44400819 183.5998949 215 180 C211.32931812 177.00490374 207.66372328 174.00360272 204 171 C203.04383789 170.21616943 203.04383789 170.21616943 202.06835938 169.41650391 C194.71562901 163.38512879 187.37207581 157.34570513 180.125 151.1875 C173.24988395 145.34580213 166.2702956 139.63868456 159.25 133.97265625 C152.1757348 128.25574793 145.17645364 122.476171 138.29638672 116.52685547 C131.91916368 111.03199275 125.36770944 105.7553222 118.81738281 100.46923828 C115.38719586 97.69615055 111.97775853 94.89775289 108.56640625 92.1015625 C106.82654795 90.67683835 105.08427984 89.25505291 103.33984375 87.8359375 C98.45398858 83.85695329 93.61092815 79.83389312 88.8125 75.75 C81.98045255 69.94158367 75.02157633 64.29473985 68.04833984 58.65722656 C65.3598705 56.48209785 62.67603908 54.30129574 59.99267578 52.11987305 C58.66454386 51.04021668 57.33609338 49.96095207 56.00732422 48.88208008 C52.63206488 46.14148842 49.26031392 43.39675563 45.89453125 40.64453125 C39.71801158 35.59964953 33.52766288 30.58842045 27.1875 25.75 C19.65160152 19.99328151 12.25958036 14.1522492 5.375 7.625 C-0.53164729 2.38742427 -5.94602524 0.71927158 -13.8125 0.75 C-21.51719416 1.6570083 -26.24887646 6.1325318 -32 11 C-34.07651835 12.59226058 -36.16003079 14.17543627 -38.25 15.75 C-44.05174643 20.19272297 -49.71875873 24.79776779 -55.35644531 29.44628906 C-66.99762133 39 -66.99762133 39 -70 39 C-70 38.34 -70 37.68 -70 37 C-68.15907101 35.43735098 -66.31460167 33.99407788 -64.375 32.5625 C-63.17260114 31.65701429 -61.97079776 30.7507374 -60.76953125 29.84375 C-60.1451416 29.37453125 -59.52075195 28.9053125 -58.87744141 28.421875 C-55.90892326 26.17367608 -52.98553778 23.86933428 -50.0625 21.5625 C-48.89453426 20.64322534 -47.72656549 19.72395454 -46.55859375 18.8046875 C-44.75502656 17.38357428 -42.95182292 15.96200225 -41.14892578 14.54003906 C-29.26293295 5.16701354 -29.26293295 5.16701354 -24.3125 1.375 C-23.73113281 0.92898437 -23.14976562 0.48296875 -22.55078125 0.0234375 C-16.53044114 -3.94968368 -6.22514922 -2.77908447 0 0 Z " fill="#3B0100" transform="translate(413,138)"/>
<path d="M0 0 C1.9346183 2.90192745 2.96849332 5.43820234 4.1875 8.6875 C7.50384352 16.75401791 12.23500517 22.79396114 20 27 C31.87280299 31.60373994 46.42381485 30.27111446 59.02096558 30.54846191 C60.38310967 30.57974677 60.38310967 30.57974677 61.77277182 30.61166364 C82.38712763 31.07937449 102.9993003 31.1822887 123.61822724 31.21867895 C127.82579928 31.22687003 132.03335943 31.23851429 136.2409233 31.25009376 C151.22570334 31.29122914 166.21049746 31.31908957 181.1953125 31.34375 C182.37989207 31.3457249 183.56447165 31.3476998 184.78494757 31.34973454 C208.38230349 31.38888682 231.97966549 31.42242486 255.57704353 31.44481659 C260.72079603 31.44978377 265.86454845 31.45482855 271.00830078 31.45996094 C272.92538852 31.46186694 272.92538852 31.46186694 274.88120531 31.46381146 C295.69542375 31.48528333 316.50948697 31.53443515 337.32362689 31.59420508 C358.76810878 31.65527378 380.21250993 31.68999191 401.65707767 31.6992898 C413.66899589 31.70519592 425.6806469 31.72291276 437.69247818 31.77067566 C447.88892099 31.81119264 458.08505244 31.82818389 468.28157224 31.81402284 C473.47994473 31.80754586 478.67765294 31.8124776 483.87592316 31.84789658 C488.63308883 31.88005285 493.38911973 31.87992877 498.14631377 31.85407954 C499.86660665 31.85042589 501.58697404 31.85861962 503.30713965 31.87986106 C513.83662117 32.25258553 513.83662117 32.25258553 522.93415642 27.58637238 C523.99246442 26.42298073 525.02103044 25.2308999 526 24 C526.75410156 23.26394531 527.50820313 22.52789063 528.28515625 21.76953125 C533.49913825 16.0284214 537.31382592 9.80790275 541 3 C541.6796875 4.6796875 541.6796875 4.6796875 542 7 C537.40229971 17.06349785 528.86692299 26.45536637 520 33 C516.47040633 34.17653122 513.69475252 34.12537386 509.96744347 34.12584114 C509.24351121 34.12729458 508.51957895 34.12874802 507.77370936 34.13024551 C505.32872291 34.1339177 502.88379833 34.13041329 500.43881226 34.12698364 C498.67527981 34.12813505 496.9117476 34.1297227 495.14821589 34.13171089 C490.28585963 34.13590306 485.42352288 34.13381384 480.56116652 34.13072467 C475.32112095 34.12846971 470.08107883 34.1319511 464.84103394 34.13470459 C454.55859942 34.13916376 444.27617219 34.13818414 433.99373738 34.13529195 C425.61744322 34.13303384 417.2411511 34.13272719 408.86485672 34.13381577 C407.67259405 34.133969 406.48033138 34.13412223 405.25193954 34.13428011 C402.82940112 34.13459985 400.40686271 34.13492407 397.98432429 34.1352527 C375.2247792 34.13810911 352.46523811 34.13482038 329.70569368 34.12945233 C310.25480287 34.12500592 290.80391804 34.12574193 271.35302734 34.13037109 C248.7339905 34.13575179 226.11495722 34.13781151 203.49591982 34.13475883 C201.07066067 34.13444032 198.64540152 34.13412595 196.22014236 34.13381577 C195.02717267 34.13366149 193.83420297 34.13350721 192.60508268 34.13334826 C184.27614326 34.1324919 175.94720613 34.13392728 167.61826706 34.13629532 C157.41128437 34.13913345 147.20430933 34.13827304 136.99732749 34.13301457 C131.80754023 34.13042733 126.61776562 34.12928496 121.42797852 34.13266373 C101.14537165 34.14470836 80.8746457 34.03643419 60.59707642 33.55441284 C59.75006296 33.53499375 58.9030495 33.51557465 58.03036897 33.4955671 C20.77070322 32.61825751 20.77070322 32.61825751 10.265625 22.4765625 C5.18176207 16.9193744 0.16811201 10.4549683 -0.125 2.6875 C-0.08375 1.800625 -0.0425 0.91375 0 0 Z " fill="#370000" transform="translate(128,670)"/>
<path d="M0 0 C0.91136719 0.41894531 1.82273437 0.83789062 2.76171875 1.26953125 C9.60835972 4.65866736 14.78797967 9.1095493 20.234375 14.359375 C22.40915795 16.43586268 24.59327795 18.31606223 26.9375 20.1875 C33.51334703 25.87286775 38.62519234 33.21221856 44 40 C49.58390204 46.98210399 55.36944335 53.67868853 61.4453125 60.23046875 C63.50113722 62.45918393 65.51616957 64.70767919 67.5 67 C70.36324526 70.29954931 73.29591935 73.53188749 76.25 76.75 C76.72066895 77.26409424 77.19133789 77.77818848 77.67626953 78.30786133 C79.9968087 80.83796461 82.33177057 83.34956116 84.6953125 85.83984375 C103.95874404 106.31074986 123.25382698 131.79921685 123.125 161 C123.12886719 161.8765625 123.13273437 162.753125 123.13671875 163.65625 C123.12984855 168.21806549 122.93012655 172.51177028 122 177 C121.34 177 120.68 177 120 177 C120.01047363 176.25951416 120.02094727 175.51902832 120.03173828 174.75610352 C120.07365081 171.35827105 120.09943745 167.96049325 120.125 164.5625 C120.14175781 163.39783203 120.15851563 162.23316406 120.17578125 161.03320312 C120.2304376 151.3317014 118.94292128 143.287421 115 134.4375 C114.69803711 133.75768066 114.39607422 133.07786133 114.08496094 132.37744141 C105.15325354 112.93600222 91.37819412 97.15802039 76.73779297 81.83056641 C70.91949189 75.70165077 65.29594708 69.38955432 59.76171875 63.00390625 C58.51012501 61.58025306 57.23981755 60.17295637 55.95703125 58.77734375 C51.64716079 54.08606882 47.58842504 49.28096319 43.6875 44.25 C26.68640949 22.39997542 7.75037553 0.95005524 -21 -4 C-40.69178079 -5.4279397 -58.15294453 -3.4584927 -73.94140625 9.39453125 C-79.40508297 14.23378778 -84.37573323 19.36090546 -89 25 C-89.67289062 25.80824219 -90.34578125 26.61648438 -91.0390625 27.44921875 C-95.271691 32.57174618 -99.40424537 37.7680772 -103.5 43 C-114.64750361 57.23388334 -125.95724479 71.44431863 -139 84 C-139.845625 84.845625 -140.69125 85.69125 -141.5625 86.5625 C-142.89213367 87.89213367 -144.23260087 89.21242345 -145.62109375 90.48046875 C-162.71759555 106.58174799 -176.67152878 128.78365438 -181 152 C-182.67683008 149.47867941 -183.03123141 148.26509515 -182.671875 145.21484375 C-178.09163491 128.93170209 -169.73395393 114.94440572 -159 102 C-158.31035156 101.09765625 -157.62070312 100.1953125 -156.91015625 99.265625 C-153.0531703 94.22481168 -148.98173943 90.04457403 -144.15625 85.9296875 C-141.42007119 83.48100574 -139.10403014 80.78911039 -136.73828125 77.98828125 C-134.95367828 75.94701628 -133.0723253 74.07337125 -131.125 72.1875 C-126.83526875 67.94698173 -123.08336009 63.35609524 -119.32177734 58.64697266 C-117.86624395 56.83333611 -116.39727512 55.03117819 -114.92578125 53.23046875 C-110.1497316 47.38220096 -105.39065174 41.52947196 -100.77929688 35.55004883 C-95.74102202 29.02577624 -90.39374924 22.92240005 -84.7265625 16.9375 C-82.86637709 14.97098077 -81.12768425 12.95151774 -79.4296875 10.84375 C-60.04818504 -11.84070948 -24.986103 -12.19601391 0 0 Z " fill="#3D0100" transform="translate(431,407)"/>
<path d="M0 0 C1.70718541 -0.00043643 3.41437076 -0.00131266 5.12155575 -0.00258917 C9.79867862 -0.00482002 14.47577849 -0.00083215 19.15289843 0.0041889 C24.20186716 0.00851347 29.25083463 0.00704555 34.29980469 0.00628662 C43.04283517 0.00576266 51.78585819 0.00889613 60.5288868 0.01452446 C73.16978827 0.02265674 85.81068613 0.02525645 98.45158993 0.02651245 C118.96137593 0.02870025 139.47115794 0.03535297 159.98094177 0.04481506 C179.90249105 0.05399621 199.82403924 0.06107361 219.74559021 0.06532288 C220.97386788 0.0655856 222.20214554 0.06584832 223.46764375 0.06611901 C229.62964539 0.06742406 235.79164703 0.06868776 241.95364869 0.06993091 C293.06130056 0.08029506 344.16894812 0.09790599 395.27659607 0.12025452 C394.61659607 1.11025452 393.95659607 2.10025452 393.27659607 3.12025452 C390.42474848 3.49400067 390.42474848 3.49400067 386.68933964 3.49219131 C386.00147105 3.49595244 385.31360246 3.49971357 384.60488936 3.50358868 C382.27666859 3.51260356 379.94904859 3.50004067 377.62084961 3.48774719 C375.94404254 3.48976965 374.26723662 3.49310679 372.59043449 3.49765277 C367.96427566 3.50633988 363.33831606 3.49619914 358.71217453 3.48311043 C353.72967155 3.47225061 348.74718777 3.47861944 343.76467896 3.4828949 C333.99413703 3.48854142 324.22367328 3.47818723 314.45314468 3.46260694 C303.07690393 3.44509877 291.70067852 3.44364829 280.32442641 3.44299135 C260.020787 3.44130133 239.71718326 3.42546566 219.41355896 3.40150452 C199.71336064 3.37827234 180.01318493 3.36408385 160.31297302 3.36048889 C159.10102371 3.36026612 157.88907439 3.36004336 156.64039934 3.35981384 C154.19889435 3.35937124 151.75738935 3.35892921 149.31588435 3.35848777 C148.11148841 3.3582682 146.90709247 3.35804864 145.66619968 3.35782242 C144.46484244 3.35760643 143.2634852 3.35739045 142.02572319 3.35716791 C123.25769967 3.35346331 104.48967979 3.34210129 85.72166028 3.32969202 C78.92033203 3.3252605 72.11900412 3.32182062 65.317675 3.31906989 C54.52137935 3.31463049 43.72509717 3.30683445 32.92881001 3.29229549 C27.99590691 3.28570303 23.06301562 3.28062494 18.13010788 3.27983475 C13.61024947 3.27904458 9.09042089 3.27360649 4.57057177 3.26451525 C2.9392236 3.26201869 1.30787186 3.2611691 -0.32347792 3.26217404 C-8.83727337 3.26640409 -17.25425843 3.11757545 -25.72340393 2.12025452 C-25.72340393 1.79025452 -25.72340393 1.46025452 -25.72340393 1.12025452 C-17.16256417 -0.10010352 -8.62691867 -0.0164051 0 0 Z " fill="#3B0000" transform="translate(217.72340393066406,664.8797454833984)"/>
<path d="M0 0 C0.33 0.99 0.66 1.98 1 3 C0.18660156 3.63164062 -0.62679688 4.26328125 -1.46484375 4.9140625 C-9.65240099 11.29671823 -17.69787401 17.83521848 -25.69921875 24.44921875 C-29.8484686 27.87865295 -34.01198009 31.29010599 -38.1875 34.6875 C-39.17810425 35.49356689 -39.17810425 35.49356689 -40.1887207 36.31591797 C-44.4399297 39.76375303 -48.73909229 43.14345348 -53.0625 46.5 C-58.67591134 50.8636841 -64.04321765 55.46608617 -69.38598633 60.15527344 C-75.21938908 65.2499351 -81.28758508 70.00460718 -87.40380859 74.75195312 C-95.5687952 81.13607848 -103.44572149 87.88282971 -111.34277344 94.59277344 C-114.59777531 97.35674379 -117.85956445 100.11269977 -121.12011719 102.87011719 C-123.85580353 105.18416855 -126.58975 107.50021624 -129.3203125 109.8203125 C-135.22853779 114.8367302 -141.17613828 119.79453116 -147.1875 124.6875 C-150.31799666 127.26146392 -153.41172461 129.87569086 -156.5 132.5 C-160.46907935 135.87278574 -164.46016863 139.21176517 -168.5 142.5 C-174.17903141 147.12552993 -179.76592822 151.85467044 -185.34716797 156.59716797 C-186.97028067 157.97477588 -188.5959304 159.34931757 -190.22265625 160.72265625 C-196.47424955 166.00135722 -202.69737181 171.31115077 -208.89672852 176.65112305 C-212.50575473 179.74984316 -216.16713611 182.76936908 -219.875 185.75 C-223.82208495 188.94909509 -227.38342726 192.33064121 -230.9140625 195.9765625 C-233.28565555 198.27709658 -235.79306409 200.31379066 -238.375 202.375 C-242.21205572 205.49394752 -245.99047192 208.6458498 -249.625 212 C-250.44226563 212.7425 -251.25953125 213.485 -252.1015625 214.25 C-254.71034152 218.02897208 -254.83678415 221.49376981 -255 226 C-253.59923218 226.07516846 -253.59923218 226.07516846 -252.17016602 226.15185547 C-248.71635911 226.34175994 -245.26327076 226.54023934 -241.81030273 226.74462891 C-240.31375491 226.8314277 -238.81700259 226.91477068 -237.32006836 226.99462891 C-235.17238631 227.10979756 -233.02573857 227.23724438 -230.87890625 227.3671875 C-229.5854126 227.44050293 -228.29191895 227.51381836 -226.95922852 227.58935547 C-225.98268311 227.72486816 -225.0061377 227.86038086 -224 228 C-223.67 228.66 -223.34 229.32 -223 230 C-231.45757991 230.0854301 -239.92487705 230.16431618 -248.375 229.75 C-249.37273437 229.70359375 -250.37046875 229.6571875 -251.3984375 229.609375 C-254.67752904 228.8412995 -255.93610622 227.62066513 -258 225 C-258.76222942 220.61718083 -257.82176869 218.25218525 -255.32421875 214.65917969 C-252.78128922 211.4730165 -249.76314637 208.79507603 -246.75 206.0625 C-246.07614258 205.4427832 -245.40228516 204.82306641 -244.70800781 204.18457031 C-240.83404982 200.63266199 -236.92721364 197.1215573 -232.94140625 193.6953125 C-230.48290184 191.54844949 -228.089711 189.33462868 -225.6875 187.125 C-221.22424397 183.05411813 -216.63465312 179.19876438 -211.9375 175.40234375 C-208.64602762 172.71051461 -205.41164833 169.95926921 -202.1875 167.1875 C-201.30747314 166.43110229 -201.30747314 166.43110229 -200.40966797 165.65942383 C-198.60562146 164.10723617 -196.80261767 162.55384671 -195 161 C-187.65955772 154.67257832 -180.30119952 148.38702399 -172.77734375 142.27734375 C-169.65603633 139.71795946 -166.5754997 137.11406209 -163.5 134.5 C-159.53096457 131.12716411 -155.53982979 127.78823355 -151.5 124.5 C-145.26083244 119.41824323 -139.13108038 114.21105894 -133 109 C-126.89111965 103.80780978 -120.78489359 98.61876419 -114.5625 93.5625 C-110.37175514 90.15524222 -106.27092387 86.65886214 -102.1875 83.125 C-96.36147669 78.09241644 -90.37469014 73.3064452 -84.30078125 68.578125 C-77.68915661 63.42918167 -71.24529881 58.08983788 -64.90942383 52.60644531 C-59.29046274 47.74472552 -53.59342884 43.06245656 -47.67529297 38.56958008 C-42.89840998 34.94161356 -38.25182048 31.17431263 -33.63134766 27.35009766 C-30.23728924 24.5411867 -26.83712273 21.73967161 -23.4375 18.9375 C-22.70402344 18.33276855 -21.97054687 17.72803711 -21.21484375 17.10498047 C-15.84903667 12.68615149 -10.44588811 8.31985861 -5 4 C-3.33287398 2.66724106 -1.66609817 1.33404364 0 0 Z " fill="#3A0000" transform="translate(341,177)"/>
<path d="M0 0 C0.33 0 0.66 0 1 0 C1 12.35940889 -6.26738249 24.24621988 -14.7421875 32.8359375 C-15.48726562 33.55007813 -16.23234375 34.26421875 -17 35 C-17.66257812 35.69351563 -18.32515625 36.38703125 -19.0078125 37.1015625 C-31.33089286 49.23721959 -47.74766081 53.85905451 -64.63964844 54.04980469 C-81.72826669 53.68922565 -97.51684322 47.59906814 -113.1875 41.375 C-124.10498347 37.03919605 -135.16993181 33.47625073 -147 33 C-147.87269531 32.93683594 -148.74539063 32.87367188 -149.64453125 32.80859375 C-165.47751454 32.13715397 -179.19862901 37.66728518 -193.43139648 43.91674805 C-208.19682579 50.36798089 -222.12172133 54.16594664 -238.3125 54.25 C-239.29412109 54.270625 -240.27574219 54.29125 -241.28710938 54.3125 C-256.95946198 54.39547738 -269.14682903 47.62064578 -280.203125 36.8671875 C-286.32726565 30.6973443 -293.03735551 23.32130747 -296 15 C-295.62109375 12.7421875 -295.62109375 12.7421875 -295 11 C-294.52691406 11.88300781 -294.05382812 12.76601563 -293.56640625 13.67578125 C-285.11640887 29.1403806 -273.73314948 44.28585361 -256.01269531 49.59545898 C-232.03126768 55.49569344 -209.08421593 47.83739666 -187.29858398 38.27832031 C-175.33778417 33.06044938 -164.8295626 30.44075996 -151.75 30.5625 C-149.96251343 30.57821045 -149.96251343 30.57821045 -148.13891602 30.59423828 C-132.55459366 30.91447135 -119.84024796 35.68425012 -105.45776367 41.3449707 C-85.09114048 49.3531407 -61.44330478 54.81360829 -40 47.32421875 C-20.20066874 38.58467019 -9.84272521 25.15826208 -1.9609375 5.39453125 C-1.28323897 3.60528046 -0.63678271 1.80421769 0 0 Z " fill="#3A0000" transform="translate(550,586)"/>
<path d="M0 0 C6.80641623 7.04735132 11.57685543 15.648828 14.5625 24.9375 C14.8615625 25.865625 15.160625 26.79375 15.46875 27.75 C21.70796159 50.39602723 16.73061791 75.54165355 5.48706055 95.78466797 C-3.35307246 110.91090214 -16.72535487 125.19084507 -33.75 130.68359375 C-44.02506012 133.27019743 -54.24784449 132.55513504 -63.5 127.25 C-65.16388034 126.17322073 -66.81075874 125.06960611 -68.4375 123.9375 C-69.11683594 123.46828125 -69.79617188 122.9990625 -70.49609375 122.515625 C-77.46048104 117.07863854 -81.79847922 109.32380972 -86.4375 101.9375 C-85.4475 100.9475 -85.4475 100.9475 -84.4375 99.9375 C-83.94121094 100.7109375 -83.44492187 101.484375 -82.93359375 102.28125 C-74.70844145 114.89210969 -67.0396907 125.25721339 -51.609375 128.52734375 C-40.35963036 129.98205211 -30.12256288 127.47829743 -20.74609375 121.109375 C-18.2110308 119.14324984 -15.8158687 117.08974196 -13.4375 114.9375 C-12.75042969 114.34324219 -12.06335938 113.74898438 -11.35546875 113.13671875 C5.33220336 97.76562827 13.71750598 73.57067817 14.8203125 51.421875 C15.43138657 32.72338805 10.83012886 16.02052552 -2.19140625 2.09375 C-6.19150039 -1.74634038 -9.66287812 -4.43499668 -14.9375 -6.25 C-16.31421875 -6.73533203 -16.31421875 -6.73533203 -17.71875 -7.23046875 C-29.13544043 -10.7243697 -42.29065218 -8.85878869 -52.875 -3.5 C-68.49223541 5.52086465 -75.93764284 19.23650034 -83.4375 34.9375 C-84.0975 34.2775 -84.7575 33.6175 -85.4375 32.9375 C-77.95239016 15.54022835 -67.96923588 -0.75206832 -49.58203125 -8.22265625 C-32.08822678 -14.40867836 -14.0903644 -13.06391401 0 0 Z " fill="#3C0000" transform="translate(502.4375,257.0625)"/>
<path d="M0 0 C1.55267578 0.06574219 1.55267578 0.06574219 3.13671875 0.1328125 C4.20792969 0.184375 5.27914062 0.2359375 6.3828125 0.2890625 C7.44628906 0.33289063 8.50976562 0.37671875 9.60546875 0.421875 C24.69022269 1.09647269 24.69022269 1.09647269 26.5078125 2.9140625 C26.62846608 5.93105519 26.6833844 8.92605121 26.69726562 11.9442749 C26.70558159 12.90375888 26.71389755 13.86324286 26.72246552 14.85180211 C26.74936771 18.09356558 26.76916405 21.33533496 26.7890625 24.57714844 C26.80685414 26.89115229 26.82509369 29.20515274 26.84375 31.51914978 C26.88312944 36.51737596 26.91941128 41.51561194 26.95336914 46.51387787 C27.00267239 53.75476446 27.05790597 60.99559438 27.11505032 68.23642293 C27.20781408 80.00182812 27.29680561 91.7672584 27.3828125 103.53271484 C27.38796592 104.23751501 27.39311934 104.94231517 27.39842892 105.66847292 C27.42451422 109.23795839 27.45055174 112.80744422 27.4765625 116.37693024 C27.52843492 123.49494072 27.58049639 130.6129498 27.6328125 137.73095703 C27.6405313 138.78141451 27.6405313 138.78141451 27.64840603 139.85309336 C27.73453527 151.55901132 27.82421958 163.26489963 27.91632843 174.97077203 C27.97784212 182.82574026 28.03494106 190.68072432 28.08860779 198.53574991 C28.12299319 203.43879439 28.16110656 208.3418049 28.20019531 213.24481392 C28.21748883 215.50982336 28.23324833 217.77484515 28.24731445 220.03987694 C27.7188855 239.78515916 27.7188855 239.78515916 31.5078125 258.9140625 C32.16378418 258.93388184 32.81975586 258.95370117 33.49560547 258.97412109 C36.45842319 259.06918757 39.42051782 259.17894002 42.3828125 259.2890625 C43.41535156 259.32 44.44789063 259.3509375 45.51171875 259.3828125 C46.49785156 259.42148437 47.48398438 259.46015625 48.5 259.5 C49.41120605 259.5314209 50.32241211 259.5628418 51.26123047 259.59521484 C53.5078125 259.9140625 53.5078125 259.9140625 55.5078125 261.9140625 C35.23108294 262.36689269 35.23108294 262.36689269 29.5078125 259.9140625 C22.33589567 251.6554916 25.28485767 232.48168929 25.19140625 221.94140625 C25.17059875 219.91649136 25.1495548 217.8915789 25.1282959 215.8666687 C25.07209818 210.34948911 25.0227441 204.83226809 24.97538376 199.31500626 C24.94525579 195.84503152 24.91338607 192.37507644 24.88113403 188.90512085 C24.3150058 127.24267641 24.41305873 65.57836076 24.5078125 3.9140625 C13.2878125 3.5840625 2.0678125 3.2540625 -9.4921875 2.9140625 C-9.8221875 2.2540625 -10.1521875 1.5940625 -10.4921875 0.9140625 C-6.88680107 0.06924136 -3.69520049 -0.16115941 0 0 Z " fill="#460500" transform="translate(134.4921875,405.0859375)"/>
<path d="M0 0 C0.66 0 1.32 0 2 0 C2.02578125 1.31613281 2.0515625 2.63226563 2.078125 3.98828125 C2.55288955 20.72771449 5.34897575 31.95326784 17.8125 43.8125 C34.00187348 57.1594644 61.46819045 53.87686003 80 55 C80 125.29 80 195.58 80 268 C79.34 268 78.68 268 78 268 C77.67 198.37 77.34 128.74 77 57 C68.09 56.67 59.18 56.34 50 56 C34.19260405 54.72362641 22.02660992 52.78098819 10.734375 41.0390625 C0.14259428 28.58656354 -0.46281913 15.58157743 0 0 Z " fill="#410000" transform="translate(46,387)"/>
<path d="M0 0 C0.99 1.485 0.99 1.485 2 3 C-0.85981891 14.11429622 -7.43816219 22.01144414 -17 28 C-29.97725094 35.13946024 -42.76595556 35.2802436 -57.1875 35.125 C-58.8235622 35.1149459 -60.45963042 35.10582436 -62.09570312 35.09765625 C-66.06395316 35.07584492 -70.03190851 35.04145053 -74 35 C-73.99907821 35.87755951 -73.99815641 36.75511902 -73.99720669 37.65927124 C-73.97497068 59.16773241 -73.95850132 80.67619156 -73.94818783 102.18466187 C-73.94306574 112.58665382 -73.93610256 122.98863803 -73.92456055 133.390625 C-73.91448711 142.47353941 -73.90811699 151.55644821 -73.90591151 160.63936806 C-73.90462552 165.43363772 -73.90167779 170.22789133 -73.89426994 175.02215576 C-73.86784629 192.92746062 -73.88777228 210.82691088 -74.38110352 228.7265625 C-74.41157996 229.97585541 -74.44205641 231.22514832 -74.47345638 232.51229858 C-74.74167868 240.80531854 -75.6706538 248.81209321 -77 257 C-77.66 257 -78.32 257 -79 257 C-78.93413445 256.22613984 -78.86826889 255.45227968 -78.80040741 254.65496922 C-78.12578269 246.37670259 -77.70729485 238.11546732 -77.45507812 229.81420898 C-77.42388052 228.80363947 -77.42388052 228.80363947 -77.39205265 227.77265441 C-76.8386977 209.46720296 -76.79434664 191.15731713 -76.72960854 172.8449471 C-76.7110839 167.94482671 -76.68680772 163.04473496 -76.66296387 158.14463806 C-76.59355545 143.66894161 -76.5333547 129.19320869 -76.47393799 114.71746826 C-76.42722858 103.3717935 -76.3782084 92.02613812 -76.32245111 80.68050379 C-76.2941372 74.86521906 -76.2705375 69.04994013 -76.25052643 63.23462117 C-76.23719242 59.64545556 -76.219784 56.05631842 -76.20121574 52.46717644 C-76.19343223 50.79857979 -76.18737477 49.12997412 -76.18312263 47.46136475 C-76.17711743 45.19502455 -76.16509197 42.92879622 -76.15148926 40.66249084 C-76.14633553 39.39234162 -76.14118179 38.1221924 -76.13587189 36.81355381 C-76 34 -76 34 -75 33 C-72.52253886 32.88894337 -70.06838449 32.83831696 -67.58984375 32.82421875 C-66.02537807 32.80095983 -64.460925 32.77684034 -62.89648438 32.75195312 C-60.44189788 32.71731325 -57.9877563 32.68778065 -55.53295898 32.67407227 C-39.76731277 32.56889244 -23.10687425 31.42265646 -10.98046875 20.1171875 C-5.47998895 14.21140919 -2.30745421 7.69151402 0 0 Z " fill="#3E0100" transform="translate(751,408)"/>
<path d="M0 0 C2.7263898 2.18706303 5.34352958 4.44209737 7.92578125 6.796875 C8.58191406 7.38339844 9.23804688 7.96992187 9.9140625 8.57421875 C20.87885769 18.90689715 28.75962982 33.15388428 29.26171875 48.32421875 C29.2855066 50.79419061 29.29821493 53.26428993 29.30078125 55.734375 C29.32527344 56.97123047 29.34976563 58.20808594 29.375 59.48242188 C29.40146466 67.73498439 28.74562487 73.35783299 23.21484375 79.78515625 C22.66570312 80.22214844 22.1165625 80.65914062 21.55078125 81.109375 C21.00679688 81.55925781 20.4628125 82.00914062 19.90234375 82.47265625 C19.25007813 82.90964844 18.5978125 83.34664062 17.92578125 83.796875 C17.12785156 84.33570313 16.32992187 84.87453125 15.5078125 85.4296875 C10.0579588 87.50978433 4.77601157 87.36967204 -1.01171875 87.359375 C-2.21489746 87.3598584 -3.41807617 87.3603418 -4.65771484 87.36083984 C-14.08975444 87.18417181 -21.96699075 85.82804865 -30.07421875 80.796875 C-30.40421875 80.136875 -30.73421875 79.476875 -31.07421875 78.796875 C-27.08291139 79.22836769 -23.75949885 80.29445653 -20.07421875 81.796875 C-10.17156086 85.4918966 4.26148874 86.97226408 14.2734375 82.82421875 C19.55745829 79.75257302 23.95874003 75.69799867 25.92578125 69.796875 C26.21689326 65.32258381 26.20378143 60.84205157 26.23828125 56.359375 C26.26728516 55.13798828 26.29628906 53.91660156 26.32617188 52.65820312 C26.445356 35.43151325 19.11009617 21.70287063 7.36328125 9.484375 C-9.72650923 -7.38350617 -34.2165529 -13.67947305 -57.56567383 -13.56323242 C-66.75996418 -13.3656288 -75.55264986 -12.24206865 -84.2265625 -9.0390625 C-87.10304897 -8.19466181 -88.3272945 -8.14661567 -91.07421875 -9.203125 C-83.28866015 -12.7371228 -75.46173175 -14.64288858 -67.07421875 -16.203125 C-65.65882813 -16.49123047 -65.65882813 -16.49123047 -64.21484375 -16.78515625 C-42.78863592 -19.63665406 -17.33732094 -12.42471285 0 0 Z " fill="#360000" transform="translate(483.07421875,515.203125)"/>
<path d="M0 0 C0.33 0 0.66 0 1 0 C3.87339202 21.20097352 -2.8139235 43.70855732 -15.43554688 60.96240234 C-18.4517448 64.80399215 -21.65857331 68.43946336 -25 72 C-25.55945313 72.61101562 -26.11890625 73.22203125 -26.6953125 73.8515625 C-28 75 -28 75 -30 75 C-30.22816406 75.5878125 -30.45632813 76.175625 -30.69140625 76.78125 C-35.01635963 84.11430529 -46.16478083 87.81506632 -54 90 C-67.27988871 92.64891397 -80.04469314 91.26748342 -91.515625 83.8515625 C-102.56283842 75.61826193 -109.11634862 65.63045214 -111.3359375 51.92578125 C-112.43041685 43.45096145 -112.14318046 35.28629472 -111.125 26.8125 C-111.04660889 26.14726318 -110.96821777 25.48202637 -110.88745117 24.79663086 C-110.31191437 20.35622373 -109.3158166 16.26258234 -108 12 C-107.34 12 -106.68 12 -106 12 C-106.2165625 13.33224609 -106.2165625 13.33224609 -106.4375 14.69140625 C-107.66045807 23.10773571 -108.21689867 31.3672694 -108.25 39.875 C-108.25902344 40.8244751 -108.26804687 41.7739502 -108.27734375 42.75219727 C-108.22248972 55.87031098 -105.47930744 66.59885004 -96.3125 76.3125 C-87.17445583 84.96173348 -76.80273008 88.54117645 -64.35546875 88.3203125 C-49.69991735 86.92129595 -38.28966722 81.36543796 -28 71 C-27.22140625 70.23042969 -26.4428125 69.46085937 -25.640625 68.66796875 C-7.58960711 49.93856293 -1.41877703 25.39121648 0 0 Z " fill="#3B0000" transform="translate(614,383)"/>
<path d="M0 0 C1.1347532 3.40425959 0.80388454 4.61724242 0.0625 8.0625 C-4.03807121 31.50645541 1.97156412 53.22094312 15 73 C20.77005633 80.96661186 27.43428767 87.72931951 35 94 C35.63164062 94.5259375 36.26328125 95.051875 36.9140625 95.59375 C45.07436896 101.48930181 58.09101469 104.10857839 68 103 C69.02738281 102.90589844 70.05476563 102.81179688 71.11328125 102.71484375 C80.96698877 101.54421875 88.43131086 98.66347066 95 91 C96.73113433 88.70301012 98.37151142 86.3729405 100 84 C100.33 84.99 100.66 85.98 101 87 C96.4341016 95.73476216 88.1731265 101.56252983 78.98828125 104.68359375 C66.3400491 108.07360052 51.31214139 106.86927587 39.875 100.375 C18.95893134 86.61175223 3.68397335 65.95442639 -2.4921875 41.5625 C-3.74285648 35.25143192 -4.19392919 29.16312157 -4.1875 22.75 C-4.1862915 21.49908569 -4.1862915 21.49908569 -4.18505859 20.22290039 C-4.02472733 4.02472733 -4.02472733 4.02472733 0 0 Z " fill="#3A0000" transform="translate(189,368)"/>
<path d="M0 0 C0.33 0 0.66 0 1 0 C1.00423194 0.59100337 1.00846388 1.18200674 1.01282406 1.7909193 C1.11648809 16.22437363 1.22517637 30.6577838 1.33933926 45.09115887 C1.39443034 52.07125477 1.44787037 59.05135576 1.49731445 66.03149414 C1.54508568 72.77479905 1.59760236 79.51805405 1.65294075 86.26130104 C1.67323217 88.82671744 1.69196584 91.39214668 1.70907402 93.95758629 C1.73341332 97.56641624 1.7634237 101.17515972 1.79467773 104.78393555 C1.8004332 105.83123337 1.80618866 106.87853119 1.81211853 107.95756531 C1.80207739 122.22716072 1.80207739 122.22716072 5 136 C5.65597168 136.01981934 6.31194336 136.03963867 6.98779297 136.06005859 C9.95061069 136.15512507 12.91270532 136.26487752 15.875 136.375 C16.90753906 136.4059375 17.94007813 136.436875 19.00390625 136.46875 C20.48310547 136.52675781 20.48310547 136.52675781 21.9921875 136.5859375 C22.90339355 136.6173584 23.81459961 136.6487793 24.75341797 136.68115234 C27 137 27 137 29 139 C8.72327044 139.45283019 8.72327044 139.45283019 3 137 C-3.98441197 128.95734379 -1.14678339 110.956612 -1.1328125 100.68359375 C-1.13348916 98.90129076 -1.13446217 97.11898786 -1.13571167 95.33668518 C-1.13718041 91.60066855 -1.13506658 87.86467592 -1.13037109 84.12866211 C-1.12476875 79.45440887 -1.12798496 74.78021381 -1.13382339 70.10596275 C-1.15838883 46.71988075 -0.83179145 23.37170056 0 0 Z " fill="#2A0000" transform="translate(161,528)"/>
<path d="M0 0 C0.33 0 0.66 0 1 0 C1.11402806 6.61362725 0.71999389 13.08006719 0.12109375 19.66796875 C0.00189854 22.94775961 0.343081 25.79326207 1 29 C8.88575123 28.80893554 16.03325025 27.05857488 23.54052734 24.81567383 C24.27480957 24.59806396 25.0090918 24.3804541 25.765625 24.15625 C26.41305664 23.95837891 27.06048828 23.76050781 27.72753906 23.55664062 C53.4256317 17.26187792 80.76186227 23.21806604 105 32 C105 32.66 105 33.32 105 34 C99.85717699 32.9540021 94.92905686 31.68693434 89.9375 30.0625 C64.03248319 22.13965981 37.45868066 22.90369808 11.78515625 31.20703125 C8.24870934 32.21390183 5.63761794 32.4744719 2 32 C-1.72758393 29.51494405 -1.9919282 28.30407128 -3 24 C-3.13219437 21.16555577 -2.96497018 18.3896078 -2.75 15.5625 C-2.71003906 14.83740234 -2.67007812 14.11230469 -2.62890625 13.36523438 C-2.31571829 8.65471809 -1.44470669 4.49398516 0 0 Z " fill="#390000" transform="translate(346,560)"/>
<path d="M0 0 C1.43248017 2.86496034 0.30693498 4.6622836 -0.640625 7.5703125 C-0.88296875 8.28960937 -1.1253125 9.00890625 -1.375 9.75 C-9.07344341 32.84533022 -4.59543818 55.63698488 6 77 C6.49628906 78.01964844 6.99257813 79.03929687 7.50390625 80.08984375 C13.89151672 92.49956109 23.06257735 101.53231795 34 110 C24.58398306 108.63607434 18.09019249 100.58096171 12.484375 93.42578125 C-2.41026337 73.45554428 -10.87973417 47.90229262 -7.74072266 22.93798828 C-6.5757859 15.43724047 -4.79891676 8.05813792 -2 1 C-1.34 0.67 -0.68 0.34 0 0 Z " fill="#3C0100" transform="translate(289,272)"/>
<path d="M0 0 C2.76523409 2.27327005 5.26098846 4.74294633 7.75 7.3125 C8.38292969 7.93833984 9.01585937 8.56417969 9.66796875 9.20898438 C13.8408022 13.43820747 17.07147441 17.8341695 20 23 C19.01 23 18.02 23 17 23 C15.125 20.7265625 15.125 20.7265625 13 17.625 C5.52664395 7.2364941 -2.65679707 -0.03961403 -15 -4 C-16.11246094 -4.36480469 -17.22492188 -4.72960937 -18.37109375 -5.10546875 C-30.73358232 -8.15284214 -42.8234621 -6.2197159 -53.6875 0.125 C-58.9647984 3.63821565 -62.51273649 7.75385431 -66 13 C-66.66 13.99 -67.32 14.98 -68 16 C-68.66 16 -69.32 16 -70 16 C-68.60501079 11.82995203 -66.6536642 9.162892 -63.6875 5.9375 C-62.92824219 5.10089844 -62.16898437 4.26429688 -61.38671875 3.40234375 C-57.43335159 -0.5769047 -53.62871257 -3.40407039 -48.5 -5.6875 C-47.12328125 -6.31205078 -47.12328125 -6.31205078 -45.71875 -6.94921875 C-30.60004524 -12.79251125 -13.12744267 -8.5756951 0 0 Z " fill="#390000" transform="translate(359,255)"/>
<path d="M0 0 C1.75570312 0.01353516 1.75570312 0.01353516 3.546875 0.02734375 C4.43890625 0.03894531 5.3309375 0.05054688 6.25 0.0625 C6.25 0.7225 6.25 1.3825 6.25 2.0625 C5.22261719 2.16046875 4.19523438 2.2584375 3.13671875 2.359375 C-5.33240613 3.24195991 -12.91006894 4.54972469 -20.75 8.0625 C-21.61238281 8.44535156 -22.47476563 8.82820313 -23.36328125 9.22265625 C-30.37491617 12.53163722 -37.2211577 15.96246928 -40.75 23.0625 C-41.78125 23.84625 -42.8125 24.63 -43.875 25.4375 C-52.6239535 32.65856972 -57.30828106 45.93403484 -61.75 56.0625 C-62.08 56.0625 -62.41 56.0625 -62.75 56.0625 C-62.23745494 50.42450434 -60.71695274 46.19595579 -58.125 41.1875 C-57.7638208 40.48278564 -57.4026416 39.77807129 -57.03051758 39.05200195 C-54.13580133 33.5401624 -50.95760847 28.67403889 -46.75 24.0625 C-45.96109375 23.17046875 -45.1721875 22.2784375 -44.359375 21.359375 C-34.95021969 11.28992809 -23.98143645 5.03193094 -10.75 1.0625 C-10.12867188 0.8665625 -9.50734375 0.670625 -8.8671875 0.46875 C-5.89392774 -0.10176479 -3.02377437 -0.03023774 0 0 Z " fill="#390001" transform="translate(570.75,337.9375)"/>
<path d="M0 0 C0.66 0.66 1.32 1.32 2 2 C-6.10212294 17.14838411 -15.17725277 29.77053742 -32.28125 35.34375 C-41.72045843 37.62217962 -51.50761772 35.54243703 -60 31 C-60 30.34 -60 29.68 -60 29 C-58.40671875 29.433125 -58.40671875 29.433125 -56.78125 29.875 C-55.35430151 30.25051276 -53.92721038 30.6254838 -52.5 31 C-51.80390625 31.19078125 -51.1078125 31.3815625 -50.390625 31.578125 C-40.09740974 34.24673636 -31.90592497 32.71097399 -22.54296875 27.6796875 C-11.75718704 20.95465155 -6.16579557 10.73771202 0 0 Z " fill="#380000" transform="translate(384,353)"/>
<path d="M0 0 C14.19044146 1.19063636 27.47013908 6.22960273 38 16 C39.10021484 16.98226563 39.10021484 16.98226563 40.22265625 17.984375 C47.52733456 24.85052202 54.62678247 33.46315463 58 43 C57.01 43 56.02 43 55 43 C54.52433594 42.00033203 54.52433594 42.00033203 54.0390625 40.98046875 C50.49915019 33.98865301 46.38795152 28.77787936 40.9765625 23.21484375 C39 21 39 21 39 19 C38.1646875 18.60748047 38.1646875 18.60748047 37.3125 18.20703125 C34.74093867 16.86478049 32.40849969 15.30391869 30 13.6875 C20.84896506 7.84641387 11.76001066 4.41913526 1 3 C0.67 2.01 0.34 1.02 0 0 Z " fill="#3B0000" transform="translate(231,338)"/>
<path d="M0 0 C0.99 0.33 1.98 0.66 3 1 C4.01958921 3.29029386 4.82315606 5.43162094 5.5625 7.8125 C5.8867395 8.834646 5.8867395 8.834646 6.2175293 9.87744141 C11.98486448 28.63389475 12.29230533 49.92881359 4 68 C3.34 68 2.68 68 2 68 C2.27714844 66.94941406 2.55429687 65.89882813 2.83984375 64.81640625 C5.69353294 54.04172586 5.69353294 54.04172586 7 43 C7.03996094 42.27425781 7.07992188 41.54851562 7.12109375 40.80078125 C7.4736424 28.25419701 5.29328025 16.63761917 1.0234375 4.9140625 C0 2 0 2 0 0 Z " fill="#3E0100" transform="translate(288,383)"/>
<path d="M0 0 C-1 3 -1 3 -3.046875 4.21875 C-3.93890625 4.6415625 -4.8309375 5.064375 -5.75 5.5 C-23.13351322 14.62181748 -33.29633822 28.97297211 -40.578125 46.8671875 C-42 50 -42 50 -44 51 C-41.33272771 33.81091191 -30.48061763 19.49119196 -17 9 C-3.85114504 0 -3.85114504 0 0 0 Z " fill="#3B0000" transform="translate(391,507)"/>
<path d="M0 0 C1.5776961 3.1553922 0.06157231 6.01851541 -0.875 9.25 C-6.01647541 27.29835161 -4.96791834 45.03565244 0 63 C-0.99 63.495 -0.99 63.495 -2 64 C-2.65161012 62.12699975 -3.29602195 60.2514945 -3.9375 58.375 C-4.29714844 57.33085937 -4.65679687 56.28671875 -5.02734375 55.2109375 C-9.83839354 39.32867674 -8.23542051 19.6187127 -3 4 C-1.36328125 1.515625 -1.36328125 1.515625 0 0 Z " fill="#380000" transform="translate(417,293)"/>
<path d="M0 0 C3.65203137 2.43468758 3.71074024 3.32422282 4.6875 7.5 C7.83108122 23.70282022 7.75610124 41.42769041 2 57 C1.34 57 0.68 57 0 57 C0.31082872 55.24970238 0.62373179 53.49977306 0.9375 51.75 C1.11152344 50.77546875 1.28554688 49.8009375 1.46484375 48.796875 C2 46 2 46 2.52075195 44.16064453 C5.17897744 32.17628613 3.80956538 17.24310045 0.65625 5.4765625 C0 3 0 3 0 0 Z " fill="#3A0100" transform="translate(385,295)"/>
<path d="M0 0 C12.61989484 2.2034737 22.09429299 8.47180612 29.75 18.75 C34.47830895 25.84246343 37.24585978 33.51592253 38 42 C37.01 42.495 37.01 42.495 36 43 C35.72027344 41.97261719 35.44054687 40.94523437 35.15234375 39.88671875 C31.47890738 26.95772464 26.44752266 15.89227578 15 8 C10.14604974 5.51153668 5.35641673 3.97821086 0 3 C0 2.01 0 1.02 0 0 Z " fill="#390000" transform="translate(578,338)"/>
<path d="M0 0 C0 0.66 0 1.32 0 2 C-2.63106907 3.31553454 -5.0110102 3.36388103 -7.9375 3.6875 C-14.9396021 4.71881736 -20.10618556 7.17752612 -26 11 C-26.928125 11.5775 -27.85625 12.155 -28.8125 12.75 C-31.67901783 15.69841834 -33.55617886 18.99149549 -35.5703125 22.5625 C-36.91092998 24.84814292 -38.36880126 26.91515427 -40 29 C-39.83430144 21.2121676 -35.5673677 16.70103956 -30.33203125 11.26953125 C-21.84581257 3.42834582 -11.44665307 0 0 0 Z " fill="#370000" transform="translate(230,338)"/>
<path d="M0 0 C0.66 0 1.32 0 2 0 C2.04487549 0.56807373 2.08975098 1.13614746 2.13598633 1.72143555 C3.02798273 12.71087561 4.03471581 23.34474547 7 34 C6.34 34 5.68 34 5 34 C1.200751 22.24883449 -0.15410864 12.34581435 0 0 Z " fill="#320100" transform="translate(247,562)"/>
<path d="M0 0 C0.99 0.33 1.98 0.66 3 1 C2.57589844 1.41507812 2.15179688 1.83015625 1.71484375 2.2578125 C-4.14743546 8.41642671 -7.47326739 15.36767897 -11 23 C-11.66 22.01 -12.32 21.02 -13 20 C-9.64493172 12.4188361 -5.38858956 6.28445928 0 0 Z " fill="#350000" transform="translate(60,363)"/>
<path d="M0 0 C0.66 0 1.32 0 2 0 C1.734375 1.890625 1.734375 1.890625 1 4 C-5.36928137 8.14312477 -13.76341515 7.3019904 -21 7 C-20.67 6.34 -20.34 5.68 -20 5 C-16.41805744 4.49098711 -12.86267733 4.15951266 -9.2578125 3.87695312 C-8.12859375 3.76963867 -8.12859375 3.76963867 -6.9765625 3.66015625 C-6.28643066 3.60480713 -5.59629883 3.54945801 -4.88525391 3.49243164 C-2.53547217 2.87866451 -1.6407366 1.7388083 0 0 Z " fill="#390000" transform="translate(636,660)"/>
<path d="M0 0 C0.33 0 0.66 0 1 0 C1.09706112 6.11485027 0.77040851 11.93303301 0 18 C-0.33 18 -0.66 18 -1 18 C-1.33 19.98 -1.66 21.96 -2 24 C-2.33 24 -2.66 24 -3 24 C-2.88509088 21.31173136 -2.75836801 18.62486531 -2.625 15.9375 C-2.5940625 15.18533203 -2.563125 14.43316406 -2.53125 13.65820312 C-2.27941541 8.81038719 -1.50831635 4.61691957 0 0 Z " fill="#420200" transform="translate(346,560)"/>
<path d="M0 0 C2.76713403 0.18135551 5.3919776 0.4643386 8.125 0.875 C8.87910156 0.97941406 9.63320313 1.08382813 10.41015625 1.19140625 C12.27484156 1.45104598 14.13762887 1.72425029 16 2 C16 2.66 16 3.32 16 4 C13.93722893 3.85805236 11.87478969 3.71127784 9.8125 3.5625 C8.66394531 3.48128906 7.51539063 3.40007812 6.33203125 3.31640625 C3.48401829 3.04596188 0.78789518 2.62478253 -2 2 C-1.34 1.34 -0.68 0.68 0 0 Z " fill="#2D0000" transform="translate(400,399)"/>
<path d="M0 0 C3 1 3 1 4.421875 3.1796875 C4.86015625 4.06914062 5.2984375 4.95859375 5.75 5.875 C6.19859375 6.75929688 6.6471875 7.64359375 7.109375 8.5546875 C8 11 8 11 7 14 C3.94998169 10.33997803 0 4.92148529 0 0 Z " fill="#3C0100" transform="translate(378,280)"/>
<path d="M0 0 C0.66 0 1.32 0 2 0 C3.45184478 4.53701494 4.23509196 8.18061476 4 13 C3.34 13 2.68 13 2 13 C1.34 8.71 0.68 4.42 0 0 Z " fill="#3A0100" transform="translate(124,656)"/>
<path d="M0 0 C-1 3 -1 3 -3.9375 4.6875 C-7 6 -7 6 -9 6 C-8 3 -8 3 -5.0625 1.3125 C-2 0 -2 0 0 0 Z " fill="#470000" transform="translate(391,507)"/>
<path d="M0 0 C0.66 0.66 1.32 1.32 2 2 C-0.75 8.875 -0.75 8.875 -3 10 C-2.69201674 8.51988629 -2.378482 7.04092675 -2.0625 5.5625 C-1.88847656 4.73878906 -1.71445312 3.91507813 -1.53515625 3.06640625 C-1 1 -1 1 0 0 Z " fill="#320000" transform="translate(350,548)"/>
<path d="M0 0 C2.29013653 3.4352048 2.17842973 4.985331 2 9 C1.34 9 0.68 9 0 9 C-1.125 2.25 -1.125 2.25 0 0 Z " fill="#320000" transform="translate(283,317)"/>
</svg>
