<?xml version="1.0" encoding="UTF-8"?>
<svg version="1.1" xmlns="http://www.w3.org/2000/svg" width="711" height="660">
<path d="M0 0 C1.49660156 1.21236328 1.49660156 1.21236328 3.0234375 2.44921875 C4.89723987 3.97629391 6.76529853 5.5104711 8.625 7.0546875 C10.71142204 8.76363187 12.82842916 10.40148258 15 12 C17.73742138 10.72697086 19.94348723 9.35723518 22.22265625 7.3828125 C52.87360764 -18.64722978 92.41417835 -38.11112885 133.28515625 -38.16796875 C134.14451279 -38.17129715 135.00386932 -38.17462555 135.88926697 -38.17805481 C137.69855216 -38.18308513 139.5078465 -38.18546435 141.31713867 -38.18530273 C144.0312503 -38.18747499 146.74494513 -38.20563353 149.45898438 -38.22460938 C163.69380266 -38.27238758 177.52796128 -37.52365349 191.25 -33.375 C192.5656897 -32.98477661 192.5656897 -32.98477661 193.90795898 -32.58666992 C243.27468157 -17.52091965 281.7771751 14.72529713 306.10498047 60.05908203 C331.62781888 108.29713108 331.08898644 163.85317873 315.9453125 215.45263672 C305.19618454 250.00232679 288.59265261 282.34857745 268 312 C267.34668701 312.94480225 267.34668701 312.94480225 266.68017578 313.90869141 C260.45663793 322.87431861 253.82620771 331.48716621 247 340 C246.23816406 340.95777344 245.47632813 341.91554688 244.69140625 342.90234375 C239.56500008 349.27151506 234.14865036 355.29666771 228.57983398 361.27661133 C227.40589414 362.5572235 226.24611018 363.85084196 225.09399414 365.15112305 C219.30489604 371.67822117 213.25792632 377.89645361 207.0793457 384.05102539 C205.43258596 385.69239796 203.79127905 387.33908819 202.15039062 388.98632812 C197.10525693 394.0343118 192.02409955 398.98592022 186.59399414 403.62426758 C184.6268291 405.32207352 182.80438435 407.13117335 181 409 C177.16427312 412.88015615 173.1457699 416.45625609 169 420 C167.98137419 420.8823548 166.96317863 421.76520645 165.9453125 422.6484375 C147.98068999 438.19659825 129.39382357 452.98148637 109.94189453 466.63085938 C107.7957588 468.14400109 105.66167309 469.67337933 103.52734375 471.203125 C32.28845337 521.99729127 32.28845337 521.99729127 11 519 C-40.72823542 506.10873628 -90.72265953 459.7619267 -130.42797852 425.87109375 C-133.6540498 423.12031198 -136.93239199 420.45161975 -140.25 417.8125 C-146.80667164 412.4846043 -152.85691979 406.62283623 -158.9765625 400.8046875 C-162.08218744 397.85484867 -165.23194331 394.96651871 -168.4375 392.125 C-175.53375666 385.78905655 -182.18341939 379.08300925 -188.36328125 371.8515625 C-189.96400496 370.04071993 -191.63692304 368.36591757 -193.375 366.6875 C-197.06464842 363.05511885 -200.26017297 359.0919595 -203.5 355.05859375 C-205.22229906 352.95146849 -206.95428686 350.88909197 -208.75 348.84765625 C-228.29077407 326.62830364 -244.34630634 301.63746616 -259 276 C-259.37817871 275.34966797 -259.75635742 274.69933594 -260.14599609 274.02929688 C-290.92113255 220.91902795 -304.66885072 153.34145489 -289.10327148 93.21362305 C-283.08528622 71.30638134 -272.7746482 51.27702105 -258 34 C-257.12016564 32.9369654 -256.24132492 31.8731079 -255.36328125 30.80859375 C-244.33955818 17.5602263 -232.44696525 5.44815322 -218.57861328 -4.82275391 C-217.12769641 -5.90477079 -215.70117865 -7.01930456 -214.27734375 -8.13671875 C-200.96472271 -18.35711711 -185.83142389 -24.76845676 -170 -30 C-169.27280762 -30.24234375 -168.54561523 -30.4846875 -167.79638672 -30.734375 C-111.52817501 -49.18717046 -45.93436961 -37.60114327 0 0 Z M-65 106 C-73.57379027 116.87302726 -75.12056351 130.57155774 -74 144 C-72.10931654 156.68448773 -67.42930398 169.17785795 -57.30078125 177.3828125 C-54.02395561 179.68604818 -50.72999534 181.54263238 -47 183 C-46.1028125 183.35578125 -45.205625 183.7115625 -44.28125 184.078125 C-35.88960728 186.435777 -24.66752497 186.59011991 -16.9140625 182.32421875 C-7.03400516 175.48883214 1.04730218 166.21108116 3.59375 154.19921875 C5.71403693 137.50195919 4.08480684 121.74617564 -6.1953125 108.08203125 C-12.60540652 100.44556876 -19.58508407 96.13830531 -29 93 C-43.52996601 91.73965598 -54.91900602 94.86329618 -65 106 Z M39.1875 105.75 C28.56950576 118.29683623 25.81150798 132.93929696 27 149 C28.7428503 160.0127932 32.69386317 169.38604124 41 177 C50.2343347 183.52174888 59.01600052 187.04398707 70.375 185.4375 C80.80246112 183.22384904 89.52033717 177.41990085 96 169 C104.43503754 155.43215238 107.68784664 140.98431509 104.77734375 125.1953125 C101.88144782 113.29157949 96.09530963 104.50915812 86.375 97 C70.8926553 87.82527722 50.98605302 93.36736019 39.1875 105.75 Z M-131 193 C-138.17926044 204.24177607 -138.58524862 217.90617859 -136.34765625 230.7421875 C-132.63085602 244.04609904 -124.89523129 254.56366877 -113.1875 261.75 C-102.48635712 267.65087804 -92.21303821 269.80647808 -80.01171875 267.4140625 C-71.7492915 264.86638338 -65.09347587 259.69830724 -60.3359375 252.47265625 C-53.96186879 240.37683581 -53.12588149 227.06520157 -56.91015625 213.93359375 C-62.48936907 198.91571264 -73.62823898 187.81813835 -88 181 C-103.81459361 174.60040451 -120.63721208 179.7085981 -131 193 Z M98.875 195.0625 C88.42189553 207.27172602 84.96183687 221.31163521 85.8046875 236.97460938 C86.7509659 246.78751635 92.2575774 254.65244362 99.25 261.25 C106.8306846 267.36453021 116.07741317 269.47917759 125.65234375 268.81640625 C139.05743834 266.95084789 149.91316568 259.61380832 158.2578125 249.17578125 C165.76109137 238.58535996 170.24879385 226.1346353 169 213 C166.97334178 201.95769309 163.43557039 192.68574191 155 185 C136.23383615 172.8283012 113.23023315 180.21035493 98.875 195.0625 Z M-21 223 C-26.91424172 230.86946331 -30.56520964 239.49413777 -34.375 248.5 C-38.5319012 258.231511 -42.77013973 266.1852632 -50 274 C-50.55655273 274.61552734 -51.11310547 275.23105469 -51.68652344 275.86523438 C-56.88132747 281.60227593 -62.18015003 287.21827526 -67.69921875 292.64453125 C-77.94925629 302.85890408 -84.8399425 315.73440778 -85.375 330.25 C-85.17875957 340.83471827 -81.79949427 349.02367018 -75 357 C-74.4225 357.86625 -73.845 358.7325 -73.25 359.625 C-65.80873202 367.47967176 -54.72877538 371.45245733 -44.1328125 372.203125 C-30.28114722 372.41899511 -17.49893733 369.07395559 -4.35742188 365.06982422 C6.89307798 361.6873351 17.41030023 361.09243321 28.875 363.6875 C29.68291992 363.86321533 30.49083984 364.03893066 31.32324219 364.2199707 C38.13028326 365.73111279 44.87406512 367.47520464 51.59326172 369.33666992 C66.02246215 373.29153816 81.03703913 373.71205926 94.6875 366.875 C104.42588482 360.9296455 111.35823975 352.11040212 114.5534668 341.09130859 C116.72216662 330.93434703 116.25207336 318.02488057 111 309 C104.49854116 299.33827731 96.53394312 290.91400339 88.55615234 282.47216797 C76.95299353 270.1660241 68.80253184 257.49122061 62.4375 241.8125 C56.94553228 228.40353985 49.90764829 215.94927451 36 210 C29.08267914 207.84938567 22.25863119 207.66485642 15.0625 207.6875 C13.53206055 207.66333008 13.53206055 207.66333008 11.97070312 207.63867188 C-2.08226356 207.6297038 -11.8620886 212.31887396 -21 223 Z " fill="#E7E0B5" transform="translate(332,99)"/>
<path d="M0 0 C-3.65911811 1.21970604 -4.43881321 0.63942883 -7.875 -0.875 C-15.17725297 -4.06833999 -21.80876744 -4.21159058 -29.6875 -4.25 C-30.72583984 -4.270625 -31.76417969 -4.29125 -32.83398438 -4.3125 C-44.2391431 -4.36970456 -52.85091507 -1.82037505 -61.375 5.9375 C-69.49398122 14.46420298 -73.85918252 24.81552708 -78.375 35.5 C-82.53152312 45.23158183 -86.77024494 53.18537692 -94 61 C-94.55655273 61.61552734 -95.11310547 62.23105469 -95.68652344 62.86523438 C-100.88132747 68.60227593 -106.18015003 74.21827526 -111.69921875 79.64453125 C-123.64363107 91.54738333 -129.40589682 106.42132691 -131 123 C-131.33 123 -131.66 123 -132 123 C-133.03515534 107.04135521 -127.58546292 94.00643653 -117.3125 82.03320312 C-113.00136838 77.23428183 -108.50326951 72.61764949 -104 68 C-92.8549901 56.47565221 -85.46245045 45.46740328 -79.26708984 30.63549805 C-73.59855251 17.1281903 -65.67718299 2.69290687 -51.96484375 -3.9921875 C-36.50136202 -10.24908762 -13.95221987 -9.19578128 0 0 Z " fill="#F8F6DA" transform="translate(377,312)"/>
<path d="M0 0 C0 0.33 0 0.66 0 1 C-1.14984375 0.84402344 -2.2996875 0.68804687 -3.484375 0.52734375 C-17.02213648 -1.14255163 -27.89415301 -1.10256066 -39.1484375 7.67578125 C-46.7349327 14.63807115 -49.99806403 24.06481006 -50.43359375 34.20507812 C-50.47847942 35.62953805 -50.52273364 37.05401799 -50.56640625 38.47851562 C-50.79699046 43.79699046 -50.79699046 43.79699046 -53 46 C-53.56728707 29.44362194 -51.72235698 18.40719725 -40.625 5.38671875 C-38.29811048 3.40103178 -35.74423664 2.21348797 -33 0.875 C-31.948125 0.35679687 -30.89625 -0.16140625 -29.8125 -0.6953125 C-20.46850058 -5.02989001 -9.30219791 -3.91671491 0 0 Z " fill="#F8F6DD" transform="translate(246,279)"/>
<path d="M0 0 C0.88365234 0.00451172 1.76730469 0.00902344 2.67773438 0.01367188 C4.84768559 0.02540134 7.01760172 0.04333505 9.1875 0.0625 C9.1875 0.3925 9.1875 0.7225 9.1875 1.0625 C7.44726562 1.08376953 7.44726562 1.08376953 5.671875 1.10546875 C-10.48708038 1.5111329 -22.04000978 5.79789263 -33.4375 17.625 C-43.62943148 29.8316156 -47.16420336 44.54809073 -47.8125 60.0625 C-48.1425 60.0625 -48.4725 60.0625 -48.8125 60.0625 C-48.83962351 57.66658962 -48.8593982 55.27099043 -48.875 52.875 C-48.88337891 52.20146484 -48.89175781 51.52792969 -48.90039062 50.83398438 C-48.91865652 47.08947511 -48.58818725 43.71390585 -47.8125 40.0625 C-47.86306733 38.72752241 -47.94445321 37.39320928 -48.0625 36.0625 C-48.093032 32.7772565 -48.02479873 32.30696521 -45.75 29.6875 C-44.780625 28.82125 -43.81125 27.955 -42.8125 27.0625 C-41.6121493 25.44106956 -40.44812399 23.79240416 -39.3125 22.125 C-32.68998127 12.53865597 -24.44487181 3.71781162 -12.7578125 0.49609375 C-8.50106497 -0.13056272 -4.29567533 -0.04164339 0 0 Z " fill="#FAF9E0" transform="translate(464.8125,276.9375)"/>
<path d="M0 0 C1.34094727 -0.0299707 1.34094727 -0.0299707 2.70898438 -0.06054688 C9.01651413 -0.05593273 13.00302065 1.23515219 18.4375 4.4375 C15.00679801 5.58106733 14.56328646 5.30193186 11.375 4 C2.14480728 0.75454514 -9.3125157 1.77312808 -18.265625 5.58984375 C-28.20471947 11.09293133 -34.10901547 19.18099017 -38.5625 29.4375 C-38.8821875 30.159375 -39.201875 30.88125 -39.53125 31.625 C-40.22645503 33.22139673 -40.89777756 34.828172 -41.5625 36.4375 C-43.04967496 32.11205649 -41.76265726 29.85184414 -39.87109375 25.87890625 C-37.7169108 21.85990821 -35.21027865 18.14439011 -32.5625 14.4375 C-31.964375 13.550625 -31.36625 12.66375 -30.75 11.75 C-22.28579351 2.80212457 -11.9853742 -0.09546641 0 0 Z " fill="#F7F4D8" transform="translate(401.5625,190.5625)"/>
<path d="M0 0 C0.928125 0.20625 1.85625 0.4125 2.8125 0.625 C1.3610179 4.280347 -0.35580714 5.67653722 -3.6953125 7.68359375 C-4.60023438 8.23466797 -5.50515625 8.78574219 -6.4375 9.35351562 C-7.38625 9.91748047 -8.335 10.48144531 -9.3125 11.0625 C-11.16930056 12.1861488 -13.02607181 13.30984603 -14.8828125 14.43359375 C-15.78161133 14.96968262 -16.68041016 15.50577148 -17.60644531 16.05810547 C-20.60325528 17.87739476 -23.52634545 19.79661121 -26.42919922 21.76196289 C-28.1875 22.625 -28.1875 22.625 -32.1875 22.625 C-31.8575 20.975 -31.5275 19.325 -31.1875 17.625 C-29.8675 17.295 -28.5475 16.965 -27.1875 16.625 C-27.1875 17.285 -27.1875 17.945 -27.1875 18.625 C-26.5275 18.625 -25.8675 18.625 -25.1875 18.625 C-24.8575 17.635 -24.5275 16.645 -24.1875 15.625 C-21.88381264 14.55847808 -19.54731813 13.56078995 -17.1875 12.625 C-16.1975 11.965 -15.2075 11.305 -14.1875 10.625 C-14.5175 9.965 -14.8475 9.305 -15.1875 8.625 C-14.62160156 8.45484375 -14.05570312 8.2846875 -13.47265625 8.109375 C-12.73917969 7.86703125 -12.00570313 7.6246875 -11.25 7.375 C-10.51910156 7.14296875 -9.78820312 6.9109375 -9.03515625 6.671875 C-6.98540287 5.79579478 -6.98540287 5.79579478 -6.62109375 3.640625 C-6.40646484 2.64289062 -6.40646484 2.64289062 -6.1875 1.625 C-3.1875 -0.375 -3.1875 -0.375 0 0 Z " fill="#EBE7C4" transform="translate(416.1875,578.375)"/>
<path d="M0 0 C1.39412109 -0.02126953 1.39412109 -0.02126953 2.81640625 -0.04296875 C5.51238389 0.19408443 7.13157875 0.81479864 9.4375 2.1875 C7.80554688 2.20876953 7.80554688 2.20876953 6.140625 2.23046875 C-6.17239616 2.55934068 -16.62278327 4.45950271 -25.8828125 13.296875 C-30.07400164 18.01439952 -32.86779501 23.51443685 -35.5625 29.1875 C-36.77511605 25.54965186 -36.3163616 24.91603859 -34.6875 21.5625 C-29.26687869 11.37470215 -21.21109569 5.3517553 -10.5625 1.1875 C-7.0116984 0.27633007 -3.66092489 0.02545845 0 0 Z " fill="#F9F7DE" transform="translate(295.5625,189.8125)"/>
<path d="M0 0 C0.33 0.99 0.66 1.98 1 3 C-0.51953125 5.4609375 -0.51953125 5.4609375 -2.8125 8.375 C-3.4168689 9.1498877 -3.4168689 9.1498877 -4.03344727 9.94042969 C-4.89732678 11.04802709 -5.76489915 12.15275205 -6.63574219 13.25488281 C-8.03527257 15.0451196 -9.39981035 16.85778951 -10.7578125 18.6796875 C-11.65098518 19.86983406 -12.54421294 21.05993929 -13.4375 22.25 C-13.86200439 22.82282715 -14.28650879 23.3956543 -14.72387695 23.98583984 C-15.76869792 25.36108149 -16.87897545 26.6861338 -18 28 C-18.66 28 -19.32 28 -20 28 C-19.34 24.7 -18.68 21.4 -18 18 C-16.35 18.33 -14.7 18.66 -13 19 C-13 18.34 -13 17.68 -13 17 C-13.66 16.67 -14.32 16.34 -15 16 C-14.34 16 -13.68 16 -13 16 C-12.67 15.34 -12.34 14.68 -12 14 C-11.34 14.33 -10.68 14.66 -10 15 C-9.566875 13.5459375 -9.566875 13.5459375 -9.125 12.0625 C-8 9 -8 9 -6 8 C-5.67 7.01 -5.34 6.02 -5 5 C-4.34 5 -3.68 5 -3 5 C-3 4.01 -3 3.02 -3 2 C-2.01 1.34 -1.02 0.68 0 0 Z " fill="#EAE5C1" transform="translate(597,411)"/>
<path d="M0 0 C0.495 0.99 0.495 0.99 1 2 C-3.37575704 13.12964291 -12.28053534 22.67636014 -23 28 C-30.44057054 30.39906246 -38.38842112 30.90289472 -46 29 C-46 28.67 -46 28.34 -46 28 C-44.741875 28.04125 -43.48375 28.0825 -42.1875 28.125 C-30.00846961 28.04876194 -19.81519992 24.75899993 -10.75 16.375 C-6.20082657 11.54385301 -3.10606437 5.82387068 0 0 Z " fill="#A0997A" transform="translate(434,256)"/>
<path d="M0 0 C13.03219162 4.49948655 26.4172685 19.52267617 35 30 C35.5053125 30.60199219 36.010625 31.20398438 36.53125 31.82421875 C37.69443903 33.21035235 38.84845013 34.60418197 40 36 C39.505 36.99 39.505 36.99 39 38 C38.19175781 37.11957031 37.38351562 36.23914063 36.55078125 35.33203125 C35.47141058 34.15880226 34.39198033 32.98562809 33.3125 31.8125 C32.78205078 31.23435547 32.25160156 30.65621094 31.70507812 30.06054688 C28.54344383 26.62736117 25.31464348 23.28715887 22 20 C21.34 19.30519531 20.68 18.61039063 20 17.89453125 C15.08016048 12.77290144 9.85700053 8.40559445 4.16601562 4.18676758 C2.76281706 3.14377627 1.3792757 2.07442805 0 1 C0 0.67 0 0.34 0 0 Z " fill="#999578" transform="translate(579,93)"/>
<path d="M0 0 C0.66 0 1.32 0 2 0 C2.30292969 0.83402344 2.60585938 1.66804687 2.91796875 2.52734375 C5.23733805 8.75752651 7.62993917 14.56247832 11.1796875 20.1953125 C12 22 12 22 11 25 C9.0625 24.625 9.0625 24.625 7 24 C6 22 6 22 6.58984375 20.1640625 C7.15971918 17.15729116 6.14468141 15.93907719 4.5625 13.375 C2 9.17166213 2 9.17166213 2 7 C1.34 7 0.68 7 0 7 C-1.04449911 3.86650268 -0.93423645 3.01031744 0 0 Z " fill="#E9E3BE" transform="translate(259,252)"/>
<path d="M0 0 C3.52081558 -0.02927632 7.04159939 -0.04689119 10.5625 -0.0625 C11.55314453 -0.07087891 12.54378906 -0.07925781 13.56445312 -0.08789062 C27.47143955 -0.13409324 27.47143955 -0.13409324 30.9375 2.4375 C32 4 32 4 32 6 C33.32 6.66 34.64 7.32 36 8 C35.01 8.33 34.02 8.66 33 9 C31.16796875 8.07421875 31.16796875 8.07421875 29.1875 6.6875 C22.80427911 2.24090501 16.68918369 1.64840423 9.125 1.375 C8.24585938 1.33632813 7.36671875 1.29765625 6.4609375 1.2578125 C4.30761207 1.16418966 2.15383586 1.08103541 0 1 C0 0.67 0 0.34 0 0 Z " fill="#EEE8C5" transform="translate(456,278)"/>
<path d="M0 0 C1.11328125 1.6640625 1.11328125 1.6640625 2 4 C1.35546875 6.5234375 1.35546875 6.5234375 0.1875 9.375 C-2.32071281 16.2155804 -2.78584234 22.76147103 -3 30 C-3.33 30 -3.66 30 -4 30 C-4.02712351 27.60408962 -4.0468982 25.20849043 -4.0625 22.8125 C-4.07087891 22.13896484 -4.07925781 21.46542969 -4.08789062 20.77148438 C-4.10615457 17.02737649 -3.78393831 13.65001679 -3 10 C-3.00503224 8.60355398 -3.04410387 7.20660997 -3.125 5.8125 C-3.08375 4.554375 -3.0425 3.29625 -3 2 C-2.01 1.34 -1.02 0.68 0 0 Z " fill="#F4F1D2" transform="translate(420,307)"/>
<path d="M0 0 C0.66 1.32 1.32 2.64 2 4 C3.65 4 5.3 4 7 4 C7.103125 5.258125 7.20625 6.51625 7.3125 7.8125 C7.64858808 10.60499657 7.80025876 11.74433121 9.5625 14 C10.036875 14.33 10.51125 14.66 11 15 C10.01 15 9.02 15 8 15 C6.2109375 12.98828125 6.2109375 12.98828125 4.375 10.3125 C3.76398438 9.44238281 3.15296875 8.57226562 2.5234375 7.67578125 C1.01954614 5.03433104 0.39886058 2.99145437 0 0 Z " fill="#D6D0AF" transform="translate(400,353)"/>
<path d="M0 0 C0.66 0 1.32 0 2 0 C2 0.66 2 1.32 2 2 C-0.06663 3.82488441 -2.12885545 5.51437809 -4.3125 7.1875 C-5.20485352 7.90196289 -5.20485352 7.90196289 -6.11523438 8.63085938 C-7.68088917 9.83964984 -9.33689697 10.92923503 -11 12 C-11.99 11.67 -12.98 11.34 -14 11 C-13.360625 10.38125 -12.72125 9.7625 -12.0625 9.125 C-9.96116416 7.17402388 -9.96116416 7.17402388 -9 5 C-7.1875 4 -7.1875 4 -5 3 C-2.3048927 1.77795525 -2.3048927 1.77795525 0 0 Z " fill="#F1EDCD" transform="translate(478,535)"/>
<path d="M0 0 C0.66 0 1.32 0 2 0 C2.33773437 0.83144531 2.67546875 1.66289062 3.0234375 2.51953125 C3.46945313 3.60621094 3.91546875 4.69289063 4.375 5.8125 C4.81585938 6.89144531 5.25671875 7.97039062 5.7109375 9.08203125 C6.9479119 12.10730112 6.9479119 12.10730112 9 15 C8.67 15.99 8.34 16.98 8 18 C7.20602761 16.75146327 6.41492783 15.50109957 5.625 14.25 C4.96371094 13.20585937 4.96371094 13.20585937 4.2890625 12.140625 C3 10 3 10 1.9609375 7.859375 C1.03023276 5.82787912 1.03023276 5.82787912 -1 4 C-0.625 1.875 -0.625 1.875 0 0 Z " fill="#EEEBC5" transform="translate(195,331)"/>
<path d="M0 0 C0.66 0 1.32 0 2 0 C3.65 4.95 5.3 9.9 7 15 C6.01 15.495 6.01 15.495 5 16 C4.01 13.69 3.02 11.38 2 9 C1.01 9.495 1.01 9.495 0 10 C-0.95024979 6.30458414 -0.95024979 3.69541586 0 0 Z " fill="#EFEAC5" transform="translate(417,338)"/>
<path d="M0 0 C-1.34567923 4.03703769 -3.36652273 4.91101516 -6.875 7.25 C-8.47988281 8.34054687 -8.47988281 8.34054687 -10.1171875 9.453125 C-11.54417969 10.21882812 -11.54417969 10.21882812 -13 11 C-13.99 10.67 -14.98 10.34 -16 10 C-15.01 9.67 -14.02 9.34 -13 9 C-12.67 8.01 -12.34 7.02 -12 6 C-10.34795544 5.29788106 -8.68076231 4.63028587 -7 4 C-6.67 3.34 -6.34 2.68 -6 2 C-3.85118612 0.75230162 -2.50320403 0 0 0 Z " fill="#EEEBC8" transform="translate(447,560)"/>
<path d="M0 0 C0.66 0 1.32 0 2 0 C2.70045456 1.91197039 3.384919 3.82980435 4.0625 5.75 C4.44535156 6.81734375 4.82820312 7.8846875 5.22265625 8.984375 C5.98010011 11.92280042 6.07151741 13.22348948 5 16 C2 10.375 2 10.375 2 7 C1.34 7 0.68 7 0 7 C-0.93423645 3.98968256 -1.04449911 3.13349732 0 0 Z " fill="#EEEAC8" transform="translate(246,436)"/>
<path d="M0 0 C0.66 0 1.32 0 2 0 C2.70088156 1.74468372 3.38524009 3.49601161 4.0625 5.25 C4.44535156 6.22453125 4.82820313 7.1990625 5.22265625 8.203125 C6.01113787 11.04007395 6.02437812 12.29409552 5 15 C2 9.25 2 9.25 2 7 C1.34 7 0.68 7 0 7 C-1.04449911 3.86650268 -0.93423645 3.01031744 0 0 Z " fill="#EFEBC7" transform="translate(259,252)"/>
<path d="M0 0 C-1 3 -1 3 -4.25 4.6875 C-7.54126631 5.83944321 -9.5872117 6.31025348 -13 6 C-11.0417761 4.0417761 -9.51051799 3.10584703 -7.0625 1.875 C-6.37285156 1.52179687 -5.68320312 1.16859375 -4.97265625 0.8046875 C-3 0 -3 0 0 0 Z " fill="#EFEBCD" transform="translate(369,609)"/>
<path d="M0 0 C2.51239382 3.76859072 3.12663199 6.26239249 3.0625 10.6875 C3.05347656 11.49574219 3.04445313 12.30398438 3.03515625 13.13671875 C3.02355469 13.75160156 3.01195312 14.36648438 3 15 C1.38274466 11.99049877 0.32417377 9.02896392 -0.625 5.75 C-1.01558594 4.41195313 -1.01558594 4.41195313 -1.4140625 3.046875 C-1.60742188 2.37140625 -1.80078125 1.6959375 -2 1 C-1.34 0.67 -0.68 0.34 0 0 Z " fill="#EBE5C4" transform="translate(275,305)"/>
<path d="M0 0 C2.475 0.99 2.475 0.99 5 2 C4.67 2.99 4.34 3.98 4 5 C4.99 6.485 4.99 6.485 6 8 C2.06326356 6.68775452 -0.22719294 5.08089673 -3 2 C-2.34 2 -1.68 2 -1 2 C-0.67 1.34 -0.34 0.68 0 0 Z " fill="#CEC7A3" transform="translate(278,578)"/>
<path d="M0 0 C1.32 0 2.64 0 4 0 C4 0.66 4 1.32 4 2 C5.32 2.66 6.64 3.32 8 4 C7.67 5.32 7.34 6.64 7 8 C5.5 6.625 5.5 6.625 4 5 C4 4.34 4 3.68 4 3 C2.68 2.67 1.36 2.34 0 2 C0 1.34 0 0.68 0 0 Z " fill="#DCD7B4" transform="translate(146,471)"/>
<path d="M0 0 C0.99 0.33 1.98 0.66 3 1 C2.43697042 4.94120709 1.3208055 7.7508723 -1 11 C-1.66 11 -2.32 11 -3 11 C-2.690625 10.236875 -2.38125 9.47375 -2.0625 8.6875 C-1.32106407 6.81210323 -0.63771783 4.91315348 0 3 C-0.66 2.67 -1.32 2.34 -2 2 C-1.34 2 -0.68 2 0 2 C0 1.34 0 0.68 0 0 Z " fill="#ECE8C6" transform="translate(611,385)"/>
<path d="M0 0 C0.66 0.66 1.32 1.32 2 2 C0.88625 1.855625 -0.2275 1.71125 -1.375 1.5625 C-6.24126788 0.95203629 -11.11846586 0.47014775 -16 0 C-16 -0.33 -16 -0.66 -16 -1 C-9.94596889 -2.08107698 -5.86408675 -1.92099393 0 0 Z " fill="#F2F0CE" transform="translate(244,278)"/>
<path d="M0 0 C0 1.32 0 2.64 0 4 C-0.7425 4.2475 -1.485 4.495 -2.25 4.75 C-5.20124062 6.09147301 -6.84814974 7.60905526 -9 10 C-9.66 9.67 -10.32 9.34 -11 9 C-9.54782324 7.49403892 -8.08807139 5.99537896 -6.625 4.5 C-5.40683594 3.24703125 -5.40683594 3.24703125 -4.1640625 1.96875 C-2 0 -2 0 0 0 Z " fill="#DCD8B4" transform="translate(103,106)"/>
<path d="M0 0 C0.66 0 1.32 0 2 0 C0.50902342 3.7952131 -1.75700849 5.61042731 -5 8 C-5.33 7.01 -5.66 6.02 -6 5 C-4.68 3.68 -3.36 2.36 -2 1 C-1.34 1.33 -0.68 1.66 0 2 C0 1.34 0 0.68 0 0 Z " fill="#EDEAC9" transform="translate(561,456)"/>
<path d="M0 0 C0.33 0.99 0.66 1.98 1 3 C-4.14285714 8.57142857 -4.14285714 8.57142857 -8 9 C-8.33 8.34 -8.66 7.68 -9 7 C-7.88625 6.38125 -7.88625 6.38125 -6.75 5.75 C-4.09828315 4.06254382 -2.13325986 2.29127911 0 0 Z " fill="#F0ECC8" transform="translate(532,486)"/>
<path d="M0 0 C0.99 0.66 1.98 1.32 3 2 C1.75 3.5 1.75 3.5 0 5 C-1.32 5 -2.64 5 -4 5 C-4 4.01 -4 3.02 -4 2 C-2.68 1.34 -1.36 0.68 0 0 Z " fill="#EBE7C6" transform="translate(379,601)"/>
<path d="M0 0 C-1 3 -1 3 -3.375 4.75 C-6 6 -6 6 -9 5 C-4.5 0 -4.5 0 0 0 Z " fill="#EDEACC" transform="translate(430,572)"/>
<path d="M0 0 C2.3125 -0.3125 2.3125 -0.3125 5 0 C6.81883009 2.3832946 8 3.95818337 8 7 C4.2047869 5.50902342 2.38957269 3.24299151 0 0 Z " fill="#EBE5C5" transform="translate(183,506)"/>
<path d="M0 0 C0.66 1.32 1.32 2.64 2 4 C1.01 4.99 0.02 5.98 -1 7 C-1.99 6.67 -2.98 6.34 -4 6 C-3.67 4.35 -3.34 2.7 -3 1 C-2.01 0.67 -1.02 0.34 0 0 Z " fill="#ECE5C2" transform="translate(540,476)"/>
<path d="M0 0 C2.31 1.65 4.62 3.3 7 5 C6.34 6.32 5.68 7.64 5 9 C2.5 6.75 2.5 6.75 0 4 C0 2.68 0 1.36 0 0 Z " fill="#E0D9B7" transform="translate(209,353)"/>
<path d="M0 0 C2.97 0.495 2.97 0.495 6 1 C6.33 1.99 6.66 2.98 7 4 C6.01 4.495 6.01 4.495 5 5 C4.67 5.66 4.34 6.32 4 7 C0 2.25 0 2.25 0 0 Z " fill="#DED7B3" transform="translate(383,320)"/>
<path d="M0 0 C2 1 2 1 2.8515625 3.06640625 C3.10679687 3.89011719 3.36203125 4.71382813 3.625 5.5625 C3.88539063 6.38878906 4.14578125 7.21507812 4.4140625 8.06640625 C4.60742188 8.70449219 4.80078125 9.34257812 5 10 C4.34 10.66 3.68 11.32 3 12 C2.49166409 10.75336669 1.99368855 9.50250613 1.5 8.25 C1.2215625 7.55390625 0.943125 6.8578125 0.65625 6.140625 C0 4 0 4 0 0 Z " fill="#F3F0CE" transform="translate(359,253)"/>
<path d="M0 0 C0 2 0 2 -1.42578125 3.54296875 C-2.04839844 4.08566406 -2.67101562 4.62835937 -3.3125 5.1875 C-3.92738281 5.73792969 -4.54226563 6.28835938 -5.17578125 6.85546875 C-5.77777344 7.23316406 -6.37976563 7.61085938 -7 8 C-7.99 7.67 -8.98 7.34 -10 7 C-8.71372289 5.82739389 -7.42080217 4.6620717 -6.125 3.5 C-5.04605469 2.52546875 -5.04605469 2.52546875 -3.9453125 1.53125 C-2 0 -2 0 0 0 Z " fill="#F5F2D6" transform="translate(493,524)"/>
<path d="M0 0 C1.65 1.65 3.3 3.3 5 5 C3.02 5.33 1.04 5.66 -1 6 C-1 2 -1 2 0 0 Z " fill="#DEDAAF" transform="translate(425,354)"/>
<path d="M0 0 C0.33 0.99 0.66 1.98 1 3 C-0.65 4.65 -2.3 6.3 -4 8 C-4.33 7.01 -4.66 6.02 -5 5 C-4.34 5 -3.68 5 -3 5 C-3 4.01 -3 3.02 -3 2 C-2.01 1.34 -1.02 0.68 0 0 Z " fill="#EDEACE" transform="translate(597,411)"/>
<path d="M0 0 C0.99 0.99 1.98 1.98 3 3 C2.77669287 6.64734979 2.61627165 8.38372835 0 11 C0 7.37 0 3.74 0 0 Z " fill="#CEC9AD" transform="translate(39,226)"/>
<path d="M0 0 C4.875 4.625 4.875 4.625 6 8 C5.34 8 4.68 8 4 8 C4 7.34 4 6.68 4 6 C2.68 5.34 1.36 4.68 0 4 C0 2.68 0 1.36 0 0 Z " fill="#EAE5C2" transform="translate(621,136)"/>
<path d="M0 0 C1.32 0 2.64 0 4 0 C2.84826645 2.46800047 1.95216435 4.04783565 0 6 C-0.99 5.67 -1.98 5.34 -3 5 C-2.505 4.360625 -2.01 3.72125 -1.5 3.0625 C0.09802862 1.29025661 0.09802862 1.29025661 0 0 Z " fill="#EFECCA" transform="translate(509,506)"/>
<path d="M0 0 C2.86724686 0.57344937 3.8614515 0.8614515 6 3 C5.625 5.125 5.625 5.125 5 7 C1.18461538 4.53846154 1.18461538 4.53846154 0.25 1.8125 C0.1675 1.214375 0.085 0.61625 0 0 Z " fill="#ECE6C5" transform="translate(432,392)"/>
<path d="M0 0 C0.66 0 1.32 0 2 0 C2 2.31 2 4.62 2 7 C1.34 7 0.68 7 0 7 C-0.33 7.66 -0.66 8.32 -1 9 C-2.0326802 6.21176345 -2.04509293 5.1322726 -1.0625 2.25 C-0.711875 1.5075 -0.36125 0.765 0 0 Z " fill="#EBE6C5" transform="translate(646,307)"/>
<path d="M0 0 C0.99 0 1.98 0 3 0 C2.67 2.64 2.34 5.28 2 8 C1.34 8 0.68 8 0 8 C0 5.36 0 2.72 0 0 Z " fill="#F1EDC8" transform="translate(257,219)"/>
<path d="M0 0 C1.60031344 3.20062687 0.03173691 5.72271806 -1 9 C-1.33 8.34 -1.66 7.68 -2 7 C-2.99 6.67 -3.98 6.34 -5 6 C-3.35 4.02 -1.7 2.04 0 0 Z " fill="#DCD7B6" transform="translate(75,134)"/>
<path d="M0 0 C0.6875 1.75 0.6875 1.75 1 4 C-0.3125 6.25 -0.3125 6.25 -2 8 C-2.66 8 -3.32 8 -4 8 C-3.40138258 5.64828869 -2.73075648 3.3140622 -2 1 C-1.34 0.67 -0.68 0.34 0 0 Z " fill="#EDEAC9" transform="translate(604,400)"/>
<path d="M0 0 C4.455 1.98 4.455 1.98 9 4 C4.70600835 5.07349791 3.80504787 4.79682816 0 3 C0 2.01 0 1.02 0 0 Z " fill="#E3DEC0" transform="translate(545,75)"/>
<path d="M0 0 C-1.13474948 3.40424844 -1.96811304 4.21653709 -5 6 C-5.99 5.67 -6.98 5.34 -8 5 C-2.25 0 -2.25 0 0 0 Z " fill="#F3F0CF" transform="translate(463,548)"/>
</svg>
