<svg version="1.1" xmlns="http://www.w3.org/2000/svg" style="display: block;" viewBox="0 0 2000 2000" width="500" height="500" preserveAspectRatio="none">
<path transform="translate(0,0)" fill="rgb(48,65,109)" d="M 569.7 229.567 C 582.395 228.52 593.117 230.286 605.678 231.1 C 667.055 235.05 728.595 261.13 775.959 299.962 C 785.192 307.531 795.099 319.086 805.137 324.959 C 821.492 324.208 841.583 324.766 858.343 324.755 L 958.979 324.745 L 1264.52 324.777 L 1469.67 324.784 L 1527.05 324.665 C 1543.73 324.585 1567.51 320.951 1578.76 336.124 C 1582.12 340.643 1583.32 356.026 1583.47 361.791 C 1584.19 388.459 1583.81 415.237 1583.82 441.933 L 1583.87 593.024 L 1583.66 675.607 C 1583.71 684.934 1585.26 737.568 1580.21 741.731 C 1560.78 757.72 1540.03 776.057 1520.03 791.206 L 1520.03 390.45 C 1484.24 392.077 1440.94 390.702 1404.36 390.852 L 1136 390.887 L 948.547 390.993 C 921.846 391.064 877.029 392.616 851.632 391.07 C 872.758 421.007 884.078 472.115 888.891 508.259 C 890.02 516.742 892.029 527.829 891.19 536.062 C 1006.32 534.785 1122.58 536.944 1237.81 536.025 C 1285.97 535.64 1334.72 536.734 1382.82 535.503 C 1383.43 544.579 1384.8 593.188 1381.21 599.457 C 1370.25 602.136 1342.37 601.002 1329.51 600.996 L 1259.86 601.158 L 1002.65 601.041 C 965.278 601.247 919.938 599.467 883.492 602.15 C 876.178 650.051 863.35 668.958 842.54 708.787 C 871.93 707.099 910.457 708.264 940.528 708.283 L 1117.06 708.293 C 1142.25 708.275 1175.19 709.225 1199.73 707.645 C 1200.2 728.084 1200.09 753.454 1199.83 773.895 C 1180.48 772.822 1152.12 773.671 1131.95 773.695 L 1007.83 773.674 L 872.566 773.632 C 844.66 773.607 814.265 772.98 786.598 774.302 C 779.152 780.009 772.215 786.058 764.749 791.679 C 697.296 842.456 621.75 859.25 538.853 850.96 C 517.796 848.854 503.516 843.329 484.654 840.778 C 483.548 845.34 483.66 871.906 483.638 877.698 L 483.651 964.859 C 483.727 1068.84 482.063 1176.5 484.007 1280.12 C 498.302 1281.06 517.118 1280.57 531.748 1280.58 L 615.122 1280.59 C 691.993 1280.85 768.865 1280.69 845.734 1280.12 C 840.796 1264.44 839.168 1244.51 840.96 1228.2 C 845.52 1186.68 865.454 1165.46 896.175 1140.77 C 873.969 1141.63 854.283 1141.16 832.129 1140.53 C 816.984 1140.59 798.567 1144.55 783.679 1142.98 C 748.813 1139.3 715.814 1140.89 681.003 1141.02 L 580.4 1140.46 C 581.012 1121.32 581.45 1094.58 580.307 1075.49 L 845.965 1075.01 C 885.479 1074.86 925.053 1075.77 964.593 1075.13 C 982.83 1074.84 988.778 1065.69 1002.58 1054.75 L 1059.3 1009.05 C 1080.75 991.577 1102.66 975.416 1124.42 957.519 C 1121.28 957.501 1116.7 957.014 1113.45 956.776 L 894.479 956.771 L 580.198 956.4 C 580.292 934.292 580.643 915.108 580.171 892.703 C 598.413 891.718 620.045 892.257 638.661 892.267 L 739.701 892.341 L 1045.7 892.382 C 1097.09 892.353 1155.75 893.749 1206.42 891.94 C 1223.41 881.426 1238 866.988 1253.75 855.223 C 1297.92 822.237 1332.41 780.811 1393.04 789.635 C 1447.71 797.59 1469.84 834.314 1500.09 874.457 C 1508.91 867.723 1522.27 851.972 1531.9 843.822 C 1575.6 807.155 1618.81 769.917 1661.54 732.117 C 1665.58 728.511 1668.72 724.72 1673.14 720.784 C 1663.4 710.401 1635.12 681.131 1629.42 670.256 C 1625.89 663.372 1624.06 655.742 1624.09 648.005 C 1623.8 604.396 1673.27 584.565 1705.73 611.362 C 1712.73 617.147 1719.83 626.133 1726.13 632.993 L 1771.97 682.962 C 1795.7 709.102 1819.77 735.36 1844.18 760.86 C 1867.44 785.159 1871.21 816.756 1843.01 839.139 C 1832.48 847.476 1818.95 851.043 1805.68 848.98 C 1800.46 848.187 1790.53 845.215 1786.59 842.047 C 1771.29 829.74 1742.34 799.477 1731.18 784.44 L 1730.31 783.262 C 1711.01 800.86 1693.23 815.386 1673.76 832.266 L 1552.76 938.675 C 1565.25 959.112 1585.5 978.438 1597.49 1000.23 C 1612.26 1027.08 1613.94 1057.66 1605.2 1086.86 C 1600.52 1102.22 1592.1 1116.17 1580.7 1127.46 C 1568.34 1139.51 1557.86 1146.6 1544.79 1157.13 C 1528.36 1170.36 1511.95 1184.02 1495.6 1197.4 L 1281.39 1369.39 L 1179.79 1452.14 C 1163.38 1465.36 1143.03 1483.24 1124.86 1493.27 C 1085.04 1515.25 1009.77 1504.58 987.204 1461.13 C 951.099 1495.09 899.478 1512.86 854.258 1484.9 C 843.822 1490.12 827.989 1505.51 818.518 1513.08 C 803.895 1524.63 789.325 1536.73 774.578 1548.1 C 750.867 1566.4 728.912 1591.14 699.699 1600.22 C 690.081 1603.38 682.84 1603.4 673.848 1598.69 C 655.996 1590.53 670.472 1562.02 679.897 1551.93 C 695.32 1535.41 717.583 1519.81 735.031 1505.16 C 760.7 1483.61 787.575 1463.95 813.099 1442.46 C 816.018 1440 808.994 1412.55 809.335 1407.81 C 808.58 1385.13 815.314 1364.26 827.258 1345.08 C 785.295 1345.99 740.915 1345.09 698.707 1345.16 L 463.411 1345.38 C 446.348 1345.32 422.353 1344.17 420.901 1321.33 C 419.339 1296.74 420.352 1271.47 420.307 1246.73 L 420.256 1096.38 L 420.31 904.73 C 420.311 875.725 419.093 838.497 420.404 810.326 C 361.253 776.827 314.436 721.831 287.37 659.742 C 281.708 644.873 277.474 628.39 273.496 613.129 C 233.663 460.347 324.705 298.976 472.948 247.294 C 507.332 235.306 533.384 231.755 569.7 229.567 z M 584.491 791.06 C 722.614 787.343 831.45 672.146 827.326 534.035 C 823.201 395.925 707.684 287.428 569.586 291.959 C 432.063 296.472 324.115 411.404 328.223 548.94 C 332.33 686.477 446.943 794.762 584.491 791.06 z M 1246.86 936.582 L 1247.71 938.09 C 1255.01 950.763 1274.4 973.878 1283.96 985.879 C 1305.01 1012.03 1325.8 1038.4 1346.31 1064.98 C 1353.88 1074.8 1362.33 1083.05 1368.89 1093.58 C 1383.77 1117.46 1362.77 1144.59 1336.19 1136.71 C 1328.87 1134.54 1325.68 1130.08 1320.43 1124.74 C 1309.24 1111.49 1298.36 1097.19 1287.5 1083.57 C 1266.22 1057.4 1245.29 1030.94 1224.71 1004.2 C 1219.93 998.009 1202.39 977.785 1199.72 973.089 C 1190.28 982.576 1169.31 997.321 1158.25 1006.39 C 1151.52 1011.91 1129.75 1029.51 1123.96 1032.82 C 1162.16 1084.97 1206.96 1133.49 1243 1187.24 C 1245.95 1191.64 1247.02 1200.6 1245.49 1205.99 C 1240.27 1224.44 1226.14 1231.01 1207.68 1227.02 C 1202.47 1225.9 1198.19 1220.11 1194.51 1216.55 C 1179.25 1199.23 1165.8 1180.16 1151.41 1162.12 L 1100.91 1098.12 C 1093.73 1089.04 1084.95 1079.01 1078.18 1069.97 C 1070.02 1078.75 1058.38 1085.04 1049.47 1093.01 C 1035.83 1105.23 1017.6 1116.2 1004.77 1128.99 C 1038.4 1169.96 1070.14 1212.89 1103.28 1254.3 C 1120.06 1275.26 1142.99 1296.81 1117.2 1321.35 C 1097.19 1332.91 1087.75 1326.53 1074.47 1310.65 C 1064.47 1298.68 1055.08 1286.34 1045.51 1274.04 C 1030.73 1255.03 1015.84 1236.11 1000.86 1217.26 L 973.116 1182.45 C 969.161 1177.54 961.078 1168.28 958.183 1163.39 C 934.842 1187.66 895.631 1203.32 896.673 1241.73 C 897.252 1263.06 915.576 1280.51 928.171 1296.55 C 946.363 1319.75 964.714 1342.83 983.221 1365.78 C 1002.47 1389.74 1020.92 1414.98 1041.87 1437.44 C 1049.08 1445.17 1067.11 1449.51 1077.46 1448.84 C 1101.7 1447.26 1118.77 1427.79 1136.86 1412.88 L 1189.18 1369.94 L 1340.87 1245.23 L 1477.01 1136.14 C 1491.7 1124.47 1507.33 1113.47 1521.65 1101.19 C 1526.95 1096.64 1538.24 1088.67 1542.04 1083.59 C 1549.93 1073.05 1556.01 1061.11 1554.01 1047.56 C 1553.1 1041.39 1551.92 1035.59 1548.48 1030.41 C 1537.88 1014.49 1525.54 999.259 1513.56 984.417 L 1470.68 930.913 C 1451.08 906.475 1429.63 875.593 1406.54 854.19 C 1400.83 848.903 1383.82 844.171 1374.97 845.257 C 1354.03 849.209 1349.88 854.57 1333.72 867.486 L 1302.59 892.08 L 1264.62 921.864 C 1258.62 926.613 1252.06 931.062 1246.86 936.582 z"/>
<path transform="translate(0,0)" fill="rgb(48,65,109)" d="M 563.831 532.44 C 635.819 525.29 715.193 592.806 712.984 667.915 C 711.948 684.017 706.236 700.481 693.384 710.773 C 657.353 739.628 621.58 710.559 585.241 707.408 C 551.57 704.437 532.969 719.271 501.879 723.18 C 467.036 725.662 440.816 705.738 438.199 669.779 C 433.502 605.218 500.749 536.729 563.831 532.44 z"/>
<path transform="translate(0,0)" fill="rgb(48,65,109)" d="M 502.307 364.196 C 570.004 360.476 585.565 490.541 521.322 503.912 C 450.452 504.337 440.654 374.94 502.307 364.196 z"/>
<path transform="translate(0,0)" fill="rgb(48,65,109)" d="M 640.091 364.225 C 691.68 360.237 698.672 440.854 677.82 472.986 C 665.815 491.487 661.005 497.321 639.151 503.608 C 581.491 506.781 578.589 421.285 604.914 387.872 C 616.207 373.538 622.136 368.718 640.091 364.225 z"/>
<path transform="translate(0,0)" fill="rgb(48,65,109)" d="M 739.325 452.284 C 809.031 443.974 789.801 564.438 730.777 569.297 C 729.732 569.199 724.037 569.778 722.404 569.797 C 712.752 569.911 707.838 567.019 699.607 562.755 C 694.087 553.42 689.329 545.616 687.804 534.749 C 682.943 500.103 701.868 457.581 739.325 452.284 z"/>
<path transform="translate(0,0)" fill="rgb(48,65,109)" d="M 398.286 452.289 C 449.019 447.97 476.814 511.454 457.204 552.552 C 452.458 562.498 441.982 567.644 431.888 570.204 C 373.264 581.997 337.855 462.191 398.286 452.289 z"/>
</svg>