<?xml version="1.0" encoding="UTF-8"?>
<svg version="1.1" xmlns="http://www.w3.org/2000/svg" width="692" height="664">
<path d="M0 0 C1.97322208 1.83881607 3.92568973 3.69840187 5.875 5.5625 C6.80183594 6.43648437 7.72867187 7.31046875 8.68359375 8.2109375 C15.83547487 15.12949484 22.00643084 22.55222793 27.875 30.5625 C28.29104492 31.12888184 28.70708984 31.69526367 29.13574219 32.27880859 C47.04698071 57.02927102 58.36986314 85.61245935 63.875 115.5625 C64.15102051 116.94731567 64.15102051 116.94731567 64.43261719 118.36010742 C66.28753689 128.66053275 66.27332442 138.94346234 66.25 149.375 C66.24912384 150.32892639 66.24824768 151.28285278 66.24734497 152.26568604 C66.11705392 195.26353708 51.1627075 234.80660417 27.15234375 270.3984375 C25.83705448 272.62678691 25.10897147 273.98940463 24.875 276.5625 C26.31551692 278.73020065 26.31551692 278.73020065 28.50390625 280.75 C29.29216797 281.53117187 30.08042969 282.31234375 30.89257812 283.1171875 C31.73240234 283.92414063 32.57222656 284.73109375 33.4375 285.5625 C34.25025391 286.36945313 35.06300781 287.17640625 35.90039062 288.0078125 C39.97432869 291.99941552 43.89237785 295.74923488 48.875 298.5625 C51.67977518 298.47750681 52.80618165 297.6136222 55.0625 295.9375 C59.29325339 293.86913168 62.42723579 294.11923174 66.875 295.5625 C70.87620449 297.83128775 74.33355929 300.63918477 77.875 303.5625 C78.87789063 304.36300781 79.88078125 305.16351563 80.9140625 305.98828125 C91.84897639 314.90965585 101.62235874 325.12203605 111.51000977 335.16577148 C115.9541349 339.66953698 120.44478511 344.12670802 124.92881775 348.59066772 C128.19793935 351.84637831 131.46439387 355.10475923 134.73071289 358.36328125 C136.44921637 360.07674703 138.16861507 361.78931543 139.88891602 363.50097656 C142.38536867 365.98524208 144.87852676 368.47277409 147.37109375 370.9609375 C148.1337706 371.71845306 148.89644745 372.47596863 149.68223572 373.25643921 C153.95966425 377.53342161 158.09521058 381.83505296 161.875 386.5625 C161.875 387.2225 161.875 387.8825 161.875 388.5625 C162.535 388.5625 163.195 388.5625 163.875 388.5625 C165.58101851 390.46176662 167.14227046 392.3503335 168.6875 394.375 C169.13601318 394.95942871 169.58452637 395.54385742 170.04663086 396.14599609 C176.74137338 405.128261 180.72553758 414.296889 179.875 425.5625 C177.92813469 436.95791345 170.8733361 447.43814413 161.875 454.5625 C152.12033656 460.62702719 142.16928919 461.53024474 130.875 460.5625 C121.42118123 458.1342464 113.90983731 449.96242419 106.875 443.5625 C106.06458252 442.82870117 106.06458252 442.82870117 105.23779297 442.08007812 C102.62091569 439.70417599 100.02250053 437.30977547 97.44189453 434.89453125 C95.09972503 432.70434397 92.75155978 430.5209217 90.39819336 428.34277344 C80.46849876 419.12478072 70.8117909 409.65482156 61.24438477 400.06225586 C58.78712218 397.59956613 56.32446683 395.14235798 53.86132812 392.68554688 C52.27051213 391.094071 50.68000587 389.50228546 49.08984375 387.91015625 C48.36683578 387.18917252 47.64382782 386.46818878 46.89891052 385.72535706 C42.90522674 381.71339154 39.08053206 377.60848251 35.39172363 373.31390381 C33.98348739 371.68777346 32.54138376 370.10849893 31.06640625 368.54296875 C14.83746046 351.301221 14.83746046 351.301221 12.875 342.5625 C13.58984375 340.25390625 13.58984375 340.25390625 14.8125 338.125 C16.46568902 335.23856387 16.87410418 333.62580461 16.921875 330.25 C15.50002543 325.24169407 12.81784665 322.61554401 9.1875 319 C8.57455078 318.36642578 7.96160156 317.73285156 7.33007812 317.08007812 C5.52772229 315.22420589 3.70578736 313.39029343 1.875 311.5625 C1.28251465 310.96840332 0.6900293 310.37430664 0.07958984 309.76220703 C-1.31989225 308.36025744 -2.72213033 306.96105978 -4.125 305.5625 C-9.1132167 307.3053709 -13.47303483 310.01155055 -18 312.6875 C-21.37197804 314.65105161 -24.7479781 316.60763727 -28.125 318.5625 C-28.76228027 318.93213867 -29.39956055 319.30177734 -30.05615234 319.68261719 C-42.51815731 326.83679603 -55.81011304 332.21870282 -69.125 337.5625 C-69.86782227 337.86349609 -70.61064453 338.16449219 -71.37597656 338.47460938 C-75.56421729 340.13793315 -79.76278516 341.43648113 -84.125 342.5625 C-84.85976563 342.75424805 -85.59453125 342.94599609 -86.3515625 343.14355469 C-115.21650883 350.25537627 -150.3031043 349.3862444 -179.125 342.5625 C-179.99157227 342.35882813 -180.85814453 342.15515625 -181.75097656 341.9453125 C-214.33059221 333.92114263 -244.60869233 316.25501099 -268.64648438 292.98974609 C-270.18344409 291.50608254 -271.74001765 290.04477723 -273.296875 288.58203125 C-281.93917392 280.33521637 -289.18696076 271.2705948 -296.125 261.5625 C-296.54233398 260.9845166 -296.95966797 260.4065332 -297.38964844 259.81103516 C-320.06128774 227.98902342 -330.59461696 189.32467191 -330.5 150.6875 C-330.49945618 149.84310364 -330.49891235 148.99870728 -330.49835205 148.12872314 C-330.34970494 97.56849112 -312.68717569 50.13477785 -276.75 14.0625 C-275.54386609 12.89355965 -274.33544344 11.72697723 -273.125 10.5625 C-270.70157467 8.15840023 -268.29765365 5.74349291 -265.94140625 3.2734375 C-203.32173362 -61.62528734 -100.99982959 -63.88964891 0 0 Z M-167.125 -16.4375 C-167.80578613 -16.29296387 -168.48657227 -16.14842773 -169.18798828 -15.99951172 C-201.63416396 -9.07469569 -230.05270901 7.88304346 -253.125 31.5625 C-253.681875 32.07425781 -254.23875 32.58601563 -254.8125 33.11328125 C-284.27629495 60.85439464 -299.95888609 104.50323495 -301.31640625 144.14453125 C-302.21379566 189.04814149 -285.53757171 231.66985314 -254.55322266 264.06689453 C-253.60984198 265.05478342 -252.67188208 266.04788081 -251.73974609 267.04638672 C-231.05154201 289.17948125 -203.79221042 305.94539493 -174.125 312.5625 C-173.40666992 312.72967529 -172.68833984 312.89685059 -171.94824219 313.0690918 C-132.0787731 321.80832977 -87.89696277 317.29595506 -52.125 297.5625 C-50.74634766 296.80839844 -50.74634766 296.80839844 -49.33984375 296.0390625 C-16.20729159 277.03116412 11.82471878 245.04455077 25.875 209.5625 C26.29265625 208.50933594 26.7103125 207.45617187 27.140625 206.37109375 C32.51351132 191.62802314 35.41094194 175.23959202 35.875 159.5625 C35.89546387 158.91522949 35.91592773 158.26795898 35.93701172 157.60107422 C37.2277197 110.25022508 23.81446548 72.20907909 -7.125 36.5625 C-8.18798033 35.27122859 -9.25058148 33.97964476 -10.3125 32.6875 C-12.95646058 29.61295156 -15.9069656 26.99909654 -18.99609375 24.37890625 C-21.21172396 22.48850616 -23.35173453 20.52890173 -25.5 18.5625 C-30.11422734 14.4679638 -34.97169767 10.94598133 -40.125 7.5625 C-41.09050781 6.92441406 -42.05601562 6.28632812 -43.05078125 5.62890625 C-69.49203305 -11.26320106 -99.48095083 -19.90575211 -130.8125 -19.75 C-131.55723572 -19.74850952 -132.30197144 -19.74701904 -133.0692749 -19.7454834 C-144.65511933 -19.70388475 -155.80582867 -19.02119392 -167.125 -16.4375 Z " fill="#FCC049" transform="translate(416.125,111.4375)"/>
<path d="M0 0 C1.07894531 0.41765625 1.07894531 0.41765625 2.1796875 0.84375 C10.19890702 4.35404987 15.18763543 10.96741158 20.2265625 17.88671875 C24.35677102 22.80839895 28.45952747 24.67428632 34.5625 26.25 C42.41520667 28.48385095 48.4949415 32.02373285 55 37 C56.0725 37.763125 57.145 38.52625 58.25 39.3125 C68.07530103 48.91449873 73.31147092 59.24294178 73.5625 72.9375 C73.44426653 86.06005592 68.10505268 95.52585367 59.1953125 104.8984375 C48.1474396 115.39620884 33.81111827 119.50521944 18.9152832 119.57348633 C8.80351014 119.27593586 -0.85945341 116.43752298 -10.53076172 113.66430664 C-22.37868213 110.47682479 -32.30546627 112.26126766 -43.6875 116.3125 C-59.4443836 121.81638978 -73.30554119 121.41630242 -88.9296875 114.75 C-102.88030685 107.79445041 -110.53212073 97.95459588 -115.8671875 83.6796875 C-119.41427928 71.6778838 -116.06004929 58.93234308 -110.33203125 48.203125 C-108.46895211 45.1216686 -106.51469646 42.58266123 -104 40 C-103.34 40 -102.68 40 -102 40 C-102 39.34 -102 38.68 -102 38 C-94.70816015 31.96656278 -86.41461692 28.62884656 -77.375 26.25 C-70.84160328 24.30291087 -67.78071158 21.54976111 -64 16 C-57.13036842 5.92581961 -49.42079907 0.48894856 -37.40625 -2.34375 C-25.46925344 -4.40720851 -11.30742249 -4.70129394 0 0 Z " fill="#FCBF49" transform="translate(306,255)"/>
<path d="M0 0 C10.43453337 7.03724344 16.75540121 18.22326873 19.4765625 30.3203125 C22.13912865 47.04122792 21.00735671 64.34361584 11.6875 78.9375 C7.03955806 85.27344131 1.34854396 91.42505555 -6.3125 93.8125 C-8.92852345 93.89762007 -11.3435929 93.87702749 -13.9375 93.6875 C-14.64463135 93.63601807 -15.3517627 93.58453613 -16.08032227 93.53149414 C-26.79473272 92.5764797 -35.2144702 89.15054705 -42.3125 80.8125 C-48.95689264 70.36904076 -49.78776685 58.87836117 -47.59375 46.8828125 C-43.33148261 30.07435482 -35.0900482 11.44317422 -19.9375 1.75 C-13.65107322 -1.8847447 -6.84668992 -2.45447374 0 0 Z " fill="#FCBF49" transform="translate(340.3125,148.1875)"/>
<path d="M0 0 C15.54969078 9.18413509 24.38837977 28.68500056 29.0078125 45.45703125 C31.73275926 56.93885918 31.0618013 69.38763806 24.875 79.5625 C20.40269751 86.55574658 15.6385333 89.93056496 7.5859375 91.9765625 C-1.75304609 93.45113886 -12.72611346 94.44912489 -21.125 89.5625 C-31.73730505 81.61854804 -35.77040771 69.24833194 -37.65625 56.6015625 C-39.82774457 39.43523991 -37.68396185 22.21450712 -28.125 7.5625 C-20.88867954 -0.7173885 -10.61518666 -4.6587693 0 0 Z " fill="#FCC049" transform="translate(246.125,148.4375)"/>
<path d="M0 0 C9.77447477 6.81641004 15.20771426 15.21282128 17.5625 26.7578125 C19.70761039 42.65461273 18.29615621 59.31355474 8.859375 72.72265625 C4.75684195 77.74739736 0.57414261 81.81665433 -6 83 C-15.19245655 83.29415861 -24.49024248 79.42077717 -31.5 73.625 C-37.52120149 67.8791965 -40.06281088 61.85290448 -40.29272461 53.56982422 C-40.37153125 45.32139546 -39.36713877 38.6408149 -36 31 C-35.25363281 29.28490234 -35.25363281 29.28490234 -34.4921875 27.53515625 C-29.36590361 16.55537145 -22.63743471 6.30544773 -12 0 C-7.68587653 -1.43804116 -4.34247289 -1.41862995 0 0 Z " fill="#FCC049" transform="translate(401,206)"/>
<path d="M0 0 C14.99287999 9.66582777 24.44278061 24.88170958 28.75390625 41.9921875 C30.72078433 51.92285862 30.97676154 61.22973826 25.75 70.1875 C20.61464783 77.8158865 13.46805741 81.1773142 5 84 C-0.02359114 84.48106603 -4.49029606 84.69446381 -9.125 82.5625 C-10.07375 81.716875 -11.0225 80.87125 -12 80 C-12.70898438 79.39027344 -13.41796875 78.78054688 -14.1484375 78.15234375 C-23.82655845 69.29413005 -28.3757125 58.62537825 -29.21484375 45.6875 C-29.57578476 32.52037208 -26.8397184 20.34895204 -18.3359375 9.96875 C-16.63235812 8.1951605 -14.87650313 6.58872009 -13 5 C-11.98679688 4.11248047 -11.98679688 4.11248047 -10.953125 3.20703125 C-4.97260146 -1.70554166 -4.97260146 -1.70554166 0 0 Z " fill="#FCBF49" transform="translate(177,204)"/>
<path d="M0 0 C3.58803957 1.51917708 5.86550067 3.63384496 8.58984375 6.39453125 C9.45673828 7.26787109 10.32363281 8.14121094 11.21679688 9.04101562 C12.11462891 9.95560547 13.01246094 10.87019531 13.9375 11.8125 C14.83146484 12.71548828 15.72542969 13.61847656 16.64648438 14.54882812 C18.31993023 16.23966688 19.99130905 17.93255578 21.65991211 19.62817383 C26.0954727 24.1238933 30.57810744 28.57249311 35.05381775 33.02816772 C38.32293935 36.28387831 41.58939387 39.54225923 44.85571289 42.80078125 C46.57421637 44.51424703 48.29361507 46.22681543 50.01391602 47.93847656 C52.51036867 50.42274208 55.00352676 52.91027409 57.49609375 55.3984375 C58.2587706 56.15595306 59.02144745 56.91346863 59.80723572 57.69393921 C64.08466425 61.97092161 68.22021058 66.27255296 72 71 C72 71.66 72 72.32 72 73 C72.66 73 73.32 73 74 73 C75.70601851 74.89926662 77.26727046 76.7878335 78.8125 78.8125 C79.48526978 79.68914307 79.48526978 79.68914307 80.17163086 80.58349609 C86.83946101 89.52965296 90.91546733 98.76184937 90 110 C89.27296019 113.43691548 88.4182077 116.77975774 87 120 C86.01 120.495 86.01 120.495 85 121 C85.144375 120.33355469 85.28875 119.66710937 85.4375 118.98046875 C88.33348792 104.60108431 87.13967589 96.113425 79.125 83.875 C74.07167184 76.57092968 67.94222637 70.28382104 61.79231262 63.90792847 C60.15234058 62.16216754 58.60061555 60.37325337 57.05297852 58.54589844 C52.42962415 53.2452023 47.43348552 48.32129285 42.44450569 43.3693409 C40.68985457 41.62759583 38.93847194 39.88262071 37.18785095 38.13682556 C33.48222637 34.44254042 29.77263946 30.75225012 26.0625 27.0625 C21.73688284 22.76048368 17.41290451 18.45684568 13.09307671 14.14901543 C11.36445407 12.42689092 9.63285904 10.7077931 7.90113831 8.98878479 C6.85199642 7.94327181 5.80299264 6.89762021 4.75415039 5.85180664 C3.83372452 4.93661758 2.91329865 4.02142853 1.96498108 3.07850647 C0 1 0 1 0 0 Z " fill="#FFD24E" transform="translate(506,427)"/>
<path d="M0 0 C4.28642324 1.66463038 7.08617217 4.79075837 10.25 8 C10.80429687 8.5465625 11.35859375 9.093125 11.9296875 9.65625 C16 13.7466133 16 13.7466133 16 16 C16.66 16 17.32 16 18 16 C19.25415039 17.27319336 19.25415039 17.27319336 20.78515625 19.15234375 C25.75418193 24.9930381 31.19604854 30.34554085 36.62426758 35.75463867 C38.43360933 37.55862085 40.23754319 39.36788665 42.04101562 41.17773438 C47.37535298 46.51478047 52.7100227 51.77690091 58.45874023 56.67260742 C60.35538356 58.30607008 62.09022628 60.05995743 63.8125 61.875 C67.70954177 65.83317183 71.92483523 69.28356542 76.25 72.76171875 C81.75272519 77.24049934 87.01673844 81.94984902 92 87 C87.58158727 85.55426936 84.44948172 83.1413889 81 80.125 C80.43385986 79.63741211 79.86771973 79.14982422 79.28442383 78.64746094 C74.29567451 74.32189991 69.41859448 69.87712951 64.59936523 65.36401367 C62.24461831 63.16082219 59.88365182 60.96466162 57.51708984 58.77416992 C47.58937852 49.55825645 37.93476626 40.09029159 28.36938477 30.49975586 C25.91212218 28.03706613 23.44946683 25.57985798 20.98632812 23.12304688 C19.39551213 21.531571 17.80500587 19.93978546 16.21484375 18.34765625 C15.49183578 17.62667252 14.76882782 16.90568878 14.02391052 16.16285706 C2.08429098 4.16858196 2.08429098 4.16858196 0 0 Z " fill="#FFD54F" transform="translate(449,481)"/>
<path d="M0 0 C19.3684443 4.46964099 38.32219769 16.97397317 53 30 C53.55913086 30.4935498 54.11826172 30.98709961 54.69433594 31.49560547 C56.49335001 33.0908746 58.28029989 34.6984783 60.0625 36.3125 C60.62348389 36.8163623 61.18446777 37.32022461 61.76245117 37.83935547 C64.47900741 40.34379188 66.66628999 42.51247257 68 46 C68.66 46 69.32 46 70 46 C71.60178593 47.78104718 73.13381926 49.62537278 74.625 51.5 C75.44226563 52.5209375 76.25953125 53.541875 77.1015625 54.59375 C77.72804688 55.3878125 78.35453125 56.181875 79 57 C76 57 76 57 73.4765625 54.55078125 C72.51771867 53.47874058 71.56750752 52.39893097 70.625 51.3125 C69.68081068 50.24509916 68.73550602 49.17868384 67.7890625 48.11328125 C67.32346924 47.58726318 66.85787598 47.06124512 66.37817383 46.51928711 C64.33289767 44.26459206 62.1642757 42.13987968 60 40 C59.27941406 39.23300781 58.55882812 38.46601563 57.81640625 37.67578125 C51.18143869 30.71883953 43.97118541 25.29045268 36 20 C34.948125 19.29875 33.89625 18.5975 32.8125 17.875 C22.63148341 11.35914938 11.57503785 5.58663145 0 2 C0 1.34 0 0.68 0 0 Z " fill="#FFD74E" transform="translate(340,100)"/>
<path d="M0 0 C7.83279584 5.28258324 13.39958338 13.04472234 16.6875 21.8125 C16.0275 22.4725 15.3675 23.1325 14.6875 23.8125 C14.06875 22.41837891 14.06875 22.41837891 13.4375 20.99609375 C9.68108338 12.83035428 6.15257516 5.64745274 -2.50390625 1.8515625 C-8.35187141 0.12259889 -12.93731256 1.12490628 -18.3125 3.8125 C-30.08165627 10.41036033 -35.82809099 23.07243697 -41.3125 34.8125 C-42.38943481 32.09114377 -42.3629712 30.95652242 -41.37890625 28.1484375 C-35.57331722 16.71821286 -28.24098811 6.36403947 -16.9375 -0.125 C-11.06654731 -1.84579648 -5.79352757 -2.07692498 0 0 Z " fill="#FFCD4D" transform="translate(340.3125,148.1875)"/>
<path d="M0 0 C3 1 3 1 5.1875 4.25 C10.28228273 11.58408251 17.2358097 13.77872068 25.75390625 15.4921875 C32.71500797 16.58116851 38.74048693 17.03101651 45.046875 13.48046875 C48.93710691 10.53167296 51.91542627 6.7507258 55 3 C55.66 2.34 56.32 1.68 57 1 C57 5.74438372 54.07074156 8.55214982 51 12 C45.70016307 16.64897976 40.649494 19.36271005 33.42993164 19.02514648 C32.7518042 18.97559814 32.07367676 18.9260498 31.375 18.875 C30.66786865 18.82351807 29.9607373 18.77203613 29.23217773 18.71899414 C18.39801439 17.75330569 10.32932225 14.2277553 3 6 C1.6729702 3.9903766 0.8497311 2.2659496 0 0 Z " fill="#FFD44E" transform="translate(295,223)"/>
<path d="M0 0 C10.5037115 3.17733417 19.00529292 14.88758759 24.23828125 24.03125 C28.43242686 32.21213841 31.44563654 39.53602005 30.66015625 48.8046875 C30.33015625 48.8046875 30.00015625 48.8046875 29.66015625 48.8046875 C29.50160156 48.06605469 29.34304687 47.32742187 29.1796875 46.56640625 C25.26417792 29.54151102 17.34297977 14.3911434 3.0625 4.02734375 C0.78925339 2.5914877 0.78925339 2.5914877 -1.4609375 3.05078125 C-2.08097656 3.29957031 -2.70101562 3.54835937 -3.33984375 3.8046875 C-4.32984375 4.1346875 -5.31984375 4.4646875 -6.33984375 4.8046875 C-6.33984375 2.8046875 -6.33984375 2.8046875 -4.65234375 1.1171875 C-2.33984375 -0.1953125 -2.33984375 -0.1953125 0 0 Z " fill="#FFD24B" transform="translate(174.33984375,203.1953125)"/>
<path d="M0 0 C0.66 0.33 1.32 0.66 2 1 C1.62746094 1.45890625 1.25492187 1.9178125 0.87109375 2.390625 C0.39800781 3.00421875 -0.07507813 3.6178125 -0.5625 4.25 C-1.03816406 4.85328125 -1.51382812 5.4565625 -2.00390625 6.078125 C-3.18516867 7.92031388 -3.18516867 7.92031388 -2.78759766 9.87207031 C-1.79344324 12.55807461 -0.42215133 13.95016762 1.60546875 15.96875 C2.34216797 16.70480469 3.07886719 17.44085938 3.83789062 18.19921875 C4.61326172 18.95847656 5.38863281 19.71773438 6.1875 20.5 C6.94353516 21.25925781 7.69957031 22.01851563 8.47851562 22.80078125 C12.40998046 26.69473862 16.17479056 30.25840373 21 33 C23.78995239 32.91545599 25.03436131 31.97739387 27.375 30.4375 C30.47577231 28.73945802 32.51778564 28.75705481 36 29 C36 29.66 36 30.32 36 31 C34.4221875 31.12375 34.4221875 31.12375 32.8125 31.25 C28.95103963 31.70118358 28.95103963 31.70118358 26.375 34.125 C24 36 24 36 21.6484375 35.8671875 C18.40824883 34.80624077 16.72886043 33.33304511 14.25 31 C13.38375 30.19046875 12.5175 29.3809375 11.625 28.546875 C8.39261901 25.41069583 5.21280243 22.22648346 2.05078125 19.01953125 C-0.50980088 16.49796752 -3.18818596 14.23503167 -6 12 C-5.54300722 6.97307937 -3.00758252 3.85103739 0 0 Z " fill="#FFCC4C" transform="translate(444,377)"/>
<path d="M0 0 C-0.88042969 0.25394531 -1.76085937 0.50789062 -2.66796875 0.76953125 C-3.82941406 1.11371094 -4.99085938 1.45789063 -6.1875 1.8125 C-7.33605469 2.14894531 -8.48460937 2.48539062 -9.66796875 2.83203125 C-12.77206907 3.92010393 -15.21966903 5.2764911 -18 7 C-18.66 7 -19.32 7 -20 7 C-20 7.66 -20 8.32 -20 9 C-21.16701232 10.13268843 -22.3369032 11.26253187 -23.51953125 12.37890625 C-25.25503036 14.27925488 -26.47729294 16.30148098 -27.8125 18.5 C-31.41023157 24.00187449 -35.36652401 27.0137708 -41.734375 28.7421875 C-44.15211834 29.24076169 -46.55485541 29.66429367 -49 30 C-49 29.34 -49 28.68 -49 28 C-48.14277344 27.8040625 -47.28554687 27.608125 -46.40234375 27.40625 C-38.20155071 25.26128497 -33.76811178 22.99918012 -29 16 C-22.8194875 6.93639927 -15.75627841 1.37064447 -5.12890625 -1.78515625 C-3 -2 -3 -2 0 0 Z " fill="#FFD350" transform="translate(271,255)"/>
<path d="M0 0 C0.66 0.33 1.32 0.66 2 1 C2.33365484 10.34233547 0.81731675 17.48596587 -5 25 C-10.11657555 30.11657555 -18.03750489 34.80462618 -25.48046875 35.09765625 C-26.37378906 35.08605469 -27.26710937 35.07445312 -28.1875 35.0625 C-29.08855469 35.05347656 -29.98960937 35.04445313 -30.91796875 35.03515625 C-31.60503906 35.02355469 -32.29210937 35.01195312 -33 35 C-33 34.34 -33 33.68 -33 33 C-32.10539063 32.91363281 -31.21078125 32.82726562 -30.2890625 32.73828125 C-20.54362101 31.60581523 -11.92045761 30.08883684 -5.5 22.125 C-0.97281051 15.27682885 -0.54892044 7.988237 0 0 Z " fill="#FFD250" transform="translate(205,253)"/>
<path d="M0 0 C7.61831464 -0.54416533 12.20973934 0.98132811 18.1875 5.7421875 C27.12548267 13.96637294 33.83435715 25.63915587 38 37 C37.67 37.99 37.34 38.98 37 40 C36.73896484 39.48203857 36.47792969 38.96407715 36.20898438 38.43041992 C26.04872898 17.28458488 26.04872898 17.28458488 8.375 2.6875 C5.60374826 1.88529555 2.85560122 1.39845598 0 1 C0 0.67 0 0.34 0 0 Z " fill="#FFD04B" transform="translate(234,147)"/>
<path d="M0 0 C3.12184329 2.27043148 5.69229962 4.70407823 8.1875 7.625 C18.85126282 20.00503366 31.1659147 30.3262481 45 39 C44.01 39.33 43.02 39.66 42 40 C39.72666366 38.69175928 37.72138565 37.36703655 35.625 35.8125 C35.0050415 35.35979736 34.38508301 34.90709473 33.74633789 34.44067383 C27.03755202 29.43954792 20.99318639 23.82366786 15 18 C14.11006348 17.14873535 14.11006348 17.14873535 13.20214844 16.28027344 C11.39579269 14.5508248 9.6021284 12.80923916 7.8125 11.0625 C6.98286743 10.26525513 6.98286743 10.26525513 6.13647461 9.4519043 C3.16971052 6.5093701 1.20841522 4.02557955 0 0 Z " fill="#FFCD4D" transform="translate(131,385)"/>
<path d="M0 0 C0.66 0 1.32 0 2 0 C3.80745578 2.13070354 5.40795291 4.38127457 7.05078125 6.640625 C11.24580074 11.71836402 15.36366042 13.67046221 21.625 15.3125 C28.80504122 17.36429421 35.20986143 20.12990463 41 25 C41 25.66 41 26.32 41 27 C37.87151609 25.92458366 35.36686453 24.57671934 32.6875 22.6875 C28.64834688 20.05125884 24.52796573 18.86426605 19.9375 17.5625 C10.19523581 14.73241343 5.36838271 10.45926973 0 2 C0 1.34 0 0.68 0 0 Z " fill="#FFD14D" transform="translate(319,266)"/>
<path d="M0 0 C3.43605181 1.48229451 5.68701591 3.4295174 8.328125 6.0625 C9.52695312 7.25746094 9.52695312 7.25746094 10.75 8.4765625 C11.575 9.30929687 12.4 10.14203125 13.25 11 C14.09046875 11.83273437 14.9309375 12.66546875 15.796875 13.5234375 C16.5909375 14.32007813 17.385 15.11671875 18.203125 15.9375 C18.93176758 16.66839844 19.66041016 17.39929688 20.41113281 18.15234375 C22 20 22 20 22 22 C22.66 22 23.32 22 24 22 C25.88187367 25.17566182 26.2989597 27.32706654 26 31 C24.90625 33.67578125 24.90625 33.67578125 23.5 36.3125 C23.0359375 37.19550781 22.571875 38.07851563 22.09375 38.98828125 C21.7328125 39.65214844 21.371875 40.31601562 21 41 C20.34 40.67 19.68 40.34 19 40 C19.30035156 39.43152344 19.60070312 38.86304688 19.91015625 38.27734375 C20.29042969 37.50519531 20.67070312 36.73304688 21.0625 35.9375 C21.44535156 35.18339844 21.82820313 34.42929687 22.22265625 33.65234375 C23.31732643 29.91726309 23.06629524 27.76009374 22 24 C20.04239329 21.19991608 17.72895236 18.84409935 15.3125 16.4375 C14.69955078 15.80392578 14.08660156 15.17035156 13.45507812 14.51757812 C11.65276408 12.66174892 9.82874141 10.82974484 8 9 C7.44231934 8.42910645 6.88463867 7.85821289 6.31005859 7.27001953 C3.96930594 4.88440547 1.79162134 2.8610809 -1 1 C-0.67 0.67 -0.34 0.34 0 0 Z " fill="#FFD751" transform="translate(410,414)"/>
<path d="M0 0 C1.89969426 2.37461782 3.39183673 4.70530612 4.875 7.375 C10.45933365 17.13201418 18.91758023 22.36753686 29 27 C29 27.66 29 28.32 29 29 C16.60445167 25.26859411 7.05071627 17.34261499 0.84765625 6.11328125 C0 4 0 4 0 0 Z " fill="#FFD34E" transform="translate(193,342)"/>
<path d="M0 0 C4.00667615 1.33555872 5.25435066 3.94889629 7.5 7.3125 C11.79916276 13.56516745 16.52073106 19.08497195 21.75 24.57421875 C24 27 24 27 26 30 C18.02259059 28.92680591 12.32650822 18.27418762 7.625 12.25 C7.20847168 11.71987305 6.79194336 11.18974609 6.36279297 10.64355469 C3.77851664 7.26873191 1.78775452 3.85232263 0 0 Z " fill="#FFD550" transform="translate(140,350)"/>
<path d="M0 0 C0.66 0.66 1.32 1.32 2 2 C-7.2065214 14.8443566 -7.2065214 14.8443566 -14.30078125 16.5546875 C-18.16265108 17.07297445 -21.23980454 17.10344336 -25 16 C-25 15.34 -25 14.68 -25 14 C-24.3709375 14.04640625 -23.741875 14.0928125 -23.09375 14.140625 C-16.88247581 14.4025462 -11.93151666 14.04689408 -7 10 C-4.38835694 6.82623186 -2.14079433 3.50555071 0 0 Z " fill="#FFD046" transform="translate(411,272)"/>
<path d="M0 0 C0 0.99 0 1.98 0 3 C-1.74951568 3.95921722 -3.49963244 4.91733817 -5.25 5.875 C-6.71179688 6.67550781 -6.71179688 6.67550781 -8.203125 7.4921875 C-10.45130408 8.70419466 -12.7072805 9.87547567 -15 11 C-15 10.34 -15 9.68 -15 9 C-10.42916319 5.35348797 -5.2984023 2.44541645 0 0 Z M-17 11 C-16.34 11.33 -15.68 11.66 -15 12 C-17.31 14.97 -19.62 17.94 -22 21 C-22.66 20.67 -23.32 20.34 -24 20 C-21.69 17.03 -19.38 14.06 -17 11 Z " fill="#FFD848" transform="translate(219,284)"/>
<path d="M0 0 C0 0.66 0 1.32 0 2 C-1.299375 2.7425 -1.299375 2.7425 -2.625 3.5 C-9.46725261 7.83504421 -12.54254955 16.62764866 -15 24 C-15.66 23.01 -16.32 22.02 -17 21 C-7.67961165 0 -7.67961165 0 0 0 Z " fill="#FFCF4B" transform="translate(228,149)"/>
<path d="M0 0 C4.14606039 3.91137772 7.47378892 8.36095669 10.93359375 12.8671875 C12.9777754 15.50593722 14.96246312 17.96296361 17.34375 20.3125 C19 22 19 22 19 24 C17 24 17 24 15.58984375 22.671875 C0.80893745 5.47989888 0.80893745 5.47989888 0 0 Z " fill="#FFD54E" transform="translate(430,456)"/>
<path d="M0 0 C0 0.99 0 1.98 0 3 C-1.86328125 4.5703125 -1.86328125 4.5703125 -4.3125 6.125 C-5.11300781 6.64320313 -5.91351563 7.16140625 -6.73828125 7.6953125 C-9 9 -9 9 -12 10 C-13.06716704 11.79932579 -13.06716704 11.79932579 -14 14 C-14.98879205 15.67334039 -15.98648336 17.34151823 -17 19 C-17.99 18.67 -18.98 18.34 -20 18 C-8.28708134 2.76236045 -8.28708134 2.76236045 0 0 Z " fill="#FFD446" transform="translate(392,205)"/>
<path d="M0 0 C6.37137523 2.03884007 9.40347012 6.57892574 13 12 C14.5877298 15.26391251 15.88362427 18.54804873 17 22 C14 21 14 21 12.67578125 18.55859375 C12.22589844 17.52863281 11.77601563 16.49867188 11.3125 15.4375 C8.76724365 10.06489339 5.92876787 6.39624509 1.5390625 2.42578125 C1.03117187 1.95527344 0.52328125 1.48476563 0 1 C0 0.67 0 0.34 0 0 Z " fill="#FFD04B" transform="translate(361,294)"/>
<path d="M0 0 C3.99620504 1.74092101 7.31833146 4.36025497 10.75 7 C11.35199219 7.45117188 11.95398438 7.90234375 12.57421875 8.3671875 C14.08906356 9.52822502 15.54969821 10.75927939 17 12 C17 12.66 17 13.32 17 14 C12.19556743 12.51142813 9.25334099 9.82136612 5.6875 6.4375 C5.13771484 5.93025391 4.58792969 5.42300781 4.02148438 4.90039062 C2.6560137 3.62651674 1.32468546 2.31623451 0 1 C0 0.67 0 0.34 0 0 Z " fill="#FFD44D" transform="translate(170,385)"/>
<path d="M0 0 C-2.02467874 4.84476699 -5.41054064 6.73926632 -10 9 C-13.5 9.8125 -13.5 9.8125 -16 10 C-16.33 9.34 -16.66 8.68 -17 8 C-16.12988281 7.76216797 -16.12988281 7.76216797 -15.2421875 7.51953125 C-10.60036722 6.13311298 -3.94403311 0 0 0 Z " fill="#FFD652" transform="translate(581,561)"/>
<path d="M0 0 C4.03556631 0.52821549 6.17712748 1.59326602 9.1875 4.3125 C9.86167969 4.90675781 10.53585937 5.50101563 11.23046875 6.11328125 C12.98945379 7.98875536 13.98885967 9.65104323 15 12 C12 11 12 11 10.3125 8.75 C7.70579366 5.650133 5.08298912 4.01865796 1.609375 2.015625 C1.07828125 1.68046875 0.5471875 1.3453125 0 1 C0 0.67 0 0.34 0 0 Z " fill="#FFD147" transform="translate(397,206)"/>
<path d="M0 0 C4.17383395 3.92831431 7.89394426 8.16479983 11 13 C11 13.66 11 14.32 11 15 C10.34 15 9.68 15 9 15 C7.36570249 12.9055032 5.85832766 10.82217909 4.375 8.625 C3.95476562 8.02171875 3.53453125 7.4184375 3.1015625 6.796875 C0 2.26537135 0 2.26537135 0 0 Z " fill="#FFCE4D" transform="translate(119,369)"/>
<path d="M0 0 C0.99 0.33 1.98 0.66 3 1 C0.69 3.31 -1.62 5.62 -4 8 C-4.99 7.67 -5.98 7.34 -7 7 C-4.69 4.69 -2.38 2.38 0 0 Z " fill="#FFCC4C" transform="translate(164,209)"/>
<path d="M0 0 C0.99 0.33 1.98 0.66 3 1 C1.50260417 2.20442708 0.00520833 3.40885417 -1.4921875 4.61328125 C-3.25292107 6.12270545 -3.25292107 6.12270545 -5 9 C-5.99 8.67 -6.98 8.34 -8 8 C-5.36 5.36 -2.72 2.72 0 0 Z " fill="#FFD844" transform="translate(168,135)"/>
<path d="M0 0 C1.33895632 1.66215268 2.67130142 3.32963607 4 5 C4.598125 5.70125 5.19625 6.4025 5.8125 7.125 C6.204375 7.74375 6.59625 8.3625 7 9 C6.67 9.99 6.34 10.98 6 12 C3.69 8.37 1.38 4.74 -1 1 C-0.67 0.67 -0.34 0.34 0 0 Z " fill="#FFCF4A" transform="translate(441,139)"/>
</svg>
