<?xml version="1.0" encoding="UTF-8"?>
<svg version="1.1" xmlns="http://www.w3.org/2000/svg" width="696" height="639">
<path d="M0 0 C1.08071378 0.87501901 2.16144303 1.7500189 3.2421875 2.625 C5.83789151 4.73855034 8.42386039 6.86268177 11 9 C15.16014143 7.26574749 18.3783906 4.34197576 21.8125 1.5 C45.9299983 -17.99298405 74.38654325 -33.02396815 105 -39 C105.85770996 -39.17660156 106.71541992 -39.35320313 107.59912109 -39.53515625 C118.30331966 -41.47979573 129.02764272 -41.39802883 139.875 -41.375 C141.37933594 -41.37368576 141.37933594 -41.37368576 142.9140625 -41.37234497 C157.61564957 -41.32989813 171.75057134 -40.98103773 186 -37 C186.86270508 -36.76394043 187.72541016 -36.52788086 188.61425781 -36.28466797 C214.26364692 -29.02249154 238.51799789 -16.29483667 258.3125 1.6015625 C260.94882318 4.06710735 260.94882318 4.06710735 264 6 C264 6.66 264 7.32 264 8 C264.99 8.33 265.98 8.66 267 9 C267 9.66 267 10.32 267 11 C267.59296875 11.2578125 268.1859375 11.515625 268.796875 11.78125 C272.71943045 13.95117429 275.17994024 17.58017293 278 21 C278.62003906 21.73347656 279.24007812 22.46695313 279.87890625 23.22265625 C305.83036208 54.62653916 320.3487294 92.36873548 322 133 C322.07927734 134.75570312 322.07927734 134.75570312 322.16015625 136.546875 C323.20742225 182.62657881 309.36433733 229.13045327 287.03564453 269.13720703 C285.6938855 271.55060199 284.41521478 273.99624813 283.125 276.4375 C276.14939914 289.10059361 268.74910396 301.48238587 260 313 C258.96076535 314.42636676 257.92458838 315.85496378 256.890625 317.28515625 C245.39127954 333.15255855 233.15709135 348.05426635 219.65185547 362.25097656 C216.15154089 365.957192 212.73583879 369.74162394 209.3046875 373.51171875 C204.95065907 378.21259352 204.95065907 378.21259352 203 380 C202.34 380 201.68 380 201 380 C200.67 380.99 200.34 381.98 200 383 C199.34 383 198.68 383 198 383 C197.67 383.99 197.34 384.98 197 386 C195.609375 387.3671875 195.609375 387.3671875 193.75 388.875 C189.83679945 392.17916934 186.26611821 395.72012909 182.6875 399.375 C177.9901029 404.14329356 173.13663725 408.46245404 167.8828125 412.62109375 C164.43282444 415.46803512 161.19083924 418.49516566 157.9375 421.5625 C152.49323332 426.67319155 146.91823509 431.44004837 141 436 C139.67105791 437.04583757 138.3430138 438.09281669 137.015625 439.140625 C122.049648 450.91918911 106.64456197 462.03779282 90.88085938 472.72216797 C89.09764095 473.93366398 87.32187555 475.15541647 85.546875 476.37890625 C74.63411897 483.83847303 63.26207664 490.54121504 51.89306641 497.27636719 C50.02977632 498.38647925 48.17216577 499.50620894 46.32177734 500.63769531 C41.08965241 503.83437761 35.81873138 506.68612736 30.25 509.25 C29.53457031 509.58773437 28.81914062 509.92546875 28.08203125 510.2734375 C18.65449683 514.66718748 11.86026901 516.12206668 1.69140625 512.9765625 C-38.84523714 497.61437344 -75.48086141 468.93931873 -109 442 C-109.6403418 441.4858252 -110.28068359 440.97165039 -110.94042969 440.44189453 C-118.51686098 434.34669401 -126.03109487 428.18513261 -133.42700195 421.87182617 C-136.65348118 419.12090171 -139.93207479 416.45187208 -143.25 413.8125 C-150.49658815 407.91804491 -157.16379876 401.39242564 -163.92822266 394.95849609 C-166.9442093 392.10741845 -170.00204597 389.30314718 -173.0625 386.5 C-179.68523465 380.40865712 -186.03169382 374.21551566 -191.89453125 367.38671875 C-194.10577872 364.88009129 -196.37936563 362.4428167 -198.66748047 360.0065918 C-204.73228156 353.54550616 -210.47789316 346.93561542 -216 340 C-216.90745785 338.89468549 -217.81639287 337.79058258 -218.7265625 336.6875 C-259.25164584 287.2774193 -296.93812834 221.86989985 -297.203125 156.1953125 C-297.20882507 155.07671844 -297.21452515 153.95812439 -297.22039795 152.80563354 C-297.22980546 150.44399955 -297.23636493 148.08235268 -297.24023438 145.72070312 C-297.24987689 142.17032879 -297.28091601 138.62054983 -297.3125 135.0703125 C-297.39217015 118.17114276 -296.39292324 101.87275507 -291.1875 85.6875 C-290.79848511 84.44371582 -290.79848511 84.44371582 -290.40161133 83.17480469 C-282.62591159 58.89601059 -269.28748772 38.55813478 -252 20 C-250.78661781 18.60855334 -249.57802197 17.21291361 -248.375 15.8125 C-241.53742522 7.98674425 -241.53742522 7.98674425 -238 5 C-237.34 5 -236.68 5 -236 5 C-235.67 4.01 -235.34 3.02 -235 2 C-232.91094529 0.17869737 -230.82788282 -1.51512729 -228.625 -3.1875 C-227.98941162 -3.67581299 -227.35382324 -4.16412598 -226.69897461 -4.66723633 C-225.40638987 -5.65675237 -224.11106856 -6.64270428 -222.81298828 -7.625 C-221.24991461 -8.81046066 -219.69983688 -10.01302147 -218.15234375 -11.21875 C-210.89235974 -16.73765188 -203.16220173 -20.99204486 -195 -25 C-193.93523437 -25.52464844 -192.87046875 -26.04929687 -191.7734375 -26.58984375 C-128.53570245 -55.59303854 -53.26323472 -43.38937137 0 0 Z M-67.68359375 100.8828125 C-77.05411171 112.80042886 -79.07818912 125.13272553 -78 140 C-76.39342124 152.8234196 -71.14770936 165.54725208 -60.859375 173.6953125 C-51.33774584 180.14886116 -41.49046027 182.91468837 -29.91796875 181.66796875 C-19.80220669 179.6552048 -13.05927968 174.16739011 -7.0625 165.9375 C-1.14937385 156.86606882 0.18034899 148.98895228 0.1875 138.3125 C0.19974609 137.36955078 0.21199219 136.42660156 0.22460938 135.45507812 C0.25586771 120.29478738 -4.21731831 110.35064908 -14.5703125 99.265625 C-23.05850198 91.350593 -32.18063682 88.4767683 -43.65234375 88.6875 C-53.12438057 89.57170414 -61.35736319 93.80800246 -67.68359375 100.8828125 Z M35 102 C24.30731219 115.76379254 21.40955651 129.50481883 23.30859375 146.8125 C25.21775541 157.62545102 30.12283572 167.35700587 38.8125 174.25 C47.8296183 180.51758033 56.94772067 183.08506433 67.9375 181.5 C78.80108679 178.87894414 87.64516583 172.03518997 94 163 C101.7136909 149.49689379 104.27356713 135.04948993 100.8125 119.75 C98.81323515 112.66255874 95.82334218 105.64433659 91 100 C90.34 100 89.68 100 89 100 C88.505 98.515 88.505 98.515 88 97 C85.98181001 95.35878644 85.98181001 95.35878644 83.5625 93.875 C82.75941406 93.35679687 81.95632813 92.83859375 81.12890625 92.3046875 C67.1103143 83.71347702 45.15356074 90.58420502 35 102 Z M-135 189 C-142.36305502 200.23150335 -142.50530894 214.23327112 -140.50390625 227.21875 C-139.83595431 229.60375353 -139.0406433 231.7544013 -138 234 C-137.50693359 235.10794922 -137.50693359 235.10794922 -137.00390625 236.23828125 C-131.0725423 248.12153289 -120.77802549 257.59906992 -108.4375 262.4375 C-99.71878336 265.0395976 -88.5726879 265.90561017 -80 262.4375 C-77.95554906 261.34500706 -77.95554906 261.34500706 -76 260 C-75.22140625 259.49082031 -74.4428125 258.98164063 -73.640625 258.45703125 C-66.2552521 253.18348883 -61.86147834 246.86874679 -59.5078125 238.08984375 C-56.89484853 222.19096297 -59.43730765 207.91693738 -68.859375 194.65625 C-71.88976478 190.89591232 -75.17481635 187.92337218 -79 185 C-79.62519531 184.46761719 -80.25039062 183.93523437 -80.89453125 183.38671875 C-98.41851896 169.00348647 -120.54031994 172.72412824 -135 189 Z M94.25 191.8125 C83.65988677 204.60056126 80.62366782 218.81171201 82 235 C83.54635126 244.99973816 89.1824028 252.06037005 96.78125 258.4609375 C105.19793575 264.29927233 114.9217206 266.12414128 124.90234375 264.5390625 C140.00350298 261.23507657 149.6686924 252.59508172 158 240 C164.98887814 228.80934921 166.6673977 215.17386438 164.3125 202.3125 C162.09019163 193.90168012 158.05598894 186.26399175 151 181 C130.87413805 169.99786213 109.39785998 175.63485129 94.25 191.8125 Z M-23.39453125 217.12890625 C-32.22958591 227.42572178 -37.28670212 240.63039282 -42.5625 253 C-48.94496848 266.93896963 -60.84366924 278.01816837 -71.671875 288.58984375 C-82.49411249 299.37708736 -89.30804462 312.56928769 -89.38500977 327.93603516 C-89.10718876 340.46350969 -82.91676381 350.21471983 -74.1875 358.75 C-61.8141218 367.48414932 -48.27852678 370.02670755 -33.36425781 367.56494141 C-24.10983309 365.73793674 -15.01400723 363.30042352 -5.9375 360.75 C12.16603982 355.90260409 27.87898367 359.88669333 45.42553711 364.92993164 C59.83082316 369.05004584 77.21398505 370.77896218 90.89453125 363.37890625 C101.88579732 356.18054461 108.78520075 346.92328033 111.52734375 334.06640625 C113.67142638 320.1564487 110.62416944 308.96212215 102.375 297.6875 C100.65398375 295.3594313 98.9062354 293.18763206 97 291 C96.34 291 95.68 291 95 291 C94.72994141 290.40630615 94.45988281 289.8126123 94.18164062 289.20092773 C93.00794702 287.01480215 91.8196017 285.55252608 90.09375 283.78515625 C89.51963379 283.18840088 88.94551758 282.59164551 88.35400391 281.97680664 C87.74218262 281.34508545 87.13036133 280.71336426 86.5 280.0625 C73.94814469 266.79151122 65.40449734 253.57044236 58.36230469 236.73730469 C52.73007081 223.34878951 45.09978382 211.69555818 31.37109375 205.7265625 C12.5878518 199.97090681 -9.77637126 202.63818681 -23.39453125 217.12890625 Z " fill="#EA3B3B" transform="translate(331,96)"/>
<path d="M0 0 C0.82693359 0.00451172 1.65386719 0.00902344 2.50585938 0.01367188 C4.52477146 0.02534189 6.54364574 0.04327282 8.5625 0.0625 C8.2325 0.7225 7.9025 1.3825 7.5625 2.0625 C5.31274414 2.39379883 5.31274414 2.39379883 2.34765625 2.51953125 C1.26806641 2.58076172 0.18847656 2.64199219 -0.92382812 2.70507812 C-3.18898447 2.81660535 -5.45464046 2.91848814 -7.72070312 3.00976562 C-18.52225567 3.6541583 -26.27682417 6.94823458 -33.64453125 14.93359375 C-42.49368582 25.44075986 -47.65143199 38.52227635 -53 51.0625 C-59.38246848 65.00146963 -71.28116924 76.08066837 -82.109375 86.65234375 C-92.93161249 97.43958736 -99.74554462 110.63178769 -99.82250977 125.99853516 C-99.55249677 138.17393186 -93.6749254 147.99365366 -85.125 156.3125 C-71.69178975 165.05970668 -57.72411588 167.17856795 -42.0390625 164.08203125 C-33.73804221 162.28350084 -25.54949797 160.10946637 -17.375 157.8125 C0.72853982 152.96510409 16.44148367 156.94919333 33.98803711 161.99243164 C48.46914387 166.13423163 65.7908972 167.81573897 79.5234375 160.375 C89.88740931 153.70393768 96.40727979 144.68381882 99.10546875 132.64453125 C100.0612751 125.15329684 99.77529653 117.5970734 99.5625 110.0625 C103.68989549 116.25359323 103.28032496 123.96139708 102.03125 131.09765625 C99.02771983 144.0095713 92.74145304 154.71274455 81.45703125 162.09375 C62.70618771 171.7900037 44.55377203 168.06172338 25.02587891 162.75415039 C3.55724704 156.96001019 -12.6446004 158.93422287 -33.8125 164.99243164 C-50.30913907 169.6837382 -66.62622598 169.78611566 -82.01953125 161.63671875 C-93.57294047 154.11487075 -99.47911337 143.21618677 -102.4375 130.0625 C-104.16768696 117.08609781 -99.05323391 104.74418479 -91.515625 94.43359375 C-89.54131988 91.92745062 -87.51070975 89.48723665 -85.4375 87.0625 C-84.77878906 86.26972656 -84.12007813 85.47695313 -83.44140625 84.66015625 C-79.93122587 80.50778071 -79.93122587 80.50778071 -78.4375 79.0625 C-77.7775 79.0625 -77.1175 79.0625 -76.4375 79.0625 C-76.19128906 78.48371094 -75.94507813 77.90492188 -75.69140625 77.30859375 C-74.23875093 74.7064853 -72.56774164 73.13984726 -70.375 71.125 C-60.48036206 61.34118201 -55.02933734 50.47546086 -49.55859375 37.8828125 C-42.98050518 22.77538211 -35.04346677 8.50036802 -19.25 1.6875 C-12.78631218 0.25112493 -6.58537015 -0.06898454 0 0 Z " fill="#FD3E3E" transform="translate(342.4375,297.9375)"/>
<path d="M0 0 C15.46748988 7.81442484 25.64942312 18.7978751 31.89453125 35.03515625 C35.25966837 45.63714738 34.77306851 58.0431384 30.62109375 68.32421875 C29.96109375 68.32421875 29.30109375 68.32421875 28.62109375 68.32421875 C29.11609375 66.65359375 29.11609375 66.65359375 29.62109375 64.94921875 C32.46252302 51.89511615 31.93531245 36.91572864 24.796875 25.375 C23.5751589 23.6378337 22.31690684 21.92535698 21.01171875 20.25 C19.62109375 18.32421875 19.62109375 18.32421875 19.62109375 16.32421875 C18.13609375 15.82921875 18.13609375 15.82921875 16.62109375 15.32421875 C16.62109375 14.66421875 16.62109375 14.00421875 16.62109375 13.32421875 C16.04488281 13.06382812 15.46867187 12.8034375 14.875 12.53515625 C12.46526855 11.24049984 10.63431772 9.72619367 8.55859375 7.94921875 C-1.18015172 0.37639557 -11.40373543 -0.84499115 -23.37890625 0.32421875 C-31.6655361 2.01285722 -37.87662719 7.06098621 -43.37890625 13.32421875 C-50.69062485 24.62719658 -50.89213684 38.50609274 -48.8828125 51.54296875 C-48.21486056 53.92797228 -47.41954955 56.07862005 -46.37890625 58.32421875 C-46.05019531 59.06285156 -45.72148437 59.80148437 -45.3828125 60.5625 C-40.02001909 71.3066432 -31.69739096 78.49957879 -21.37890625 84.32421875 C-21.70890625 84.98421875 -22.03890625 85.64421875 -22.37890625 86.32421875 C-35.66247353 80.38761214 -45.287708 68.9408049 -50.46875 55.49609375 C-53.83502172 44.14074399 -54.35572501 29.26616071 -49.37890625 18.32421875 C-38.7451617 0.88262716 -19.64675456 -8.31994807 0 0 Z " fill="#FD3F3F" transform="translate(240.37890625,271.67578125)"/>
<path d="M0 0 C3.46908755 1.73454378 4.0663391 6.01431751 5.375 9.5 C20.25959293 47.76621377 42.0685251 82.29975206 68 114 C70.08167388 116.62192681 72.16082242 119.2458263 74.23828125 121.87109375 C75.92246692 123.98907922 75.92246692 123.98907922 77.73046875 125.66015625 C79 127 79 127 79 129 C79.66 129 80.32 129 81 129 C82.28441437 130.47447091 83.50016542 132.00878789 84.6875 133.5625 C89.41248908 139.51133872 94.65521482 144.77882232 100.12182617 150.04711914 C100.7532251 150.66192139 101.38462402 151.27672363 102.03515625 151.91015625 C102.6062915 152.45808838 103.17742676 153.00602051 103.76586914 153.57055664 C105 155 105 155 105 157 C101.9350908 155.66198588 100.14639067 154.29092019 98.0625 151.6875 C95.55652337 148.58120584 92.83065856 145.81446023 90 143 C81.94316416 134.63960597 74.22043721 126.09750061 67 117 C66.09402845 115.89583668 65.18637977 114.79304802 64.27734375 113.69140625 C0 35.33794744 0 35.33794744 0 0 Z " fill="#FE4444" transform="translate(48,319)"/>
<path d="M0 0 C0.99 0.33 1.98 0.66 3 1 C1.37660195 2.70884005 -0.29319053 4.37446717 -2 6 C-2.66 6 -3.32 6 -4 6 C-4.33 6.99 -4.66 7.98 -5 9 C-5.66 9 -6.32 9 -7 9 C-7.33 9.99 -7.66 10.98 -8 12 C-9.390625 13.3671875 -9.390625 13.3671875 -11.25 14.875 C-15.16320055 18.17916934 -18.73388179 21.72012909 -22.3125 25.375 C-27.0098971 30.14329356 -31.86336275 34.46245404 -37.1171875 38.62109375 C-40.56717556 41.46803512 -43.80916076 44.49516566 -47.0625 47.5625 C-52.50722402 52.67362087 -58.08630927 57.43393316 -64 62 C-65.49317224 63.18626155 -66.98525611 64.37389366 -68.4765625 65.5625 C-70.10907219 66.85454937 -71.74188731 68.1462129 -73.375 69.4375 C-74.16100586 70.0658374 -74.94701172 70.6941748 -75.75683594 71.34155273 C-76.87880371 72.22242554 -76.87880371 72.22242554 -78.0234375 73.12109375 C-78.69294434 73.6514624 -79.36245117 74.18183105 -80.05224609 74.72827148 C-82.05516756 76.03602003 -83.66177047 76.57270436 -86 77 C-82.1886812 73.0289688 -78.13482022 69.58874195 -73.8125 66.1875 C-73.14613525 65.65833984 -72.47977051 65.12917969 -71.79321289 64.58398438 C-68.96346596 62.33742595 -66.12669954 60.09986261 -63.2890625 57.86328125 C-52.55560514 49.35853181 -42.26954188 40.3977989 -32.32543945 30.98388672 C-29.33141572 28.1527039 -26.3068319 25.38706134 -23.1796875 22.703125 C-18.21830259 18.39234471 -13.62221804 13.73086922 -9 9.0625 C-8.12988281 8.18787109 -7.25976562 7.31324219 -6.36328125 6.41210938 C-4.23986451 4.27702551 -2.11883622 2.13962795 0 0 Z " fill="#FE4545" transform="translate(536,470)"/>
<path d="M0 0 C9.52788321 3.96654365 14.11518653 18.52203258 17.875 27.3828125 C23.6234138 40.89812369 30.77214983 51.05064032 40.98876953 61.61206055 C44.74950421 65.51987189 47.94640025 69.51448624 51 74 C48.07952819 72.68819575 46.08483792 71.31181032 43.8984375 68.98046875 C43.3307666 68.37726807 42.7630957 67.77406738 42.17822266 67.15258789 C41.58315918 66.50410889 40.9880957 65.85562988 40.375 65.1875 C39.75544434 64.51388428 39.13588867 63.84026855 38.49755859 63.14624023 C27.4934939 51.04802947 19.54912506 38.90687229 13.23046875 23.8125 C12.65424139 22.43725031 12.07742638 21.06224669 11.5 19.6875 C11.2225293 19.02572754 10.94505859 18.36395508 10.65917969 17.68212891 C8.26718334 12.18273433 5.21580118 7.6675571 1.50390625 2.94140625 C0 1 0 1 0 0 Z " fill="#FE4242" transform="translate(376,311)"/>
<path d="M0 0 C2.91843445 2.626591 4.94517315 5.66976339 7 9 C7 9.66 7 10.32 7 11 C7.58394531 11.27972656 8.16789062 11.55945313 8.76953125 11.84765625 C10.85878008 12.9270405 12.73873134 14.12606449 14.6875 15.4375 C24.2096911 21.38229334 35.09048572 23.25807088 46.125 21.0625 C53.54153114 18.96440237 59.72572508 14.41141238 64 8 C64.99 8.495 64.99 8.495 66 9 C59.20840705 17.69529703 52.20819343 23.45758806 41 25 C28.23288389 25.524676 16.76991036 21.4391493 7.1015625 13.125 C3.36119821 9.34292161 0 5.46761048 0 0 Z " fill="#FC3B3B" transform="translate(258,255)"/>
<path d="M0 0 C8.87871047 4.86215097 12.92821394 13.67206329 16 23 C18.95322224 34.5667871 17.00010048 47.71411347 11 58 C10.34 57.67 9.68 57.34 9 57 C9.27714844 56.34773438 9.55429687 55.69546875 9.83984375 55.0234375 C10.38318359 53.71246094 10.38318359 53.71246094 10.9375 52.375 C11.29714844 51.51648438 11.65679687 50.65796875 12.02734375 49.7734375 C16.09181175 38.1839906 14.85633186 24.9083822 9.8125 13.875 C7.59608846 9.61471195 4.93520253 6.55020096 1.35546875 3.375 C0 2 0 2 0 0 Z " fill="#FD3D3D" transform="translate(481,275)"/>
<path d="M0 0 C0.66 0 1.32 0 2 0 C-0.36163755 10.23376272 -9.48922343 18.71458651 -18 24.31640625 C-26.59312304 29.0114392 -35.4656718 29.57054658 -45 28 C-45.99 27.67 -46.98 27.34 -48 27 C-48 26.34 -48 25.68 -48 25 C-46.65808594 25.14308594 -46.65808594 25.14308594 -45.2890625 25.2890625 C-31.93042734 26.51384142 -23.04365447 25.00132541 -12 17 C-6.54165324 12.03948291 -2.93661601 6.72974502 0 0 Z " fill="#FC3E3E" transform="translate(428,251)"/>
<path d="M0 0 C0.66 0.33 1.32 0.66 2 1 C-3.70061163 7.61011093 -9.73092266 13.86643681 -15.875 20.0625 C-16.62450928 20.8248999 -17.37401855 21.5872998 -18.14624023 22.37280273 C-19.21467163 23.44316772 -19.21467163 23.44316772 -20.3046875 24.53515625 C-20.94390137 25.178479 -21.58311523 25.82180176 -22.24169922 26.48461914 C-24 28 -24 28 -27 29 C-25.36567879 25.01455003 -22.59476067 22.15508406 -19.6875 19.0625 C-19.21376953 18.55009766 -18.74003906 18.03769531 -18.25195312 17.50976562 C-16.84562132 15.99569842 -15.42555377 14.49596373 -14 13 C-12.64841797 11.57494141 -12.64841797 11.57494141 -11.26953125 10.12109375 C-9 8 -9 8 -7 8 C-6.67 7.01 -6.34 6.02 -6 5 C-4.12382302 3.15500602 -2.07262391 1.6316401 0 0 Z " fill="#F84242" transform="translate(102,93)"/>
<path d="M0 0 C0 0.99 0 1.98 0 3 C-1.51171875 4.25390625 -1.51171875 4.25390625 -3.6875 5.5625 C-7.83355568 8.18899025 -11.74482168 11.00244214 -15.625 14 C-16.18461426 14.42974121 -16.74422852 14.85948242 -17.32080078 15.30224609 C-20.3526812 17.65121404 -23.24461256 20.08777159 -26.0625 22.6875 C-29 25 -29 25 -30.99511719 24.80102539 C-34.33185061 23.46787605 -36.69269961 20.88773638 -39.25 18.4375 C-39.80429687 17.91736328 -40.35859375 17.39722656 -40.9296875 16.86132812 C-42.29256828 15.58069015 -43.64711683 14.2911951 -45 13 C-40.82438593 13 -39.46042213 14.83352478 -36.3125 17.5 C-35.31863281 18.3353125 -34.32476562 19.170625 -33.30078125 20.03125 C-32.54152344 20.6809375 -31.78226562 21.330625 -31 22 C-28.2950623 20.73353053 -26.04507939 19.36816519 -23.75 17.4609375 C-23.14679932 16.96625977 -22.54359863 16.47158203 -21.92211914 15.96191406 C-21.28781982 15.43823242 -20.65352051 14.91455078 -20 14.375 C-13.57915707 9.14489714 -7.00245407 4.43358358 0 0 Z " fill="#FE4242" transform="translate(373,83)"/>
<path d="M0 0 C0 4.10544185 -2.09738633 6.12026667 -4.5625 9.1875 C-5.04630127 9.79682373 -5.53010254 10.40614746 -6.02856445 11.03393555 C-11.74989143 18.11316957 -18.04623383 24.64929536 -24.32617188 31.22900391 C-27.64233715 34.73767703 -30.83251987 38.35689186 -34 42 C-34.495 40.515 -34.495 40.515 -35 39 C-33.71416016 37.7315625 -33.71416016 37.7315625 -32.40234375 36.4375 C-26.37581973 30.46917771 -20.45079023 24.50578189 -15 18 C-14.09308032 16.93305587 -13.18546537 15.86670254 -12.27734375 14.80078125 C-8.12286306 9.91573698 -3.98276022 5.02741864 0 0 Z " fill="#FE4444" transform="translate(575,427)"/>
<path d="M0 0 C2.94956528 1.36944102 5.52468811 2.87830409 8 5 C8 5.66 8 6.32 8 7 C8.99 7.33 9.98 7.66 11 8 C11 8.66 11 9.32 11 10 C11.59296875 10.2578125 12.1859375 10.515625 12.796875 10.78125 C15.1918353 12.10612165 16.49061353 13.41606651 18.25 15.5 C18.84425781 16.20125 19.43851563 16.9025 20.05078125 17.625 C23.40913187 21.71693823 26.72123918 25.84406421 30 30 C29.67 30.66 29.34 31.32 29 32 C20.44710789 22.53557518 20.44710789 22.53557518 16.625 18.0625 C13.60757961 14.59779141 10.42625639 11.31861251 7.1875 8.0625 C6.46651123 7.3346228 6.46651123 7.3346228 5.73095703 6.59204102 C3.11408819 3.96583687 3.11408819 3.96583687 0 2 C0 1.34 0 0.68 0 0 Z " fill="#FE4040" transform="translate(587,97)"/>
<path d="M0 0 C8.69853535 0.37015044 14.52785063 5.16026518 20.3125 11.375 C23.70329467 15.37491946 28 20.515822 28 26 C27.34 26 26.68 26 26 26 C23.66666667 21.33333333 21.33333333 16.66666667 19 12 C18.34 12 17.68 12 17 12 C16.278125 11.2575 15.55625 10.515 14.8125 9.75 C10.16667987 5.20742031 5.59973379 2.64387647 -1 2 C-0.67 1.34 -0.34 0.68 0 0 Z " fill="#FE3E3E" transform="translate(403,184)"/>
<path d="M0 0 C3.88159147 1.63827362 6.80391783 4.2573493 9.9375 7 C15.0975605 11.45617989 20.38010824 15.68291889 25.86108398 19.73828125 C28.48189284 21.70440161 30.15703101 23.23554652 32 26 C27.16839299 24.48899182 24.07415651 21.74104943 20.375 18.4375 C19.13903919 17.35300498 17.90204676 16.26968462 16.6640625 15.1875 C16.05079102 14.64996094 15.43751953 14.11242187 14.80566406 13.55859375 C11.32210202 10.55169001 7.71231123 7.70193954 4.109375 4.83984375 C2 3 2 3 0 0 Z " fill="#FE4343" transform="translate(192,512)"/>
<path d="M0 0 C0.67482422 0.51046875 0.67482422 0.51046875 1.36328125 1.03125 C5.29859573 3.99653706 9.25922213 6.92222691 13.25 9.8125 C19.21853162 14.14031325 25.11327989 18.56184452 31 23 C30.34 23.33 29.68 23.66 29 24 C21.6206735 18.82998554 14.31461973 13.57675756 7.1875 8.0625 C6.58341309 7.60254639 5.97932617 7.14259277 5.35693359 6.66870117 C1.11762413 3.35287239 1.11762413 3.35287239 0 0 Z " fill="#FE4545" transform="translate(225,538)"/>
<path d="M0 0 C5.42298935 4.5754228 10.64573404 9.32545224 15.8125 14.1875 C16.57498047 14.89841797 17.33746094 15.60933594 18.12304688 16.34179688 C18.85201172 17.02693359 19.58097656 17.71207031 20.33203125 18.41796875 C21.31780151 19.34258911 21.31780151 19.34258911 22.32348633 20.28588867 C24 22 24 22 26 25 C23.07356763 23.67143806 20.9299237 22.20435823 18.609375 19.98828125 C17.98554932 19.39805176 17.36172363 18.80782227 16.71899414 18.19970703 C16.06922607 17.57692871 15.41945801 16.95415039 14.75 16.3125 C13.4110297 15.04464984 12.07119349 13.77771349 10.73046875 12.51171875 C10.08899902 11.90505371 9.4475293 11.29838867 8.78662109 10.67333984 C5.60317277 7.69173902 2.32320689 4.82419499 -1 2 C-0.67 1.34 -0.34 0.68 0 0 Z " fill="#FE3B3B" transform="translate(158,480)"/>
<path d="M0 0 C4.10447392 0.51776621 5.95699523 2.64627444 8.75 5.5625 C9.94882813 6.80193359 9.94882813 6.80193359 11.171875 8.06640625 C11.77515625 8.70449219 12.3784375 9.34257812 13 10 C8.87731395 10 7.79669528 8.32277298 4.8125 5.5625 C3.91144531 4.73878906 3.01039063 3.91507812 2.08203125 3.06640625 C1.39496094 2.38449219 0.70789063 1.70257813 0 1 C0 0.67 0 0.34 0 0 Z " fill="#FE4D4D" transform="translate(171,494)"/>
<path d="M0 0 C4.44907205 1.48302402 6.74579392 5.08285501 9 9 C9 9.66 9 10.32 9 11 C8.34 11 7.68 11 7 11 C5.2734375 8.84765625 5.2734375 8.84765625 3.375 6.0625 C2.74335937 5.14597656 2.11171875 4.22945313 1.4609375 3.28515625 C0 1 0 1 0 0 Z " fill="#FE3C3C" transform="translate(99,414)"/>
<path d="M0 0 C2.97 0 5.94 0 9 0 C8.67 0.99 8.34 1.98 8 3 C5.69 3 3.38 3 1 3 C0.67 2.01 0.34 1.02 0 0 Z " fill="#F93131" transform="translate(291,277)"/>
<path d="M0 0 C2.31 0.33 4.62 0.66 7 1 C6.67 1.66 6.34 2.32 6 3 C3.36 3 0.72 3 -2 3 C-1.34 2.01 -0.68 1.02 0 0 Z " fill="#FD2626" transform="translate(396,183)"/>
<path d="M0 0 C4.20626034 1.50223584 5.73900021 4.28550034 8 8 C7.01 8 6.02 8 5 8 C2 4.66666667 2 4.66666667 2 2 C1.34 2 0.68 2 0 2 C0 1.34 0 0.68 0 0 Z " fill="#FE3C3C" transform="translate(426,385)"/>
<path d="M0 0 C0.33 0.99 0.66 1.98 1 3 C-1.3125 6.1875 -1.3125 6.1875 -4 9 C-4.66 9 -5.32 9 -6 9 C-4.47291037 5.56404834 -2.40072955 2.88087546 0 0 Z " fill="#FE3A3A" transform="translate(74,121)"/>
</svg>
