<?xml version="1.0" encoding="UTF-8"?>
<svg version="1.1" xmlns="http://www.w3.org/2000/svg" width="800" height="800">
<path d="M0 0 C5.11138994 3.85102805 10.12084683 7.8192116 15.07714844 11.86767578 C15.89957031 12.51607422 16.72199219 13.16447266 17.56933594 13.83251953 C30.04846241 23.77508766 41.34788701 35.05710427 52.63964844 46.30517578 C53.47230225 47.13315674 54.30495605 47.9611377 55.1628418 48.81420898 C60.00749027 53.67157435 64.6193411 58.65484498 69.07714844 63.86767578 C70.0381439 64.96251906 71.00033027 66.05631849 71.96386719 67.14892578 C78.93341274 75.12815876 85.41957225 83.38436148 91.66748047 91.93896484 C92.99262157 93.75202593 94.3289776 95.55629575 95.66699219 97.35986328 C120.42855368 131.04005107 141.10348274 170.81806804 135.07714844 213.86767578 C131.06663403 239.21902339 118.04836601 261.17458695 97.47558594 276.65673828 C53.40446047 308.15947493 -4.50685928 293.94840901 -54.12695312 287.24243164 C-55.23264648 287.09323273 -56.33833984 286.94403381 -57.47753906 286.79031372 C-59.5451577 286.51061846 -61.61255941 286.22931235 -63.6796875 285.9460144 C-74.20973049 284.51875362 -84.51586206 283.65837032 -95.15283203 283.62744141 C-97.15572041 283.6177586 -99.15846692 283.58655938 -101.16113281 283.55517578 C-114.03661735 283.50443496 -125.55753891 285.99029004 -137.54785156 290.55517578 C-138.48314697 290.90185303 -139.41844238 291.24853027 -140.38208008 291.60571289 C-145.77038449 293.61923 -151.10612337 295.74286697 -156.42553711 297.9309082 C-183.22715541 308.9305095 -211.28873533 317.79807346 -239.38842773 306.3815918 C-260.51209991 297.33164492 -277.40704069 276.72634565 -286.20019531 255.83251953 C-299.02961252 218.31252581 -292.15895366 177.04575765 -275.25512695 142.26293945 C-258.38364502 108.56294931 -233.32788953 79.04909991 -207.60253906 51.79345703 C-205.10015164 49.14192775 -202.63945473 46.4558896 -200.19090271 43.75460815 C-194.1145941 37.0659772 -187.82543937 30.61571183 -181.42407227 24.23852539 C-179.72261378 22.54247852 -178.02663894 20.84107757 -176.33105469 19.13916016 C-170.69997791 13.50403464 -165.04204768 7.97846505 -158.92285156 2.86767578 C-158.34784912 2.38065186 -157.77284668 1.89362793 -157.18041992 1.3918457 C-104.02910434 -43.23115106 -54.89241304 -40.78751216 0 0 Z " fill="#D62828" transform="translate(486.9228515625,361.13232421875)"/>
<path d="M0 0 C18.93214092 17.22269253 24.72403229 47.80719183 26.21142578 72.21337891 C27.73362336 108.56141891 16.41805439 142.50859606 -7.859375 169.75390625 C-17.4599172 180.09966649 -29.22194252 188.7052643 -42.95703125 192.44921875 C-43.67761719 192.6709375 -44.39820313 192.89265625 -45.140625 193.12109375 C-59.4645262 197.0108871 -73.6155558 193.80079504 -86.48828125 186.98828125 C-104.43104941 175.8024416 -117.61894305 159.01744136 -123.04296875 138.578125 C-129.73021709 109.73492965 -129.05735771 79.3468072 -118.95703125 51.44921875 C-118.6115625 50.46308594 -118.26609375 49.47695312 -117.91015625 48.4609375 C-109.41940135 26.21885128 -94.95157884 4.92059287 -72.85449219 -5.17578125 C-48.59104128 -15.62848079 -21.38042609 -16.94217397 0 0 Z " fill="#D62828" transform="translate(555.95703125,124.55078125)"/>
<path d="M0 0 C1.08437599 -0.01210762 1.08437599 -0.01210762 2.19065857 -0.02445984 C3.7212385 -0.03826684 5.25184879 -0.04900408 6.7824707 -0.05688477 C8.32911366 -0.06834856 9.87571883 -0.08871075 11.42211914 -0.1184082 C20.93002868 -0.30072377 28.79815996 0.05656063 37.55859375 4.23828125 C38.55632812 4.67269531 39.5540625 5.10710937 40.58203125 5.5546875 C48.50533958 9.75325122 54.96364377 15.24137752 61.55859375 21.23828125 C62.49832031 22.07101563 63.43804687 22.90375 64.40625 23.76171875 C83.20941711 41.3474146 90.84436578 63.79933103 96.55859375 88.23828125 C96.80609375 89.2334375 97.05359375 90.22859375 97.30859375 91.25390625 C103.14273069 118.96605673 96.3794402 149.43063923 81.55859375 173.23828125 C72.94032895 186.32541851 62.21362041 196.16376268 47.55859375 202.23828125 C46.75035156 202.57730469 45.94210937 202.91632813 45.109375 203.265625 C31.07520422 208.2993689 15.50905306 205.05667743 2.30859375 199.05078125 C-24.56419477 184.39692128 -42.78395033 154.82558081 -51.44140625 126.23828125 C-60.76454137 91.5803816 -58.93597886 55.74880799 -41.21484375 24.17578125 C-33.91255832 12.08036573 -25.02915495 5.27553566 -11.44140625 1.23828125 C-10.88445068 1.06321045 -10.32749512 0.88813965 -9.75366211 0.70776367 C-6.51249912 0.04967515 -3.29444354 0.0353433 0 0 Z " fill="#D62828" transform="translate(276.44140625,112.76171875)"/>
<path d="M0 0 C1.37671875 0.56654297 1.37671875 0.56654297 2.78125 1.14453125 C18.20169633 8.47810558 28.46139533 23.00874644 34.22192383 38.65942383 C44.05482206 67.31267307 39.4268491 99.41841908 26.6875 126.375 C13.42285207 151.4624863 -9.11117998 168.88685885 -35.59765625 178.2734375 C-45.02781338 181.12548502 -56.085395 181.63621691 -65 177 C-68.86808621 174.56601961 -72.44281718 171.86592885 -76 169 C-76.83660156 168.3296875 -77.67320312 167.659375 -78.53515625 166.96875 C-94.39836988 153.49381735 -106.85505862 134.48034925 -109.71484375 113.62890625 C-112.15499491 82.57547572 -105.56935888 52.87853635 -85.21484375 28.5 C-64.21948794 4.80153841 -31.70647472 -13.50934474 0 0 Z " fill="#D62828" transform="translate(685,282)"/>
<path d="M0 0 C0.93585938 0.44601562 1.87171875 0.89203125 2.8359375 1.3515625 C29.68508595 15.12232918 51.69808772 40.40958072 61.4375 68.9375 C65.87361928 82.99026473 67.26213601 96.79447674 67.4375 111.5 C67.47109619 113.25352783 67.47109619 113.25352783 67.50537109 115.04248047 C67.45359704 134.16345765 56.52829665 145.94372221 44 159 C43.12730469 159.92554688 42.25460938 160.85109375 41.35546875 161.8046875 C32.87706825 170.59017967 23.65438914 178.76449899 11 179.5 C-11.61483948 178.72445681 -37.24155762 163.87782149 -52.80078125 148.18359375 C-65.72783846 133.25234163 -75.28725767 117.55755067 -82 99 C-82.39058594 97.9378125 -82.78117187 96.875625 -83.18359375 95.78125 C-89.57114697 77.62468845 -90.48005749 60.01963405 -82.33984375 42.3203125 C-77.8631688 33.08983511 -72.08201999 25.3857046 -65 18 C-64.52546387 17.50483887 -64.05092773 17.00967773 -63.56201172 16.49951172 C-46.31608018 -1.12044205 -23.68759626 -11.33406505 0 0 Z " fill="#D62828" transform="translate(164,283)"/>
</svg>
