<svg xmlns="http://www.w3.org/2000/svg" xmlns:v="https://svgstorm.com"
viewBox = "0 0 749 540"
width="749"
height="540">
<g fill="None" fill-opacity="0.0" stroke="#000000" stroke-opacity="0.00" stroke-width="0.3"><path d="
M 0.00 540.00 
L 749.00 540.00
L 749.00 0.00
L 0.00 0.00
L 0.00 540.00
M 650.00 256.00 
C 653.03 256.42 654.85 257.35 657.00 258.00
C 664.90 258.58 674.14 260.98 681.00 264.00 C 687.87 267.02 685.84 280.17 697.00 279.00
C 697.55 283.72 691.84 285.62 688.00 285.00
C 686.34 290.20 688.57 304.20 679.00 297.00
C 674.36 305.88 660.09 304.69 650.93 309.93 C 641.76 315.17 630.16 317.65 620.31 321.31 C 610.45 324.96 601.60 329.98 592.25 335.25 C 582.91 340.53 573.30 344.07 563.77 348.77 C 554.24 353.47 544.21 357.15 534.98 361.98 C 525.74 366.80 516.81 371.94 507.31 376.31 C 497.80 380.67 489.19 386.24 479.92 390.92 C 470.66 395.61 462.01 401.11 452.75 405.75 C 443.50 410.40 434.83 416.96 425.00 420.00
C 421.05 412.40 402.21 414.09 404.00 401.00 C 405.79 387.91 415.06 385.90 423.25 378.25 C 431.43 370.60 441.22 369.27 449.74 362.74 C 458.26 356.22 468.95 353.63 477.75 347.75 C 486.54 341.86 495.34 337.16 505.23 333.23 C 515.12 329.30 524.06 324.04 534.02 320.03 C 543.99 316.01 552.25 308.05 563.00 306.00
C 563.66 305.46 564.62 304.90 565.00 304.00
C 558.00 304.00 551.00 304.00 544.00 304.00
C 543.09 304.00 541.88 303.81 541.00 304.00
C 535.53 305.20 529.09 304.59 523.00 305.00
C 515.13 305.54 506.90 306.12 499.00 307.00
C 491.11 307.88 482.93 308.02 475.00 309.00
C 470.38 309.57 464.91 310.97 460.00 310.00
C 457.25 310.27 453.42 311.00 450.00 311.00
C 449.50 311.00 448.47 310.89 448.00 311.00
C 443.09 312.14 438.15 311.50 433.00 312.00
C 419.54 313.30 405.68 315.91 392.00 317.00
C 384.44 317.60 376.75 318.25 369.00 319.00
C 367.41 319.15 364.16 319.75 362.00 320.00
C 355.35 320.78 349.02 322.00 342.00 322.00
C 341.50 322.00 340.50 322.03 340.00 322.00
C 331.51 321.41 322.33 324.68 314.00 326.00
C 307.39 327.05 300.81 328.01 294.00 329.00
C 291.18 329.41 287.26 330.45 284.00 331.00
C 281.33 331.45 278.96 332.32 276.00 332.00
C 275.51 331.95 275.00 332.00 275.00 332.00
C 270.41 334.17 263.34 334.37 258.00 335.00
C 257.51 335.06 256.45 334.85 256.00 335.00
C 251.80 336.45 247.42 336.33 243.00 337.00
C 240.43 337.39 237.70 337.58 235.00 338.00
C 233.59 338.22 230.92 338.72 229.00 339.00
C 214.06 341.20 199.01 344.42 184.00 347.00
C 182.20 347.31 179.90 347.61 178.00 348.00
C 167.09 350.24 154.99 353.69 143.78 355.78 C 132.57 357.86 119.91 360.98 108.99 362.99 C 98.08 365.01 85.31 369.47 74.98 370.98 C 64.64 372.49 49.52 384.28 47.00 371.00
C 45.01 360.51 45.51 346.44 47.00 336.00
C 47.54 332.19 48.96 328.77 47.00 326.00
C 53.17 322.91 61.78 322.26 68.07 320.07 C 74.36 317.89 85.13 312.49 87.00 321.00
C 86.51 318.27 87.30 315.98 89.00 314.00
C 91.78 314.57 90.19 318.48 93.00 319.00
C 96.33 317.01 101.52 318.68 105.00 316.00
C 103.20 311.08 111.88 308.71 116.00 309.00
C 117.11 312.30 112.61 312.25 112.00 315.00
C 117.33 313.41 123.83 312.91 129.01 311.01 C 134.19 309.11 142.62 310.34 137.00 304.00
C 148.71 303.30 159.15 297.53 171.00 297.00
C 174.68 296.55 174.27 296.50 177.00 298.00
C 178.17 298.64 176.43 300.42 179.00 300.00
C 184.62 291.19 195.72 293.78 205.01 291.01 C 214.29 288.23 227.48 287.94 237.00 290.00
C 229.63 280.93 246.34 293.08 247.00 284.00
C 253.86 285.89 263.07 279.27 270.02 281.98 C 276.98 284.68 283.07 286.65 287.00 281.00
C 292.97 285.45 299.16 278.99 306.00 280.00
C 305.92 278.74 303.94 279.44 304.00 278.00
C 297.68 274.61 307.40 274.37 310.00 276.00
C 312.48 277.55 310.37 278.26 312.00 280.00
C 312.65 272.17 319.57 275.49 324.00 274.00 C 328.43 272.51 335.29 268.61 336.00 277.00
C 340.55 272.15 346.79 269.59 354.00 269.00
C 357.77 268.50 361.25 268.60 365.00 268.00
C 368.72 267.41 373.22 266.11 377.00 266.00
C 379.01 265.94 379.58 266.33 381.00 267.00
C 384.34 268.57 383.64 268.71 381.00 271.00
C 386.76 270.98 392.57 271.38 398.00 270.00
C 393.63 264.70 405.27 261.81 403.00 269.00
C 405.63 266.13 412.34 270.49 413.00 266.00
C 412.57 266.42 412.32 261.97 415.03 263.03 C 417.74 264.08 418.78 262.57 419.00 266.00
C 418.17 266.41 417.13 266.97 417.00 268.00
C 418.57 267.70 420.39 267.17 420.00 265.00
C 427.31 264.28 438.67 270.22 446.00 267.00 C 453.33 263.78 461.12 263.63 468.03 265.02 C 474.93 266.42 484.08 254.66 486.00 265.00
C 492.90 262.12 500.00 264.38 507.00 261.00
C 506.72 260.72 506.22 259.12 506.00 259.00
C 481.76 258.18 459.32 241.61 434.00 244.00
C 428.94 237.02 415.34 237.63 412.00 227.00
C 410.40 225.40 409.89 225.77 408.00 225.00
C 402.69 222.83 404.60 220.38 401.00 217.00
C 399.98 219.77 398.19 218.80 397.00 217.00
C 393.24 211.29 406.36 193.83 415.67 197.33 C 424.99 200.83 439.46 201.73 449.68 205.32 C 459.90 208.91 472.35 210.78 483.07 213.93 C 493.80 217.07 505.74 219.39 516.67 222.33 C 527.60 225.26 538.27 227.66 549.22 230.78 C 560.17 233.90 571.92 236.26 583.00 239.00 C 594.09 241.74 604.80 245.61 616.02 247.98 C 627.24 250.34 638.59 254.41 650.00 256.00 Z"/>
</g>
<g fill="None" fill-opacity="0.0" stroke="#591900" stroke-opacity="0.96" stroke-width="0.3"><path d="
M 397.00 217.00 
C 397.76 216.40 400.24 216.28 401.00 217.00
C 404.60 220.38 402.69 222.83 408.00 225.00
C 411.60 225.77 410.42 224.04 412.00 227.00
C 415.34 237.63 428.94 237.02 434.00 244.00
C 459.32 241.61 481.76 258.18 506.00 259.00
C 507.51 259.05 511.61 257.09 513.00 260.00
C 512.17 261.95 508.38 263.16 507.00 261.00
C 500.00 264.38 492.90 262.12 486.00 265.00
C 484.08 254.66 474.93 266.42 468.03 265.02 C 461.12 263.63 453.33 263.78 446.00 267.00 C 438.67 270.22 427.31 264.28 420.00 265.00
C 420.39 267.17 418.57 267.70 417.00 268.00
C 416.39 268.12 413.64 267.52 413.00 266.00
C 412.34 270.49 405.63 266.13 403.00 269.00
C 405.27 261.81 393.63 264.70 398.00 270.00
C 392.57 271.38 386.76 270.98 381.00 271.00
C 383.64 268.71 384.34 268.57 381.00 267.00
C 380.26 266.85 376.57 269.16 375.00 268.00
C 375.08 266.74 377.06 267.44 377.00 266.00
C 373.22 266.11 368.72 267.41 365.00 268.00
C 365.44 267.80 360.96 271.78 357.98 270.98 C 354.99 270.17 356.03 269.22 354.00 269.00
C 346.79 269.59 340.55 272.15 336.00 277.00
C 335.29 268.61 328.43 272.51 324.00 274.00 C 319.57 275.49 312.65 272.17 312.00 280.00
C 310.37 278.26 312.48 277.55 310.00 276.00
C 313.80 279.86 304.04 278.02 304.00 278.00
C 303.94 279.44 305.92 278.74 306.00 280.00
C 299.16 278.99 292.97 285.45 287.00 281.00
C 283.07 286.65 276.98 284.68 270.02 281.98 C 263.07 279.27 253.86 285.89 247.00 284.00
C 246.34 293.08 229.63 280.93 237.00 290.00
C 227.48 287.94 214.29 288.23 205.01 291.01 C 195.72 293.78 184.62 291.19 179.00 300.00
C 176.43 300.42 178.17 298.64 177.00 298.00
C 175.54 298.21 172.36 301.32 170.00 301.00
C 169.63 299.46 171.43 298.60 171.00 297.00
C 159.15 297.53 148.71 303.30 137.00 304.00
C 142.62 310.34 134.19 309.11 129.01 311.01 C 123.83 312.91 117.33 313.41 112.00 315.00
C 112.61 312.25 117.11 312.30 116.00 309.00
C 111.88 308.71 103.20 311.08 105.00 316.00
C 101.52 318.68 96.33 317.01 93.00 319.00
C 90.19 318.48 91.78 314.57 89.00 314.00
C 87.30 315.98 86.51 318.27 87.00 321.00
C 85.13 312.49 74.36 317.89 68.07 320.07 C 61.78 322.26 53.17 322.91 47.00 326.00
C 48.96 328.77 47.54 332.19 47.00 336.00
C 47.57 347.42 47.13 359.62 47.00 371.00
C 49.52 384.28 64.64 372.49 74.98 370.98 C 85.31 369.47 98.08 365.01 108.99 362.99 C 119.91 360.98 132.57 357.86 143.78 355.78 C 154.99 353.69 167.09 350.24 178.00 348.00
C 179.15 347.43 181.03 347.00 184.00 347.00
C 199.01 344.42 214.06 341.20 229.00 339.00
C 231.24 338.13 231.87 337.88 235.00 338.00
C 237.70 337.58 240.43 337.39 243.00 337.00
C 246.08 335.95 251.60 332.88 256.00 335.00
C 256.45 334.85 257.51 335.06 258.00 335.00
C 259.93 332.60 271.65 329.39 275.00 332.00
C 275.00 332.00 275.51 331.95 276.00 332.00
C 277.76 328.14 281.78 330.94 284.00 331.00
C 287.26 330.45 291.18 329.41 294.00 329.00
C 298.54 326.94 307.32 325.86 314.00 326.00
C 322.33 324.68 331.51 321.41 340.00 322.00
C 336.81 319.47 344.92 320.02 346.00 320.00
C 351.64 319.89 357.08 319.62 362.00 320.00
C 364.16 319.75 367.41 319.15 369.00 319.00
C 374.08 316.94 384.59 316.28 392.00 317.00
C 405.68 315.91 419.54 313.30 433.00 312.00
C 435.18 311.18 441.70 309.24 447.00 310.00
C 449.75 309.73 453.52 308.47 457.00 309.00
C 458.20 309.18 458.85 309.77 460.00 310.00
C 464.91 310.97 470.38 309.57 475.00 309.00
C 478.42 307.90 483.52 305.36 488.00 306.00 C 492.48 306.64 492.04 306.92 495.22 305.22 C 498.40 303.52 499.64 307.14 499.00 307.00
C 506.90 306.12 515.13 305.54 523.00 305.00
C 525.13 304.17 532.88 302.25 539.00 303.00
C 542.57 302.65 548.83 301.00 553.00 302.00 C 557.17 303.00 564.03 299.98 567.00 303.00
C 571.03 305.32 562.38 306.15 563.00 306.00
C 552.25 308.05 543.99 316.01 534.02 320.03 C 524.06 324.04 515.12 329.30 505.23 333.23 C 495.34 337.16 486.54 341.86 477.75 347.75 C 468.95 353.63 458.26 356.22 449.74 362.74 C 441.22 369.27 431.43 370.60 423.25 378.25 C 415.06 385.90 405.79 387.91 404.00 401.00 C 402.21 414.09 421.05 412.40 425.00 420.00
C 434.83 416.96 443.50 410.40 452.75 405.75 C 462.01 401.11 470.66 395.61 479.92 390.92 C 489.19 386.24 497.80 380.67 507.31 376.31 C 516.81 371.94 525.74 366.80 534.98 361.98 C 544.21 357.15 554.24 353.47 563.77 348.77 C 573.30 344.07 582.91 340.53 592.25 335.25 C 601.60 329.98 610.45 324.96 620.31 321.31 C 630.16 317.65 641.76 315.17 650.93 309.93 C 660.09 304.69 674.36 305.88 679.00 297.00
C 688.57 304.20 686.34 290.20 688.00 285.00
C 691.84 285.62 697.55 283.72 697.00 279.00
C 685.84 280.17 687.87 267.02 681.00 264.00 C 674.14 260.98 664.90 258.58 657.00 258.00
C 654.68 257.83 651.65 256.58 650.00 256.00
C 638.59 254.41 627.24 250.34 616.02 247.98 C 604.80 245.61 594.09 241.74 583.00 239.00 C 571.92 236.26 560.17 233.90 549.22 230.78 C 538.27 227.66 527.60 225.26 516.67 222.33 C 505.74 219.39 493.80 217.07 483.07 213.93 C 472.35 210.78 459.90 208.91 449.68 205.32 C 439.46 201.73 424.99 200.83 415.67 197.33 C 406.36 193.83 393.24 211.29 397.00 217.00 Z"/>
</g>
<g fill="None" fill-opacity="0.0" stroke="#4F0D00" stroke-opacity="0.36" stroke-width="0.3"><path d="
M 397.00 217.00 
C 398.19 218.80 399.98 219.77 401.00 217.00
C 400.24 216.28 397.76 216.40 397.00 217.00 Z"/>
</g>
<g fill="None" fill-opacity="0.0" stroke="#570C00" stroke-opacity="0.32" stroke-width="0.3"><path d="
M 408.00 225.00 
C 409.89 225.77 410.40 225.40 412.00 227.00
C 410.42 224.04 411.60 225.77 408.00 225.00 Z"/>
</g>
<g fill="None" fill-opacity="0.0" stroke="#550E00" stroke-opacity="0.44" stroke-width="0.3"><path d="
M 657.00 258.00 
C 654.85 257.35 653.03 256.42 650.00 256.00
C 651.65 256.58 654.68 257.83 657.00 258.00 Z"/>
</g>
<g fill="None" fill-opacity="0.0" stroke="#520F00" stroke-opacity="0.44" stroke-width="0.3"><path d="
M 506.00 259.00 
C 506.22 259.12 506.72 260.72 507.00 261.00
C 508.38 263.16 512.17 261.95 513.00 260.00
C 511.61 257.09 507.51 259.05 506.00 259.00 Z"/>
</g>
<g fill="None" fill-opacity="0.0" stroke="#4F1000" stroke-opacity="0.50" stroke-width="0.3"><path d="
M 413.00 266.00 
C 413.64 267.52 416.39 268.12 417.00 268.00
C 417.13 266.97 418.17 266.41 419.00 266.00
C 418.78 262.57 417.74 264.08 415.03 263.03 C 412.32 261.97 412.57 266.42 413.00 266.00 Z"/>
</g>
<g fill="None" fill-opacity="0.0" stroke="#571D01" stroke-opacity="0.47" stroke-width="0.3"><path d="
M 381.00 267.00 
C 379.58 266.33 379.01 265.94 377.00 266.00
C 377.06 267.44 375.08 266.74 375.00 268.00
C 376.57 269.16 380.26 266.85 381.00 267.00 Z"/>
</g>
<g fill="None" fill-opacity="0.0" stroke="#510B00" stroke-opacity="0.44" stroke-width="0.3"><path d="
M 354.00 269.00 
C 356.03 269.22 354.99 270.17 357.98 270.98 C 360.96 271.78 365.44 267.80 365.00 268.00
C 361.25 268.60 357.77 268.50 354.00 269.00 Z"/>
</g>
<g fill="None" fill-opacity="0.0" stroke="#510F00" stroke-opacity="0.54" stroke-width="0.3"><path d="
M 304.00 278.00 
C 304.04 278.02 313.80 279.86 310.00 276.00
C 307.40 274.37 297.68 274.61 304.00 278.00 Z"/>
</g>
<g fill="None" fill-opacity="0.0" stroke="#530E00" stroke-opacity="0.53" stroke-width="0.3"><path d="
M 171.00 297.00 
C 171.43 298.60 169.63 299.46 170.00 301.00
C 172.36 301.32 175.54 298.21 177.00 298.00
C 174.27 296.50 174.68 296.55 171.00 297.00 Z"/>
</g>
<g fill="None" fill-opacity="0.0" stroke="#4F0C00" stroke-opacity="0.80" stroke-width="0.3"><path d="
M 539.00 303.00 
C 540.17 303.14 540.31 303.81 541.00 304.00
C 541.88 303.81 543.09 304.00 544.00 304.00
C 548.19 303.08 562.63 300.49 567.00 303.00
C 564.03 299.98 557.17 303.00 553.00 302.00 C 548.83 301.00 542.57 302.65 539.00 303.00 Z"/>
</g>
<g fill="None" fill-opacity="0.0" stroke="#4C0300" stroke-opacity="0.41" stroke-width="0.3"><path d="
M 523.00 305.00 
C 529.09 304.59 535.53 305.20 541.00 304.00
C 540.31 303.81 540.17 303.14 539.00 303.00
C 532.88 302.25 525.13 304.17 523.00 305.00 Z"/>
</g>
<g fill="None" fill-opacity="0.0" stroke="#521200" stroke-opacity="0.17" stroke-width="0.3"><path d="
M 544.00 304.00 
C 551.00 304.00 558.00 304.00 565.00 304.00
C 564.62 304.90 563.66 305.46 563.00 306.00
C 562.38 306.15 571.03 305.32 567.00 303.00
C 562.63 300.49 548.19 303.08 544.00 304.00 Z"/>
</g>
<g fill="None" fill-opacity="0.0" stroke="#4A0400" stroke-opacity="0.45" stroke-width="0.3"><path d="
M 475.00 309.00 
C 482.93 308.02 491.11 307.88 499.00 307.00
C 499.64 307.14 498.40 303.52 495.22 305.22 C 492.04 306.92 492.48 306.64 488.00 306.00 C 483.52 305.36 478.42 307.90 475.00 309.00 Z"/>
</g>
<g fill="None" fill-opacity="0.0" stroke="#460300" stroke-opacity="0.75" stroke-width="0.3"><path d="
M 447.00 310.00 
C 447.35 310.05 447.74 310.89 448.00 311.00
C 448.47 310.89 449.50 311.00 450.00 311.00
C 451.33 310.43 455.76 308.98 457.00 309.00
C 453.52 308.47 449.75 309.73 447.00 310.00 Z"/>
</g>
<g fill="None" fill-opacity="0.0" stroke="#4E0100" stroke-opacity="0.15" stroke-width="0.3"><path d="
M 450.00 311.00 
C 453.42 311.00 457.25 310.27 460.00 310.00
C 458.85 309.77 458.20 309.18 457.00 309.00
C 455.76 308.98 451.33 310.43 450.00 311.00 Z"/>
</g>
<g fill="None" fill-opacity="0.0" stroke="#4A0300" stroke-opacity="0.43" stroke-width="0.3"><path d="
M 433.00 312.00 
C 438.15 311.50 443.09 312.14 448.00 311.00
C 447.74 310.89 447.35 310.05 447.00 310.00
C 441.70 309.24 435.18 311.18 433.00 312.00 Z"/>
</g>
<g fill="None" fill-opacity="0.0" stroke="#480200" stroke-opacity="0.41" stroke-width="0.3"><path d="
M 369.00 319.00 
C 376.75 318.25 384.44 317.60 392.00 317.00
C 384.59 316.28 374.08 316.94 369.00 319.00 Z"/>
</g>
<g fill="None" fill-opacity="0.0" stroke="#4B0200" stroke-opacity="0.36" stroke-width="0.3"><path d="
M 346.00 320.00 
C 345.12 320.17 342.85 321.77 342.00 322.00
C 349.02 322.00 355.35 320.78 362.00 320.00
C 357.08 319.62 351.64 319.89 346.00 320.00 Z"/>
</g>
<g fill="None" fill-opacity="0.0" stroke="#460300" stroke-opacity="0.73" stroke-width="0.3"><path d="
M 340.00 322.00 
C 340.50 322.03 341.50 322.00 342.00 322.00
C 342.85 321.77 345.12 320.17 346.00 320.00
C 344.92 320.02 336.81 319.47 340.00 322.00 Z"/>
</g>
<g fill="None" fill-opacity="0.0" stroke="#480100" stroke-opacity="0.45" stroke-width="0.3"><path d="
M 294.00 329.00 
C 300.81 328.01 307.39 327.05 314.00 326.00
C 307.32 325.86 298.54 326.94 294.00 329.00 Z"/>
</g>
<g fill="None" fill-opacity="0.0" stroke="#4A0200" stroke-opacity="0.37" stroke-width="0.3"><path d="
M 276.00 332.00 
C 278.96 332.32 281.33 331.45 284.00 331.00
C 281.78 330.94 277.76 328.14 276.00 332.00 Z"/>
</g>
<g fill="None" fill-opacity="0.0" stroke="#4B0300" stroke-opacity="0.42" stroke-width="0.3"><path d="
M 258.00 335.00 
C 263.34 334.37 270.41 334.17 275.00 332.00
C 271.65 329.39 259.93 332.60 258.00 335.00 Z"/>
</g>
<g fill="None" fill-opacity="0.0" stroke="#4A0200" stroke-opacity="0.40" stroke-width="0.3"><path d="
M 243.00 337.00 
C 247.42 336.33 251.80 336.45 256.00 335.00
C 251.60 332.88 246.08 335.95 243.00 337.00 Z"/>
</g>
<g fill="None" fill-opacity="0.0" stroke="#541200" stroke-opacity="0.43" stroke-width="0.3"><path d="
M 47.00 371.00 
C 47.13 359.62 47.57 347.42 47.00 336.00
C 45.51 346.44 45.01 360.51 47.00 371.00 Z"/>
</g>
<g fill="None" fill-opacity="0.0" stroke="#520600" stroke-opacity="0.44" stroke-width="0.3"><path d="
M 229.00 339.00 
C 230.92 338.72 233.59 338.22 235.00 338.00
C 231.87 337.88 231.24 338.13 229.00 339.00 Z"/>
</g>
<g fill="None" fill-opacity="0.0" stroke="#460400" stroke-opacity="0.47" stroke-width="0.3"><path d="
M 178.00 348.00 
C 179.90 347.61 182.20 347.31 184.00 347.00
C 181.03 347.00 179.15 347.43 178.00 348.00 Z"/>
</g>
<g fill="#000000" fill-opacity="0.00" stroke="None">
<path d="
M 0.00 540.00 
L 749.00 540.00
L 749.00 0.00
L 0.00 0.00
L 0.00 540.00
M 650.00 256.00 
C 653.03 256.42 654.85 257.35 657.00 258.00
C 664.90 258.58 674.14 260.98 681.00 264.00 C 687.87 267.02 685.84 280.17 697.00 279.00
C 697.55 283.72 691.84 285.62 688.00 285.00
C 686.34 290.20 688.57 304.20 679.00 297.00
C 674.36 305.88 660.09 304.69 650.93 309.93 C 641.76 315.17 630.16 317.65 620.31 321.31 C 610.45 324.96 601.60 329.98 592.25 335.25 C 582.91 340.53 573.30 344.07 563.77 348.77 C 554.24 353.47 544.21 357.15 534.98 361.98 C 525.74 366.80 516.81 371.94 507.31 376.31 C 497.80 380.67 489.19 386.24 479.92 390.92 C 470.66 395.61 462.01 401.11 452.75 405.75 C 443.50 410.40 434.83 416.96 425.00 420.00
C 421.05 412.40 402.21 414.09 404.00 401.00 C 405.79 387.91 415.06 385.90 423.25 378.25 C 431.43 370.60 441.22 369.27 449.74 362.74 C 458.26 356.22 468.95 353.63 477.75 347.75 C 486.54 341.86 495.34 337.16 505.23 333.23 C 515.12 329.30 524.06 324.04 534.02 320.03 C 543.99 316.01 552.25 308.05 563.00 306.00
C 563.66 305.46 564.62 304.90 565.00 304.00
C 558.00 304.00 551.00 304.00 544.00 304.00
C 543.09 304.00 541.88 303.81 541.00 304.00
C 535.53 305.20 529.09 304.59 523.00 305.00
C 515.13 305.54 506.90 306.12 499.00 307.00
C 491.11 307.88 482.93 308.02 475.00 309.00
C 470.38 309.57 464.91 310.97 460.00 310.00
C 457.25 310.27 453.42 311.00 450.00 311.00
C 449.50 311.00 448.47 310.89 448.00 311.00
C 443.09 312.14 438.15 311.50 433.00 312.00
C 419.54 313.30 405.68 315.91 392.00 317.00
C 384.44 317.60 376.75 318.25 369.00 319.00
C 367.41 319.15 364.16 319.75 362.00 320.00
C 355.35 320.78 349.02 322.00 342.00 322.00
C 341.50 322.00 340.50 322.03 340.00 322.00
C 331.51 321.41 322.33 324.68 314.00 326.00
C 307.39 327.05 300.81 328.01 294.00 329.00
C 291.18 329.41 287.26 330.45 284.00 331.00
C 281.33 331.45 278.96 332.32 276.00 332.00
C 275.51 331.95 275.00 332.00 275.00 332.00
C 270.41 334.17 263.34 334.37 258.00 335.00
C 257.51 335.06 256.45 334.85 256.00 335.00
C 251.80 336.45 247.42 336.33 243.00 337.00
C 240.43 337.39 237.70 337.58 235.00 338.00
C 233.59 338.22 230.92 338.72 229.00 339.00
C 214.06 341.20 199.01 344.42 184.00 347.00
C 182.20 347.31 179.90 347.61 178.00 348.00
C 167.09 350.24 154.99 353.69 143.78 355.78 C 132.57 357.86 119.91 360.98 108.99 362.99 C 98.08 365.01 85.31 369.47 74.98 370.98 C 64.64 372.49 49.52 384.28 47.00 371.00
C 45.01 360.51 45.51 346.44 47.00 336.00
C 47.54 332.19 48.96 328.77 47.00 326.00
C 53.17 322.91 61.78 322.26 68.07 320.07 C 74.36 317.89 85.13 312.49 87.00 321.00
C 86.51 318.27 87.30 315.98 89.00 314.00
C 91.78 314.57 90.19 318.48 93.00 319.00
C 96.33 317.01 101.52 318.68 105.00 316.00
C 103.20 311.08 111.88 308.71 116.00 309.00
C 117.11 312.30 112.61 312.25 112.00 315.00
C 117.33 313.41 123.83 312.91 129.01 311.01 C 134.19 309.11 142.62 310.34 137.00 304.00
C 148.71 303.30 159.15 297.53 171.00 297.00
C 174.68 296.55 174.27 296.50 177.00 298.00
C 178.17 298.64 176.43 300.42 179.00 300.00
C 184.62 291.19 195.72 293.78 205.01 291.01 C 214.29 288.23 227.48 287.94 237.00 290.00
C 229.63 280.93 246.34 293.08 247.00 284.00
C 253.86 285.89 263.07 279.27 270.02 281.98 C 276.98 284.68 283.07 286.65 287.00 281.00
C 292.97 285.45 299.16 278.99 306.00 280.00
C 305.92 278.74 303.94 279.44 304.00 278.00
C 297.68 274.61 307.40 274.37 310.00 276.00
C 312.48 277.55 310.37 278.26 312.00 280.00
C 312.65 272.17 319.57 275.49 324.00 274.00 C 328.43 272.51 335.29 268.61 336.00 277.00
C 340.55 272.15 346.79 269.59 354.00 269.00
C 357.77 268.50 361.25 268.60 365.00 268.00
C 368.72 267.41 373.22 266.11 377.00 266.00
C 379.01 265.94 379.58 266.33 381.00 267.00
C 384.34 268.57 383.64 268.71 381.00 271.00
C 386.76 270.98 392.57 271.38 398.00 270.00
C 393.63 264.70 405.27 261.81 403.00 269.00
C 405.63 266.13 412.34 270.49 413.00 266.00
C 412.57 266.42 412.32 261.97 415.03 263.03 C 417.74 264.08 418.78 262.57 419.00 266.00
C 418.17 266.41 417.13 266.97 417.00 268.00
C 418.57 267.70 420.39 267.17 420.00 265.00
C 427.31 264.28 438.67 270.22 446.00 267.00 C 453.33 263.78 461.12 263.63 468.03 265.02 C 474.93 266.42 484.08 254.66 486.00 265.00
C 492.90 262.12 500.00 264.38 507.00 261.00
C 506.72 260.72 506.22 259.12 506.00 259.00
C 481.76 258.18 459.32 241.61 434.00 244.00
C 428.94 237.02 415.34 237.63 412.00 227.00
C 410.40 225.40 409.89 225.77 408.00 225.00
C 402.69 222.83 404.60 220.38 401.00 217.00
C 399.98 219.77 398.19 218.80 397.00 217.00
C 393.24 211.29 406.36 193.83 415.67 197.33 C 424.99 200.83 439.46 201.73 449.68 205.32 C 459.90 208.91 472.35 210.78 483.07 213.93 C 493.80 217.07 505.74 219.39 516.67 222.33 C 527.60 225.26 538.27 227.66 549.22 230.78 C 560.17 233.90 571.92 236.26 583.00 239.00 C 594.09 241.74 604.80 245.61 616.02 247.98 C 627.24 250.34 638.59 254.41 650.00 256.00 Z"/>
</g>
<g fill="#591900" fill-opacity="0.96" stroke="None">
<path d="
M 397.00 217.00 
C 397.76 216.40 400.24 216.28 401.00 217.00
C 404.60 220.38 402.69 222.83 408.00 225.00
C 411.60 225.77 410.42 224.04 412.00 227.00
C 415.34 237.63 428.94 237.02 434.00 244.00
C 459.32 241.61 481.76 258.18 506.00 259.00
C 507.51 259.05 511.61 257.09 513.00 260.00
C 512.17 261.95 508.38 263.16 507.00 261.00
C 500.00 264.38 492.90 262.12 486.00 265.00
C 484.08 254.66 474.93 266.42 468.03 265.02 C 461.12 263.63 453.33 263.78 446.00 267.00 C 438.67 270.22 427.31 264.28 420.00 265.00
C 420.39 267.17 418.57 267.70 417.00 268.00
C 416.39 268.12 413.64 267.52 413.00 266.00
C 412.34 270.49 405.63 266.13 403.00 269.00
C 405.27 261.81 393.63 264.70 398.00 270.00
C 392.57 271.38 386.76 270.98 381.00 271.00
C 383.64 268.71 384.34 268.57 381.00 267.00
C 380.26 266.85 376.57 269.16 375.00 268.00
C 375.08 266.74 377.06 267.44 377.00 266.00
C 373.22 266.11 368.72 267.41 365.00 268.00
C 365.44 267.80 360.96 271.78 357.98 270.98 C 354.99 270.17 356.03 269.22 354.00 269.00
C 346.79 269.59 340.55 272.15 336.00 277.00
C 335.29 268.61 328.43 272.51 324.00 274.00 C 319.57 275.49 312.65 272.17 312.00 280.00
C 310.37 278.26 312.48 277.55 310.00 276.00
C 313.80 279.86 304.04 278.02 304.00 278.00
C 303.94 279.44 305.92 278.74 306.00 280.00
C 299.16 278.99 292.97 285.45 287.00 281.00
C 283.07 286.65 276.98 284.68 270.02 281.98 C 263.07 279.27 253.86 285.89 247.00 284.00
C 246.34 293.08 229.63 280.93 237.00 290.00
C 227.48 287.94 214.29 288.23 205.01 291.01 C 195.72 293.78 184.62 291.19 179.00 300.00
C 176.43 300.42 178.17 298.64 177.00 298.00
C 175.54 298.21 172.36 301.32 170.00 301.00
C 169.63 299.46 171.43 298.60 171.00 297.00
C 159.15 297.53 148.71 303.30 137.00 304.00
C 142.62 310.34 134.19 309.11 129.01 311.01 C 123.83 312.91 117.33 313.41 112.00 315.00
C 112.61 312.25 117.11 312.30 116.00 309.00
C 111.88 308.71 103.20 311.08 105.00 316.00
C 101.52 318.68 96.33 317.01 93.00 319.00
C 90.19 318.48 91.78 314.57 89.00 314.00
C 87.30 315.98 86.51 318.27 87.00 321.00
C 85.13 312.49 74.36 317.89 68.07 320.07 C 61.78 322.26 53.17 322.91 47.00 326.00
C 48.96 328.77 47.54 332.19 47.00 336.00
C 47.57 347.42 47.13 359.62 47.00 371.00
C 49.52 384.28 64.64 372.49 74.98 370.98 C 85.31 369.47 98.08 365.01 108.99 362.99 C 119.91 360.98 132.57 357.86 143.78 355.78 C 154.99 353.69 167.09 350.24 178.00 348.00
C 179.15 347.43 181.03 347.00 184.00 347.00
C 199.01 344.42 214.06 341.20 229.00 339.00
C 231.24 338.13 231.87 337.88 235.00 338.00
C 237.70 337.58 240.43 337.39 243.00 337.00
C 246.08 335.95 251.60 332.88 256.00 335.00
C 256.45 334.85 257.51 335.06 258.00 335.00
C 259.93 332.60 271.65 329.39 275.00 332.00
C 275.00 332.00 275.51 331.95 276.00 332.00
C 277.76 328.14 281.78 330.94 284.00 331.00
C 287.26 330.45 291.18 329.41 294.00 329.00
C 298.54 326.94 307.32 325.86 314.00 326.00
C 322.33 324.68 331.51 321.41 340.00 322.00
C 336.81 319.47 344.92 320.02 346.00 320.00
C 351.64 319.89 357.08 319.62 362.00 320.00
C 364.16 319.75 367.41 319.15 369.00 319.00
C 374.08 316.94 384.59 316.28 392.00 317.00
C 405.68 315.91 419.54 313.30 433.00 312.00
C 435.18 311.18 441.70 309.24 447.00 310.00
C 449.75 309.73 453.52 308.47 457.00 309.00
C 458.20 309.18 458.85 309.77 460.00 310.00
C 464.91 310.97 470.38 309.57 475.00 309.00
C 478.42 307.90 483.52 305.36 488.00 306.00 C 492.48 306.64 492.04 306.92 495.22 305.22 C 498.40 303.52 499.64 307.14 499.00 307.00
C 506.90 306.12 515.13 305.54 523.00 305.00
C 525.13 304.17 532.88 302.25 539.00 303.00
C 542.57 302.65 548.83 301.00 553.00 302.00 C 557.17 303.00 564.03 299.98 567.00 303.00
C 571.03 305.32 562.38 306.15 563.00 306.00
C 552.25 308.05 543.99 316.01 534.02 320.03 C 524.06 324.04 515.12 329.30 505.23 333.23 C 495.34 337.16 486.54 341.86 477.75 347.75 C 468.95 353.63 458.26 356.22 449.74 362.74 C 441.22 369.27 431.43 370.60 423.25 378.25 C 415.06 385.90 405.79 387.91 404.00 401.00 C 402.21 414.09 421.05 412.40 425.00 420.00
C 434.83 416.96 443.50 410.40 452.75 405.75 C 462.01 401.11 470.66 395.61 479.92 390.92 C 489.19 386.24 497.80 380.67 507.31 376.31 C 516.81 371.94 525.74 366.80 534.98 361.98 C 544.21 357.15 554.24 353.47 563.77 348.77 C 573.30 344.07 582.91 340.53 592.25 335.25 C 601.60 329.98 610.45 324.96 620.31 321.31 C 630.16 317.65 641.76 315.17 650.93 309.93 C 660.09 304.69 674.36 305.88 679.00 297.00
C 688.57 304.20 686.34 290.20 688.00 285.00
C 691.84 285.62 697.55 283.72 697.00 279.00
C 685.84 280.17 687.87 267.02 681.00 264.00 C 674.14 260.98 664.90 258.58 657.00 258.00
C 654.68 257.83 651.65 256.58 650.00 256.00
C 638.59 254.41 627.24 250.34 616.02 247.98 C 604.80 245.61 594.09 241.74 583.00 239.00 C 571.92 236.26 560.17 233.90 549.22 230.78 C 538.27 227.66 527.60 225.26 516.67 222.33 C 505.74 219.39 493.80 217.07 483.07 213.93 C 472.35 210.78 459.90 208.91 449.68 205.32 C 439.46 201.73 424.99 200.83 415.67 197.33 C 406.36 193.83 393.24 211.29 397.00 217.00 Z"/>
</g>
<g fill="#4F0D00" fill-opacity="0.36" stroke="None">
<path d="
M 397.00 217.00 
C 398.19 218.80 399.98 219.77 401.00 217.00
C 400.24 216.28 397.76 216.40 397.00 217.00 Z"/>
</g>
<g fill="#570C00" fill-opacity="0.32" stroke="None">
<path d="
M 408.00 225.00 
C 409.89 225.77 410.40 225.40 412.00 227.00
C 410.42 224.04 411.60 225.77 408.00 225.00 Z"/>
</g>
<g fill="#550E00" fill-opacity="0.44" stroke="None">
<path d="
M 657.00 258.00 
C 654.85 257.35 653.03 256.42 650.00 256.00
C 651.65 256.58 654.68 257.83 657.00 258.00 Z"/>
</g>
<g fill="#520F00" fill-opacity="0.44" stroke="None">
<path d="
M 506.00 259.00 
C 506.22 259.12 506.72 260.72 507.00 261.00
C 508.38 263.16 512.17 261.95 513.00 260.00
C 511.61 257.09 507.51 259.05 506.00 259.00 Z"/>
</g>
<g fill="#4F1000" fill-opacity="0.50" stroke="None">
<path d="
M 413.00 266.00 
C 413.64 267.52 416.39 268.12 417.00 268.00
C 417.13 266.97 418.17 266.41 419.00 266.00
C 418.78 262.57 417.74 264.08 415.03 263.03 C 412.32 261.97 412.57 266.42 413.00 266.00 Z"/>
</g>
<g fill="#571D01" fill-opacity="0.47" stroke="None">
<path d="
M 381.00 267.00 
C 379.58 266.33 379.01 265.94 377.00 266.00
C 377.06 267.44 375.08 266.74 375.00 268.00
C 376.57 269.16 380.26 266.85 381.00 267.00 Z"/>
</g>
<g fill="#510B00" fill-opacity="0.44" stroke="None">
<path d="
M 354.00 269.00 
C 356.03 269.22 354.99 270.17 357.98 270.98 C 360.96 271.78 365.44 267.80 365.00 268.00
C 361.25 268.60 357.77 268.50 354.00 269.00 Z"/>
</g>
<g fill="#510F00" fill-opacity="0.54" stroke="None">
<path d="
M 304.00 278.00 
C 304.04 278.02 313.80 279.86 310.00 276.00
C 307.40 274.37 297.68 274.61 304.00 278.00 Z"/>
</g>
<g fill="#530E00" fill-opacity="0.53" stroke="None">
<path d="
M 171.00 297.00 
C 171.43 298.60 169.63 299.46 170.00 301.00
C 172.36 301.32 175.54 298.21 177.00 298.00
C 174.27 296.50 174.68 296.55 171.00 297.00 Z"/>
</g>
<g fill="#4F0C00" fill-opacity="0.80" stroke="None">
<path d="
M 539.00 303.00 
C 540.17 303.14 540.31 303.81 541.00 304.00
C 541.88 303.81 543.09 304.00 544.00 304.00
C 548.19 303.08 562.63 300.49 567.00 303.00
C 564.03 299.98 557.17 303.00 553.00 302.00 C 548.83 301.00 542.57 302.65 539.00 303.00 Z"/>
</g>
<g fill="#4C0300" fill-opacity="0.41" stroke="None">
<path d="
M 523.00 305.00 
C 529.09 304.59 535.53 305.20 541.00 304.00
C 540.31 303.81 540.17 303.14 539.00 303.00
C 532.88 302.25 525.13 304.17 523.00 305.00 Z"/>
</g>
<g fill="#521200" fill-opacity="0.17" stroke="None">
<path d="
M 544.00 304.00 
C 551.00 304.00 558.00 304.00 565.00 304.00
C 564.62 304.90 563.66 305.46 563.00 306.00
C 562.38 306.15 571.03 305.32 567.00 303.00
C 562.63 300.49 548.19 303.08 544.00 304.00 Z"/>
</g>
<g fill="#4A0400" fill-opacity="0.45" stroke="None">
<path d="
M 475.00 309.00 
C 482.93 308.02 491.11 307.88 499.00 307.00
C 499.64 307.14 498.40 303.52 495.22 305.22 C 492.04 306.92 492.48 306.64 488.00 306.00 C 483.52 305.36 478.42 307.90 475.00 309.00 Z"/>
</g>
<g fill="#460300" fill-opacity="0.75" stroke="None">
<path d="
M 447.00 310.00 
C 447.35 310.05 447.74 310.89 448.00 311.00
C 448.47 310.89 449.50 311.00 450.00 311.00
C 451.33 310.43 455.76 308.98 457.00 309.00
C 453.52 308.47 449.75 309.73 447.00 310.00 Z"/>
</g>
<g fill="#4E0100" fill-opacity="0.15" stroke="None">
<path d="
M 450.00 311.00 
C 453.42 311.00 457.25 310.27 460.00 310.00
C 458.85 309.77 458.20 309.18 457.00 309.00
C 455.76 308.98 451.33 310.43 450.00 311.00 Z"/>
</g>
<g fill="#4A0300" fill-opacity="0.43" stroke="None">
<path d="
M 433.00 312.00 
C 438.15 311.50 443.09 312.14 448.00 311.00
C 447.74 310.89 447.35 310.05 447.00 310.00
C 441.70 309.24 435.18 311.18 433.00 312.00 Z"/>
</g>
<g fill="#480200" fill-opacity="0.41" stroke="None">
<path d="
M 369.00 319.00 
C 376.75 318.25 384.44 317.60 392.00 317.00
C 384.59 316.28 374.08 316.94 369.00 319.00 Z"/>
</g>
<g fill="#4B0200" fill-opacity="0.36" stroke="None">
<path d="
M 346.00 320.00 
C 345.12 320.17 342.85 321.77 342.00 322.00
C 349.02 322.00 355.35 320.78 362.00 320.00
C 357.08 319.62 351.64 319.89 346.00 320.00 Z"/>
</g>
<g fill="#460300" fill-opacity="0.73" stroke="None">
<path d="
M 340.00 322.00 
C 340.50 322.03 341.50 322.00 342.00 322.00
C 342.85 321.77 345.12 320.17 346.00 320.00
C 344.92 320.02 336.81 319.47 340.00 322.00 Z"/>
</g>
<g fill="#480100" fill-opacity="0.45" stroke="None">
<path d="
M 294.00 329.00 
C 300.81 328.01 307.39 327.05 314.00 326.00
C 307.32 325.86 298.54 326.94 294.00 329.00 Z"/>
</g>
<g fill="#4A0200" fill-opacity="0.37" stroke="None">
<path d="
M 276.00 332.00 
C 278.96 332.32 281.33 331.45 284.00 331.00
C 281.78 330.94 277.76 328.14 276.00 332.00 Z"/>
</g>
<g fill="#4B0300" fill-opacity="0.42" stroke="None">
<path d="
M 258.00 335.00 
C 263.34 334.37 270.41 334.17 275.00 332.00
C 271.65 329.39 259.93 332.60 258.00 335.00 Z"/>
</g>
<g fill="#4A0200" fill-opacity="0.40" stroke="None">
<path d="
M 243.00 337.00 
C 247.42 336.33 251.80 336.45 256.00 335.00
C 251.60 332.88 246.08 335.95 243.00 337.00 Z"/>
</g>
<g fill="#541200" fill-opacity="0.43" stroke="None">
<path d="
M 47.00 371.00 
C 47.13 359.62 47.57 347.42 47.00 336.00
C 45.51 346.44 45.01 360.51 47.00 371.00 Z"/>
</g>
<g fill="#520600" fill-opacity="0.44" stroke="None">
<path d="
M 229.00 339.00 
C 230.92 338.72 233.59 338.22 235.00 338.00
C 231.87 337.88 231.24 338.13 229.00 339.00 Z"/>
</g>
<g fill="#460400" fill-opacity="0.47" stroke="None">
<path d="
M 178.00 348.00 
C 179.90 347.61 182.20 347.31 184.00 347.00
C 181.03 347.00 179.15 347.43 178.00 348.00 Z"/>
</g>
</svg>