<?xml version="1.0" encoding="UTF-8"?>
<svg version="1.1" xmlns="http://www.w3.org/2000/svg" width="800" height="800">
<path d="M0 0 C1.2065625 0.41765625 2.413125 0.8353125 3.65625 1.265625 C32.48425335 11.86834182 58.3413325 31.89126763 81.0324707 52.23608398 C82.38116127 53.4452029 83.73581925 54.64768897 85.09545898 55.84448242 C91.64294669 61.6508741 97.87771927 67.72326626 104.05102539 73.9206543 C105.69239796 75.56741404 107.33908819 77.20872095 108.98632812 78.84960938 C114.53379066 84.39320837 119.94356184 89.99924129 125 96 C125.91225765 97.05642395 126.82499477 98.11243411 127.73828125 99.16796875 C160.80256751 137.95202532 194.30988126 185.12094781 190.72607422 238.46679688 C188.91979271 258.83839281 181.50247685 275.97923821 169 292 C168.31808594 292.88429688 167.63617187 293.76859375 166.93359375 294.6796875 C163.97875689 298.22549174 160.54914707 301.06638766 157 304 C156.40445312 304.495 155.80890625 304.99 155.1953125 305.5 C124.37775832 329.83660931 86.28973348 328.97663261 49.24690247 324.64398193 C33.1231302 322.7164796 17.02577102 320.5533423 0.93432617 318.37475586 C-0.17194626 318.22555695 -1.27821869 318.07635803 -2.41801453 317.92263794 C-4.48496856 317.64336835 -6.55165413 317.36210062 -8.61799622 317.07833862 C-20.04273916 315.53493135 -31.28193576 314.79661168 -42.8125 314.75 C-44.07642578 314.729375 -45.34035156 314.70875 -46.64257812 314.6875 C-59.36775559 314.63537434 -70.83247007 317.19486856 -82.6875 321.6875 C-84.09539795 322.20751587 -84.09539795 322.20751587 -85.53173828 322.73803711 C-90.78694745 324.70330978 -95.9559404 326.8112112 -101.09399414 329.06323242 C-125.27240932 339.65536058 -155.06921657 349.12554204 -180.96679688 339.25 C-191.40899887 334.88307719 -199.89345406 328.83039763 -208 321 C-209.41732422 319.64455078 -209.41732422 319.64455078 -210.86328125 318.26171875 C-221.69608652 307.18375806 -230.95470372 293.34490957 -234 278 C-234.14373047 277.29697754 -234.28746094 276.59395508 -234.43554688 275.86962891 C-243.54802023 229.43707962 -231.48898748 186.92923211 -205.7421875 148.03125 C-202.28882588 142.92112806 -198.74553726 137.9008405 -195 133 C-194.20980469 131.95585937 -193.41960937 130.91171875 -192.60546875 129.8359375 C-187.22722137 122.76110511 -181.70170555 115.81786325 -176 109 C-175.55962402 108.47325684 -175.11924805 107.94651367 -174.66552734 107.40380859 C-167.39901369 98.74212432 -159.8209985 90.41817313 -152.05761719 82.20117188 C-149.99035656 79.98968377 -147.94701074 77.75720089 -145.90423584 75.52311707 C-139.57379261 68.61378506 -133.06426011 61.90862548 -126.42578125 55.29541016 C-124.73318653 53.60824042 -123.04609403 51.91569804 -121.359375 50.22265625 C-115.74506149 44.60423897 -110.10555409 39.09048678 -104 34 C-103.12142334 33.26136719 -103.12142334 33.26136719 -102.22509766 32.5078125 C-83.55877689 16.97411976 -64.55887384 5.44558797 -41 -1 C-39.73800781 -1.36738281 -38.47601563 -1.73476563 -37.17578125 -2.11328125 C-25.51891023 -4.96860098 -11.19465065 -4.06542576 0 0 Z " fill="#FEBF01" transform="translate(432,330)"/>
<path d="M0 0 C19.80808696 14.99937132 26.36125902 41.23657757 29.60473633 64.71411133 C32.21497513 86.34832633 30.24140643 107.15877654 23.4296875 127.83984375 C23.08292969 128.89300781 22.73617187 129.94617188 22.37890625 131.03125 C17.20471231 145.52254917 9.15596128 158.02016668 -0.5703125 169.83984375 C-1.35535156 170.83757812 -2.14039063 171.8353125 -2.94921875 172.86328125 C-5.81713 176.12013427 -8.82746937 178.7069483 -12.2578125 181.33984375 C-12.87648193 181.81687744 -13.49515137 182.29391113 -14.13256836 182.78540039 C-28.45705558 193.68894823 -43.39851726 199.13915495 -61.5703125 197.83984375 C-80.93437836 194.35724902 -95.80485443 181.93034448 -107.578125 166.70703125 C-124.59346142 142.21829217 -125.63716642 106.40307419 -120.98266602 77.82006836 C-116.17942707 51.38745426 -103.00090126 21.08399263 -80.5703125 4.83984375 C-77.00681753 2.59363484 -73.36866304 0.65739257 -69.5703125 -1.16015625 C-68.81492187 -1.52882813 -68.05953125 -1.8975 -67.28125 -2.27734375 C-45.9696251 -11.7247651 -19.7604804 -13.54595251 0 0 Z " fill="#FEBF01" transform="translate(551.5703125,121.16015625)"/>
<path d="M0 0 C0.89976562 0.4228125 1.79953125 0.845625 2.7265625 1.28125 C18.4647966 9.26119969 32.59465959 23.13377161 42 38 C42.47816162 38.72832031 42.95632324 39.45664063 43.44897461 40.20703125 C47.60904578 46.77034192 50.24116538 53.43653559 52.625 60.8125 C53.01034912 61.99884033 53.39569824 63.18518066 53.79272461 64.4074707 C63.98210998 96.62152116 64.44703643 129.18052009 49.23217773 159.86401367 C39.42149721 178.70256874 25.37494475 193.23420782 4.6875 199.875 C-9.82890635 203.35810325 -24.56491684 200.54696766 -37.58984375 193.515625 C-57.31315782 181.11263333 -71.37522784 162.59470426 -81.14501953 141.79833984 C-81.87925646 140.25396828 -82.65271912 138.72835377 -83.43359375 137.20703125 C-86.2586727 131.53047075 -88.05326813 125.72914196 -89.6875 119.625 C-89.99143677 118.49324341 -89.99143677 118.49324341 -90.30151367 117.33862305 C-93.37657512 105.25518382 -94.41035298 93.31175102 -94.375 80.875 C-94.37445618 80.15177551 -94.37391235 79.42855103 -94.37335205 78.68341064 C-94.31313429 61.22266954 -91.48242511 45.83176786 -84 30 C-83.69545898 29.35514648 -83.39091797 28.71029297 -83.07714844 28.04589844 C-76.32765462 14.04567678 -68.50688175 4.020364 -53.6875 -1.8125 C-37.72497632 -6.95297373 -15.22096969 -7.30606545 0 0 Z " fill="#FEBF01" transform="translate(314,117)"/>
<path d="M0 0 C16.68328498 12.08598461 24.82481079 31.11627338 28.2734375 50.8359375 C31.72226035 81.13400744 24.81378236 112.37725262 6.03125 136.59765625 C-7.87404067 153.89221644 -24.49950401 165.01270883 -45.30859375 172.5078125 C-46.04722656 172.77722656 -46.78585937 173.04664063 -47.546875 173.32421875 C-56.33252641 176.01447175 -66.69309495 175.71106724 -75.015625 171.828125 C-79.13984143 169.45336324 -82.71480757 166.61461908 -86.30859375 163.5078125 C-87.11167969 162.8375 -87.91476562 162.1671875 -88.7421875 161.4765625 C-105.67324817 146.89630433 -117.94553609 128.05138256 -120.30859375 105.5078125 C-121.48351535 84.5677775 -119.08828378 65.61135915 -110.30859375 46.5078125 C-109.85742188 45.47398437 -109.40625 44.44015625 -108.94140625 43.375 C-98.30362697 20.35652846 -77.49572933 2.17024738 -53.92578125 -6.61425781 C-35.5726014 -12.97489416 -16.25133045 -10.50424405 0 0 Z " fill="#FEBF01" transform="translate(695.30859375,287.4921875)"/>
<path d="M0 0 C1.09441406 0.51949219 2.18882812 1.03898437 3.31640625 1.57421875 C11.05942367 5.49600679 17.51309668 10.26604082 24 16 C24.86625 16.74507813 25.7325 17.49015625 26.625 18.2578125 C49.45499173 38.23405526 64.65750765 65.52104057 67 96 C67.2606451 100.97980479 67.38034426 105.95144669 67.4375 110.9375 C67.47109619 112.76825073 67.47109619 112.76825073 67.50537109 114.63598633 C67.45710584 133.25494272 57.0996729 145.88025682 45 159 C42.45429858 161.50777663 39.78087583 163.75970564 37 166 C35.70255859 167.12728516 35.70255859 167.12728516 34.37890625 168.27734375 C26.1388117 175.32885323 19.47349285 179.88677714 8.33984375 179.4375 C-18.01307158 175.9854222 -44.47118831 159.70898054 -60.7109375 139.13671875 C-77.37835947 116.29723097 -90.74709596 87.89258178 -88 59 C-85.53827073 46.25775362 -79.40826234 34.77503749 -71 25 C-70.33226563 24.19949219 -69.66453125 23.39898437 -68.9765625 22.57421875 C-61.23090739 13.58422554 -52.68127934 6.13972846 -42.25 0.5 C-41.64849121 0.17370605 -41.04698242 -0.15258789 -40.42724609 -0.48876953 C-27.01467696 -7.37650318 -13.39748267 -6.41455231 0 0 Z " fill="#FEBF01" transform="translate(164,283)"/>
<path d="M0 0 C0.495 0.99 0.495 0.99 1 2 C-0.39073264 3.89975896 -1.78732802 5.79471601 -3.1875 7.6875 C-3.96480469 8.74324219 -4.74210938 9.79898437 -5.54296875 10.88671875 C-18.81233996 27.70021455 -40.86498818 41.00199155 -62 45 C-73.10773201 46.06852903 -81.55279453 44.52680777 -90.5 37.8125 C-92.01312577 36.55732361 -93.5127438 35.28572406 -95 34 C-96.20462891 32.99453125 -96.20462891 32.99453125 -97.43359375 31.96875 C-105.6895971 24.859056 -113.48765392 16.44413795 -119 7 C-118.67 6.01 -118.34 5.02 -118 4 C-117.67314209 4.44279297 -117.34628418 4.88558594 -117.00952148 5.34179688 C-99.35821228 30.25191697 -99.35821228 30.25191697 -72.5625 42.9375 C-53.51199703 43.94015805 -34.09441259 33.66044089 -20.12890625 21.5 C-18.44010049 19.97051554 -16.76790705 18.42226526 -15.12109375 16.84765625 C-13 15 -13 15 -10.84765625 13.99609375 C-8.44797506 12.7023967 -8.1059051 11.45953294 -7 9 C-5.8237752 7.39267019 -4.6136253 5.80975038 -3.375 4.25 C-2.42753906 3.05117188 -2.42753906 3.05117188 -1.4609375 1.828125 C-0.97882813 1.22484375 -0.49671875 0.6215625 0 0 Z " fill="#FECB17" transform="translate(704,417)"/>
<path d="M0 0 C10.02604465 8.1584481 19.23624009 22.93002629 20.875 35.8125 C20.91625 36.864375 20.9575 37.91625 21 39 C19.23084149 36.34626224 18.15455271 33.92750758 17.04711914 30.96118164 C10.96128518 14.71408818 2.33151721 2.28428447 -13.59375 -5.22265625 C-31.29066983 -12.48359836 -51.55061429 -8.19158052 -69 -2 C-77.06342217 1.487406 -86.04619668 6.56929503 -91 14 C-91.66 14 -92.32 14 -93 14 C-93.66 15.32 -94.32 16.64 -95 18 C-95.99 18 -96.98 18 -98 18 C-91.92443735 10.85151884 -86.10588904 4.87379405 -78 0 C-77.2678125 -0.44859375 -76.535625 -0.8971875 -75.78125 -1.359375 C-52.8267738 -14.09439262 -21.39306001 -16.19956795 0 0 Z " fill="#FECB1E" transform="translate(554,123)"/>
<path d="M0 0 C9.17967671 4.23648419 16.27560969 13.11927253 23.32739258 20.19702148 C25.058947 21.933936 26.79578359 23.66543889 28.53320312 25.39648438 C34.23473514 31.09418681 39.81155799 36.82394804 45 43 C45.95921496 44.1149452 46.91883695 45.22954038 47.87890625 46.34375 C52.78289099 52.09727196 57.55755541 57.87663044 62 64 C61.67 64.66 61.34 65.32 61 66 C59.35293077 64.06353917 57.70712762 62.12603342 56.0625 60.1875 C55.56322998 59.5994458 55.06395996 59.0113916 54.54956055 58.40551758 C51.4179186 54.70666116 48.34805734 50.96602592 45.3125 47.1875 C42.11831705 43.25882578 38.78945732 39.62910728 35.1171875 36.14453125 C33.25415069 34.25743308 31.53409796 32.32446598 29.8046875 30.31640625 C25.81362278 25.7200389 21.56416414 21.41657689 17.25 17.125 C16.49589844 16.36703125 15.74179687 15.6090625 14.96484375 14.828125 C14.23910156 14.10367187 13.51335938 13.37921875 12.765625 12.6328125 C12.11368164 11.98199707 11.46173828 11.33118164 10.79003906 10.66064453 C8.89806281 8.81703941 8.89806281 8.81703941 6 7 C6 6.34 6 5.68 6 5 C5.38125 4.731875 4.7625 4.46375 4.125 4.1875 C2 3 2 3 0 0 Z " fill="#FEC919" transform="translate(512,383)"/>
<path d="M0 0 C4.54302119 1.46657827 7.76904105 4.03347558 11.3125 7.125 C12.17560791 7.87185059 12.17560791 7.87185059 13.05615234 8.63378906 C14.71340283 10.0790494 16.35866333 11.53671554 18 13 C18.73863281 13.65226562 19.47726563 14.30453125 20.23828125 14.9765625 C32.29236561 26.30690267 48.52184786 47.69528188 49.09375 64.8046875 C49.04734375 65.89136719 49.04734375 65.89136719 49 67 C46.87352556 63.81028834 45.72875722 60.83480961 44.375 57.25 C38.23002718 41.65384325 29.87205223 25.10100891 16 15 C16 14.34 16 13.68 16 13 C15.4225 12.73960937 14.845 12.47921875 14.25 12.2109375 C11.84310157 10.91555814 10.03485454 9.44524098 8 7.625 C7.3090625 7.00753906 6.618125 6.39007813 5.90625 5.75390625 C3.87974006 3.889351 1.90725053 1.9867193 0 0 Z " fill="#FEC91A" transform="translate(177,292)"/>
<path d="M0 0 C4.12017776 1.51697454 6.04372504 4.43282572 8.5 7.875 C21.1081443 24.83618207 36.40135803 37.78893863 57.78173828 41.01269531 C59.53107736 41.28418116 61.26767039 41.63540995 63 42 C63.33 42.66 63.66 43.32 64 44 C46.64910965 44.59526562 32.51670992 35.77723046 20.27783203 24.39892578 C12.68261494 17.21459411 5.57165629 9.91118941 0 1 C0 0.67 0 0.34 0 0 Z " fill="#FECB1C" transform="translate(241,274)"/>
<path d="M0 0 C0 4.20407326 -2.21537242 6.1134958 -5 9 C-7.58299165 11.43689484 -10.27970066 13.71845862 -13 16 C-14.30904297 17.14082031 -14.30904297 17.14082031 -15.64453125 18.3046875 C-24.02229108 25.45214693 -30.52359334 29.75442495 -41.78125 29.40625 C-47.41382449 28.69534254 -52.67691941 26.9231775 -58 25 C-58 24.34 -58 23.68 -58 23 C-57.31035156 23.20496094 -56.62070313 23.40992188 -55.91015625 23.62109375 C-45.37972523 26.64010621 -36.15775786 28.90247527 -26.10546875 23.421875 C-16.15271151 16.99124023 -8.13531646 8.5443635 0 0 Z " fill="#FECC1C" transform="translate(214,433)"/>
<path d="M0 0 C3.63253697 1.26798317 6.01804889 2.63498546 8.7421875 5.34375 C9.41266113 6.00810059 10.08313477 6.67245117 10.77392578 7.35693359 C11.46728027 8.06414551 12.16063477 8.77135742 12.875 9.5 C13.59026855 10.22396973 14.30553711 10.94793945 15.04248047 11.69384766 C19.98861223 16.77834862 24.33264151 21.90845539 28 28 C28.53882813 28.84046875 29.07765625 29.6809375 29.6328125 30.546875 C37.55106956 43.17018335 37.55106956 43.17018335 36.56640625 48.2265625 C36.28603516 49.10441406 36.28603516 49.10441406 36 50 C35.38125 48.47632813 35.38125 48.47632813 34.75 46.921875 C27.64844678 29.82894097 17.61102006 16.7618552 3.80957031 4.48999023 C2.52387 3.34419453 1.25963992 2.1743851 0 1 C0 0.67 0 0.34 0 0 Z " fill="#FEC91B" transform="translate(328,127)"/>
<path d="M0 0 C0 3 0 3 -1.72265625 4.98046875 C-2.88087891 6.07294922 -2.88087891 6.07294922 -4.0625 7.1875 C-7.62617057 10.63442006 -10.96597282 14.14839208 -14.19140625 17.91015625 C-16.23342054 20.2697192 -18.33399528 22.57013415 -20.4375 24.875 C-24.84286883 29.74966929 -28.95726048 34.82264966 -33 40 C-33 32.09508168 -20.9599031 22.59549291 -15.57421875 16.79296875 C-13.40208617 14.43625434 -11.28099565 12.05123668 -9.1875 9.625 C-6.26891203 6.25522935 -3.19062709 3.11280691 0 0 Z " fill="#FEC816" transform="translate(285,407)"/>
<path d="M0 0 C2.38170077 2.93419562 4.17118587 6.05757399 5.95629883 9.3815918 C10.56926529 17.95492893 15.84438065 25.46228995 22 33 C23.3341647 34.66600123 24.66778229 36.33244145 26 38 C25.67 38.66 25.34 39.32 25 40 C16.38859436 31.1646571 0 13.00076492 0 0 Z " fill="#FECA15" transform="translate(87,392)"/>
<path d="M0 0 C11.00415444 1.20459679 18.92742737 9.44094736 26.0390625 17.2890625 C28.09873047 20.13649193 29.07987506 22.62620855 30 26 C27.05050378 23.22400356 24.6499358 20.54038503 22.375 17.1875 C16.82684092 9.62312847 8.41815453 4.81199451 0 1 C0 0.67 0 0.34 0 0 Z " fill="#FECF1C" transform="translate(682,282)"/>
<path d="M0 0 C4.54071365 1.46583335 7.76266969 4.04531733 11.3125 7.125 C12.13717773 7.82689453 12.13717773 7.82689453 12.97851562 8.54296875 C14.32396409 9.68952483 15.662679 10.84397451 17 12 C16.01 12.33 15.02 12.66 14 13 C12.41540185 11.58474822 10.83237609 10.1677358 9.25 8.75 C8.36828125 7.96109375 7.4865625 7.1721875 6.578125 6.359375 C4.32133835 4.29407328 2.14260074 2.18264936 0 0 Z " fill="#FECF1A" transform="translate(494,368)"/>
<path d="M0 0 C0 3.99897642 -1.35316035 5.06701552 -4 8 C-5.63356951 9.37368345 -7.2925002 10.71937515 -9 12 C-9.66 11.67 -10.32 11.34 -11 11 C-7.37 7.37 -3.74 3.74 0 0 Z " fill="#FECA1A" transform="translate(550,289)"/>
<path d="M0 0 C0 3 0 3 -2.375 5.625 C-5 8 -5 8 -7 9 C-5.44499019 5.18315774 -2.96404505 2.80804268 0 0 Z " fill="#FECA10" transform="translate(600,620)"/>
</svg>
