<?xml version="1.0" encoding="UTF-8"?>
<svg version="1.1" xmlns="http://www.w3.org/2000/svg" width="704" height="573">
<path d="M0 0 C1.03793512 -0.00407553 2.07587025 -0.00815105 3.14525795 -0.01235008 C8.63728248 -0.0330985 14.12928284 -0.04744945 19.62133789 -0.05688477 C25.24468918 -0.06793918 30.86764381 -0.10236102 36.49085522 -0.14205647 C40.86048541 -0.16838966 45.23002319 -0.1765912 49.59972572 -0.18016624 C51.67064411 -0.18498729 53.74155965 -0.19647022 55.81239891 -0.21520424 C80.58713748 -0.42545203 98.96592047 4.749117 118.23828125 20.9453125 C122.29906957 23.61221912 126.95348974 23.35870249 131.67578125 23.37890625 C160.83335847 23.73708488 191.15161841 26.96510237 217.96484375 39.2578125 C219.07472656 39.74314453 219.07472656 39.74314453 220.20703125 40.23828125 C220.81417969 40.50769531 221.42132813 40.77710938 222.046875 41.0546875 C225.56368501 41.35358455 228.49038988 39.75073347 231.64453125 38.36328125 C245.93767196 32.20753333 261.86637265 32.70945133 276.89453125 36.30078125 C277.65056641 36.48012207 278.40660156 36.65946289 279.18554688 36.84423828 C296.10323024 41.29199725 312.17335125 48.68955529 328.0793457 55.83154297 C338.10301724 60.32113449 348.13078306 64.43886847 358.55259705 67.92382812 C369.23888077 71.51067843 377.72195471 76.84394076 386.20703125 84.23828125 C386.90699219 84.80804688 387.60695313 85.3778125 388.328125 85.96484375 C397.46459044 94.05052662 403.4099596 107.14050489 404.20703125 119.23828125 C404.27535156 120.17027344 404.34367188 121.10226563 404.4140625 122.0625 C405.65085366 157.83782958 389.74944773 199.74752944 367.20703125 227.23828125 C366.8001709 227.75293945 366.39331055 228.26759766 365.97412109 228.79785156 C356.30192361 241.03233923 345.51123886 252.39993891 329.50390625 255 C322.72886524 255.48966529 315.96089132 254.82419643 309.20703125 254.23828125 C308.88653809 254.81457275 308.56604492 255.39086426 308.23583984 255.98461914 C300.86724781 269.20351355 293.24918465 282.23146278 285.33203125 295.12890625 C281.86438029 300.77943101 278.49905146 306.4834339 275.20703125 312.23828125 C276.23828125 312.58890625 277.26953125 312.93953125 278.33203125 313.30078125 C289.63648114 317.61010169 298.72284562 322.53494692 307.20703125 331.23828125 C307.80257812 331.79 308.398125 332.34171875 309.01171875 332.91015625 C314.06572206 337.98930385 315.47064269 344.44593777 317.20703125 351.23828125 C321.29348053 348.55253314 325.29377192 345.76851403 329.27099609 342.92382812 C356.6204966 323.39981571 356.6204966 323.39981571 368.71484375 325.3125 C374.66491826 327.52279414 379.23688378 332.09394847 382.5703125 337.4140625 C385.51167409 344.50183691 383.79292817 351.85567814 381.265625 358.83984375 C375.98743741 370.4261092 366.20803157 379.51122949 357.57421875 388.6484375 C354.76523928 391.62620696 352.03612987 394.66459129 349.33203125 397.73828125 C346.25232967 401.17831355 343.0666898 404.2503153 339.53515625 407.21875 C337.70221151 408.8087373 335.94257731 410.42471313 334.19140625 412.1015625 C325.36231869 420.54094172 316.05211076 428.01870524 306.20703125 435.23828125 C305.52801758 435.74214355 304.84900391 436.24600586 304.14941406 436.76513672 C292.35772759 445.48825962 279.95854891 453.00643917 267.20703125 460.23828125 C266.12566895 460.85848145 266.12566895 460.85848145 265.02246094 461.49121094 C188.38223789 505.15268818 90.67458636 516.88453776 5.76953125 494.42578125 C-35.69875319 483.0516995 -74.81124711 465.11871272 -108.88330078 438.71435547 C-110.70714968 437.30461494 -112.54315123 435.91244519 -114.3828125 434.5234375 C-127.44829374 424.57479513 -139.01654886 413.09269724 -150.66796875 401.55078125 C-151.53558838 400.69629395 -152.40320801 399.84180664 -153.29711914 398.96142578 C-159.22961762 393.03630956 -164.59305482 386.81176932 -169.79296875 380.23828125 C-170.58622559 379.25782837 -170.58622559 379.25782837 -171.39550781 378.25756836 C-200.82106572 341.72032416 -220.42222177 295.2657852 -216.60693359 247.93017578 C-214.14201096 228.00496611 -201.77354219 208.99017947 -186.79296875 196.23828125 C-167.97206661 182.03362016 -147.63724201 177.04780053 -124.35546875 177.05078125 C-123.6380954 177.0477298 -122.92072205 177.04467834 -122.18161011 177.04153442 C-114.1188065 177.01162244 -106.30608801 177.18616863 -98.35546875 178.67578125 C-93.58360196 179.43635245 -93.58360196 179.43635245 -89.09765625 178.0234375 C-86.74649512 176.25036714 -84.8052606 174.38334287 -82.79296875 172.23828125 C-81.51365565 171.11982481 -80.22273504 170.01443718 -78.91796875 168.92578125 C-78.38429687 168.45527344 -77.850625 167.98476562 -77.30078125 167.5 C-75.79296875 166.23828125 -75.79296875 166.23828125 -72.79296875 164.23828125 C-73.06238281 163.56667969 -73.33179688 162.89507812 -73.609375 162.203125 C-73.99996094 161.22472656 -74.39054688 160.24632812 -74.79296875 159.23828125 C-75.25574219 158.08457031 -75.71851563 156.93085938 -76.1953125 155.7421875 C-82.0789167 140.76971784 -84.94099057 126.07840088 -84.9609375 110 C-84.9642659 109.03914993 -84.9675943 108.07829987 -84.97102356 107.08833313 C-84.97606095 105.06043979 -84.97843288 103.03253826 -84.97827148 101.00463867 C-84.98043552 97.97234574 -84.99856342 94.94043082 -85.01757812 91.90820312 C-85.11586626 59.08297998 -85.11586626 59.08297998 -80.23046875 43.86328125 C-79.84846313 42.63605347 -79.84846313 42.63605347 -79.45874023 41.3840332 C-76.81619563 33.44396023 -72.89303534 26.8303886 -67.79296875 20.23828125 C-67.2515625 19.53574219 -66.71015625 18.83320312 -66.15234375 18.109375 C-56.24338929 6.92426731 -40.07888743 1.59400005 -25.68505859 0.4521637 C-17.13247689 -0.01782728 -8.56336682 0.02861157 0 0 Z " fill="#5B1B00" transform="translate(257.79296875,43.76171875)"/>
<path d="M0 0 C0.83122375 -0.00842422 1.66244751 -0.01684845 2.51885986 -0.02552795 C5.20157656 -0.04511746 7.88363047 -0.04524794 10.56640625 -0.0390625 C11.48418854 -0.03818634 12.40197083 -0.03731018 13.3475647 -0.03640747 C42.55508595 0.05565144 80.87177719 3.80934878 103.12890625 25.3359375 C126.03605522 49.26390416 129.19211223 83.53860893 133.12890625 114.8984375 C136.59635667 142.0503374 144.32107758 171.64504531 164.6328125 191.34375 C166.73502712 194.14304362 167.09545408 195.81927831 167.12890625 199.3359375 C166.108467 202.33718383 164.61731393 205.01588192 163.06640625 207.7734375 C162.62103516 208.59038086 162.17566406 209.40732422 161.71679688 210.24902344 C153.92724554 224.34970106 145.47831587 238.13200175 136.40551758 251.44335938 C133.55343406 255.63319876 130.98282799 259.92235396 128.578125 264.3828125 C124.96242298 269.25572627 119.10020125 270.4026208 113.56640625 272.0859375 C96.6436408 277.50183769 83.59007192 286.62954981 75.31860352 302.54858398 C70.60528444 311.82705076 68.78289386 319.31991817 68.81640625 329.6484375 C68.80029297 330.63005859 68.78417969 331.61167969 68.76757812 332.62304688 C68.76230679 340.58803149 69.57223137 347.82387359 74.35546875 354.39453125 C75.14695312 355.17957031 75.9384375 355.96460938 76.75390625 356.7734375 C81.05254557 361.10685545 81.05254557 361.10685545 82.12890625 364.3359375 C44.86286446 371.65831203 6.5959118 375.28655904 -30.87109375 367.3359375 C-31.94311035 367.11099609 -33.01512695 366.88605469 -34.11962891 366.65429688 C-88.64770045 354.94724972 -135.24213332 325.54209427 -165.87109375 278.3359375 C-167.75570878 275.1362017 -167.87109375 274.29040255 -167.87109375 270.3359375 C-158.54996409 271.48034666 -151.13508862 280.9857873 -144.55859375 287.2109375 C-137.65712859 293.72947253 -130.49356125 299.68217351 -122.87109375 305.3359375 C-122.21915039 305.82304199 -121.56720703 306.31014648 -120.89550781 306.81201172 C-110.37107361 314.62378179 -99.47693542 321.26180316 -87.87109375 327.3359375 C-87.20255371 327.69139648 -86.53401367 328.04685547 -85.84521484 328.41308594 C-57.70677599 343.32596844 -29.21017941 351.43219133 2.69140625 351.7734375 C3.95895752 351.79575439 5.22650879 351.81807129 6.5324707 351.84106445 C8.31463989 351.83659302 8.31463989 351.83659302 10.1328125 351.83203125 C11.19314697 351.83388428 12.25348145 351.8357373 13.34594727 351.83764648 C16.8080403 351.21350391 18.02008279 350.10480109 20.12890625 347.3359375 C19.87951923 339.64056649 12.25230422 334.38925783 7.03515625 329.48754883 C-2.47835089 320.36624032 -2.47835089 320.36624032 -12.87109375 312.3359375 C-12.87109375 311.6759375 -12.87109375 311.0159375 -12.87109375 310.3359375 C-13.86109375 310.0059375 -14.85109375 309.6759375 -15.87109375 309.3359375 C-19.88195364 305.6688656 -23.37432817 301.53059947 -26.96875 297.4609375 C-29.18288223 294.98765632 -31.49501026 292.65406773 -33.87109375 290.3359375 C-38.76701959 285.53291348 -43.53482507 280.6959333 -48 275.48828125 C-50.20189204 272.95541588 -52.47305201 270.49261228 -54.74609375 268.0234375 C-58.03541613 264.42202579 -61.19127011 260.76286475 -64.24609375 256.9609375 C-68.22634212 252.02116497 -72.45120986 247.36563886 -76.79833984 242.75048828 C-82.53105722 236.64484936 -82.53105722 236.64484936 -83.87109375 234.3359375 C-83.67590206 230.9265894 -82.23323447 229.30390714 -79.74609375 227.0859375 C-68.48546704 217.70876081 -53.81918934 212.5878997 -40.49414062 206.89257812 C-37.30216444 205.52483472 -34.11857185 204.13862702 -30.93804932 202.74447632 C-29.66297782 202.18897443 -28.38548088 201.63900046 -27.10540771 201.09512329 C-7.51771781 192.7655076 6.14695543 179.08735306 14.12890625 159.3359375 C18.78341669 147.46693587 19.44076191 130.17053882 15.00390625 118.2109375 C14.09828477 116.22767706 13.14235846 114.26632266 12.12890625 112.3359375 C11.68289063 111.4696875 11.236875 110.6034375 10.77734375 109.7109375 C1.17796308 92.55003351 -13.71303675 80.16901982 -32.45727539 74.13647461 C-38.66867816 72.67990666 -44.8364092 72.84123873 -51.18359375 72.9609375 C-52.50166016 72.96222656 -53.81972656 72.96351563 -55.17773438 72.96484375 C-61.52630145 73.02252886 -66.76896672 73.50471043 -72.87109375 75.3359375 C-76.30859375 75.4609375 -76.30859375 75.4609375 -78.87109375 75.3359375 C-77.60046915 71.21436792 -76.06133786 67.57470149 -73.96484375 63.80859375 C-73.3910498 62.77637695 -72.81725586 61.74416016 -72.22607422 60.68066406 C-71.61393066 59.5975293 -71.00178711 58.51439453 -70.37109375 57.3984375 C-69.73961426 56.28049805 -69.10813477 55.16255859 -68.45751953 54.01074219 C-55.14156989 30.63933959 -40.35695088 9.1029693 -13.20727539 1.28027344 C-8.78014658 0.19943541 -4.54199376 0.01417274 0 0 Z " fill="#FBBE4A" transform="translate(383.87109375,88.6640625)"/>
<path d="M0 0 C0.85650146 -0.00175232 1.71300293 -0.00350464 2.59545898 -0.00531006 C5.4065966 -0.00968451 8.21767042 -0.00680457 11.02880859 -0.00341797 C13.00165824 -0.00409264 14.97450781 -0.00506403 16.94735718 -0.00631714 C21.07786858 -0.00778847 25.20835831 -0.00565909 29.33886719 -0.00097656 C34.59702104 0.00469785 39.85512359 0.00145267 45.11327553 -0.00454903 C49.18855159 -0.00818916 53.26381581 -0.00699992 57.33909225 -0.00442123 C59.27569968 -0.00376031 61.21230823 -0.00455075 63.14891434 -0.00690079 C84.02118932 -0.02666073 101.23242689 0.95651929 120.05224609 11.12939453 C120.05224609 12.44939453 120.05224609 13.76939453 120.05224609 15.12939453 C118.66625977 16.35864258 118.66625977 16.35864258 116.72021484 17.39111328 C116.00945801 17.78282715 115.29870117 18.17454102 114.56640625 18.578125 C113.41470947 19.19131592 113.41470947 19.19131592 112.23974609 19.81689453 C84.42615458 35.44296075 69.32470606 61.99050249 54.6418457 89.29296875 C46.18949743 104.99231043 37.6543208 119.41446543 25.05224609 132.12939453 C24.29169922 132.93892578 23.53115234 133.74845703 22.74755859 134.58251953 C17.52900087 140.04250519 11.79998765 145.63283754 5.05224609 149.12939453 C2.50889715 149.01538234 0.49281339 148.29107111 -1.88305664 147.41918945 C-7.86822311 145.28253082 -13.43326109 144.49348383 -19.76025391 144.06689453 C-21.60064286 143.93772199 -23.44053937 143.80127887 -25.27978516 143.65673828 C-26.08134033 143.60251709 -26.88289551 143.5482959 -27.70874023 143.49243164 C-30.1794292 143.09183034 -31.82994278 142.45877227 -33.94775391 141.12939453 C-35.57212137 138.85702359 -36.99225915 136.66025768 -38.38525391 134.25439453 C-38.75457031 133.64853516 -39.12388672 133.04267578 -39.50439453 132.41845703 C-40.72413243 130.35526086 -41.83765365 128.25351992 -42.94775391 126.12939453 C-43.63369629 124.93805908 -43.63369629 124.93805908 -44.33349609 123.72265625 C-49.44782951 113.61921619 -48.54059489 103.0268611 -48.32275391 92.00439453 C-48.29869785 89.93263598 -48.27632791 87.86085718 -48.25561523 85.7890625 C-48.19804306 80.7825748 -48.10834171 75.77740648 -48.00238037 70.77172852 C-47.95371396 68.41768807 -47.91262101 66.06372513 -47.87597656 63.70947266 C-47.22971806 25.75028926 -47.22971806 25.75028926 -33.44775391 11.25439453 C-23.3732118 1.85599619 -13.48765816 -0.03452428 0 0 Z " fill="#FBBE4A" transform="translate(238.94775390625,61.87060546875)"/>
<path d="M0 0 C10.7656113 3.69885168 21.17532836 8.35567569 31.6027832 12.90112305 C37.78384927 15.58369319 43.97428655 18.17030528 50.26953125 20.5703125 C50.89756149 20.81085358 51.52559174 21.05139465 52.1726532 21.29922485 C55.17157611 22.44529053 58.17521105 23.57477354 61.18920898 24.68066406 C74.82690923 29.84999609 87.57382845 38.83311868 93.79296875 52.51953125 C98.251917 69.49369172 92.47181511 88.12484196 87.0390625 104.16015625 C86.71633362 105.12121277 86.71633362 105.12121277 86.38708496 106.10168457 C80.14735944 124.6079481 72.86861052 143.84230706 59.8515625 158.72265625 C59.3364209 159.31594727 58.8212793 159.90923828 58.29052734 160.52050781 C51.82605824 167.80223216 45.14473337 174.58086519 35.109375 175.93359375 C24.85272726 176.10173552 19.28547616 171.83319832 11.98046875 164.9296875 C11.19542969 164.16011719 10.41039062 163.39054688 9.6015625 162.59765625 C8.97121094 162.00339844 8.34085938 161.40914062 7.69140625 160.796875 C-10.03356828 142.58739092 -11.96568239 112.4989762 -15.8449707 88.77661133 C-21.55589792 53.97999714 -27.03276974 25.99687395 -51.74609375 -0.40625 C-53.3984375 -2.40234375 -53.3984375 -2.40234375 -53.3984375 -4.40234375 C-39.48836656 -11.35737922 -14.26551369 -4.64686016 0 0 Z " fill="#FBBE4A" transform="translate(548.3984375,104.40234375)"/>
<path d="M0 0 C0.73686035 0.00563965 1.4737207 0.0112793 2.23291016 0.01708984 C15.17635764 0.30011392 27.17095933 3.77408871 36.8125 12.75 C40.18026723 16.441591 42.67171156 20.16618452 42.90234375 25.3203125 C42.53671969 30.25154987 40.87220979 33.37858742 37.8125 37.3125 C37.1525 38.22 36.4925 39.1275 35.8125 40.0625 C33.71266585 42.42481342 32.7443322 43.24506192 29.8125 44.3125 C27.88389499 44.3631994 25.95428124 44.40845041 24.02514648 44.38549805 C17.42693144 44.16024507 17.42693144 44.16024507 11.8984375 47.1640625 C10.71364811 49.48747215 10.71364811 49.48747215 9.8046875 51.9453125 C8.17821522 55.82579361 5.39179304 58.19528425 1.8125 60.3125 C-3.05184929 61.34746793 -6.16720661 59.52942196 -10.2578125 57.08984375 C-12.13577489 56.17537614 -12.13577489 56.17537614 -14.08984375 56.4140625 C-17.07377781 57.69209757 -19.17757815 59.62844846 -21.625 61.75 C-26.2203789 65.73180953 -29.56824958 68.07863835 -35.6875 68.625 C-39.40446521 68.29312811 -41.27573176 67.60662043 -44.1875 65.3125 C-44.1875 64.6525 -44.1875 63.9925 -44.1875 63.3125 C-44.8475 63.3125 -45.5075 63.3125 -46.1875 63.3125 C-51.4434881 55.26426822 -51.45276029 46.65555989 -49.59765625 37.35546875 C-45.18595375 23.46978761 -34.90558799 11.63285828 -22.125 4.9375 C-14.89933641 1.38909456 -8.0073914 -0.06516129 0 0 Z " fill="#FBBE4A" transform="translate(516.1875,371.6875)"/>
<path d="M0 0 C1.37293704 1.01679924 2.72790413 2.05837417 4.0625 3.125 C4.75859375 3.64835938 5.4546875 4.17171875 6.171875 4.7109375 C17.18158933 13.52698694 22.48590161 27.60532113 24.35546875 41.265625 C24.84524259 48.62546975 22.33121065 56.38819729 17.453125 61.96484375 C13.27899202 65.26777007 9.32927021 66.125 4.0625 66.125 C-3.08257012 64.04102121 -7.9474577 57.11006345 -11.9375 51.125 C-13.87654169 50.84055848 -13.87654169 50.84055848 -16.078125 51.11328125 C-17.30982422 51.19050415 -17.30982422 51.19050415 -18.56640625 51.26928711 C-19.86384766 51.35255249 -19.86384766 51.35255249 -21.1875 51.4375 C-29.95022853 51.73040231 -29.95022853 51.73040231 -33.421875 49.6015625 C-34.99382684 47.48672007 -36.00905933 45.58794677 -36.9375 43.125 C-38.59363756 38.07032054 -38.59363756 38.07032054 -42.5625 34.875 C-43.67625 34.6275 -44.79 34.38 -45.9375 34.125 C-57.61181694 30.78948087 -57.61181694 30.78948087 -61.125 25.25390625 C-64.08335813 19.49127114 -65.58249476 13.50280093 -63.9375 7.125 C-50.27675143 -13.54208097 -18.80071535 -11.87413601 0 0 Z " fill="#FABD4A" transform="translate(243.9375,227.875)"/>
<path d="M0 0 C3.88041073 2.12112484 6.51541458 4.27312186 9 8 C8.91198479 12.6648062 8.04084349 15.97425246 4.84375 19.46875 C1.53677158 22.21522361 -2.24100225 24.17826793 -5.9765625 26.28125 C-13.07946525 29.882287 -13.07946525 29.882287 -17.70703125 35.9296875 C-18.07756407 38.06215046 -18.07756407 38.06215046 -18 41 C-17.43410156 41.27714844 -16.86820312 41.55429687 -16.28515625 41.83984375 C-15.55167969 42.20207031 -14.81820312 42.56429687 -14.0625 42.9375 C-13.33160156 43.29714844 -12.60070312 43.65679687 -11.84765625 44.02734375 C-10 45 -10 45 -9 46 C-8.625 49.3125 -8.625 49.3125 -9 53 C-12.40586457 56.59507927 -15.40559187 57.76331715 -20.2265625 58.203125 C-30.0901975 58.39589963 -38.02076958 55.79171294 -46 50 C-47 49 -47 49 -47.09765625 46.71484375 C-47.06510417 44.14322917 -47.03255208 41.57161458 -47 39 C-41.555 38.505 -41.555 38.505 -36 38 C-35.58262051 34.12923401 -35.70121323 32.43465359 -37.94140625 29.17578125 C-38.80636719 28.23089844 -39.67132813 27.28601563 -40.5625 26.3125 C-41.48218498 25.2628845 -42.397497 24.20942268 -43.30859375 23.15234375 C-43.76347168 22.62624512 -44.21834961 22.10014648 -44.68701172 21.55810547 C-49.87220066 15.40491174 -54.25102377 9.50308452 -53.62890625 1.1640625 C-52.32420338 -3.32541196 -49.0327168 -4.75485097 -45.1953125 -7.10546875 C-32.01109779 -12.47768435 -12.56904183 -5.05138797 0 0 Z " fill="#5C1D01" transform="translate(414,311)"/>
<path d="M0 0 C1.03793512 -0.00407553 2.07587025 -0.00815105 3.14525795 -0.01235008 C8.63728248 -0.0330985 14.12928284 -0.04744945 19.62133789 -0.05688477 C25.24468918 -0.06793918 30.86764381 -0.10236102 36.49085522 -0.14205647 C40.86048541 -0.16838966 45.23002319 -0.1765912 49.59972572 -0.18016624 C51.67064411 -0.18498729 53.74155965 -0.19647022 55.81239891 -0.21520424 C80.58713748 -0.42545203 98.96592047 4.749117 118.23828125 20.9453125 C122.29906957 23.61221912 126.95348974 23.35870249 131.67578125 23.37890625 C160.83335847 23.73708488 191.15161841 26.96510237 217.96484375 39.2578125 C219.07472656 39.74314453 219.07472656 39.74314453 220.20703125 40.23828125 C220.81417969 40.50769531 221.42132813 40.77710938 222.046875 41.0546875 C225.56368501 41.35358455 228.49038988 39.75073347 231.64453125 38.36328125 C245.93767196 32.20753333 261.86637265 32.70945133 276.89453125 36.30078125 C277.65056641 36.48012207 278.40660156 36.65946289 279.18554688 36.84423828 C296.10323024 41.29199725 312.17335125 48.68955529 328.0793457 55.83154297 C338.10301724 60.32113449 348.13078306 64.43886847 358.55259705 67.92382812 C369.23888077 71.51067843 377.72195471 76.84394076 386.20703125 84.23828125 C386.90699219 84.80804688 387.60695313 85.3778125 388.328125 85.96484375 C397.44401914 94.03232122 403.44745892 107.154176 404.20703125 119.23828125 C404.81793638 131.40084704 404.81793638 131.40084704 402.20703125 136.23828125 C402.18515747 135.31716553 402.18515747 135.31716553 402.1628418 134.37744141 C402.0874118 131.5388214 401.99107349 128.70125867 401.89453125 125.86328125 C401.87197266 124.89777344 401.84941406 123.93226563 401.82617188 122.9375 C401.26018748 107.60446821 395.36422696 95.73528786 384.20703125 85.23828125 C373.3386162 76.50976139 361.54645059 71.1281948 348.27001953 67.18896484 C342.44416771 65.41648017 337.05220485 62.97615778 331.57421875 60.328125 C316.86495484 53.2260126 301.90410229 46.46350828 286.21435547 41.83935547 C284.28478289 41.26156324 282.37219542 40.62794483 280.4609375 39.9921875 C262.31350105 34.53473783 243.30745098 35.1369013 226.20703125 43.23828125 C224.25390625 44.12890625 224.25390625 44.12890625 222.20703125 44.23828125 C219.65312356 43.26662212 217.28325513 42.23435219 214.83203125 41.05078125 C190.77543938 30.10270947 163.4571972 27.16677644 137.27148438 26.80859375 C127.75119981 26.57999262 119.71009397 26.07887829 112.39453125 19.48828125 C98.61128063 7.91715728 83.61761068 3.08356337 65.77783203 3.09301758 C64.85802048 3.08965897 63.93820892 3.08630035 62.99052429 3.08283997 C59.96111686 3.07337312 56.93176504 3.07138843 53.90234375 3.0703125 C51.77830992 3.06709498 49.6542763 3.06373054 47.53024292 3.06022644 C43.07679736 3.05424439 38.62337117 3.05238539 34.16992188 3.05297852 C28.50731839 3.05307963 22.84484172 3.03947609 17.18226814 3.02220631 C12.79118295 3.01099426 8.40012742 3.00906218 4.00902939 3.00958824 C1.92417848 3.00842007 -0.16067349 3.00406492 -2.2455101 2.99625587 C-25.78664522 2.91639108 -45.61226088 3.73831592 -64.01171875 20.2265625 C-79.14737409 35.68239516 -81.82970485 59.16766418 -82.109375 79.70703125 C-82.1301561 80.98308228 -82.15093719 82.2591333 -82.17234802 83.57385254 C-82.22640547 86.9406016 -82.27672865 90.3073632 -82.32519531 93.67419434 C-82.37573533 97.12008596 -82.43125046 100.5658972 -82.48632812 104.01171875 C-82.59309341 110.75384191 -82.69493075 117.49602584 -82.79296875 124.23828125 C-84.45458271 121.32058651 -85.04463382 119.22772295 -85.05175781 115.87890625 C-85.05806213 115.02280762 -85.06436646 114.16670898 -85.07086182 113.28466797 C-85.06681335 112.36186035 -85.06276489 111.43905273 -85.05859375 110.48828125 C-85.0605072 109.52035645 -85.06242065 108.55243164 -85.06439209 107.55517578 C-85.06575393 105.4973932 -85.06205757 103.43960204 -85.05371094 101.38183594 C-85.04319718 98.30512861 -85.05350818 95.2290306 -85.06640625 92.15234375 C-85.09332996 59.01277162 -85.09332996 59.01277162 -80.23046875 43.86328125 C-79.84846313 42.63605347 -79.84846313 42.63605347 -79.45874023 41.3840332 C-76.81619563 33.44396023 -72.89303534 26.8303886 -67.79296875 20.23828125 C-67.2515625 19.53574219 -66.71015625 18.83320312 -66.15234375 18.109375 C-56.24338929 6.92426731 -40.07888743 1.59400005 -25.68505859 0.4521637 C-17.13247689 -0.01782728 -8.56336682 0.02861157 0 0 Z " fill="#AC6027" transform="translate(257.79296875,43.76171875)"/>
<path d="M0 0 C4.43004303 2.23863582 6.65639669 4.89240931 9.08203125 9.30078125 C9.55232905 12.111027 9.79733339 14.37901835 9.76953125 17.17578125 C9.76663086 17.88105957 9.76373047 18.58633789 9.76074219 19.31298828 C9.52276821 24.97075431 8.04003599 28.0715716 4.00390625 31.91796875 C0.17854863 34.67036021 -2.92929195 35.88764227 -7.76171875 35.734375 C-12.04267096 34.87353135 -14.99529395 32.44976937 -17.91796875 29.30078125 C-21.49816995 23.83996874 -22.73570643 18.74046547 -21.91796875 12.30078125 C-20.20494839 6.54075029 -17.33246688 3.03274219 -12.0625 0.1484375 C-7.87914247 -1.50509362 -4.31993104 -1.57488321 0 0 Z " fill="#5E1E02" transform="translate(473.91796875,245.69921875)"/>
<path d="M0 0 C4.4985679 2.21773087 8.2377266 5.2314955 10 10 C10.88850188 17.05248364 10.41343772 23.24163896 6 29 C2.04263726 33.11114627 -2.17872889 34.86683977 -7.859375 35.1953125 C-11.46450307 34.86637746 -13.36299616 33.39170115 -16 31 C-20.1524709 25.50078178 -21.83977603 20.90345296 -21 14 C-19.29538309 7.83804021 -15.78275892 4.31468362 -10.3671875 1.07421875 C-6.43464383 -0.7103514 -4.30090106 -0.76306309 0 0 Z " fill="#F9BC4B" transform="translate(344,223)"/>
<path d="M0 0 C0.68139542 -0.00095673 1.36279083 -0.00191345 2.06483459 -0.00289917 C3.49594211 -0.00357504 4.9270528 -0.00176248 6.3581543 0.00244141 C8.52595035 0.00778979 10.69353847 0.00248044 12.86132812 -0.00390625 C26.91832737 -0.01320789 26.91832737 -0.01320789 32.59765625 1.1328125 C33.09265625 2.1228125 33.09265625 2.1228125 33.59765625 3.1328125 C32.41961426 3.11186523 31.24157227 3.09091797 30.02783203 3.06933594 C25.56604665 2.99574492 21.10431208 2.95058991 16.64208984 2.91308594 C14.72793495 2.89323687 12.81383843 2.86614848 10.89990234 2.83105469 C-15.90166902 2.35270643 -39.26280562 8.54013648 -59.40234375 27.1328125 C-64.48199605 32.40571245 -68.3788521 38.41748733 -72.08984375 44.6953125 C-72.44643066 45.27676025 -72.80301758 45.85820801 -73.17041016 46.45727539 C-81.21041315 60.66945821 -82.09770505 75.27550612 -81.71484375 91.1953125 C-81.68968052 93.04489107 -81.66688179 94.89450336 -81.64648438 96.74414062 C-81.59223677 101.20788853 -81.50642893 105.66996015 -81.40234375 110.1328125 C-86.3450881 105.19006815 -84.6364086 93.0965488 -84.65234375 86.4453125 C-84.6134076 62.15253953 -77.03841954 42.19455721 -60.21484375 24.3828125 C-44.11948664 8.94027407 -22.31629412 0.02008796 0 0 Z " fill="#B66B30" transform="translate(125.40234375,220.8671875)"/>
<path d="M0 0 C1.8368763 0.00848969 1.8368763 0.00848969 3.71086121 0.01715088 C7.57198372 0.03930745 11.43213294 0.08946573 15.29296875 0.140625 C17.9316271 0.16071672 20.57030019 0.17896276 23.20898438 0.1953125 C29.63313724 0.23910412 36.05673343 0.30580544 42.48046875 0.390625 C42.48046875 0.720625 42.48046875 1.050625 42.48046875 1.390625 C41.236604 1.41044434 39.99273926 1.43026367 38.71118164 1.45068359 C34.01243794 1.52784694 29.31396041 1.61637408 24.61547852 1.70800781 C22.59762905 1.7458475 20.57972237 1.78077063 18.56176758 1.8125 C-5.93851832 2.20226343 -27.53102465 2.82880384 -45.76953125 21.453125 C-59.0196659 37.30984351 -61.56544945 58.99435426 -61.8359375 78.859375 C-61.8567186 80.13542603 -61.87749969 81.41147705 -61.89891052 82.72619629 C-61.95296797 86.09294535 -62.00329115 89.45970695 -62.05175781 92.82653809 C-62.10229783 96.27242971 -62.15781296 99.71824095 -62.21289062 103.1640625 C-62.31965591 109.90618566 -62.42149325 116.64836959 -62.51953125 123.390625 C-64.18114521 120.47293026 -64.77119632 118.3800667 -64.77832031 115.03125 C-64.78462463 114.17515137 -64.79092896 113.31905273 -64.79742432 112.43701172 C-64.79337585 111.5142041 -64.78932739 110.59139648 -64.78515625 109.640625 C-64.7870697 108.6727002 -64.78898315 107.70477539 -64.79095459 106.70751953 C-64.79231643 104.64973695 -64.78862007 102.59194579 -64.78027344 100.53417969 C-64.76975968 97.45747236 -64.78007068 94.38137435 -64.79296875 91.3046875 C-64.81989246 58.16511537 -64.81989246 58.16511537 -59.95703125 43.015625 C-59.57502563 41.78839722 -59.57502563 41.78839722 -59.18530273 40.53637695 C-56.54275813 32.59630398 -52.61959784 25.98273235 -47.51953125 19.390625 C-46.978125 18.68808594 -46.43671875 17.98554687 -45.87890625 17.26171875 C-34.54108488 4.46372342 -16.38848288 -0.29222002 0 0 Z " fill="#B0692D" transform="translate(237.51953125,44.609375)"/>
<path d="M0 0 C1.73520739 2.60281108 2.41688994 4.02533629 3.19140625 6.9296875 C15.82218053 52.48751913 41.87179645 88.71859392 74.6875 121.875 C75.47141113 122.67204346 76.25532227 123.46908691 77.06298828 124.2902832 C81.57600043 128.80945937 86.18307056 132.84562558 91.35864258 136.59423828 C91.90029053 137.05813965 92.44193848 137.52204102 93 138 C93 138.66 93 139.32 93 140 C88.78843581 138.32155266 85.79713293 135.25671077 82.5625 132.1875 C81.9236084 131.58510498 81.2847168 130.98270996 80.62646484 130.36206055 C74.72001451 124.75337341 68.90938265 119.046695 63.125 113.3125 C61.82477905 112.03185669 61.82477905 112.03185669 60.49829102 110.7253418 C54.56471258 104.79970733 49.2006086 98.57436624 44 92 C43.47116211 91.34636475 42.94232422 90.69272949 42.39746094 90.01928711 C24.95097236 68.35626154 12.28774726 43.2557172 3.375 17 C2.85993896 15.48599609 2.85993896 15.48599609 2.33447266 13.94140625 C0.78611227 9.17920864 -0.46301473 5.0760133 0 0 Z " fill="#9F5224" transform="translate(44,332)"/>
<path d="M0 0 C15.67393217 1.39323842 28.62656026 9.87786102 38.79833984 21.46728516 C42.63126718 26.35617541 43.87321757 32.02910617 45 38 C49.08644928 35.31425189 53.08674067 32.53023278 57.06396484 29.68554688 C84.41346535 10.16153446 84.41346535 10.16153446 96.5078125 12.07421875 C102.45788701 14.28451289 107.02985253 18.85566722 110.36328125 24.17578125 C112.98015556 30.48164136 111.51741967 36.54823721 110 43 C109.67 43 109.34 43 109 43 C109.04640625 41.91460937 109.0928125 40.82921875 109.140625 39.7109375 C109.17816487 38.26565269 109.21456264 36.82033789 109.25 35.375 C109.28351563 34.66214844 109.31703125 33.94929688 109.3515625 33.21484375 C109.44751263 27.98556171 108.41694573 25.16536113 105 21 C101.27785197 17.16864469 97.93812102 15.21143138 92.5625 14.625 C79.31281481 14.91408404 66.96308454 25.49473877 56.81640625 33.12890625 C56.13553955 33.63921387 55.45467285 34.14952148 54.75317383 34.67529297 C53.43884683 35.66748571 52.132336 36.67013612 50.8347168 37.68408203 C49.2789162 38.86660096 47.64423509 39.94389515 46 41 C45.01 40.67 44.02 40.34 43 40 C42.19140625 37.48828125 42.19140625 37.48828125 41.5625 34.3125 C39.17829275 24.04951649 32.70577427 17.06416882 24.203125 11.0078125 C17.92679494 7.13906937 11.73608894 4.71064227 4.6171875 2.82421875 C2 2 2 2 0 0 Z " fill="#A45826" transform="translate(530,357)"/>
<path d="M0 0 C2.21720806 3.75069557 2.92155398 7.79239362 3.8125 12 C5.70212497 20.48421604 8.1341801 28.70127015 13 36 C12.9375 37.953125 12.9375 37.953125 12 40 C9.8125 41.859375 9.8125 41.859375 7 43.75 C3.07301392 46.45107463 -0.35550984 49.22068297 -3.75 52.5625 C-7.38105268 55.91877031 -7.38105268 55.91877031 -10.11328125 56.27734375 C-12.0625 56 -12.0625 56 -15 55 C-15 54.67 -15 54.34 -15 54 C-13.906875 53.87625 -12.81375 53.7525 -11.6875 53.625 C-6.10968737 52.27760654 -2.70224038 48.42888718 1.2890625 44.5078125 C4.07178478 41.9335939 6.80390943 40.01513042 10 38 C9.731875 37.33484375 9.46375 36.6696875 9.1875 35.984375 C-0.42963612 11.81499342 -0.42963612 11.81499342 0 0 Z " fill="#AE622C" transform="translate(175,170)"/>
<path d="M0 0 C0.66 0 1.32 0 2 0 C3.65387453 1.98771217 5.20722884 3.99088035 6.75 6.0625 C12.99729337 14.20942755 19.85041573 21.64197304 27 29 C27.73798828 29.75990234 28.47597656 30.51980469 29.23632812 31.30273438 C31.58586461 33.71105827 33.94655651 36.10779825 36.3125 38.5 C37.40510132 39.6122998 37.40510132 39.6122998 38.51977539 40.74707031 C42.87055772 45.10425737 47.35221851 48.95184025 52.33666992 52.57226562 C52.88556885 53.04341797 53.43446777 53.51457031 54 54 C54 54.66 54 55.32 54 56 C49.78843581 54.32155266 46.79713293 51.25671077 43.5625 48.1875 C42.6041626 47.28390747 42.6041626 47.28390747 41.62646484 46.36206055 C35.72001451 40.75337341 29.90938265 35.046695 24.125 29.3125 C23.25818604 28.45873779 22.39137207 27.60497559 21.49829102 26.7253418 C13.55854897 18.79622961 6.27694415 10.31417519 0 1 C0 0.67 0 0.34 0 0 Z " fill="#994C1F" transform="translate(83,416)"/>
<path d="M0 0 C4.68648845 0.49692199 7.22326326 2.40559129 10.8125 5.375 C11.78832031 6.16648437 12.76414063 6.95796875 13.76953125 7.7734375 C14.87361328 8.87558594 14.87361328 8.87558594 16 10 C16 10.99 16 11.98 16 13 C15.01 12.67 14.02 12.34 13 12 C13 11.34 13 10.68 13 10 C12.34 10 11.68 10 11 10 C10.67 9.34 10.34 8.68 10 8 C9.34 8 8.68 8 8 8 C7.67 8.99 7.34 9.98 7 11 C7.66 11 8.32 11 9 11 C9 12.32 9 13.64 9 15 C5.40655171 13.57183465 4.06852278 12.00386022 2.25 8.625 C1.82203125 7.85414063 1.3940625 7.08328125 0.953125 6.2890625 C0 4 0 4 0 0 Z " fill="#F5B954" transform="translate(216,359)"/>
<path d="M0 0 C0 3 0 3 -1.56054688 4.80932617 C-2.27275391 5.46392822 -2.98496094 6.11853027 -3.71875 6.79296875 C-4.48574219 7.50517578 -5.25273438 8.21738281 -6.04296875 8.95117188 C-6.85378906 9.68916016 -7.66460938 10.42714844 -8.5 11.1875 C-9.31082031 11.93708984 -10.12164063 12.68667969 -10.95703125 13.45898438 C-12.96485532 15.31326896 -14.97928073 17.15979242 -17 19 C-17 16 -17 16 -16 14 C-15.64080679 12.00448218 -15.30503431 10.00451121 -15 8 C-14.34 8 -13.68 8 -13 8 C-12.67 6.68 -12.34 5.36 -12 4 C-10.948125 4.268125 -9.89625 4.53625 -8.8125 4.8125 C-4.85416667 5.4375 -4.85416667 5.4375 -2.0625 2.5625 C-1.381875 1.716875 -0.70125 0.87125 0 0 Z " fill="#672508" transform="translate(609,437)"/>
<path d="M0 0 C1.09332642 0.00193359 1.09332642 0.00193359 2.20874023 0.00390625 C9.02223958 0.12290635 15.26443911 1.39932743 21.8125 3.3125 C18.17523463 4.5715534 15.56125739 3.94670461 11.8125 3.3125 C8.49944358 3.16095527 5.190991 3.17279494 1.875 3.1875 C1.00681641 3.18363281 0.13863281 3.17976563 -0.75585938 3.17578125 C-5.67354607 3.18321539 -10.33965056 3.4814401 -15.1875 4.3125 C-15.5175 3.6525 -15.8475 2.9925 -16.1875 2.3125 C-10.66817087 0.76115441 -5.72552275 -0.04265318 0 0 Z " fill="#DCA047" transform="translate(516.1875,371.6875)"/>
<path d="M0 0 C1.09898646 2.73782591 1.10198651 3.76042442 -0.07421875 6.5234375 C-0.60660156 7.46445312 -1.13898437 8.40546875 -1.6875 9.375 C-5.96078248 17.47436097 -8.30612302 26.02748331 -10 35 C-10.33 35 -10.66 35 -11 35 C-12.10798159 22.36900982 -6.40080499 10.58002474 0 0 Z " fill="#B86E30" transform="translate(53,261)"/>
<path d="M0 0 C0 0.99 0 1.98 0 3 C-0.66 3 -1.32 3 -2 3 C-2.33 5.31 -2.66 7.62 -3 10 C-5.97 9.505 -5.97 9.505 -9 9 C-10.25541557 12.76624671 -9.37061958 14.37188934 -8 18 C-10.5625 15.75 -10.5625 15.75 -13 13 C-12.84589992 10.25921997 -12.15601882 9.16922865 -10.29296875 7.1484375 C-9.25076172 6.27058594 -9.25076172 6.27058594 -8.1875 5.375 C-7.50042969 4.78460938 -6.81335938 4.19421875 -6.10546875 3.5859375 C-4.13394577 2.10089421 -2.24176008 1.01760794 0 0 Z " fill="#F0B452" transform="translate(313,310)"/>
<path d="M0 0 C3.3051074 1.02572299 4.04006555 2.06907854 5.8125 5.125 C7.45272522 9.41826709 7.02128773 12.55010345 6 17 C5.01 18.32 4.02 19.64 3 21 C3 17.7 3 14.4 3 11 C2.34 10.67 1.68 10.34 1 10 C1.03255208 7.98177083 1.06510417 5.96354167 1.09765625 3.9453125 C1.12649242 1.91814596 1.12649242 1.91814596 0 0 Z " fill="#F2B84F" transform="translate(552,386)"/>
<path d="M0 0 C2.475 0.495 2.475 0.495 5 1 C5 1.66 5 2.32 5 3 C5.50015625 2.83628906 6.0003125 2.67257812 6.515625 2.50390625 C9.9263468 1.8121089 13.28735757 1.89495335 16.75 1.9375 C17.44738281 1.94201172 18.14476562 1.94652344 18.86328125 1.95117188 C20.57555803 1.9628998 22.28779033 1.98083347 24 2 C24.33 1.34 24.66 0.68 25 0 C25.99 0 26.98 0 28 0 C27.67 1.32 27.34 2.64 27 4 C23.06274674 4.11594584 19.12593077 4.18716464 15.1875 4.25 C14.06794922 4.28351563 12.94839844 4.31703125 11.79492188 4.3515625 C10.72177734 4.36445313 9.64863281 4.37734375 8.54296875 4.390625 C7.0583313 4.4220459 7.0583313 4.4220459 5.54370117 4.45410156 C3 4 3 4 1.15356445 1.97558594 C0.77288818 1.32364258 0.39221191 0.67169922 0 0 Z " fill="#F9BC53" transform="translate(210,275)"/>
<path d="M0 0 C0.66 0 1.32 0 2 0 C2 1.32 2 2.64 2 4 C1.34 4 0.68 4 0 4 C0.268125 4.721875 0.53625 5.44375 0.8125 6.1875 C1 9 1 9 -1.4375 11.8125 C-2.283125 12.534375 -3.12875 13.25625 -4 14 C-5.32 13.34 -6.64 12.68 -8 12 C-7.59007812 11.46890625 -7.18015625 10.9378125 -6.7578125 10.390625 C-6.21898437 9.68421875 -5.68015625 8.9778125 -5.125 8.25 C-4.59132813 7.55390625 -4.05765625 6.8578125 -3.5078125 6.140625 C-2.10761086 4.15277397 -1.02144735 2.20156614 0 0 Z " fill="#F1B64C" transform="translate(395,255)"/>
<path d="M0 0 C1.65 0.99 3.3 1.98 5 3 C3.67708855 6.96873434 2.08850262 7.29905037 -1.5625 9.1875 C-2.57441406 9.71730469 -3.58632813 10.24710938 -4.62890625 10.79296875 C-5.41136719 11.19128906 -6.19382812 11.58960937 -7 12 C-7 10.68 -7 9.36 -7 8 C-5.68 8 -4.36 8 -3 8 C-2.67 6.68 -2.34 5.36 -2 4 C-1.34 4 -0.68 4 0 4 C0 2.68 0 1.36 0 0 Z " fill="#F3B655" transform="translate(355,71)"/>
<path d="M0 0 C4.875 3.625 4.875 3.625 6 7 C4.44033408 7.36644578 2.87707349 7.71760862 1.3125 8.0625 C0.44238281 8.25972656 -0.42773438 8.45695312 -1.32421875 8.66015625 C-4.16001276 9.02032279 -6.24789982 8.70909969 -9 8 C-9 7.67 -9 7.34 -9 7 C-6.03 6.34 -3.06 5.68 0 5 C0 3.35 0 1.7 0 0 Z " fill="#F2B654" transform="translate(460,446)"/>
<path d="M0 0 C0.85994675 2.38463761 1.22582358 3.50916884 0.14453125 5.859375 C-0.29503906 6.48328125 -0.73460937 7.1071875 -1.1875 7.75 C-3.84344198 11.69681881 -5.93441627 15.71582635 -8 20 C-8.9717231 17.41271272 -9.09873886 16.27322261 -8.14453125 13.6328125 C-7.70496094 12.80523437 -7.26539063 11.97765625 -6.8125 11.125 C-6.35101563 10.25359375 -5.88953125 9.3821875 -5.4140625 8.484375 C-3.73899483 5.54143843 -1.96084707 2.75971069 0 0 Z " fill="#BF7334" transform="translate(189,65)"/>
<path d="M0 0 C0.66 0 1.32 0 2 0 C1.32599282 3.91114026 -0.54256033 6.87119182 -2.5625 10.25 C-3.20316406 11.32765625 -3.84382812 12.4053125 -4.50390625 13.515625 C-4.99761719 14.33546875 -5.49132812 15.1553125 -6 16 C-7.11651815 12.65044556 -6.99822121 11.32740404 -6 8 C-4.5 6.3125 -4.5 6.3125 -3 5 C-2.67 4.34 -2.34 3.68 -2 3 C-1.34 3 -0.68 3 0 3 C0 2.01 0 1.02 0 0 Z " fill="#F1B454" transform="translate(543,297)"/>
<path d="M0 0 C-0.33 0.99 -0.66 1.98 -1 3 C-1.66 3 -2.32 3 -3 3 C-3 4.32 -3 5.64 -3 7 C-2.01 7.33 -1.02 7.66 0 8 C-0.99 8.33 -1.98 8.66 -3 9 C-8 3.25 -8 3.25 -8 1 C-5.29120665 -0.35439668 -2.99066732 -0.06501451 0 0 Z " fill="#ECAE50" transform="translate(503,99)"/>
<path d="M0 0 C0.99 0.66 1.98 1.32 3 2 C5.67145537 1.19838209 5.67145537 1.19838209 8 0 C4.71644638 3.67758005 1.37221763 5.81389118 -3 8 C-3.66 7.67 -4.32 7.34 -5 7 C-4.34 6.34 -3.68 5.68 -3 5 C-3.33 4.34 -3.66 3.68 -4 3 C-3.34 3 -2.68 3 -2 3 C-1.67 2.34 -1.34 1.68 -1 1 C-0.67 0.67 -0.34 0.34 0 0 Z " fill="#6D2809" transform="translate(540,489)"/>
<path d="M0 0 C2.97 0.495 2.97 0.495 6 1 C2.66666667 4.33333333 -0.66666667 7.66666667 -4 11 C-4.66 10.67 -5.32 10.34 -6 10 C-5.2884375 9.38125 -5.2884375 9.38125 -4.5625 8.75 C-2.80314207 6.77951911 -2.55492455 5.53679793 -2 3 C-1.34 2.01 -0.68 1.02 0 0 Z " fill="#6E270C" transform="translate(585,455)"/>
<path d="M0 0 C1.98 0 3.96 0 6 0 C6.33 0.99 6.66 1.98 7 3 C7.66 3.33 8.32 3.66 9 4 C8.67 5.32 8.34 6.64 8 8 C4.65001479 6.88333826 4.20659778 6.25305075 2.3125 3.4375 C1.87550781 2.79683594 1.43851563 2.15617187 0.98828125 1.49609375 C0.49908203 0.75552734 0.49908203 0.75552734 0 0 Z " fill="#652404" transform="translate(541,272)"/>
<path d="M0 0 C-5.61 2.31 -11.22 4.62 -17 7 C-17 5 -17 5 -15 3 C-10.10950023 -0.26033318 -5.84503813 -1.46125953 0 0 Z " fill="#692903" transform="translate(336,300)"/>
<path d="M0 0 C3.40100383 1.40731193 5.17855714 2.78070565 7 6 C7.07421875 9.453125 7.07421875 9.453125 6.6875 13.25 C6.56761719 14.51328125 6.44773437 15.7765625 6.32421875 17.078125 C6.21722656 18.04234375 6.11023438 19.0065625 6 20 C5.67 20 5.34 20 5 20 C4.97421875 19.14277344 4.9484375 18.28554688 4.921875 17.40234375 C4.57826047 10.47538721 4.08771914 5.67006203 0 0 Z " fill="#DDA049" transform="translate(478,248)"/>
<path d="M0 0 C0.33 0 0.66 0 1 0 C1.37952295 6.19887485 0.8352113 10.4477112 -2 16 C-2.99 15.01 -3.98 14.02 -5 13 C-3.25 9.125 -3.25 9.125 -1 8 C-0.53476937 6.10466658 -0.53476937 6.10466658 -0.375 3.9375 C-0.25125 2.638125 -0.1275 1.33875 0 0 Z " fill="#E7AC45" transform="translate(267,267)"/>
<path d="M0 0 C1 3 1 3 0 5.0625 C-0.33 5.701875 -0.66 6.34125 -1 7 C-0.67 7.66 -0.34 8.32 0 9 C-1.98 9 -3.96 9 -6 9 C-6.33 9.99 -6.66 10.98 -7 12 C-7.66 11.67 -8.32 11.34 -9 11 C-6.03 7.37 -3.06 3.74 0 0 Z " fill="#692805" transform="translate(326,100)"/>
<path d="M0 0 C0.66 0 1.32 0 2 0 C2 0.66 2 1.32 2 2 C3.98 2 5.96 2 8 2 C8.33 2.99 8.66 3.98 9 5 C9.99 5.66 10.98 6.32 12 7 C11.01 7.495 11.01 7.495 10 8 C7.3984375 6.78515625 7.3984375 6.78515625 4.375 5.0625 C3.37210937 4.49660156 2.36921875 3.93070312 1.3359375 3.34765625 C0.56507813 2.90292969 -0.20578125 2.45820313 -1 2 C-0.67 1.34 -0.34 0.68 0 0 Z " fill="#F2B750" transform="translate(279,425)"/>
<path d="M0 0 C0.99 0.33 1.98 0.66 3 1 C2.34 2.11375 1.68 3.2275 1 4.375 C-1.48147344 9.25057105 -1.39556963 13.63783386 -1 19 C-1.66 19.33 -2.32 19.66 -3 20 C-3.33452052 12.56621057 -3.13902852 6.80122845 0 0 Z " fill="#F2B656" transform="translate(454,249)"/>
<path d="M0 0 C-2.15381444 5.28663545 -6.42236838 8.77870367 -11 12 C-11.66 11.67 -12.32 11.34 -13 11 C-11.21427748 9.16052663 -9.42197551 7.32842259 -7.625 5.5 C-7.11710937 4.97535156 -6.60921875 4.45070313 -6.0859375 3.91015625 C-2.2265625 0 -2.2265625 0 0 0 Z " fill="#F5B957" transform="translate(348,102)"/>
<path d="M0 0 C4.62 0 9.24 0 14 0 C14 0.33 14 0.66 14 1 C12.75283203 1.00386719 12.75283203 1.00386719 11.48046875 1.0078125 C8.21814355 1.12390948 5.192901 1.3092908 2 2 C-0.39248595 4.85602535 -0.39248595 4.85602535 -1 8 C-1.66 7.67 -2.32 7.34 -3 7 C-3 6.34 -3 5.68 -3 5 C-2.34 5 -1.68 5 -1 5 C-0.67 3.35 -0.34 1.7 0 0 Z " fill="#F6B958" transform="translate(528,415)"/>
<path d="M0 0 C-1.25358555 3.76075665 -2.70673887 4.47649131 -5.9375 6.6875 C-6.83339844 7.31011719 -7.72929688 7.93273437 -8.65234375 8.57421875 C-11 10 -11 10 -13 10 C-13 9.34 -13 8.68 -13 8 C-11.26451831 6.55473264 -9.46024037 5.1912778 -7.625 3.875 C-6.62726562 3.15054687 -5.62953125 2.42609375 -4.6015625 1.6796875 C-2 0 -2 0 0 0 Z " fill="#B76830" transform="translate(587,388)"/>
<path d="M0 0 C0.66 0.66 1.32 1.32 2 2 C0.7260411 4.03833424 -0.61061923 6.03852126 -2 8 C-2.66 8 -3.32 8 -4 8 C-4 6.02 -4 4.04 -4 2 C-2.68 1.34 -1.36 0.68 0 0 Z " fill="#F1B450" transform="translate(263,282)"/>
<path d="M0 0 C0.66 0.33 1.32 0.66 2 1 C2.33 1.99 2.66 2.98 3 4 C6.465 3.505 6.465 3.505 10 3 C6.96474514 5.02350324 5.80573798 5.32124018 2.3125 5.625 C1.50425781 5.69976562 0.69601562 5.77453125 -0.13671875 5.8515625 C-1.05904297 5.92503906 -1.05904297 5.92503906 -2 6 C-1.34 4.02 -0.68 2.04 0 0 Z " fill="#EDB054" transform="translate(307,158)"/>
<path d="M0 0 C0.598125 0.309375 1.19625 0.61875 1.8125 0.9375 C4.08956772 2.10209704 4.08956772 2.10209704 7 3 C2.44573816 5.66590937 -0.73946963 6.31563182 -6 6 C-6 5.67 -6 5.34 -6 5 C-4.35 5 -2.7 5 -1 5 C-0.67 3.35 -0.34 1.7 0 0 Z " fill="#ECB14C" transform="translate(483,434)"/>
<path d="M0 0 C0.99 0.66 1.98 1.32 3 2 C2.01 2.33 1.02 2.66 0 3 C-0.73323796 5.01508358 -0.73323796 5.01508358 -1 7 C-2.98 7.33 -4.96 7.66 -7 8 C-6.02133662 6.85373678 -5.04205413 5.70800212 -4.0625 4.5625 C-3.51722656 3.92441406 -2.97195313 3.28632813 -2.41015625 2.62890625 C-1.63204305 1.73008851 -0.84063472 0.84063472 0 0 Z " fill="#EEB150" transform="translate(485,382)"/>
<path d="M0 0 C0.66 0 1.32 0 2 0 C2 3 2 3 0.6875 4.38671875 C-0.875 5.59114583 -2.4375 6.79557292 -4 8 C-2.87548273 5.0280615 -1.77706209 2.66559313 0 0 Z M-5 8 C-4.34 8.99 -3.68 9.98 -3 11 C-4.65 11.66 -6.3 12.32 -8 13 C-6.125 9.125 -6.125 9.125 -5 8 Z " fill="#6A2A03" transform="translate(280,173)"/>
<path d="M0 0 C-0.5 1.8125 -0.5 1.8125 -2 4 C-4.5863924 5.26152609 -7.25200829 6.15643045 -10 7 C-10 6.01 -10 5.02 -10 4 C-9.34 4 -8.68 4 -8 4 C-7.67 3.34 -7.34 2.68 -7 2 C-7 2.66 -7 3.32 -7 4 C-6.401875 3.34 -5.80375 2.68 -5.1875 2 C-3 0 -3 0 0 0 Z " fill="#F3B654" transform="translate(512,352)"/>
<path d="M0 0 C4.62 0 9.24 0 14 0 C14 0.33 14 0.66 14 1 C12.98679687 1.19916016 12.98679687 1.19916016 11.953125 1.40234375 C10.61507813 1.66724609 10.61507813 1.66724609 9.25 1.9375 C8.36828125 2.11152344 7.4865625 2.28554687 6.578125 2.46484375 C4.36764947 2.92368488 2.18487932 3.43336074 0 4 C0 2.68 0 1.36 0 0 Z " fill="#F5B958" transform="translate(458,244)"/>
<path d="M0 0 C4 0 4 0 6 1 C2.04 4.465 2.04 4.465 -2 8 C-2.66 7.67 -3.32 7.34 -4 7 C-3.525625 6.401875 -3.05125 5.80375 -2.5625 5.1875 C-0.83534256 2.99617076 -0.83534256 2.99617076 0 0 Z " fill="#742B0D" transform="translate(573,466)"/>
<path d="M0 0 C1.65 1.65 3.3 3.3 5 5 C3.0625 5.5625 3.0625 5.5625 1 6 C0.67 5.67 0.34 5.34 0 5 C-0.99 5.66 -1.98 6.32 -3 7 C-3.1875 4.625 -3.1875 4.625 -3 2 C-2.01 1.34 -1.02 0.68 0 0 Z " fill="#672806" transform="translate(381,409)"/>
<path d="M0 0 C0.99 0.33 1.98 0.66 3 1 C3 2.32 3 3.64 3 5 C3.66 5 4.32 5 5 5 C5.33 6.32 5.66 7.64 6 9 C3.5 7.625 3.5 7.625 1 6 C1 5.34 1 4.68 1 4 C0.01 3.67 -0.98 3.34 -2 3 C-1.34 2.67 -0.68 2.34 0 2 C0 1.34 0 0.68 0 0 Z " fill="#F1B252" transform="translate(370,395)"/>
<path d="M0 0 C3.25830729 2.17220486 4.79292769 3.30975898 5.9375 7.125 C5.958125 8.07375 5.97875 9.0225 6 10 C5.34 10.66 4.68 11.32 4 12 C2.66666667 8 1.33333333 4 0 0 Z " fill="#F2B758" transform="translate(545,278)"/>
<path d="M0 0 C0.66 0 1.32 0 2 0 C1.10783325 4.3121393 -0.84668201 6.99001464 -4 10 C-4.66 9.67 -5.32 9.34 -6 9 C-5.05016642 7.49460339 -4.08988109 5.99579653 -3.125 4.5 C-2.59132813 3.6646875 -2.05765625 2.829375 -1.5078125 1.96875 C-0.76144531 0.99421875 -0.76144531 0.99421875 0 0 Z " fill="#F1B458" transform="translate(324,129)"/>
<path d="M0 0 C3 2 3 2 5 5 C4.125 8.6875 4.125 8.6875 3 12 C2.34 11.67 1.68 11.34 1 11 C1.04125 10.0925 1.0825 9.185 1.125 8.25 C1.00468444 5.1217954 0.6085292 3.61385994 -1 1 C-0.67 0.67 -0.34 0.34 0 0 Z " fill="#672703" transform="translate(377,338)"/>
<path d="M0 0 C0.33 0.66 0.66 1.32 1 2 C0 5 0 5 -2.25 6.125 C-4.8273678 6.94507157 -7.33619068 7.54334697 -10 8 C-7.37518523 5.08353914 -4.27146762 3.13356584 -1 1 C-0.67 0.67 -0.34 0.34 0 0 Z " fill="#F1B358" transform="translate(420,328)"/>
<path d="M0 0 C1.79068573 2.6860286 2.66055791 4.6626589 3.625 7.6875 C3.88539063 8.49574219 4.14578125 9.30398437 4.4140625 10.13671875 C4.60742188 10.75160156 4.80078125 11.36648437 5 12 C4.01 12.495 4.01 12.495 3 13 C2.30093058 11.40084119 1.61610532 9.79544955 0.9375 8.1875 C0.55464844 7.29417969 0.17179688 6.40085938 -0.22265625 5.48046875 C-1 3 -1 3 0 0 Z " fill="#F0B353" transform="translate(192,173)"/>
<path d="M0 0 C0.66 0 1.32 0 2 0 C1.67 0.99 1.34 1.98 1 3 C0.34 3 -0.32 3 -1 3 C-1 3.66 -1 4.32 -1 5 C-0.34 5.33 0.32 5.66 1 6 C0.34 6 -0.32 6 -1 6 C-1.33 6.99 -1.66 7.98 -2 9 C-2.99 8.34 -3.98 7.68 -5 7 C-4.21654285 5.82780457 -3.42297164 4.66236332 -2.625 3.5 C-2.18414062 2.8503125 -1.74328125 2.200625 -1.2890625 1.53125 C-0.65097656 0.77328125 -0.65097656 0.77328125 0 0 Z " fill="#EEB24F" transform="translate(332,117)"/>
<path d="M0 0 C0.99 0.33 1.98 0.66 3 1 C0.36 3.64 -2.28 6.28 -5 9 C-5.33 8.01 -5.66 7.02 -6 6 C-4.02 4.02 -2.04 2.04 0 0 Z " fill="#CF8745" transform="translate(196,58)"/>
<path d="M0 0 C1.32 0.33 2.64 0.66 4 1 C4 1.66 4 2.32 4 3 C4.99 3.33 5.98 3.66 7 4 C7 6.31 7 8.62 7 11 C3.77304197 9.38652099 3.33776685 6.23293656 2 3 C1.34 2.01 0.68 1.02 0 0 Z " fill="#F7BB5A" transform="translate(400,426)"/>
<path d="M0 0 C0.33 0 0.66 0 1 0 C0.28571429 8.57142857 0.28571429 8.57142857 -3 12 C-2.88541307 10.56163249 -2.75790884 9.12429034 -2.625 7.6875 C-2.55539062 6.88699219 -2.48578125 6.08648437 -2.4140625 5.26171875 C-2 3 -2 3 0 0 Z " fill="#DDA147" transform="translate(558,395)"/>
<path d="M0 0 C0.66 0.66 1.32 1.32 2 2 C0.625 4 0.625 4 -1 6 C-1.66 6 -2.32 6 -3 6 C-3.33 6.99 -3.66 7.98 -4 9 C-4.66 8.67 -5.32 8.34 -6 8 C-2.25 1.125 -2.25 1.125 0 0 Z " fill="#632301" transform="translate(293,153)"/>
<path d="M0 0 C3.24299151 2.38957269 5.50902342 4.2047869 7 8 C5.68 8.33 4.36 8.66 3 9 C2.01 6.03 1.02 3.06 0 0 Z " fill="#F1B352" transform="translate(489,118)"/>
<path d="M0 0 C0.66 1.32 1.32 2.64 2 4 C0.25 6.0625 0.25 6.0625 -2 8 C-3.32 7.67 -4.64 7.34 -6 7 C-4.02 4.69 -2.04 2.38 0 0 Z " fill="#F1B652" transform="translate(482,271)"/>
<path d="M0 0 C2.31 0.66 4.62 1.32 7 2 C6.67 3.65 6.34 5.3 6 7 C1.125 3.375 1.125 3.375 0 0 Z " fill="#EFB54E" transform="translate(325,249)"/>
<path d="M0 0 C0.99 1.32 1.98 2.64 3 4 C0.82575883 6.50037734 -0.73045798 7.43628586 -4 8 C-2.87548273 5.0280615 -1.77706209 2.66559313 0 0 Z " fill="#682705" transform="translate(316,112)"/>
<path d="M0 0 C0.33 0 0.66 0 1 0 C1.1875 3.375 1.1875 3.375 1 7 C0.01 7.66 -0.98 8.32 -2 9 C-2 8.01 -2 7.02 -2 6 C-2.66 5.67 -3.32 5.34 -4 5 C-3.34 5 -2.68 5 -2 5 C-1.34 3.35 -0.68 1.7 0 0 Z " fill="#6B2B05" transform="translate(404,357)"/>
<path d="M0 0 C4.875 4.75 4.875 4.75 6 7 C3.625 6.6875 3.625 6.6875 1 6 C0.34 5.01 -0.32 4.02 -1 3 C-0.67 2.01 -0.34 1.02 0 0 Z " fill="#F5B758" transform="translate(539,270)"/>
<path d="M0 0 C1.65 0.33 3.3 0.66 5 1 C4.1875 2.9375 4.1875 2.9375 3 5 C2.01 5.33 1.02 5.66 0 6 C-1.125 2.25 -1.125 2.25 0 0 Z " fill="#EEB14E" transform="translate(598,266)"/>
<path d="M0 0 C0.33 0 0.66 0 1 0 C1.33 2.31 1.66 4.62 2 7 C-0.02045442 6.39816251 -2.02111039 5.72693904 -4 5 C-4.33 4.34 -4.66 3.68 -5 3 C-4.01 3 -3.02 3 -2 3 C-1.34 2.01 -0.68 1.02 0 0 Z " fill="#EFB346" transform="translate(389,180)"/>
<path d="M0 0 C1.32 0.66 2.64 1.32 4 2 C4 3.65 4 5.3 4 7 C2.02 6.01 0.04 5.02 -2 4 C-1.34 2.68 -0.68 1.36 0 0 Z " fill="#F1B54A" transform="translate(364,163)"/>
<path d="M0 0 C0.33 0.99 0.66 1.98 1 3 C-2.3 3.66 -5.6 4.32 -9 5 C-4.32258065 0 -4.32258065 0 0 0 Z " fill="#EFB34F" transform="translate(221,64)"/>
<path d="M0 0 C2.125 0.375 2.125 0.375 4 1 C4 2.65 4 4.3 4 6 C2.02 4.68 0.04 3.36 -2 2 C-1.34 1.34 -0.68 0.68 0 0 Z " fill="#EEB449" transform="translate(259,410)"/>
<path d="M0 0 C0.33 0.66 0.66 1.32 1 2 C1.99 2.33 2.98 2.66 4 3 C4.33 4.98 4.66 6.96 5 9 C4.01 9.495 4.01 9.495 3 10 C0.96564469 6.27034861 0 4.33094958 0 0 Z " fill="#E4AB4C" transform="translate(216,359)"/>
<path d="M0 0 C0.33 0.66 0.66 1.32 1 2 C0.0625 4.625 0.0625 4.625 -1 7 C-2.32 6.34 -3.64 5.68 -5 5 C-3.35 3.35 -1.7 1.7 0 0 Z " fill="#F2B74D" transform="translate(374,280)"/>
<path d="M0 0 C2.475 0.495 2.475 0.495 5 1 C5 1.66 5 2.32 5 3 C7.97 3 10.94 3 14 3 C14 3.33 14 3.66 14 4 C12.23050905 4.10815225 10.45912513 4.18566083 8.6875 4.25 C7.70136719 4.29640625 6.71523437 4.3428125 5.69921875 4.390625 C3 4 3 4 1.14453125 1.984375 C0.57798828 1.00210937 0.57798828 1.00210937 0 0 Z " fill="#F2B759" transform="translate(210,275)"/>
<path d="M0 0 C-1.25 2 -1.25 2 -3 4 C-4.32 4 -5.64 4 -7 4 C-7 3.01 -7 2.02 -7 1 C-4.53721199 -0.231394 -2.7204945 -0.07159196 0 0 Z " fill="#6B2A09" transform="translate(379,276)"/>
<path d="M0 0 C0.33 0 0.66 0 1 0 C1.66 2.97 2.32 5.94 3 9 C2.34 9 1.68 9 1 9 C1 8.01 1 7.02 1 6 C-0.32 6 -1.64 6 -3 6 C-2.67 5.01 -2.34 4.02 -2 3 C-1.34 3 -0.68 3 0 3 C0 2.01 0 1.02 0 0 Z " fill="#E8AC4A" transform="translate(452,430)"/>
<path d="M0 0 C0 1.98 0 3.96 0 6 C-0.86625 5.071875 -0.86625 5.071875 -1.75 4.125 C-3.80249821 2.18652947 -5.43366582 1.09985751 -8 0 C-4.94736336 -0.98120464 -3.05263664 -0.98120464 0 0 Z " fill="#EBB04B" transform="translate(407,354)"/>
<path d="M0 0 C1.65 0 3.3 0 5 0 C4.67 0.99 4.34 1.98 4 3 C1.4375 4.1875 1.4375 4.1875 -1 5 C-0.67 3.35 -0.34 1.7 0 0 Z " fill="#6B2C05" transform="translate(365,282)"/>
<path d="M0 0 C0.99 0.33 1.98 0.66 3 1 C-1.75 5.875 -1.75 5.875 -4 7 C-4 5.68 -4 4.36 -4 3 C-2.68 3 -1.36 3 0 3 C0 2.01 0 1.02 0 0 Z " fill="#EFB251" transform="translate(348,249)"/>
<path d="M0 0 C0.33 0.66 0.66 1.32 1 2 C-6.625 3.25 -6.625 3.25 -10 1 C-6.59437148 0.22157062 -3.49234244 -0.09978121 0 0 Z " fill="#BA7132" transform="translate(116,222)"/>
<path d="M0 0 C0.598125 0.350625 1.19625 0.70125 1.8125 1.0625 C-1.9375 4.0625 -1.9375 4.0625 -4.1875 4.0625 C-4.5175 2.7425 -4.8475 1.4225 -5.1875 0.0625 C-2.1875 -0.9375 -2.1875 -0.9375 0 0 Z " fill="#6A2B05" transform="translate(358.1875,92.9375)"/>
<path d="M0 0 C1.258125 -0.04125 2.51625 -0.0825 3.8125 -0.125 C4.52019531 -0.14820313 5.22789062 -0.17140625 5.95703125 -0.1953125 C8 0 8 0 11 2 C10.34 2 9.68 2 9 2 C8.67 2.66 8.34 3.32 8 4 C7.01 3.34 6.02 2.68 5 2 C3.34450469 1.61500109 1.6777567 1.27206865 0 1 C0 0.67 0 0.34 0 0 Z " fill="#743406" transform="translate(464,245)"/>
<path d="M0 0 C0.66 0.33 1.32 0.66 2 1 C1.875 2.8125 1.875 2.8125 1 5 C-2.0625 6.75 -2.0625 6.75 -5 8 C-4 5 -4 5 -1 3 C-0.67 2.01 -0.34 1.02 0 0 Z " fill="#BF7539" transform="translate(186,205)"/>
<path d="M0 0 C0.99 0.33 1.98 0.66 3 1 C1.35 2.98 -0.3 4.96 -2 7 C-2.66 5.68 -3.32 4.36 -4 3 C-3.01 2.67 -2.02 2.34 -1 2 C-0.67 1.34 -0.34 0.68 0 0 Z " fill="#F8BA5C" transform="translate(318,106)"/>
<path d="M0 0 C0.66 0.99 1.32 1.98 2 3 C0.68 4.32 -0.64 5.64 -2 7 C-2 6.34 -2 5.68 -2 5 C-2.66 4.67 -3.32 4.34 -4 4 C-2.68 2.68 -1.36 1.36 0 0 Z " fill="#EFB24F" transform="translate(209,70)"/>
<path d="M0 0 C2.31 0.66 4.62 1.32 7 2 C3.91190305 3.76462683 2.76687864 4 -1 4 C-0.67 2.68 -0.34 1.36 0 0 Z " fill="#692B03" transform="translate(321,447)"/>
<path d="M0 0 C2.31 1.65 4.62 3.3 7 5 C6.67 5.66 6.34 6.32 6 7 C4 7 4 7 1.875 5.1875 C0 3 0 3 0 0 Z " fill="#F0B557" transform="translate(248,384)"/>
<path d="M0 0 C1.9375 0.8125 1.9375 0.8125 4 2 C4.33 2.99 4.66 3.98 5 5 C3.35 5 1.7 5 0 5 C0 3.35 0 1.7 0 0 Z " fill="#F0B455" transform="translate(483,112)"/>
<path d="M0 0 C-1.24546405 3.73639216 -2.63404953 4.18756513 -6 6 C-6.66 5.34 -7.32 4.68 -8 4 C-2.25 0 -2.25 0 0 0 Z " fill="#C27C37" transform="translate(205,53)"/>
</svg>
